<svg width="694" height="451" viewBox="0 0 694 451" fill="none" xmlns="http://www.w3.org/2000/svg">
<path d="M693.802 387.742H0.197266V388.089H693.802V387.742Z" fill="#EBEBEB"/>
<path d="M624.3 410.068H578.355V410.415H624.3V410.068Z" fill="#EBEBEB"/>
<path d="M459.672 413.842H447.617V414.189H459.672V413.842Z" fill="#EBEBEB"/>
<path d="M576.97 397.191H550.35V397.538H576.97V397.191Z" fill="#EBEBEB"/>
<path d="M132.886 399.523H72.9727V399.87H132.886V399.523Z" fill="#EBEBEB"/>
<path d="M154.025 399.523H145.244V399.87H154.025V399.523Z" fill="#EBEBEB"/>
<path d="M312.53 405.378H182.576V405.725H312.53V405.378Z" fill="#EBEBEB"/>
<path d="M498.218 186.698H467.283V199.866H498.218V186.698Z" fill="#FAFAFA"/>
<path d="M460.792 186.698H429.857V199.866H460.792V186.698Z" fill="#FAFAFA"/>
<path d="M423.362 186.698H392.428V199.866H423.362V186.698Z" fill="#FAFAFA"/>
<path d="M516.933 205.027H485.998V218.195H516.933V205.027Z" fill="#FAFAFA"/>
<path d="M479.505 205.027H448.57V218.195H479.505V205.027Z" fill="#FAFAFA"/>
<path d="M442.081 205.027H411.146V218.195H442.081V205.027Z" fill="#FAFAFA"/>
<path d="M404.652 205.027H373.717V218.195H404.652V205.027Z" fill="#FAFAFA"/>
<path d="M577.261 223.357H546.326V236.525H577.261V223.357Z" fill="#FAFAFA"/>
<path d="M539.835 223.357H508.9V236.525H539.835V223.357Z" fill="#FAFAFA"/>
<path d="M460.792 223.357H429.857V236.525H460.792V223.357Z" fill="#FAFAFA"/>
<path d="M423.362 223.357H392.428V236.525H423.362V223.357Z" fill="#FAFAFA"/>
<path d="M385.937 223.357H355.002V236.525H385.937V223.357Z" fill="#FAFAFA"/>
<path d="M558.55 241.673H527.615V254.841H558.55V241.673Z" fill="#FAFAFA"/>
<path d="M479.505 241.673H448.57V254.841H479.505V241.673Z" fill="#FAFAFA"/>
<path d="M442.081 241.673H411.146V254.841H442.081V241.673Z" fill="#FAFAFA"/>
<path d="M404.652 241.673H373.717V254.841H404.652V241.673Z" fill="#FAFAFA"/>
<path d="M258.648 0H227.713V13.168H258.648V0Z" fill="#FAFAFA"/>
<path d="M221.222 0H190.287V13.168H221.222V0Z" fill="#FAFAFA"/>
<path d="M277.363 18.3296H246.428V31.4976H277.363V18.3296Z" fill="#FAFAFA"/>
<path d="M239.935 18.3296H209V31.4976H239.935V18.3296Z" fill="#FAFAFA"/>
<path d="M165.081 18.3296H134.146V31.4976H165.081V18.3296Z" fill="#FAFAFA"/>
<path d="M127.654 18.3296H96.7188V31.4976H127.654V18.3296Z" fill="#FAFAFA"/>
<path d="M221.222 36.6599H190.287V49.8279H221.222V36.6599Z" fill="#FAFAFA"/>
<path d="M561.935 107.259H531V120.427H561.935V107.259Z" fill="#FAFAFA"/>
<path d="M496.763 107.259H465.828V120.427H496.763V107.259Z" fill="#FAFAFA"/>
<path d="M580.661 125.589H549.727V138.757H580.661V125.589Z" fill="#FAFAFA"/>
<path d="M543.222 125.589H512.287V138.757H543.222V125.589Z" fill="#FAFAFA"/>
<path d="M223.872 88.7771H192.938V101.945H223.872V88.7771Z" fill="#FAFAFA"/>
<path d="M144.81 88.7771H113.875V101.945H144.81V88.7771Z" fill="#FAFAFA"/>
<path d="M242.583 107.093H211.648V120.261H242.583V107.093Z" fill="#FAFAFA"/>
<path d="M191.271 107.093H160.336V120.261H191.271V107.093Z" fill="#FAFAFA"/>
<path d="M561.935 143.918H531V157.086H561.935V143.918Z" fill="#FAFAFA"/>
<path d="M496.763 143.918H465.828V157.086H496.763V143.918Z" fill="#FAFAFA"/>
<path d="M146.366 36.6599H115.432V49.8279H146.366V36.6599Z" fill="#FAFAFA"/>
<path d="M584.616 0.499512H553.682V13.6675H584.616V0.499512Z" fill="#FAFAFA"/>
<path d="M547.187 0.499512H516.252V13.6675H547.187V0.499512Z" fill="#FAFAFA"/>
<path d="M565.903 18.8157H534.969V31.9837H565.903V18.8157Z" fill="#FAFAFA"/>
<path d="M416.945 0.790771H386.01V13.9588H416.945V0.790771Z" fill="#FAFAFA"/>
<path d="M379.515 0.790771H348.58V13.9588H379.515V0.790771Z" fill="#FAFAFA"/>
<path d="M435.655 19.1069H404.721V32.275H435.655V19.1069Z" fill="#FAFAFA"/>
<path d="M398.23 19.1069H367.295V32.275H398.23V19.1069Z" fill="#FAFAFA"/>
<path d="M360.802 19.1069H329.867V32.275H360.802V19.1069Z" fill="#FAFAFA"/>
<path d="M454.368 37.4368H423.434V50.6048H454.368V37.4368Z" fill="#FAFAFA"/>
<path d="M416.945 37.4368H386.01V50.6048H416.945V37.4368Z" fill="#FAFAFA"/>
<path d="M379.515 37.4368H348.58V50.6048H379.515V37.4368Z" fill="#FAFAFA"/>
<path d="M435.655 55.7668H404.721V68.9349H435.655V55.7668Z" fill="#FAFAFA"/>
<path d="M398.23 55.7668H367.295V68.9349H398.23V55.7668Z" fill="#FAFAFA"/>
<path d="M184.085 181.73H153.15V194.898H184.085V181.73Z" fill="#FAFAFA"/>
<path d="M146.646 181.73H115.711V194.898H146.646V181.73Z" fill="#FAFAFA"/>
<path d="M291.538 183.395H260.604V196.563H291.538V183.395Z" fill="#FAFAFA"/>
<path d="M202.8 200.046H171.865V213.214H202.8V200.046Z" fill="#FAFAFA"/>
<path d="M165.359 200.046H134.424V213.214H165.359V200.046Z" fill="#FAFAFA"/>
<path d="M310.253 201.725H279.318V214.893H310.253V201.725Z" fill="#FAFAFA"/>
<path d="M272.812 201.725H241.877V214.893H272.812V201.725Z" fill="#FAFAFA"/>
<path d="M372.136 142.476H341.201V155.644H372.136V142.476Z" fill="#FAFAFA"/>
<path d="M178.079 133.762H147.145V146.93H178.079V133.762Z" fill="#FAFAFA"/>
<path d="M329.948 77.4958H299.014V90.6639H329.948V77.4958Z" fill="#FAFAFA"/>
<path d="M353.423 124.159H322.488V137.327H353.423V124.159Z" fill="#FAFAFA"/>
<path d="M390.847 124.159H359.912V137.327H390.847V124.159Z" fill="#FAFAFA"/>
<path d="M531.361 374.324H500.426V387.492H531.361V374.324Z" fill="#FAFAFA"/>
<path d="M550.072 356.008H519.137V369.176H550.072V356.008Z" fill="#FAFAFA"/>
<path d="M184.085 218.375H153.15V231.543H184.085V218.375Z" fill="#FAFAFA"/>
<path d="M146.646 218.375H115.711V231.543H146.646V218.375Z" fill="#FAFAFA"/>
<path d="M202.8 236.705H171.865V249.873H202.8V236.705Z" fill="#FAFAFA"/>
<path d="M165.359 236.705H134.424V249.873H165.359V236.705Z" fill="#FAFAFA"/>
<path d="M242.82 287.393H211.885V300.561H242.82V287.393Z" fill="#FAFAFA"/>
<path d="M205.394 287.393H174.459V300.561H205.394V287.393Z" fill="#FAFAFA"/>
<path d="M167.952 287.393H137.018V300.561H167.952V287.393Z" fill="#FAFAFA"/>
<path d="M130.527 287.393H99.5918V300.561H130.527V287.393Z" fill="#FAFAFA"/>
<path d="M261.532 305.723H230.598V318.891H261.532V305.723Z" fill="#FAFAFA"/>
<path d="M224.109 305.723H193.174V318.891H224.109V305.723Z" fill="#FAFAFA"/>
<path d="M149.236 305.723H118.301V318.891H149.236V305.723Z" fill="#FAFAFA"/>
<path d="M280.243 324.039H249.309V337.207H280.243V324.039Z" fill="#FAFAFA"/>
<path d="M242.82 324.039H211.885V337.207H242.82V324.039Z" fill="#FAFAFA"/>
<path d="M205.394 324.039H174.459V337.207H205.394V324.039Z" fill="#FAFAFA"/>
<path d="M261.532 342.369H230.598V355.537H261.532V342.369Z" fill="#FAFAFA"/>
<path d="M224.109 342.369H193.174V355.537H224.109V342.369Z" fill="#FAFAFA"/>
<path d="M186.679 342.369H155.744V355.537H186.679V342.369Z" fill="#FAFAFA"/>
<path d="M496.03 286.547H465.096V299.715H496.03V286.547Z" fill="#FAFAFA"/>
<path d="M416.984 286.547H386.049V299.715H416.984V286.547Z" fill="#FAFAFA"/>
<path d="M379.56 286.547H348.625V299.715H379.56V286.547Z" fill="#FAFAFA"/>
<path d="M514.755 304.876H483.82V318.045H514.755V304.876Z" fill="#FAFAFA"/>
<path d="M435.695 304.876H404.76V318.045H435.695V304.876Z" fill="#FAFAFA"/>
<path d="M398.269 304.876H367.334V318.045H398.269V304.876Z" fill="#FAFAFA"/>
<path d="M360.841 304.876H329.906V318.045H360.841V304.876Z" fill="#FAFAFA"/>
<path d="M533.466 323.193H502.531V336.361H533.466V323.193Z" fill="#FAFAFA"/>
<path d="M496.03 323.193H465.096V336.361H496.03V323.193Z" fill="#FAFAFA"/>
<path d="M416.984 323.193H386.049V336.361H416.984V323.193Z" fill="#FAFAFA"/>
<path d="M379.56 323.193H348.625V336.361H379.56V323.193Z" fill="#FAFAFA"/>
<path d="M473.122 341.522H442.188V354.69H473.122V341.522Z" fill="#FAFAFA"/>
<path d="M435.695 341.522H404.76V354.69H435.695V341.522Z" fill="#FAFAFA"/>
<path d="M398.269 341.522H367.334V354.69H398.269V341.522Z" fill="#FAFAFA"/>
<path d="M360.841 341.522H329.906V354.69H360.841V341.522Z" fill="#FAFAFA"/>
<path d="M428.886 225.244L562.502 225.244V72.3755L428.886 72.3755V225.244Z" fill="#E0E0E0"/>
<path d="M429.138 225.244L557.607 225.244V72.3755L429.138 72.3755V225.244Z" fill="#E0E0E0"/>
<path d="M424.712 225.244L558.328 225.244V72.3755L424.712 72.3755V225.244Z" fill="#F0F0F0"/>
<path d="M430.786 218.209L552.5 218.209V77.2321L430.786 77.2321V218.209Z" fill="white"/>
<path d="M430.789 218.209H434.59V77.2321H430.789V218.209Z" fill="#E0E0E0"/>
<path d="M434.186 178.623V182.424H552.847V178.623H434.186Z" fill="#E0E0E0"/>
<path d="M430.788 178.607L554.541 178.607V172.225L430.788 172.225V178.607Z" fill="#F0F0F0"/>
<path d="M147.103 225.244L280.719 225.244V72.3755L147.103 72.3755L147.103 225.244Z" fill="#E0E0E0"/>
<path d="M147.368 225.244L275.838 225.244V72.3755L147.368 72.3755L147.368 225.244Z" fill="#E0E0E0"/>
<path d="M142.939 225.244L276.555 225.244V72.3755L142.939 72.3755L142.939 225.244Z" fill="#F0F0F0"/>
<path d="M149.003 218.209L270.717 218.209V77.2321L149.003 77.2321V218.209Z" fill="white"/>
<path d="M149 218.209H152.801L152.801 77.2321H149L149 218.209Z" fill="#E0E0E0"/>
<path d="M152.402 178.609V182.41H271.064V178.609H152.402Z" fill="#E0E0E0"/>
<path d="M149.003 178.607L272.756 178.607V172.225L149.003 172.225V178.607Z" fill="#F0F0F0"/>
<path d="M347.001 450.405C495.547 450.405 615.967 443.372 615.967 434.697C615.967 426.022 495.547 418.99 347.001 418.99C198.455 418.99 78.0352 426.022 78.0352 434.697C78.0352 443.372 198.455 450.405 347.001 450.405Z" fill="#F5F5F5"/>
<path d="M124.187 398.857C124.187 398.857 122.273 384.745 113.242 383.205C104.211 381.665 106.93 374.88 104.586 372.188C102.242 369.496 96.0962 377.336 101.354 384.898C106.611 392.46 102.311 390.074 104.586 397.095C106.861 404.116 125.047 410.568 124.187 398.857Z" fill="#263238"/>
<path opacity="0.2" d="M124.187 398.857C124.187 398.857 122.273 384.745 113.242 383.205C104.211 381.665 106.93 374.88 104.586 372.188C102.242 369.496 96.0962 377.336 101.354 384.898C106.611 392.46 102.311 390.074 104.586 397.095C106.861 404.116 125.047 410.568 124.187 398.857Z" fill="white"/>
<path d="M123.809 408.653C123.691 408.654 123.575 408.623 123.474 408.561C123.373 408.5 123.292 408.411 123.24 408.306C123.24 408.153 116.304 393.473 119.911 370.078C121.078 363.387 122.938 356.835 125.459 350.527C129.829 338.622 133.269 329.214 125.39 312.036C122.893 306.597 120.341 301.532 117.871 296.634C108.605 278.235 101.294 263.707 106.774 248.985C106.833 248.831 106.951 248.706 107.101 248.638C107.252 248.571 107.424 248.566 107.578 248.624C107.657 248.649 107.729 248.69 107.791 248.744C107.853 248.798 107.903 248.864 107.938 248.938C107.973 249.012 107.993 249.093 107.995 249.175C107.998 249.257 107.983 249.339 107.953 249.415C102.695 263.624 109.909 277.944 119.05 296.065C121.52 300.977 124.072 306.056 126.583 311.509C134.684 329.159 130.98 339.26 126.694 350.958C124.167 357.182 122.307 363.656 121.145 370.272C117.58 393.251 124.308 407.612 124.377 407.737C124.449 407.886 124.458 408.057 124.404 408.213C124.349 408.369 124.235 408.497 124.086 408.569C124.001 408.617 123.906 408.646 123.809 408.653Z" fill="#263238"/>
<path d="M118.609 405.226C118.609 405.226 112.769 396.428 121.189 391.905C129.609 387.381 131.302 391.031 136.448 387.742C141.595 384.454 145.604 376.642 146.492 381.651C147.379 386.66 141.373 389.574 143.495 391.877C145.618 394.18 129.387 409.166 118.609 405.226Z" fill="#263238"/>
<path d="M104.833 256.548C104.833 256.548 99.1597 239.272 112.088 238.912C125.017 238.551 110.757 254.702 104.833 256.548Z" fill="#263238"/>
<path d="M116.07 269.84C116.07 269.84 119.927 254.119 129.096 257.435C138.266 260.751 125.212 270.131 116.07 269.84Z" fill="#263238"/>
<path d="M100.505 271.201C100.505 271.201 101.892 258.713 92.1814 258.408C82.471 258.102 86.7436 269.244 100.505 271.201Z" fill="#263238"/>
<path d="M107.013 296.773C107.013 296.773 93.945 285.117 89.2424 293.79C84.5397 302.462 99.0777 304.266 107.013 296.773Z" fill="#263238"/>
<path d="M130.096 294.706C130.096 294.706 132.551 275.28 143.108 281.427C153.664 287.574 139.293 296.648 130.096 294.706Z" fill="#263238"/>
<path d="M139.387 322.416C139.387 322.416 131.59 302.865 146.073 305.071C160.555 307.277 149.61 317.67 139.387 322.416Z" fill="#263238"/>
<path d="M117.165 329.395C117.165 329.395 104.944 315.034 95.594 319.557C86.2442 324.081 93.8878 338.442 117.165 329.395Z" fill="#263238"/>
<path d="M128.262 361.323C128.262 361.323 138.68 338.178 147.946 345.977C157.213 353.775 142.037 365.43 128.262 361.323Z" fill="#263238"/>
<path d="M113.127 359.963C113.127 359.963 115.901 342.008 105.567 343.451C95.2319 344.894 97.9647 355.884 113.127 359.963Z" fill="#263238"/>
<g opacity="0.2">
<path d="M104.833 256.548C104.833 256.548 99.1597 239.272 112.088 238.912C125.017 238.551 110.757 254.702 104.833 256.548Z" fill="white"/>
<path d="M116.07 269.84C116.07 269.84 119.927 254.119 129.096 257.435C138.266 260.751 125.212 270.131 116.07 269.84Z" fill="white"/>
<path d="M100.505 271.201C100.505 271.201 101.892 258.713 92.1814 258.407C82.471 258.102 86.7436 269.244 100.505 271.201Z" fill="white"/>
<path d="M107.013 296.773C107.013 296.773 93.945 285.117 89.2424 293.79C84.5397 302.462 99.0777 304.266 107.013 296.773Z" fill="white"/>
<path d="M130.094 294.706C130.094 294.706 132.549 275.28 143.106 281.427C153.662 287.574 139.291 296.648 130.094 294.706Z" fill="white"/>
<path d="M139.387 322.416C139.387 322.416 131.59 302.865 146.073 305.071C160.555 307.277 149.61 317.67 139.387 322.416Z" fill="white"/>
<path d="M117.163 329.395C117.163 329.395 104.942 315.034 95.5921 319.557C86.2423 324.081 93.8858 338.442 117.163 329.395Z" fill="white"/>
<path d="M128.262 361.323C128.262 361.323 138.68 338.178 147.946 345.977C157.213 353.775 142.037 365.43 128.262 361.323Z" fill="white"/>
<path d="M113.127 359.963C113.127 359.963 115.901 342.008 105.567 343.451C95.2319 344.894 97.9647 355.884 113.127 359.963Z" fill="white"/>
</g>
<path d="M110.437 280.234C110.332 280.234 110.227 280.21 110.132 280.164C102.475 275.877 96.9675 267.773 96.7456 267.44C96.6985 267.372 96.6654 267.295 96.6483 267.214C96.6311 267.133 96.6303 267.05 96.6458 266.968C96.6613 266.887 96.6928 266.81 96.7385 266.741C96.7842 266.671 96.8432 266.612 96.912 266.566C97.0507 266.475 97.2196 266.441 97.3828 266.472C97.546 266.503 97.6906 266.597 97.786 266.733C101.111 271.497 105.321 275.577 110.188 278.749C111.353 276.584 115.556 269.119 119.066 267.01C119.207 266.924 119.378 266.897 119.539 266.936C119.619 266.955 119.694 266.99 119.76 267.039C119.827 267.087 119.883 267.148 119.926 267.218C119.969 267.288 119.997 267.366 120.01 267.448C120.023 267.529 120.019 267.612 120 267.692C119.981 267.771 119.946 267.847 119.897 267.913C119.849 267.98 119.788 268.036 119.718 268.079C115.986 270.313 111.034 279.804 110.992 279.901C110.953 279.974 110.9 280.039 110.836 280.091C110.771 280.143 110.697 280.183 110.618 280.206C110.56 280.228 110.499 280.237 110.437 280.234Z" fill="#263238"/>
<path d="M122.27 304.252C122.134 304.255 122.002 304.211 121.895 304.127C111.006 295.899 97.0921 296.246 96.9256 296.246C96.7606 296.243 96.6025 296.179 96.4821 296.066C96.3616 295.953 96.2873 295.8 96.2736 295.635C96.2718 295.553 96.2861 295.472 96.3158 295.395C96.3454 295.319 96.3899 295.249 96.4466 295.19C96.5033 295.13 96.5711 295.083 96.6461 295.05C96.7212 295.017 96.802 294.999 96.884 294.997C97.0227 294.997 110.909 294.636 122.062 302.712C123.518 300.395 129.109 291.972 136.295 287.74C136.438 287.655 136.609 287.631 136.771 287.673C136.932 287.714 137.07 287.818 137.155 287.962C137.239 288.105 137.263 288.277 137.222 288.438C137.18 288.599 137.076 288.738 136.933 288.822C129.012 293.484 122.839 303.836 122.783 303.947C122.737 304.021 122.677 304.086 122.605 304.136C122.534 304.186 122.453 304.221 122.367 304.238L122.27 304.252Z" fill="#263238"/>
<path d="M129.83 335.986C129.718 335.987 129.608 335.958 129.51 335.903C129.358 335.806 113.447 326.662 101.947 326.44C101.795 326.417 101.657 326.341 101.557 326.225C101.457 326.109 101.402 325.961 101.402 325.808C101.402 325.655 101.457 325.507 101.557 325.391C101.657 325.275 101.795 325.199 101.947 325.177C112.906 325.399 127.18 333.155 129.691 334.598C137.071 328.368 142.939 313.091 142.994 312.938C143.02 312.858 143.063 312.784 143.118 312.72C143.174 312.656 143.242 312.605 143.318 312.568C143.395 312.532 143.478 312.511 143.562 312.508C143.647 312.504 143.731 312.518 143.81 312.548C143.889 312.578 143.961 312.624 144.022 312.683C144.083 312.742 144.131 312.812 144.164 312.89C144.196 312.968 144.213 313.052 144.212 313.137C144.211 313.221 144.193 313.305 144.159 313.383C143.91 314.035 137.945 329.589 130.149 335.847C130.056 335.921 129.946 335.969 129.83 335.986Z" fill="#263238"/>
<path d="M120.62 368.788C120.508 368.787 120.399 368.758 120.301 368.705C114.294 365.264 106.526 350.209 106.207 349.57C106.129 349.423 106.114 349.251 106.163 349.093C106.213 348.934 106.323 348.801 106.47 348.724C106.617 348.647 106.789 348.631 106.948 348.68C107.107 348.73 107.239 348.84 107.316 348.988C107.316 349.14 114.821 363.557 120.467 367.331C125.063 361.963 131.145 358.077 137.946 356.161C138.104 356.114 138.275 356.131 138.42 356.209C138.566 356.287 138.675 356.42 138.723 356.578C138.771 356.738 138.754 356.91 138.676 357.058C138.598 357.206 138.466 357.317 138.307 357.369C131.584 359.23 125.592 363.103 121.133 368.469C121.08 368.56 121.005 368.636 120.916 368.692C120.826 368.747 120.725 368.78 120.62 368.788Z" fill="#263238"/>
<path d="M119.497 403.117C119.497 403.117 114.489 395.152 108.843 394.014C103.197 392.876 100.755 386.369 98.6746 390.282C96.5937 394.195 102.337 407.182 119.497 403.117Z" fill="#263238"/>
<path d="M99.1223 434.379H140.85L143.638 400.675H96.334L99.1223 434.379Z" fill="#6776FF"/>
<path d="M95.3449 407.057H144.605L145.243 399.911H94.7207L95.3449 407.057Z" fill="#6776FF"/>
<path opacity="0.3" d="M95.3449 407.057H144.605L145.243 399.911H94.7207L95.3449 407.057Z" fill="white"/>
<path d="M389.267 146.333L387.159 146.735C386.993 146.747 386.828 146.709 386.684 146.627C386.539 146.546 386.422 146.423 386.347 146.275C386.271 146.127 386.241 145.961 386.26 145.796C386.278 145.631 386.345 145.475 386.451 145.348H386.535C385.938 145.611 385.342 145.875 384.717 146.111C384.666 147.035 384.666 147.962 384.717 148.886L398.326 219.291L347.637 229.115C347.652 229.216 347.652 229.319 347.637 229.42C347.616 229.64 347.51 229.843 347.342 229.985C347.173 230.128 346.956 230.199 346.736 230.184C345.917 230.031 345.085 229.878 344.253 229.767L277.139 242.783C277.128 242.901 277.09 243.014 277.028 243.116C276.775 243.542 276.492 243.95 276.182 244.337C276.221 244.585 276.193 244.839 276.099 245.072C275.58 246.63 274.906 248.131 274.087 249.554C273.822 249.929 273.426 250.191 272.978 250.289C272.686 250.35 272.383 250.326 272.104 250.22C271.786 250.906 271.553 251.628 271.41 252.371L378.947 231.557L379.044 231.432C379.671 230.841 380.413 230.386 381.225 230.097C382.037 229.808 382.901 229.691 383.76 229.753C384.372 229.037 385.099 228.428 385.91 227.95C386.276 227.709 386.696 227.564 387.132 227.528C387.569 227.492 388.007 227.565 388.407 227.741C388.94 228.057 389.347 228.547 389.559 229.129C390.618 228.999 391.683 228.925 392.749 228.907L408.009 225.938L393.096 149.025C391.62 148.453 390.305 147.529 389.267 146.333Z" fill="#6776FF"/>
<path d="M250.252 45.7203L250.751 45.8174L260.781 43.8749C261.89 43.3892 262.986 42.8758 264.054 42.4179C266.073 41.4636 268.241 40.8673 270.463 40.6557C271.788 40.5945 273.112 40.7925 274.361 41.2385L360.618 24.5183L368.622 65.7845C368.715 65.6522 368.844 65.5493 368.994 65.488C369.144 65.4268 369.308 65.4097 369.467 65.4389C369.626 65.4682 369.774 65.5424 369.892 65.6528C370.01 65.7633 370.094 65.9053 370.134 66.0621C370.6 67.8766 370.851 69.7394 370.883 71.6124C370.84 72.5118 370.633 73.3957 370.273 74.221L383.882 144.474C384.7 144.168 385.505 143.835 386.309 143.475C386.389 142.991 386.567 142.528 386.832 142.116C387.097 141.703 387.443 141.348 387.849 141.074C388.43 140.799 389.092 140.75 389.708 140.935C390.028 140.207 390.261 139.443 390.401 138.66C390.597 137.706 390.685 136.733 390.665 135.76L390.124 132.915C390.124 132.762 389.999 132.624 389.93 132.485C389.873 132.378 389.843 132.259 389.843 132.138C389.843 132.017 389.873 131.898 389.93 131.791L375.614 57.9448C375.531 57.958 375.447 57.958 375.364 57.9448C374.863 57.9983 374.356 57.9142 373.899 57.7015C373.442 57.4888 373.052 57.1556 372.77 56.7376C372.375 55.9285 372.254 55.0132 372.423 54.129C372.562 53.0883 372.825 52.0615 373.034 51.0347C373.257 50.1277 373.323 49.1889 373.228 48.2596C373.194 48.1025 373.211 47.9388 373.276 47.7918C373.34 47.6448 373.45 47.522 373.588 47.4409L367.235 14.6804L242.844 38.9074C240.534 40.2512 237.9 40.9374 235.228 40.8916C235.102 40.8836 234.98 40.8438 234.873 40.7759C234.766 40.708 234.679 40.6141 234.618 40.5031L172.901 52.4778C172.865 52.6383 172.784 52.7856 172.669 52.9032C172.554 53.0209 172.409 53.1041 172.249 53.1438L169.003 53.7682C168.99 54.2615 168.841 54.7417 168.573 55.1558C168.551 55.3495 168.457 55.5278 168.309 55.6553C168.096 55.8295 167.892 56.0148 167.699 56.2103C167.324 56.5572 166.964 56.9319 166.575 57.2649C166.443 57.3917 166.281 57.4825 166.104 57.5285C165.959 57.5535 165.811 57.5412 165.672 57.4926C165.534 57.444 165.41 57.3609 165.313 57.251C165.169 57.0808 165.095 56.8629 165.105 56.6405C165.097 56.562 165.097 56.483 165.105 56.4046C164.605 56.4046 164.106 56.4046 163.62 56.2797C163.402 56.2552 163.202 56.1482 163.06 55.9805C162.918 55.8128 162.846 55.5971 162.858 55.3778C162.875 55.1593 162.978 54.9566 163.145 54.8137C163.311 54.6708 163.527 54.5993 163.745 54.6146C164.269 54.6907 164.797 54.7324 165.327 54.7395H165.743C165.803 54.7464 165.863 54.7464 165.923 54.7395C165.515 54.6812 165.142 54.4795 164.869 54.1706C164.865 54.1337 164.865 54.0965 164.869 54.0596L129.134 60.9974C129.3 60.9994 129.462 61.0423 129.606 61.1223C129.785 61.2485 129.907 61.4388 129.949 61.6535C129.99 61.8682 129.947 62.0905 129.828 62.274C129.542 62.6542 129.222 63.0073 128.871 63.3286L128.774 63.4396C128.774 63.3702 128.857 63.4396 128.774 63.4396C128.714 63.5102 128.658 63.5843 128.607 63.6616C128.607 63.6616 128.607 63.7726 128.607 63.8142C128.601 63.8602 128.601 63.9069 128.607 63.953C128.601 63.9803 128.601 64.0089 128.607 64.0362C128.589 64.1789 128.536 64.3148 128.451 64.4315C128.367 64.5481 128.255 64.6418 128.125 64.7039C127.996 64.766 127.853 64.7946 127.709 64.787C127.565 64.7795 127.426 64.736 127.303 64.6606C127.23 64.6207 127.15 64.5927 127.068 64.5774C126.982 64.5434 126.894 64.5155 126.804 64.4941C126.806 64.8852 126.701 65.2693 126.499 65.6042C126.42 65.7195 126.311 65.8113 126.184 65.8699C126.057 65.9285 125.916 65.9518 125.777 65.9372C125.638 66.7182 125.376 67.4722 125.001 68.1712C124.582 68.8851 124.014 69.5004 123.336 69.975C123.47 70.1551 123.582 70.3508 123.669 70.5578L176.799 60.262V60.1788C177.024 59.8014 177.316 59.4677 177.659 59.1936C177.887 59.0246 178.151 58.9104 178.43 58.8598C178.709 58.8093 178.996 58.8238 179.268 58.9022C179.704 59.0373 180.113 59.2487 180.475 59.5266L249.267 46.1921C249.347 46.0079 249.49 45.8587 249.671 45.772C249.852 45.6854 250.058 45.667 250.252 45.7203Z" fill="#6776FF"/>
<path d="M157.742 265.969L145.257 201.655C145.148 201.78 145.003 201.869 144.843 201.912C144.682 201.954 144.512 201.947 144.356 201.891C144.148 201.819 143.978 201.667 143.882 201.47C143.786 201.272 143.771 201.045 143.842 200.837C144.05 200.226 144.365 199.658 144.772 199.158L128.417 114.641L128.264 114.377C127.931 113.691 127.693 112.963 127.557 112.213C127.27 112.192 126.983 112.192 126.696 112.213C126.571 112.234 126.442 112.226 126.319 112.191C126.197 112.155 126.084 112.092 125.989 112.007C125.895 111.921 125.821 111.816 125.772 111.698C125.724 111.58 125.703 111.452 125.712 111.325C125.695 109.724 126.107 108.148 126.905 106.76L120.274 72.57C120.163 72.3877 120.066 72.1976 119.982 72.0011L119.649 71.3767C119.513 71.3732 119.38 71.3326 119.266 71.2593C119.151 71.1859 119.058 71.0826 118.997 70.9605C118.901 70.7634 118.886 70.5362 118.956 70.3284C119.027 70.1205 119.176 69.9487 119.372 69.8504C119.719 69.7158 120.035 69.5129 120.301 69.2537C120.49 69.0383 120.645 68.7949 120.759 68.5322C120.977 67.9456 121.094 67.3263 121.106 66.7006C120.898 66.4182 120.747 66.0977 120.662 65.7571C120.599 65.291 120.642 64.8168 120.787 64.3695C120.816 64.2525 120.879 64.1464 120.967 64.0642C120.967 63.537 120.884 63.0097 120.856 62.4824L110.244 64.536L140.527 220.804C140.678 220.723 140.854 220.701 141.02 220.742C141.187 220.783 141.332 220.884 141.429 221.026C142.213 221.875 142.644 222.992 142.635 224.148C142.594 224.376 142.529 224.599 142.441 224.814C142.581 224.915 142.684 225.06 142.734 225.225C142.784 225.391 142.779 225.568 142.719 225.73C142.313 226.525 142.181 227.433 142.344 228.311C142.518 229.137 142.755 229.949 143.052 230.739C143.575 232.067 143.643 233.531 143.246 234.902L151.153 275.738L153.4 275.294C154.664 274.877 155.952 274.539 157.257 274.281C157.237 274.185 157.238 274.086 157.26 273.99C157.281 273.894 157.323 273.804 157.382 273.726C157.711 273.345 158.063 272.983 158.436 272.643C158.401 272.502 158.401 272.355 158.436 272.213C158.669 271.253 159.209 270.395 159.976 269.771C160.671 269.259 161.529 269.017 162.389 269.091C163.218 269.196 164.014 269.483 164.719 269.931C165.425 270.38 166.022 270.979 166.468 271.686C168.743 271.131 171.198 270.299 173.404 271.422L259.633 254.772C259.659 254.546 259.705 254.323 259.771 254.106C260.124 252.981 260.782 251.977 261.672 251.206C261.805 251.092 261.971 251.023 262.146 251.011C262.321 250.998 262.495 251.042 262.643 251.136C262.71 251.027 262.804 250.937 262.916 250.875C263.027 250.812 263.153 250.779 263.281 250.779C263.409 250.779 263.535 250.812 263.647 250.875C263.758 250.937 263.852 251.027 263.919 251.136L264.266 251.552L264.419 251.691L264.682 251.872L264.973 252.01C264.71 251.208 264.71 250.343 264.973 249.54C265.136 249.089 265.39 248.676 265.719 248.328C266.049 247.979 266.446 247.702 266.888 247.515C266.806 247.404 266.753 247.274 266.734 247.137C266.716 247 266.732 246.861 266.782 246.732C266.832 246.603 266.914 246.489 267.019 246.4C267.125 246.311 267.252 246.251 267.387 246.224C267.568 246.202 267.751 246.238 267.909 246.328C268.067 246.418 268.192 246.557 268.266 246.724C268.339 246.891 268.356 247.076 268.316 247.254C268.275 247.431 268.178 247.591 268.039 247.709L268.136 247.82C268.233 248.017 268.247 248.244 268.177 248.452C268.107 248.66 267.958 248.832 267.762 248.93L267.443 249.083L267.262 249.18L267.165 249.249L266.943 249.443L266.86 249.54L266.721 249.749V249.832C266.69 249.904 266.662 249.979 266.638 250.054C266.914 249.69 267.236 249.364 267.595 249.083C267.836 248.916 268.097 248.781 268.372 248.68C269.052 247.182 269.69 245.655 270.328 244.157L157.742 265.969Z" fill="#6776FF"/>
<path d="M178.246 201.253C178.393 201.091 178.567 200.955 178.759 200.85L203.812 151.342L192.298 153.576L182.199 173.349C182.262 173.363 182.323 173.387 182.379 173.418C182.558 173.544 182.681 173.735 182.722 173.949C182.764 174.164 182.72 174.386 182.601 174.57C182.366 174.917 182.185 175.291 181.977 175.652C182.158 175.763 182.324 175.902 182.504 175.999C182.641 176.092 182.747 176.223 182.809 176.376C182.87 176.53 182.885 176.698 182.851 176.859C182.817 177.02 182.737 177.166 182.622 177.282C182.506 177.398 182.359 177.478 182.199 177.512L181.922 177.664H181.852H181.769L181.228 177.914H181.103L180.909 178.067L180.479 178.441L180.257 178.677L180.16 178.788L179.772 179.288C179.494 179.662 179.244 180.051 178.981 180.439C178.852 180.621 178.658 180.745 178.44 180.786L163.666 209.731L165.053 217.196L171.615 215.919C171.825 215.297 172.176 214.732 172.641 214.268C172.861 214.062 173.103 213.88 173.363 213.727C173.356 213.676 173.356 213.625 173.363 213.574C173.674 210.214 174.766 206.974 176.553 204.111C176.464 203.973 176.417 203.811 176.417 203.646C176.417 203.482 176.464 203.32 176.553 203.182C176.78 202.787 176.867 202.328 176.803 201.877C176.805 201.711 176.854 201.548 176.946 201.41C177.038 201.271 177.169 201.162 177.321 201.096C177.474 201.03 177.643 201.01 177.807 201.037C177.971 201.065 178.123 201.14 178.246 201.253Z" fill="#6776FF"/>
<path d="M221.403 196.854C221.388 197.062 221.331 197.265 221.236 197.451C220.825 198.257 220.156 198.901 219.336 199.283C219.169 199.532 218.989 199.768 218.836 200.004C218.746 200.13 218.621 200.227 218.475 200.282C218.475 200.406 218.378 200.545 218.351 200.67C218.318 200.778 218.264 200.878 218.192 200.964C218.119 201.05 218.03 201.121 217.93 201.172C217.829 201.223 217.72 201.253 217.607 201.26C217.495 201.267 217.382 201.251 217.276 201.214C217.17 201.176 217.073 201.118 216.99 201.041C216.907 200.965 216.841 200.873 216.795 200.77C216.749 200.667 216.724 200.556 216.722 200.444C216.72 200.331 216.741 200.219 216.783 200.115C216.92 199.639 217.096 199.174 217.31 198.727L216.52 198.88C216.305 198.917 216.084 198.87 215.903 198.749C215.722 198.627 215.595 198.441 215.548 198.228C215.527 198.165 215.527 198.097 215.548 198.034L215.063 198.131L211.928 181.827L201.912 183.769L205.047 199.976L180.258 204.777C180.091 204.861 179.939 204.985 179.772 205.083V205.194C179.833 205.373 179.832 205.568 179.767 205.746C179.703 205.924 179.58 206.075 179.418 206.173C179.256 206.272 179.066 206.312 178.878 206.288C178.69 206.264 178.516 206.176 178.385 206.04C177.923 206.438 177.5 206.879 177.123 207.358C177.268 207.317 177.421 207.317 177.566 207.359C177.71 207.401 177.841 207.482 177.941 207.594C178.018 207.67 178.08 207.761 178.122 207.861C178.163 207.961 178.185 208.068 178.185 208.177C178.185 208.285 178.163 208.393 178.122 208.493C178.08 208.593 178.018 208.683 177.941 208.76L177.275 209.315C177.36 209.455 177.404 209.616 177.404 209.779C177.404 209.943 177.36 210.104 177.275 210.244V210.341C177.269 210.392 177.269 210.443 177.275 210.494C177.275 210.688 177.275 210.896 177.275 211.105C177.246 211.477 177.084 211.827 176.818 212.09C176.515 212.35 176.144 212.519 175.749 212.575H175.652C175.691 212.99 175.751 213.402 175.833 213.81C176.021 214.187 176.17 214.582 176.277 214.99L206.643 209.106L210.055 227.617L220.404 225.619L216.852 207.275L231.016 204.5L229.24 195.342L221.403 196.854Z" fill="#6776FF"/>
<path d="M281.527 146.902L280.861 147.485C280.542 147.762 280.237 148.04 279.946 148.331L279.571 148.748L279.363 148.997C279.125 149.343 278.77 149.591 278.363 149.694C277.956 149.798 277.526 149.751 277.151 149.561C276.777 149.371 276.484 149.052 276.327 148.662C276.17 148.273 276.159 147.84 276.298 147.443L276.686 145.972C276.686 145.972 276.575 145.861 276.533 145.778C276.421 145.57 276.363 145.335 276.367 145.098C276.34 144.873 276.368 144.644 276.45 144.432C276.45 144.266 276.575 144.099 276.644 143.933C276.341 143.639 276.088 143.296 275.895 142.92V142.809C270.044 139.73 263.298 138.807 256.835 140.2C239.356 143.586 229.091 159.973 233.752 184.269C238.413 208.566 254.144 219.916 271.623 216.53C273.193 216.231 274.738 215.809 276.242 215.268C276.728 214.574 277.213 213.88 277.629 213.2C277.794 212.962 278.016 212.77 278.274 212.64C278.533 212.511 278.82 212.449 279.109 212.46C279.398 212.471 279.68 212.555 279.928 212.704C280.176 212.853 280.383 213.061 280.529 213.311C292.278 206.762 298.382 192.234 294.553 172.475C292.375 161.014 287.687 152.411 281.527 146.902ZM269.792 207.053C258.07 209.329 248.109 201.309 244.406 182.216C240.702 163.123 246.944 151.967 258.666 149.705C261.746 149.039 264.949 149.223 267.932 150.237C270.916 151.252 273.568 153.058 275.604 155.463C275.801 155.323 276.022 155.22 276.256 155.158C276.71 155.076 277.177 155.176 277.559 155.435C277.94 155.695 278.204 156.094 278.295 156.546C278.442 157.426 278.466 158.323 278.364 159.21C281.118 163.922 282.998 169.093 283.913 174.473C287.645 193.635 281.402 204.805 269.792 207.053Z" fill="#6776FF"/>
<path d="M357.473 170.477L354.338 154.27L344.309 156.212L347.458 172.419L318.784 177.969L346.209 123.771L334.695 125.991L324.388 146.194C324.291 148.716 323.781 151.206 322.876 153.562C322.813 153.718 322.704 153.851 322.565 153.945C322.425 154.039 322.261 154.089 322.093 154.089C321.924 154.089 321.76 154.039 321.62 153.945C321.481 153.851 321.372 153.718 321.309 153.562C321.032 155.713 320.022 157.702 318.451 159.196C318.349 159.291 318.222 159.356 318.084 159.383C317.947 159.41 317.805 159.398 317.674 159.348L306.008 182.215L307.395 189.68L324.652 186.336C326.124 185.165 327.864 184.379 329.715 184.047C331.341 183.671 333 183.452 334.668 183.395C335.918 183.299 337.176 183.393 338.399 183.672L348.859 181.646L352.41 199.976L362.745 197.978L359.193 179.648L373.371 176.873L371.595 167.715L357.473 170.477Z" fill="#6776FF"/>
<path d="M166.803 126.061L165.166 117.625L182.09 114.35L180.813 107.787L163.89 111.062L162.364 103.139L181.521 99.4339L180.134 92.6626L152.598 98.0047L154.956 110.16C155.376 110.375 155.749 110.672 156.052 111.034C156.575 111.695 156.889 112.497 156.953 113.337C157.134 115.072 156.704 116.862 156.953 118.541C156.987 118.681 156.979 118.828 156.93 118.964C156.88 119.1 156.792 119.218 156.676 119.304L159.728 134.456L187.944 128.989L186.64 122.162L166.803 126.061Z" fill="#6776FF"/>
<path d="M216.489 111.297C218.536 109.999 220.142 108.111 221.095 105.882C222.049 103.653 222.305 101.187 221.83 98.8092C221.69 98.9555 221.504 99.0487 221.303 99.0729C221.14 99.0838 220.978 99.0461 220.838 98.9646C220.697 98.883 220.583 98.7613 220.512 98.615C220.323 98.1724 220.196 97.7052 220.137 97.2274C220.137 97.158 220.137 97.1025 220.137 97.0331C219.881 96.7054 219.697 96.3271 219.596 95.9231C219.563 95.7068 219.613 95.486 219.737 95.3056C219.861 95.1252 220.049 94.9986 220.262 94.9518C220.347 94.93 220.435 94.9262 220.521 94.9405C220.607 94.9548 220.689 94.987 220.762 95.035C218.112 89.1101 211.731 86.4737 203.38 88.0972L187.607 91.1498L189.744 102.153C189.912 102.225 190.047 102.359 190.118 102.528C191.461 105.255 192.297 108.202 192.587 111.228C192.621 111.444 192.57 111.665 192.447 111.845C192.323 112.026 192.135 112.152 191.922 112.199C191.844 112.213 191.764 112.213 191.686 112.199L194.668 127.712L203.103 126.075L201.133 115.932L208.887 114.419L217.876 123.217L226.935 121.454L216.489 111.297ZM206.695 107.842L199.759 109.23L197.29 96.5336L204.226 95.1461C209.373 94.147 212.438 95.9786 213.215 99.9887C213.992 103.999 211.856 106.899 206.695 107.842Z" fill="#6776FF"/>
<path d="M254.765 103.874C256.881 102.53 258.524 100.559 259.467 98.2356C260.409 95.9124 260.603 93.3529 260.022 90.914C258.441 82.7413 251.38 78.87 241.642 80.7571L225.869 83.8236L232.93 120.261L241.364 118.638L239.394 108.481L247.149 106.968L256.152 115.765L265.21 114.003L254.765 103.874ZM244.971 100.433L238.035 101.82L235.58 89.1102L242.446 87.7226C242.876 87.6394 243.293 87.5839 243.681 87.5423L243.944 87.3202C243.969 87.1125 244.016 86.9078 244.083 86.7097C244.174 86.4691 244.337 86.263 244.552 86.121C244.766 85.979 245.019 85.9083 245.276 85.9188C245.769 85.9678 246.243 86.1292 246.663 86.3906C246.736 86.3034 246.825 86.2325 246.927 86.1825C246.933 85.9162 246.965 85.6512 247.024 85.3915C247.105 85.1932 247.259 85.0336 247.454 84.946C247.649 84.8583 247.871 84.8492 248.073 84.9206C248.275 84.9921 248.441 85.1385 248.538 85.3296C248.634 85.5207 248.654 85.7416 248.592 85.9465C248.425 86.5848 248.73 87.1537 248.675 87.8059C248.656 87.9611 248.609 88.1115 248.536 88.2499C249.316 88.7027 249.982 89.3285 250.482 90.079C250.982 90.8295 251.304 91.6848 251.422 92.5791C252.254 96.5337 250.118 99.4337 244.971 100.433Z" fill="#6776FF"/>
<path d="M294.676 73.7216L294.246 73.8326C294.144 73.8674 294.046 73.914 293.955 73.9714C293.912 73.9961 293.874 74.0291 293.844 74.0685C293.721 74.2152 293.557 74.3215 293.372 74.3738C293.264 74.393 293.154 74.3906 293.046 74.3668C292.939 74.343 292.838 74.2982 292.748 74.2351C292.655 74.1784 292.575 74.1017 292.515 74.0105C292.455 73.9193 292.416 73.8159 292.401 73.7078C292.359 73.4913 292.404 73.2667 292.526 73.0834C292.526 73.0834 292.609 73.014 292.637 72.9724C289.086 71.8399 285.304 71.6345 281.65 72.3757C270.137 74.6097 263.27 84.2672 265.365 95.0902C267.459 105.913 277.447 112.31 288.947 110.076C300.447 107.842 307.342 98.24 305.233 87.3614C304.715 84.4006 303.483 81.6109 301.643 79.2341C299.804 76.8573 297.412 74.9651 294.676 73.7216ZM287.574 102.861C284.482 103.46 281.278 102.807 278.667 101.044C276.056 99.281 274.253 96.5529 273.653 93.4598C273.054 90.3667 273.707 87.162 275.469 84.5507C277.232 81.9394 279.959 80.1354 283.052 79.5356C284.609 79.2303 286.211 79.2303 287.768 79.5356C287.768 79.3413 287.893 79.147 287.962 78.9805C288.031 78.7919 288.166 78.6347 288.342 78.5378C288.518 78.4409 288.723 78.4109 288.919 78.4532C289.074 78.4805 289.216 78.5553 289.325 78.6673C289.434 78.7793 289.506 78.9228 289.53 79.0777L290.015 78.9528C290.126 78.6059 290.237 78.2729 290.334 77.926C290.432 77.5791 290.445 77.5236 290.487 77.3293C290.517 77.2339 290.54 77.1365 290.556 77.0379V76.9408L290.64 76.4413V76.2609C290.556 75.7059 291.139 75.0398 291.736 75.3312L293.386 76.1221C293.59 76.2031 293.755 76.3587 293.848 76.5573C293.941 76.7558 293.954 76.9823 293.886 77.1906C293.788 77.3975 293.705 77.6107 293.636 77.8288C293.636 77.8982 293.636 77.9815 293.567 78.0509C293.567 78.0509 293.567 78.0509 293.567 78.148C293.539 78.4804 293.539 78.8146 293.567 79.147C293.597 79.936 293.55 80.7259 293.428 81.5059C293.466 81.5958 293.486 81.6926 293.486 81.7903C293.486 81.8881 293.466 81.9849 293.428 82.0748C293.399 82.1697 293.347 82.2556 293.275 82.3246C295.089 84.1199 296.305 86.4313 296.757 88.9433C297.136 90.4643 297.195 92.0474 296.931 93.5925C296.667 95.1376 296.084 96.6109 295.221 97.9192C294.358 99.2275 293.232 100.342 291.916 101.193C290.6 102.043 289.121 102.611 287.574 102.861Z" fill="#6776FF"/>
<path d="M342.366 76.0254C342.32 76.0193 342.273 76.0193 342.227 76.0254C341.896 75.9084 341.59 75.7294 341.326 75.4981C341.2 75.7134 341.056 75.9177 340.896 76.1087C340.767 76.2845 340.577 76.4052 340.364 76.4464C340.15 76.4876 339.929 76.4462 339.744 76.3307C339.563 76.2069 339.438 76.0163 339.396 75.8006C339.354 75.5848 339.4 75.3614 339.522 75.179C340.341 74.0624 340.858 72.7525 341.02 71.3771C338.246 65.7435 331.99 63.2876 323.847 64.8694L308.074 67.922L315.093 104.332L323.528 102.694L321.558 92.5375L329.312 91.0389L338.315 99.8222L347.374 98.0739L336.928 87.9446C338.896 86.7024 340.458 84.9131 341.424 82.796C342.39 80.6789 342.717 78.3259 342.366 76.0254ZM327.176 84.4896L320.24 85.8772L317.868 73.1115L324.804 71.724C329.964 70.7249 333.016 72.5704 333.793 76.5805C334.57 80.5905 332.323 83.4906 327.176 84.4896Z" fill="#6776FF"/>
<path d="M269 296.524H328.29C329.901 296.524 331.497 296.841 332.986 297.459C334.474 298.076 335.827 298.981 336.966 300.121C338.105 301.262 339.008 302.615 339.623 304.105C340.238 305.595 340.554 307.192 340.553 308.804V329.617C340.554 331.229 340.238 332.826 339.623 334.315C339.008 335.805 338.105 337.159 336.966 338.299C335.827 339.44 334.474 340.345 332.986 340.962C331.497 341.579 329.901 341.897 328.29 341.897H288.893L270.859 361.184L280.57 341.897H268.945C265.689 341.897 262.566 340.603 260.264 338.3C257.961 335.997 256.668 332.874 256.668 329.617V308.804C256.668 307.186 256.987 305.585 257.608 304.091C258.228 302.598 259.137 301.242 260.283 300.101C261.429 298.96 262.789 298.056 264.285 297.442C265.781 296.828 267.383 296.516 269 296.524Z" fill="#6776FF"/>
<path opacity="0.7" d="M269 296.524H328.29C329.901 296.524 331.497 296.841 332.986 297.459C334.474 298.076 335.827 298.981 336.966 300.121C338.105 301.262 339.008 302.615 339.623 304.105C340.238 305.595 340.554 307.192 340.553 308.804V329.617C340.554 331.229 340.238 332.826 339.623 334.315C339.008 335.805 338.105 337.159 336.966 338.299C335.827 339.44 334.474 340.345 332.986 340.962C331.497 341.579 329.901 341.897 328.29 341.897H288.893L270.859 361.184L280.57 341.897H268.945C265.689 341.897 262.566 340.603 260.264 338.3C257.961 335.997 256.668 332.874 256.668 329.617V308.804C256.668 307.186 256.987 305.585 257.608 304.091C258.228 302.598 259.137 301.242 260.283 300.101C261.429 298.96 262.789 298.056 264.285 297.442C265.781 296.828 267.383 296.516 269 296.524Z" fill="white"/>
<path d="M271.898 318.059C271.845 316.658 272.212 315.273 272.952 314.082C273.691 312.892 274.77 311.949 276.048 311.376C277.327 310.802 278.748 310.624 280.129 310.864C281.51 311.104 282.787 311.751 283.798 312.722C284.809 313.693 285.506 314.944 285.801 316.314C286.096 317.685 285.975 319.112 285.454 320.413C284.932 321.714 284.034 322.83 282.874 323.617C281.714 324.404 280.346 324.826 278.945 324.83C278.031 324.875 277.117 324.733 276.26 324.413C275.403 324.092 274.62 323.6 273.96 322.966C273.3 322.331 272.777 321.569 272.422 320.725C272.067 319.881 271.889 318.974 271.898 318.059ZM284.063 318.059C284.074 317.037 283.781 316.035 283.221 315.181C282.661 314.326 281.86 313.658 280.919 313.261C279.978 312.863 278.94 312.755 277.937 312.95C276.934 313.144 276.012 313.633 275.288 314.353C274.564 315.074 274.07 315.993 273.87 316.995C273.67 317.997 273.773 319.036 274.165 319.979C274.557 320.923 275.221 321.728 276.072 322.293C276.923 322.858 277.923 323.156 278.945 323.151C279.62 323.172 280.293 323.055 280.921 322.807C281.55 322.559 282.122 322.185 282.601 321.708C283.08 321.231 283.457 320.662 283.708 320.034C283.96 319.407 284.081 318.734 284.063 318.059Z" fill="#6776FF"/>
<path d="M287.66 319.668C287.633 318.632 287.914 317.611 288.469 316.736C289.024 315.861 289.827 315.17 290.776 314.753C291.724 314.336 292.776 314.211 293.796 314.395C294.816 314.578 295.758 315.061 296.502 315.782C297.247 316.503 297.76 317.429 297.976 318.443C298.191 319.457 298.101 320.512 297.714 321.474C297.328 322.436 296.665 323.261 295.808 323.844C294.951 324.427 293.94 324.741 292.904 324.747C292.22 324.781 291.537 324.675 290.896 324.434C290.255 324.193 289.671 323.823 289.179 323.347C288.688 322.87 288.299 322.298 288.038 321.665C287.776 321.033 287.648 320.353 287.66 319.668ZM296.247 319.668C296.276 319.207 296.211 318.743 296.055 318.308C295.898 317.872 295.654 317.473 295.338 317.136C295.021 316.798 294.639 316.529 294.214 316.345C293.79 316.161 293.332 316.066 292.869 316.066C292.406 316.066 291.948 316.161 291.524 316.345C291.099 316.529 290.717 316.798 290.4 317.136C290.084 317.473 289.84 317.872 289.683 318.308C289.527 318.743 289.462 319.207 289.491 319.668C289.462 320.13 289.527 320.593 289.683 321.029C289.84 321.465 290.084 321.864 290.4 322.201C290.717 322.539 291.099 322.808 291.524 322.992C291.948 323.176 292.406 323.271 292.869 323.271C293.332 323.271 293.79 323.176 294.214 322.992C294.639 322.808 295.021 322.539 295.338 322.201C295.654 321.864 295.898 321.465 296.055 321.029C296.211 320.593 296.276 320.13 296.247 319.668Z" fill="#6776FF"/>
<path d="M310.935 319.668C310.972 320.346 310.867 321.025 310.627 321.66C310.387 322.295 310.016 322.873 309.539 323.356C309.063 323.84 308.49 324.218 307.858 324.467C307.227 324.716 306.55 324.83 305.872 324.802C305.201 324.823 304.536 324.685 303.928 324.401C303.321 324.116 302.789 323.693 302.376 323.165V328.354H300.559V314.659H302.293V316.255C302.708 315.705 303.251 315.264 303.874 314.969C304.497 314.674 305.183 314.534 305.872 314.562C306.548 314.534 307.222 314.648 307.851 314.895C308.481 315.142 309.052 315.518 309.529 315.998C310.005 316.479 310.376 317.053 310.618 317.685C310.86 318.317 310.968 318.992 310.935 319.668ZM309.104 319.668C309.071 319.01 308.847 318.376 308.458 317.844C308.069 317.312 307.532 316.906 306.915 316.676C306.298 316.445 305.626 316.401 304.984 316.548C304.342 316.695 303.757 317.028 303.301 317.504C302.846 317.98 302.54 318.579 302.421 319.227C302.303 319.876 302.376 320.544 302.634 321.151C302.891 321.758 303.32 322.276 303.868 322.641C304.417 323.006 305.06 323.203 305.719 323.207C306.182 323.221 306.643 323.139 307.072 322.964C307.501 322.79 307.888 322.528 308.21 322.194C308.531 321.861 308.779 321.464 308.938 321.029C309.097 320.594 309.163 320.13 309.132 319.668H309.104Z" fill="#6776FF"/>
<path d="M312.211 323.623L312.96 322.235C314.013 322.906 315.235 323.262 316.484 323.262C318.162 323.262 318.856 322.762 318.856 321.874C318.856 319.627 312.53 321.583 312.53 317.587C312.53 315.797 314.139 314.576 316.692 314.576C317.967 314.556 319.225 314.872 320.34 315.492L319.563 316.879C318.699 316.339 317.696 316.064 316.678 316.088C315.082 316.088 314.306 316.671 314.306 317.476C314.306 319.835 320.659 317.906 320.659 321.805C320.659 323.609 318.994 324.774 316.331 324.774C314.872 324.819 313.435 324.417 312.211 323.623Z" fill="#6776FF"/>
<path d="M322.533 323.581C322.533 323.419 322.566 323.259 322.629 323.109C322.692 322.96 322.785 322.825 322.901 322.713C323.018 322.6 323.156 322.512 323.307 322.454C323.458 322.396 323.62 322.368 323.782 322.374C323.941 322.37 324.1 322.399 324.248 322.458C324.396 322.517 324.531 322.606 324.644 322.719C324.756 322.832 324.845 322.967 324.904 323.115C324.964 323.263 324.992 323.422 324.989 323.581C324.99 323.741 324.961 323.899 324.901 324.047C324.841 324.195 324.752 324.33 324.64 324.444C324.528 324.557 324.394 324.648 324.247 324.709C324.099 324.771 323.941 324.802 323.782 324.802C323.619 324.806 323.457 324.777 323.306 324.717C323.155 324.658 323.017 324.568 322.9 324.455C322.784 324.341 322.692 324.205 322.629 324.055C322.566 323.905 322.533 323.744 322.533 323.581ZM322.7 311.454H324.808L324.448 320.501H323.06L322.7 311.454Z" fill="#6776FF"/>
<path d="M614.731 80.2299C614.731 84.7534 589.997 88.6386 554.568 90.3453L551.724 90.484L547.895 90.6367C542.582 90.8448 537.061 90.9974 531.374 91.1223H528.821H527.434C523.064 91.1917 518.597 91.2194 514.061 91.2194C505.849 91.2194 497.872 91.1084 490.229 90.9142L484.68 90.7338C470.739 90.2759 458.087 89.485 447.434 88.4582C426.528 86.4323 413.336 83.4768 413.336 80.1328C413.336 75.1514 443.3 70.9609 484.514 69.5734L487.746 69.4624C490.622 69.3791 493.54 69.3097 496.499 69.2542C500.064 69.1848 503.699 69.1432 507.375 69.1155H514.075C524.451 69.1155 534.467 69.282 543.886 69.615L548.353 69.7676L554.165 70.0174L555.677 70.1006L559.548 70.2949C592.189 72.2097 614.731 75.9146 614.731 80.2299Z" fill="#263238"/>
<path opacity="0.4" d="M614.731 80.2295C614.731 84.753 589.997 88.6382 554.568 90.3449L551.724 90.4837L547.895 90.6363C542.582 90.8444 537.061 90.9971 531.374 91.122H528.821H527.434C523.064 91.1913 518.597 91.2191 514.061 91.2191C505.849 91.2191 497.872 91.1081 490.229 90.9138L484.68 90.7335C470.739 90.2756 458.087 89.4846 447.434 88.4578C426.528 86.432 413.336 83.4765 413.336 80.1324C413.336 78.6616 415.958 77.2463 420.716 75.9697C429.504 78.0293 438.435 79.4208 447.434 80.1324C458.087 81.1592 470.739 81.9501 484.68 82.408L490.229 82.5884C497.872 82.7827 505.849 82.8937 514.061 82.8937C518.597 82.8937 523.064 82.8937 527.434 82.7966H528.821H531.374C537.061 82.6717 542.582 82.519 547.895 82.3109L551.724 82.1583L554.568 82.0195C578.469 80.8678 597.488 78.731 607.351 76.0668C612.04 77.3573 614.731 78.7449 614.731 80.2295Z" fill="white"/>
<path d="M507.223 69.2126C507.122 70.8657 506.5 72.4444 505.447 73.7222C504.296 75.1098 503.311 76.1644 502.187 77.316C501.521 77.9959 500.8 78.7036 500.176 79.3141C499.732 79.772 499.274 80.2022 498.788 80.6185C496.439 82.7889 493.956 84.8095 491.353 86.6683L490.895 86.9874L489.688 87.7922C488.026 88.9037 486.293 89.9049 484.5 90.7893C483.834 91.1224 483.113 91.4415 482.447 91.7468C480.786 92.4462 479.075 93.0213 477.328 93.4674C475.775 93.8836 474.29 94.2444 472.82 94.5497C470.753 95.0076 468.658 95.4238 466.674 95.7985C462.887 96.5339 459.114 97.186 455.313 97.741C452.081 98.2267 448.849 98.6846 445.603 99.1286C442.995 99.4478 440.387 99.7253 437.751 99.9473C437.461 99.9822 437.168 99.9822 436.877 99.9473C435.999 99.8273 435.188 99.4114 434.577 98.7681C433.967 98.1249 433.594 97.2927 433.52 96.409C433.506 96.2335 433.506 96.0572 433.52 95.8817C433.555 95.114 433.818 94.3742 434.275 93.7564C434.732 93.1386 435.363 92.6709 436.087 92.4128L436.419 92.3018C440.012 91.0113 443.619 89.7903 447.24 88.6109L452.719 86.8348C458.268 85.0309 463.817 83.3381 469.213 81.5481C470.6 81.1041 471.89 80.6462 473.125 80.1606C474.189 79.8081 475.212 79.3429 476.177 78.773C476.801 78.4122 477.425 78.0098 478.063 77.5797C479.462 76.6395 480.81 75.6251 482.1 74.5409C483.931 73.0285 485.762 71.3634 487.552 69.6289C490.428 69.5457 493.346 69.4763 496.305 69.4208C499.912 69.282 503.546 69.2404 507.223 69.2126Z" fill="#FFB573"/>
<path d="M507.387 74.8181C507.29 75.1095 507.179 75.387 507.068 75.6645C506.957 75.942 506.832 76.2195 506.693 76.4971C506.571 76.7692 506.432 77.0333 506.277 77.288L505.819 78.0789V78.1483C505.505 78.6385 505.172 79.1011 504.821 79.5358C504.446 80.0215 504.058 80.4933 503.642 80.9234L503.253 81.3535C502.65 81.9992 502.01 82.6107 501.339 83.1852C501.117 83.3933 500.881 83.5875 500.645 83.7679C500.564 83.8499 500.476 83.9242 500.382 83.9899C498.302 85.6498 496.073 87.113 493.723 88.3608L492.877 88.7909L492.044 89.2072L491.725 89.346L490.713 88.4579L489.853 87.6809L487.911 85.9603L478.2 77.399L477.465 76.7468C477.465 76.7468 480.433 73.4305 484.401 69.5592L487.633 69.4482C490.509 69.365 493.427 69.2956 496.386 69.2401C499.952 69.1707 503.586 69.1291 507.262 69.1013H508.067C508.266 71.0337 508.034 72.9863 507.387 74.8181Z" fill="#6776FF"/>
<path opacity="0.7" d="M507.401 74.8181C507.304 75.1057 507.193 75.3882 507.068 75.6645C506.957 75.942 506.832 76.2195 506.693 76.4971C506.571 76.7692 506.432 77.0333 506.277 77.288L505.819 78.0789V78.1483C505.505 78.6385 505.172 79.1011 504.821 79.5358C504.446 80.0215 504.058 80.4933 503.642 80.9234L503.253 81.3535C502.65 81.9992 502.01 82.6107 501.339 83.1852C501.117 83.3933 500.881 83.5875 500.645 83.7679C500.564 83.8499 500.476 83.9242 500.382 83.9899C498.302 85.6498 496.073 87.113 493.723 88.3608L492.877 88.7909L492.044 89.2072L491.725 89.346L490.713 88.4579L489.853 87.6809L487.911 85.9603L478.2 77.399L477.465 76.7468C477.465 76.7468 480.433 73.4305 484.401 69.5592L487.633 69.4482C490.509 69.365 493.427 69.2956 496.386 69.2401C499.952 69.1707 503.586 69.1291 507.262 69.1013H508.081C508.28 71.0338 508.048 72.9864 507.401 74.8181Z" fill="white"/>
<path opacity="0.1" d="M500.286 84.0872C497.615 86.2226 494.694 88.0257 491.588 89.4571L487.773 86.0853C489.777 80.1325 493.387 74.85 498.205 70.822C499.939 74.0412 500.494 80.7709 500.286 84.0872Z" fill="black"/>
<path d="M437.557 92.3712L424.684 90.4009L424.781 101.807C424.781 101.807 433.603 104.457 438.278 98.4626L437.557 92.3712Z" fill="#EBB376"/>
<path d="M415.9 93.4813L418.023 101.959L424.765 101.807L424.668 90.4009L415.9 93.4813Z" fill="#EBB376"/>
<path d="M554.015 70.0868C553.904 70.3782 553.779 70.6696 553.668 70.9748C553.335 71.8212 553.016 72.6815 552.711 73.5418C552.517 74.0691 552.336 74.5964 552.156 75.1375C551.976 75.6787 551.781 76.2198 551.615 76.761C551.102 78.3706 550.602 79.994 550.117 81.6452C550.1 81.7347 550.077 81.8228 550.047 81.9089C549.52 83.7405 549.049 85.6137 548.591 87.4591V87.6811C548.355 88.6524 548.105 89.6237 547.883 90.6089C547.772 91.0529 547.675 91.4831 547.578 91.9271C547.204 93.6338 546.843 95.3544 546.51 97.0611C546.385 97.6994 546.26 98.3377 546.149 98.9621C546.038 99.5865 545.886 100.35 545.775 100.946C545.775 101.085 545.775 101.224 545.705 101.363C545.636 101.723 545.567 102.084 545.511 102.445C545.331 103.458 545.164 104.457 544.998 105.442C544.998 105.595 544.998 105.733 544.929 105.886L544.762 106.927C544.429 108.953 544.138 110.937 543.874 112.866C543.868 112.976 543.868 113.088 543.874 113.199C543.583 115.321 543.333 117.361 543.111 119.345C543.014 120.164 542.917 120.969 542.834 121.76C542.709 122.87 542.598 123.938 542.501 124.979C542.418 125.742 542.348 126.491 542.279 127.213C542.21 127.934 542.154 128.601 542.099 129.197C542.043 129.794 541.988 130.474 541.932 131.07C541.793 132.763 541.682 134.29 541.585 135.608C541.585 136.191 541.516 136.718 541.474 137.217C541.363 139.063 541.308 140.353 541.28 140.936C541.28 141.172 541.28 141.297 541.28 141.297L516.685 139.035H516.324L512.163 138.647L505.906 138.064L498.207 137.425L496.39 137.259L487.193 136.413C487.193 135.538 487.11 134.692 487.096 133.832C487.096 133.596 487.096 133.36 487.096 133.124C486.832 125.548 486.971 118.596 487.373 112.31C487.595 109.017 487.882 105.886 488.233 102.917C488.733 98.6429 489.357 94.7161 490.064 91.0946C490.217 90.2759 490.384 89.4711 490.55 88.6941C490.661 88.1529 490.772 87.6395 490.897 87.1261C491.827 82.9616 492.976 78.8487 494.337 74.8045C495.003 72.8619 495.724 71.0997 496.321 69.504C499.886 69.4346 503.52 69.393 507.196 69.3652H513.897C524.273 69.3652 534.289 69.5317 543.708 69.8648L548.175 70.0174L554.015 70.0868Z" fill="#6776FF"/>
<path opacity="0.7" d="M554.015 70.0868C553.904 70.3782 553.779 70.6696 553.668 70.9748C553.335 71.8212 553.016 72.6815 552.711 73.5418C552.517 74.0691 552.336 74.5964 552.156 75.1375C551.976 75.6787 551.781 76.2198 551.615 76.761V76.8581C551.102 78.4399 550.63 80.0218 550.158 81.6452C550.142 81.7347 550.119 81.8228 550.089 81.9089C549.423 84.2677 548.799 86.6682 548.216 89.0826C548.091 89.596 547.98 90.1233 547.869 90.6367C547.758 91.1501 547.661 91.5108 547.564 91.9548C547.19 93.6616 546.829 95.3821 546.496 97.0888C546.357 97.7271 546.233 98.3654 546.122 99.0037C545.997 99.6558 545.872 100.322 545.761 100.974C545.761 101.113 545.761 101.265 545.678 101.404C545.608 101.765 545.539 102.126 545.483 102.486C545.303 103.499 545.137 104.498 544.97 105.484C544.97 105.636 544.97 105.775 544.901 105.928L544.734 106.968C544.415 108.994 544.11 110.978 543.847 112.907C543.84 113.018 543.84 113.129 543.847 113.24C543.555 115.363 543.306 117.403 543.084 119.387C542.986 120.206 542.889 121.011 542.806 121.801C542.681 122.911 542.57 123.98 542.473 125.021C542.39 125.784 542.321 126.533 542.251 127.255C542.182 127.976 542.126 128.642 542.071 129.239C542.015 129.835 541.96 130.515 541.904 131.112C541.766 132.805 541.655 134.331 541.558 135.649C541.558 136.232 541.488 136.759 541.447 137.259C541.336 139.104 541.28 140.395 541.252 140.978C541.252 141.214 541.252 141.338 541.252 141.338L516.657 139.077H516.297L512.135 138.688L505.879 138.105L498.207 137.425L496.39 137.259L487.193 136.413C487.193 135.538 487.11 134.692 487.096 133.832C487.096 133.596 487.096 133.36 487.096 133.124C486.832 125.548 486.971 118.596 487.373 112.31C487.595 109.017 487.882 105.886 488.233 102.917C488.733 98.6429 489.357 94.7161 490.064 91.0946C490.217 90.2759 490.384 89.4711 490.55 88.6941C490.661 88.1529 490.772 87.6395 490.897 87.1261C491.827 82.9616 492.976 78.8487 494.337 74.8045C495.003 72.8619 495.724 71.0997 496.321 69.504C499.886 69.4346 503.52 69.393 507.196 69.3652H513.897C524.273 69.3652 534.289 69.5317 543.708 69.8648L548.175 70.0174L554.015 70.0868Z" fill="white"/>
<path d="M421.214 254.259C421.214 254.259 438.554 247.043 439.151 239.898C439.157 239.726 439.199 239.558 439.274 239.404C439.349 239.25 439.455 239.113 439.585 239.003C439.716 238.892 439.868 238.809 440.032 238.76C440.196 238.711 440.368 238.697 440.538 238.718L453.772 239.523C454.084 239.549 454.384 239.658 454.64 239.838C454.896 240.019 455.099 240.264 455.229 240.55L460.528 252.802L456.852 253.301L455.312 251.622L453.925 253.704C434.004 256.479 425.376 257.381 421.27 256.687C420.521 255.008 421.214 254.259 421.214 254.259Z" fill="black"/>
<path d="M502.493 182.202C501.73 182.036 501.314 181.911 501.314 181.911L438.89 174.113L457.45 240.23L438.557 242.034C438.557 242.034 395.442 158.849 413.06 146.847C430.677 134.844 485.306 148.096 485.306 148.096L487.456 131.625L541.765 135.677C550.491 189.972 509.984 183.77 502.493 182.202Z" fill="#263238"/>
<path d="M484.501 373.214C484.501 373.214 503.201 371.424 505.85 364.709C505.906 364.552 505.992 364.407 506.105 364.285C506.217 364.162 506.354 364.063 506.505 363.995C506.657 363.926 506.821 363.889 506.987 363.885C507.153 363.881 507.319 363.911 507.473 363.973L519.958 368.608C520.247 368.722 520.5 368.91 520.693 369.154C520.885 369.398 521.01 369.688 521.054 369.995L522.552 383.26L518.89 382.664L517.891 380.61L516.005 382.206C496.168 379.001 487.622 377.405 483.905 375.532C483.558 373.7 484.501 373.214 484.501 373.214Z" fill="black"/>
<path d="M542.305 155.353C542.221 155.686 539.96 166.092 537.006 181.009C536.839 181.855 536.673 182.743 536.492 183.617C535.105 190.708 533.579 198.686 532.081 206.998C530.25 217.113 528.433 227.811 526.907 237.899C524.838 250.536 523.49 263.281 522.87 276.071C522.149 308.221 520.803 371.661 520.803 371.661L503.504 368.886C503.504 368.886 493.947 301.228 494.058 268.467C494.141 247.654 499.301 204.764 502.825 178.095C504.6 164.413 505.96 154.978 505.96 154.978L525.561 155.158L542.305 155.353Z" fill="#263238"/>
<path d="M540.945 140.963L542.097 141.06L542.041 137.301L541.029 137.231L540.945 140.963Z" fill="#263238"/>
<path d="M498.246 137.647L521.413 139.451L521.523 135.718L498.44 133.942L498.246 137.647Z" fill="#263238"/>
<path d="M496.65 133.804L486.857 133.041L486.51 136.731L496.428 137.508L496.65 133.804Z" fill="#263238"/>
<path d="M539.241 137.092L523.302 135.857L523.232 139.59L539.116 140.825L539.241 137.092Z" fill="#263238"/>
<g opacity="0.2">
<path d="M540.947 140.962L542.099 141.059L542.043 137.3L541.03 137.23L540.947 140.962Z" fill="white"/>
<path d="M498.246 137.647L521.413 139.451L521.523 135.718L498.44 133.942L498.246 137.647Z" fill="white"/>
<path d="M496.652 133.803L486.859 133.04L486.512 136.731L496.43 137.508L496.652 133.803Z" fill="white"/>
<path d="M539.241 137.092L523.302 135.857L523.232 139.59L539.116 140.825L539.241 137.092Z" fill="white"/>
</g>
<path d="M511.858 139.201H511.747L505.976 138.66C505.674 138.635 505.394 138.494 505.195 138.266C504.995 138.038 504.892 137.741 504.908 137.439L504.991 135.177C504.996 135.018 505.035 134.861 505.104 134.718C505.173 134.575 505.272 134.447 505.393 134.345C505.51 134.236 505.648 134.154 505.799 134.104C505.949 134.054 506.109 134.036 506.267 134.053L512.01 134.497C512.312 134.519 512.594 134.656 512.796 134.882C512.997 135.107 513.104 135.402 513.092 135.704V138.063C513.09 138.224 513.054 138.382 512.987 138.527C512.921 138.673 512.824 138.803 512.704 138.91C512.47 139.112 512.167 139.216 511.858 139.201ZM506.17 135.038C506.134 135.026 506.095 135.026 506.059 135.038C506.05 135.058 506.046 135.079 506.046 135.101C506.046 135.122 506.05 135.144 506.059 135.163L505.962 137.425C505.96 137.448 505.963 137.471 505.971 137.493C505.978 137.515 505.99 137.535 506.006 137.552C506.021 137.569 506.04 137.582 506.061 137.591C506.083 137.601 506.105 137.605 506.129 137.605L511.899 138.146C511.921 138.156 511.945 138.16 511.969 138.16C511.993 138.16 512.016 138.156 512.038 138.146C512.054 138.106 512.054 138.062 512.038 138.022V135.663C512.038 135.617 512.021 135.573 511.99 135.54C511.959 135.506 511.917 135.486 511.872 135.482L506.129 135.038H506.17Z" fill="white"/>
<path d="M511.774 137.286L510.012 137.12C509.879 137.106 509.756 137.04 509.67 136.936C509.584 136.832 509.543 136.699 509.555 136.565C509.569 136.435 509.633 136.315 509.734 136.232C509.836 136.149 509.965 136.109 510.096 136.121L511.857 136.287C511.99 136.287 512.117 136.34 512.211 136.434C512.304 136.527 512.357 136.654 512.357 136.787C512.357 136.919 512.304 137.046 512.211 137.14C512.117 137.234 511.99 137.286 511.857 137.286H511.774Z" fill="white"/>
<path opacity="0.1" d="M550.042 81.9226C549.376 84.2815 548.752 86.682 548.169 89.0963C547.947 90.0538 547.726 91.0112 547.517 91.9686C546.477 96.6725 545.589 101.39 544.854 105.941L544.688 106.982C535.157 110.049 525.267 107.94 525.586 98.7538C526.043 86.4461 536.531 80.7154 536.531 80.7154C541.206 78.1484 546.102 79.1475 550.042 81.9226Z" fill="black"/>
<path d="M456.811 434.378H469.643L427.916 104.553H415.084L456.811 434.378Z" fill="#263238"/>
<path opacity="0.4" d="M456.811 434.378H469.643L427.916 104.553H415.084L456.811 434.378Z" fill="white"/>
<path d="M429.983 153.438H470.781C471.289 153.411 471.779 153.24 472.194 152.945C472.609 152.65 472.932 152.244 473.126 151.773L475.72 146.223H425.045L427.639 151.773C427.832 152.244 428.155 152.65 428.57 152.945C428.985 153.24 429.475 153.411 429.983 153.438Z" fill="#263238"/>
<path opacity="0.4" d="M429.983 153.438H470.781C471.289 153.411 471.779 153.24 472.194 152.945C472.609 152.65 472.932 152.244 473.126 151.773L475.72 146.223H425.045L427.639 151.773C427.832 152.244 428.155 152.65 428.57 152.945C428.985 153.24 429.475 153.411 429.983 153.438Z" fill="white"/>
<path d="M425.725 148.887H475.026C476.49 148.887 477.676 147.7 477.676 146.237V145.64C477.676 144.176 476.49 142.99 475.026 142.99H425.725C424.262 142.99 423.075 144.176 423.075 145.64V146.237C423.075 147.7 424.262 148.887 425.725 148.887Z" fill="#263238"/>
<path opacity="0.1" d="M425.725 148.887H475.026C476.49 148.887 477.676 147.7 477.676 146.237V145.64C477.676 144.176 476.49 142.99 475.026 142.99H425.725C424.262 142.99 423.075 144.176 423.075 145.64V146.237C423.075 147.7 424.262 148.887 425.725 148.887Z" fill="white"/>
<path d="M437.431 200.587H478.215C478.725 200.562 479.218 200.39 479.634 200.092C480.049 199.795 480.371 199.384 480.559 198.908L483.153 193.427H432.492L435.072 198.908C435.263 199.385 435.587 199.796 436.005 200.094C436.423 200.392 436.918 200.563 437.431 200.587Z" fill="#263238"/>
<path opacity="0.4" d="M437.431 200.587H478.215C478.725 200.562 479.218 200.39 479.634 200.092C480.049 199.795 480.371 199.384 480.559 198.908L483.153 193.427H432.492L435.072 198.908C435.263 199.385 435.587 199.796 436.005 200.094C436.423 200.392 436.918 200.563 437.431 200.587Z" fill="white"/>
<path d="M433.172 196.036H482.473C483.937 196.036 485.123 194.85 485.123 193.386V192.789C485.123 191.326 483.937 190.139 482.473 190.139H433.172C431.709 190.139 430.522 191.326 430.522 192.789V193.386C430.522 194.85 431.709 196.036 433.172 196.036Z" fill="#263238"/>
<path opacity="0.1" d="M433.172 196.036H482.473C483.937 196.036 485.123 194.85 485.123 193.386V192.789C485.123 191.326 483.937 190.139 482.473 190.139H433.172C431.709 190.139 430.522 191.326 430.522 192.789V193.386C430.522 194.85 431.709 196.036 433.172 196.036Z" fill="white"/>
<path d="M444.868 262.986H485.721C486.233 262.965 486.727 262.796 487.145 262.501C487.564 262.206 487.888 261.796 488.08 261.321L490.66 255.771H439.943L442.537 261.321C442.726 261.793 443.045 262.201 443.458 262.496C443.872 262.791 444.361 262.961 444.868 262.986Z" fill="#263238"/>
<path opacity="0.4" d="M444.868 262.986H485.721C486.233 262.965 486.727 262.796 487.145 262.501C487.564 262.206 487.888 261.796 488.08 261.321L490.66 255.771H439.943L442.537 261.321C442.726 261.793 443.045 262.201 443.458 262.496C443.872 262.791 444.361 262.961 444.868 262.986Z" fill="white"/>
<path d="M440.61 258.449H489.911C491.374 258.449 492.561 257.262 492.561 255.799V255.202C492.561 253.738 491.374 252.552 489.911 252.552H440.61C439.146 252.552 437.96 253.738 437.96 255.202V255.799C437.96 257.262 439.146 258.449 440.61 258.449Z" fill="#263238"/>
<path opacity="0.1" d="M440.61 258.449H489.911C491.374 258.449 492.561 257.262 492.561 255.799V255.202C492.561 253.738 491.374 252.552 489.911 252.552H440.61C439.146 252.552 437.96 253.738 437.96 255.202V255.799C437.96 257.262 439.146 258.449 440.61 258.449Z" fill="white"/>
<path d="M452.302 325.399H493.1C493.609 325.375 494.1 325.205 494.516 324.91C494.931 324.615 495.253 324.207 495.444 323.734L498.038 318.184H447.363L449.957 323.734C450.148 324.207 450.47 324.615 450.886 324.91C451.301 325.205 451.793 325.375 452.302 325.399Z" fill="#263238"/>
<path opacity="0.4" d="M452.302 325.399H493.1C493.609 325.375 494.1 325.205 494.516 324.91C494.931 324.615 495.253 324.207 495.444 323.734L498.038 318.184H447.363L449.957 323.734C450.148 324.207 450.47 324.615 450.886 324.91C451.301 325.205 451.793 325.375 452.302 325.399Z" fill="white"/>
<path d="M448.043 320.861H497.345C498.808 320.861 499.994 319.675 499.994 318.211V317.614C499.994 316.151 498.808 314.964 497.345 314.964H448.043C446.58 314.964 445.394 316.151 445.394 317.614V318.211C445.394 319.675 446.58 320.861 448.043 320.861Z" fill="#263238"/>
<path opacity="0.1" d="M448.043 320.861H497.345C498.808 320.861 499.994 319.675 499.994 318.211V317.614C499.994 316.151 498.808 314.964 497.345 314.964H448.043C446.58 314.964 445.394 316.151 445.394 317.614V318.211C445.394 319.675 446.58 320.861 448.043 320.861Z" fill="white"/>
<path d="M459.749 387.812H500.533C501.043 387.79 501.535 387.621 501.951 387.325C502.367 387.03 502.688 386.621 502.878 386.147L505.472 380.597H454.797L457.391 386.147C457.582 386.622 457.907 387.031 458.325 387.327C458.743 387.622 459.238 387.791 459.749 387.812Z" fill="#263238"/>
<path opacity="0.4" d="M459.749 387.812H500.533C501.043 387.79 501.535 387.621 501.951 387.325C502.367 387.03 502.688 386.621 502.878 386.147L505.472 380.597H454.797L457.391 386.147C457.582 386.622 457.907 387.031 458.325 387.327C458.743 387.622 459.238 387.791 459.749 387.812Z" fill="white"/>
<path d="M455.479 383.275H504.78C506.243 383.275 507.43 382.088 507.43 380.624V380.028C507.43 378.564 506.243 377.377 504.78 377.377H455.479C454.015 377.377 452.829 378.564 452.829 380.028V380.624C452.829 382.088 454.015 383.275 455.479 383.275Z" fill="#263238"/>
<path opacity="0.1" d="M455.479 383.275H504.78C506.243 383.275 507.43 382.088 507.43 380.624V380.028C507.43 378.564 506.243 377.377 504.78 377.377H455.479C454.015 377.377 452.829 378.564 452.829 380.028V380.624C452.829 382.088 454.015 383.275 455.479 383.275Z" fill="white"/>
<path d="M506.346 434.378H519.178L477.451 104.553H464.619L506.346 434.378Z" fill="#263238"/>
<path opacity="0.7" d="M506.346 434.378H519.178L477.451 104.553H464.619L506.346 434.378Z" fill="white"/>
<path d="M371.636 434.378H358.805L400.518 104.553H413.35L371.636 434.378Z" fill="#263238"/>
<path opacity="0.4" d="M371.636 434.378H358.805L400.518 104.553H413.35L371.636 434.378Z" fill="white"/>
<path d="M447.99 153.438H407.206C406.695 153.413 406.202 153.243 405.785 152.948C405.367 152.654 405.042 152.246 404.848 151.773L402.268 146.223H452.928L450.334 151.773C450.144 152.246 449.822 152.654 449.406 152.949C448.991 153.244 448.499 153.414 447.99 153.438Z" fill="#263238"/>
<path opacity="0.5" d="M447.99 153.438H407.206C406.695 153.413 406.202 153.243 405.785 152.948C405.367 152.654 405.042 152.246 404.848 151.773L402.268 146.223H452.928L450.334 151.773C450.144 152.246 449.822 152.654 449.406 152.949C448.991 153.244 448.499 153.414 447.99 153.438Z" fill="white"/>
<path d="M452.248 143.004H402.946C401.483 143.004 400.297 144.19 400.297 145.654V146.251C400.297 147.714 401.483 148.901 402.946 148.901H452.248C453.711 148.901 454.897 147.714 454.897 146.251V145.654C454.897 144.19 453.711 143.004 452.248 143.004Z" fill="#263238"/>
<path opacity="0.2" d="M452.248 143.004H402.946C401.483 143.004 400.297 144.19 400.297 145.654V146.251C400.297 147.714 401.483 148.901 402.946 148.901H452.248C453.711 148.901 454.897 147.714 454.897 146.251V145.654C454.897 144.19 453.711 143.004 452.248 143.004Z" fill="white"/>
<path d="M440.549 200.587H399.71C399.2 200.56 398.708 200.388 398.293 200.09C397.877 199.793 397.555 199.383 397.366 198.908L394.771 193.427H445.488L442.894 198.908C442.704 199.383 442.382 199.793 441.967 200.09C441.551 200.388 441.06 200.56 440.549 200.587Z" fill="#263238"/>
<path opacity="0.5" d="M440.549 200.587H399.71C399.2 200.56 398.708 200.388 398.293 200.09C397.877 199.793 397.555 199.383 397.366 198.908L394.771 193.427H445.488L442.894 198.908C442.704 199.383 442.382 199.793 441.967 200.09C441.551 200.388 441.06 200.56 440.549 200.587Z" fill="white"/>
<path d="M444.81 190.139H395.509C394.046 190.139 392.859 191.326 392.859 192.789V193.386C392.859 194.85 394.046 196.036 395.509 196.036H444.81C446.274 196.036 447.46 194.85 447.46 193.386V192.789C447.46 191.326 446.274 190.139 444.81 190.139Z" fill="#263238"/>
<path opacity="0.2" d="M444.81 190.139H395.509C394.046 190.139 392.859 191.326 392.859 192.789V193.386C392.859 194.85 394.046 196.036 395.509 196.036H444.81C446.274 196.036 447.46 194.85 447.46 193.386V192.789C447.46 191.326 446.274 190.139 444.81 190.139Z" fill="white"/>
<path d="M433.103 262.986H392.319C391.81 262.964 391.318 262.795 390.902 262.5C390.486 262.204 390.164 261.795 389.975 261.321L387.381 255.771H438.042L435.462 261.321C435.27 261.796 434.946 262.206 434.527 262.501C434.109 262.796 433.615 262.965 433.103 262.986Z" fill="#263238"/>
<path opacity="0.5" d="M433.103 262.986H392.319C391.81 262.964 391.318 262.795 390.902 262.5C390.486 262.204 390.164 261.795 389.975 261.321L387.381 255.771H438.042L435.462 261.321C435.27 261.796 434.946 262.206 434.527 262.501C434.109 262.796 433.615 262.965 433.103 262.986Z" fill="white"/>
<path d="M437.365 252.552H388.064C386.6 252.552 385.414 253.739 385.414 255.203V255.799C385.414 257.263 386.6 258.449 388.064 258.449H437.365C438.828 258.449 440.015 257.263 440.015 255.799V255.203C440.015 253.739 438.828 252.552 437.365 252.552Z" fill="#263238"/>
<path opacity="0.2" d="M437.365 252.552H388.064C386.6 252.552 385.414 253.739 385.414 255.203V255.799C385.414 257.263 386.6 258.449 388.064 258.449H437.365C438.828 258.449 440.015 257.263 440.015 255.799V255.203C440.015 253.739 438.828 252.552 437.365 252.552Z" fill="white"/>
<path d="M425.67 325.399H384.886C384.375 325.376 383.881 325.207 383.463 324.912C383.045 324.617 382.72 324.208 382.527 323.734L379.947 318.184H430.608L428.014 323.734C427.825 324.208 427.503 324.617 427.087 324.912C426.671 325.208 426.179 325.377 425.67 325.399Z" fill="#263238"/>
<path opacity="0.5" d="M425.67 325.399H384.886C384.375 325.376 383.881 325.207 383.463 324.912C383.045 324.617 382.72 324.208 382.527 323.734L379.947 318.184H430.608L428.014 323.734C427.825 324.208 427.503 324.617 427.087 324.912C426.671 325.208 426.179 325.377 425.67 325.399Z" fill="white"/>
<path d="M429.928 314.965H380.626C379.163 314.965 377.977 316.151 377.977 317.615V318.212C377.977 319.675 379.163 320.862 380.626 320.862H429.928C431.391 320.862 432.577 319.675 432.577 318.212V317.615C432.577 316.151 431.391 314.965 429.928 314.965Z" fill="#263238"/>
<path opacity="0.2" d="M429.928 314.965H380.626C379.163 314.965 377.977 316.151 377.977 317.615V318.212C377.977 319.675 379.163 320.862 380.626 320.862H429.928C431.391 320.862 432.577 319.675 432.577 318.212V317.615C432.577 316.151 431.391 314.965 429.928 314.965Z" fill="white"/>
<path d="M418.232 387.812H377.435C376.925 387.788 376.434 387.618 376.018 387.323C375.603 387.028 375.281 386.62 375.09 386.147L372.496 380.597H423.171L420.577 386.147C420.388 386.621 420.066 387.03 419.65 387.325C419.234 387.621 418.742 387.79 418.232 387.812Z" fill="#263238"/>
<path opacity="0.5" d="M418.232 387.812H377.435C376.925 387.788 376.434 387.618 376.018 387.323C375.603 387.028 375.281 386.62 375.09 386.147L372.496 380.597H423.171L420.577 386.147C420.388 386.621 420.066 387.03 419.65 387.325C419.234 387.621 418.742 387.79 418.232 387.812Z" fill="white"/>
<path d="M422.49 377.377H373.189C371.725 377.377 370.539 378.564 370.539 380.027V380.624C370.539 382.088 371.725 383.274 373.189 383.274H422.49C423.953 383.274 425.14 382.088 425.14 380.624V380.027C425.14 378.564 423.953 377.377 422.49 377.377Z" fill="#263238"/>
<path opacity="0.2" d="M422.49 377.377H373.189C371.725 377.377 370.539 378.564 370.539 380.027V380.624C370.539 382.088 371.725 383.274 373.189 383.274H422.49C423.953 383.274 425.14 382.088 425.14 380.624V380.027C425.14 378.564 423.953 377.377 422.49 377.377Z" fill="white"/>
<path d="M421.162 434.378H408.33L450.057 104.553H462.889L421.162 434.378Z" fill="#263238"/>
<path opacity="0.7" d="M421.162 434.378H408.33L450.057 104.553H462.889L421.162 434.378Z" fill="white"/>
<path d="M479.507 106.233H398.188C397.68 106.206 397.19 106.035 396.775 105.74C396.36 105.445 396.037 105.039 395.844 104.568L393.25 99.0176H484.445L481.865 104.568C481.662 105.035 481.335 105.438 480.919 105.731C480.503 106.025 480.015 106.199 479.507 106.233Z" fill="#263238"/>
<path opacity="0.5" d="M479.507 106.233H398.188C397.68 106.206 397.19 106.035 396.775 105.74C396.36 105.445 396.037 105.039 395.844 104.568L393.25 99.0176H484.445L481.865 104.568C481.662 105.035 481.335 105.438 480.919 105.731C480.503 106.025 480.015 106.199 479.507 106.233Z" fill="white"/>
<path d="M483.764 95.7981H393.943C392.479 95.7981 391.293 96.9847 391.293 98.4484V99.045C391.293 100.509 392.479 101.695 393.943 101.695H483.764C485.228 101.695 486.414 100.509 486.414 99.045V98.4484C486.414 96.9847 485.228 95.7981 483.764 95.7981Z" fill="#263238"/>
<path opacity="0.2" d="M483.764 95.7981H393.943C392.479 95.7981 391.293 96.9847 391.293 98.4484V99.045C391.293 100.509 392.479 101.695 393.943 101.695H483.764C485.228 101.695 486.414 100.509 486.414 99.045V98.4484C486.414 96.9847 485.228 95.7981 483.764 95.7981Z" fill="white"/>
<path d="M485.195 104.859L474.527 97.3381L469.533 107.592C469.533 107.592 476.247 113.892 483.1 110.617L485.195 104.859Z" fill="#EBB376"/>
<path d="M465.316 96.1868L463.43 104.72L469.533 107.593L474.527 97.3385L465.316 96.1868Z" fill="#EBB376"/>
<path d="M558.12 81.1316C556.026 84.3647 553.889 87.4589 551.656 90.4838C549.977 92.7178 548.257 94.9241 546.454 97.0887C545.913 97.7547 545.358 98.4069 544.803 99.059C543.707 100.322 542.597 101.584 541.432 102.833C540.045 104.387 538.477 105.914 536.854 107.412L535.925 108.245C534.714 109.366 533.44 110.417 532.11 111.395C530.132 112.878 527.962 114.086 525.66 114.988C524.978 115.253 524.278 115.467 523.565 115.627C522.885 115.793 522.303 115.876 521.678 115.987C520.579 116.137 519.472 116.23 518.363 116.265C516.268 116.334 514.312 116.265 512.384 116.168C508.555 115.96 504.865 115.446 501.217 114.905C496.556 114.17 491.978 113.254 487.442 112.13C485.764 111.741 484.099 111.311 482.434 110.867L479.785 110.132C478.94 109.884 478.205 109.356 477.701 108.635C477.196 107.914 476.953 107.042 477.01 106.163C477.029 105.882 477.076 105.603 477.149 105.331C477.348 104.61 477.753 103.963 478.315 103.47C478.877 102.977 479.571 102.659 480.312 102.556C480.547 102.528 480.784 102.528 481.019 102.556H481.089H482.06C484.154 102.625 486.221 102.708 488.344 102.764C493.019 102.93 497.68 103.055 502.216 103.125C505.698 103.125 509.152 103.125 512.495 103.014C514.16 102.944 515.783 102.805 517.253 102.597C518.354 102.52 519.434 102.252 520.444 101.806C521.408 101.252 522.31 100.596 523.135 99.8499C523.967 99.1284 524.841 98.3236 525.701 97.4494C525.951 97.2136 526.187 96.9638 526.423 96.714C526.908 96.2145 527.38 95.6872 527.81 95.1599C529.003 93.8556 530.154 92.4958 531.306 91.0944C531.819 90.4561 532.346 89.8178 532.859 89.1657C535.356 86.0159 537.839 82.6996 540.239 79.3555C541.876 77.0938 543.485 74.8043 545.039 72.5565L545.122 72.4177C545.896 71.287 546.959 70.3858 548.202 69.8091L554.014 70.0588L555.526 70.1421C555.685 70.2292 555.838 70.3265 555.984 70.4335C557.662 71.5878 558.824 73.3512 559.223 75.3489C559.622 77.3465 559.226 79.4211 558.12 81.1316Z" fill="#FFB573"/>
<path d="M554.496 90.345C551.875 94.1303 548.937 97.686 545.715 100.974C544.855 101.862 543.939 102.778 542.94 103.749L541.387 102.875L527.778 95.2154L526.516 94.5077C526.516 94.5077 527.403 93.1201 528.721 91.1914C530.372 88.6938 532.716 85.1278 534.894 81.7698C536.587 79.1335 538.168 76.622 539.209 74.832C540.365 72.849 541.891 71.1062 543.703 69.698L548.17 69.8506L553.982 70.1004L555.494 70.1836L559.365 70.3779C561.154 74.5128 560.766 81.0761 554.496 90.345Z" fill="#6776FF"/>
<path opacity="0.7" d="M554.496 90.345C551.875 94.1303 548.937 97.686 545.715 100.974C544.855 101.862 543.939 102.778 542.94 103.749L541.387 102.875L527.778 95.2154L526.516 94.5077C526.516 94.5077 527.403 93.1201 528.721 91.1914C530.372 88.6938 532.716 85.1278 534.894 81.7698C536.587 79.1335 538.168 76.622 539.209 74.832C540.365 72.849 541.891 71.1062 543.703 69.698L548.17 69.8506L553.982 70.1004L555.494 70.1836L559.365 70.3779C561.154 74.5128 560.766 81.0761 554.496 90.345Z" fill="white"/>
<path d="M351.635 434.142C351.642 434.22 351.642 434.299 351.635 434.378C351.642 434.415 351.642 434.452 351.635 434.489C351.618 434.56 351.595 434.63 351.566 434.697C351.526 434.791 351.474 434.879 351.413 434.961C351.353 435.06 351.283 435.152 351.205 435.238C350.55 435.876 349.778 436.38 348.93 436.723L348.251 437.014C347.585 437.292 346.863 437.555 345.989 437.819C345.462 437.985 344.907 438.138 344.311 438.305C334.6 440.927 315.942 443.036 292.485 444.202L289.71 444.341L285.16 444.535L280.485 444.701L277.253 444.812C274.687 444.882 272.093 444.951 269.457 444.993H268.5H266.71H264.976C262.549 444.993 260.093 444.993 257.624 445.076H250.924C242.823 445.076 234.929 444.979 227.341 444.771L223.984 444.66C223.013 444.66 222.042 444.66 221.085 444.576L216.618 444.424L210.806 444.174L209.294 444.091L205.424 443.897C199.056 443.536 193.077 443.119 187.584 442.62C174.433 441.454 164.001 439.942 157.551 438.194L156.996 438.041L156.386 437.861C155.345 437.555 154.444 437.236 153.611 436.931C153.32 436.806 153.042 436.695 152.793 436.57C152.378 436.376 151.975 436.158 151.586 435.918C151.453 435.841 151.328 435.753 151.211 435.654L150.906 435.418L150.615 435.127C150.537 435.046 150.467 434.958 150.407 434.863C150.305 434.716 150.229 434.552 150.185 434.378V434.225C150.178 434.161 150.178 434.095 150.185 434.031C150.185 429.507 174.919 425.622 210.348 423.916L213.192 423.777L217.021 423.624L222.902 423.416L226.079 423.319L233.542 423.138H233.945H236.095H237.551C239.743 423.138 241.949 423.138 244.182 423.069H244.848C246.859 423.069 248.885 423.069 250.924 423.069C259.136 423.069 267.113 423.18 274.756 423.374L280.305 423.555L282.663 423.638H282.899L285.479 423.735L287.172 423.805L291.555 423.999L295.717 424.207C303.652 424.637 310.976 425.178 317.579 425.816C338.443 427.884 351.635 430.839 351.635 434.142Z" fill="#263238"/>
<path opacity="0.4" d="M150.158 434.142C150.158 429.619 174.892 425.733 210.321 424.027L213.165 423.888L216.994 423.735C222.307 423.527 227.828 423.375 233.516 423.25H236.068H237.525C241.894 423.18 246.361 423.153 250.897 423.153C259.11 423.153 267.086 423.264 274.73 423.458L280.278 423.638C294.22 424.096 306.871 424.887 317.525 425.914C338.43 427.94 351.623 430.895 351.623 434.239C351.623 435.71 349.001 437.125 344.243 438.402C335.454 436.342 326.523 434.951 317.525 434.239C306.871 433.212 294.22 432.422 280.278 431.964L274.73 431.783C267.086 431.589 259.11 431.478 250.897 431.478C246.361 431.478 241.894 431.478 237.525 431.575H236.026H233.474C227.786 431.7 222.265 431.853 216.952 432.061L213.124 432.213L210.28 432.352C186.378 433.504 167.36 435.641 157.566 438.305C152.794 437.014 150.158 435.627 150.158 434.142Z" fill="white"/>
<path d="M242.424 429.022C241.661 429.938 240.953 430.729 240.246 431.492C239.885 431.866 239.538 432.241 239.164 432.616C238.498 433.296 237.846 434.003 237.166 434.614C236.722 435.058 236.264 435.488 235.779 435.918C233.428 438.093 230.94 440.114 228.329 441.968L227.886 442.273C227.497 442.551 227.095 442.814 226.679 443.092C225.805 443.675 224.903 444.244 223.904 444.771C222.933 444.771 221.962 444.771 221.005 444.688L216.538 444.535L210.726 444.285L209.214 444.202L205.343 444.008C198.976 443.647 192.997 443.231 187.504 442.731L189.668 442.037C195.217 440.234 200.766 438.541 206.176 436.765C207.563 436.307 208.853 435.863 210.088 435.377C211.151 435.025 212.175 434.559 213.14 433.99C213.75 433.629 214.388 433.226 215.026 432.796C215.359 432.574 215.706 432.338 216.053 432.075C217.051 431.367 218.05 430.576 219.035 429.757C221.033 428.12 222.989 426.316 224.931 424.443L225.971 423.416C226.595 422.82 227.206 422.223 227.802 421.598L230.577 418.823L230.743 418.643C231.58 417.773 232.606 417.107 233.741 416.698C234.877 416.289 236.092 416.147 237.291 416.284C239.04 416.484 240.67 417.273 241.912 418.521C243.155 419.769 243.937 421.402 244.13 423.153C244.252 424.195 244.164 425.252 243.871 426.26C243.578 427.268 243.086 428.207 242.424 429.022Z" fill="#FFB573"/>
<path d="M239.314 413.092C231.573 412.912 214.344 432.157 214.344 432.157L228.563 444.757C228.563 444.757 241.256 439.206 244.363 430.118C247.47 421.029 239.314 413.092 239.314 413.092Z" fill="#6776FF"/>
<path opacity="0.7" d="M244.348 430.118C242.872 433.803 240.41 437.01 237.231 439.387C234.56 441.522 231.639 443.325 228.533 444.757L224.719 441.371L214.314 432.157C214.314 432.157 231.53 412.912 239.284 413.092C239.312 413.092 247.496 420.974 244.348 430.118Z" fill="white"/>
<path opacity="0.1" d="M237.274 439.387C234.603 441.523 231.682 443.326 228.577 444.757L224.762 441.371C226.788 435.439 230.412 430.181 235.235 426.177C236.928 429.341 237.482 436.071 237.274 439.387Z" fill="black"/>
<path d="M292.779 421.21C292.696 421.39 292.612 421.557 292.543 421.737C292.321 422.223 292.113 422.708 291.905 423.208C291.78 423.465 291.668 423.729 291.572 423.999C291.543 424.052 291.52 424.108 291.503 424.165C291.4 424.372 291.312 424.585 291.239 424.804C291.003 425.359 290.781 425.928 290.559 426.51C290.337 427.093 290.018 427.967 289.755 428.703C289.755 428.703 289.755 428.772 289.755 428.8C289.56 429.327 289.38 429.854 289.2 430.396C289.019 430.937 288.825 431.478 288.659 432.019C288.653 432.074 288.653 432.13 288.659 432.186C288.492 432.685 288.326 433.185 288.173 433.684C287.854 434.739 287.535 435.793 287.23 436.876L287.147 437.167C286.481 439.526 285.857 441.926 285.274 444.341C285.267 444.391 285.267 444.443 285.274 444.493L280.599 444.66L277.367 444.771C274.801 444.84 272.206 444.91 269.571 444.951H268.614H266.824H265.09C262.662 444.951 260.207 444.951 257.738 445.034H251.038C242.936 445.034 235.043 444.937 227.455 444.729L227.663 443.702C227.663 443.48 227.76 443.272 227.816 443.064C227.871 442.856 227.899 442.648 227.954 442.44C227.983 442.339 228.006 442.237 228.024 442.134C228.643 439.359 229.291 436.829 229.966 434.544C230.216 433.74 230.438 432.976 230.673 432.213C230.757 431.977 230.826 431.742 230.909 431.506C231.09 430.937 231.27 430.396 231.45 429.868L231.742 429.022C231.894 428.592 232.047 428.162 232.199 427.759C232.352 427.357 232.546 426.802 232.713 426.372L233.17 425.206L234.003 423.194C234.641 421.668 235.265 420.336 235.848 419.156C235.959 418.962 236.056 418.754 236.153 418.56L236.735 417.436L237.415 416.201C237.457 416.139 237.495 416.074 237.526 416.006C237.762 415.576 237.998 415.188 238.206 414.855L238.747 413.995L239.399 413.051C243.516 412.657 247.653 412.523 251.787 412.649C252.661 412.649 253.548 412.718 254.45 412.773C255.352 412.829 256.17 412.912 257.114 413.023C259.097 413.245 261.275 413.55 263.592 413.925L267.948 414.674C269.404 414.938 270.847 415.202 272.234 415.479L272.969 415.632C274.065 415.84 275.133 416.062 276.118 416.27C276.798 416.409 277.506 416.562 278.144 416.728C278.49 416.811 278.823 416.881 279.156 416.978L280.169 417.228C281.431 417.547 282.68 417.894 283.859 418.227L285.01 418.574L287.161 419.24L289.047 419.85C291.197 420.558 292.626 421.085 292.834 421.154L292.779 421.21Z" fill="#6776FF"/>
<path opacity="0.7" d="M292.793 421.21C292.71 421.391 292.627 421.557 292.558 421.737C292.336 422.223 292.114 422.709 291.919 423.208C291.79 423.467 291.679 423.731 291.587 423.999C291.581 424.055 291.581 424.11 291.587 424.166C291.484 424.372 291.396 424.586 291.323 424.804C291.087 425.359 290.865 425.928 290.643 426.511C290.421 427.093 290.088 427.968 289.839 428.703C289.839 428.703 289.839 428.772 289.839 428.8C289.644 429.327 289.464 429.855 289.284 430.396C289.103 430.937 288.909 431.478 288.743 432.019V432.116C288.576 432.616 288.41 433.116 288.257 433.615C287.938 434.67 287.619 435.724 287.314 436.806L287.231 437.098C286.565 439.457 285.941 441.857 285.358 444.272C285.351 444.322 285.351 444.374 285.358 444.424L280.683 444.591L277.451 444.702C274.885 444.771 272.29 444.84 269.655 444.882H268.698H266.908H265.174C262.746 444.882 260.291 444.882 257.822 444.965H251.122C243.02 444.965 235.127 444.868 227.539 444.66L227.747 443.647C227.844 443.203 227.927 442.787 228.025 442.371C228.053 442.27 228.076 442.168 228.094 442.065C228.714 439.29 229.361 436.76 230.036 434.475C230.286 433.671 230.508 432.907 230.744 432.144C230.827 431.908 230.896 431.672 230.979 431.437C231.16 430.868 231.34 430.327 231.52 429.799L231.812 428.953C231.964 428.523 232.117 428.093 232.269 427.69C232.422 427.288 232.616 426.733 232.783 426.303L233.24 425.137L234.073 423.125C234.711 421.599 235.335 420.267 235.904 419.087C236.015 418.893 236.112 418.685 236.209 418.491L236.792 417.367L237.471 416.132C237.514 416.07 237.551 416.005 237.582 415.937L238.262 414.786L238.803 413.925L239.455 412.982C243.572 412.588 247.709 412.454 251.843 412.58C252.717 412.58 253.605 412.649 254.506 412.704C255.408 412.76 256.227 412.843 257.17 412.954C259.154 413.176 261.331 413.481 263.648 413.856L268.004 414.605C269.461 414.869 270.903 415.133 272.29 415.41L273.026 415.563C274.122 415.771 275.19 415.993 276.175 416.201C276.854 416.34 277.562 416.492 278.2 416.659C278.547 416.742 278.88 416.812 279.213 416.909L280.225 417.145C281.488 417.464 282.736 417.811 283.915 418.158L285.067 418.504L287.217 419.17L289.103 419.781C291.254 420.489 292.682 421.016 292.89 421.085L292.793 421.21Z" fill="white"/>
<path d="M267.695 396.137C267.695 396.137 268.125 410.901 269.526 413.093C270.927 415.285 275.991 416.298 275.991 416.298C275.991 416.298 263.825 422.348 258.137 421.21C252.45 420.072 249.717 412.649 249.717 412.649C249.717 412.649 253.684 412.802 254.655 412.26C255.626 411.719 253.892 401.937 253.892 401.937L267.695 396.137Z" fill="#EBB376"/>
<path opacity="0.2" d="M255.058 405.614L254.558 406.322C254.253 404.032 253.893 401.937 253.893 401.937L267.681 396.137C267.681 396.137 268.042 408.028 269.069 412.052C263.492 412.635 256.972 408.5 255.058 405.614Z" fill="black"/>
<path d="M262.982 371.34C266.755 373.311 272.151 379.666 266.242 381.789C260.332 383.912 256.504 367.969 262.982 371.34Z" fill="#263238"/>
<path d="M246.206 395.901C249.101 399.436 252.254 402.752 255.639 405.822C258.072 407.883 261.059 409.182 264.226 409.554C275.323 410.942 282.509 399.12 278.028 389.365C277.51 388.248 276.931 387.159 276.294 386.104C271.425 378.084 262.062 369.662 252.795 372.409C250.46 373.102 248.338 374.376 246.628 376.112C244.918 377.848 243.676 379.989 243.018 382.336C242.36 384.682 242.307 387.157 242.865 389.529C243.422 391.901 244.572 394.093 246.206 395.901Z" fill="#EBB376"/>
<path d="M250.775 395.235L251.289 396.9C252.264 400.103 253.753 403.126 255.7 405.849C258.133 407.911 261.12 409.209 264.287 409.582C275.384 410.97 282.57 399.147 278.09 389.393C277.571 388.275 276.992 387.187 276.356 386.132C276.356 386.132 277.188 390.045 276.466 391.863C276.466 391.863 272.305 390.794 270.252 392.501C270.252 392.501 265.84 391.294 262.095 395.97C260.383 397.09 258.354 397.623 256.313 397.491C254.271 397.358 252.328 396.566 250.775 395.235Z" fill="#263238"/>
<path opacity="0.5" d="M250.775 395.235L251.289 396.9C252.264 400.103 253.753 403.126 255.7 405.849C258.133 407.911 261.12 409.209 264.287 409.582C275.384 410.97 282.57 399.147 278.09 389.393C277.571 388.275 276.992 387.187 276.356 386.132C276.356 386.132 277.188 390.045 276.466 391.863C276.466 391.863 272.305 390.794 270.252 392.501C270.252 392.501 265.84 391.294 262.095 395.97C260.383 397.09 258.354 397.623 256.313 397.491C254.271 397.358 252.328 396.566 250.775 395.235Z" fill="white"/>
<path d="M234.637 390.711C229.602 386.479 234.374 380.359 239.645 378.223C240.215 377.997 240.7 377.599 241.032 377.085L247.289 386.701C246.72 386.964 246.151 387.228 245.61 387.436C245.61 387.436 252.921 393.902 252.213 400.34C242.003 403.227 232.154 397.968 234.637 390.711Z" fill="#263238"/>
<path d="M248.412 405.225C249.483 405.953 250.689 406.46 251.959 406.715C253.229 406.97 254.537 406.968 255.806 406.71C256.051 406.663 256.292 406.598 256.527 406.515C258.636 404.531 252.366 397.552 252.074 397.191C251.404 396.987 250.696 396.93 250.002 397.026C249.307 397.122 248.642 397.368 248.051 397.746C247.455 398.185 246.976 398.766 246.658 399.435C246.34 400.104 246.192 400.842 246.228 401.582C246.264 402.322 246.482 403.042 246.863 403.678C247.244 404.313 247.776 404.845 248.412 405.225Z" fill="#EBB376"/>
<path d="M260.383 388.296C260.896 388.962 261.673 389.226 262.117 388.879C262.561 388.532 262.478 387.7 261.951 387.034C261.424 386.368 260.647 386.104 260.217 386.451C259.787 386.798 259.856 387.63 260.383 388.296Z" fill="#263238"/>
<path d="M267.934 382.288C268.447 382.954 269.224 383.218 269.668 382.871C270.112 382.524 270.029 381.706 269.502 381.026C268.974 380.346 268.198 380.097 267.768 380.457C267.337 380.818 267.365 381.636 267.934 382.288Z" fill="#263238"/>
<path d="M265.752 384.536C268.121 385.855 270.66 386.841 273.298 387.464C272.965 389.435 270.524 390.531 270.524 390.531L265.752 384.536Z" fill="#D58745"/>
<path d="M257.402 383.135C257.324 383.176 257.26 383.239 257.216 383.315C257.171 383.391 257.149 383.477 257.152 383.565C257.163 384.195 257.025 384.818 256.751 385.385C256.476 385.951 256.072 386.445 255.571 386.826C255.463 386.902 255.388 387.015 255.36 387.143C255.332 387.272 255.352 387.406 255.418 387.52C255.453 387.576 255.499 387.624 255.553 387.662C255.607 387.7 255.668 387.727 255.733 387.741C255.797 387.755 255.864 387.756 255.929 387.745C255.994 387.733 256.056 387.708 256.112 387.673C256.758 387.192 257.28 386.563 257.632 385.838C257.985 385.114 258.158 384.315 258.137 383.51C258.137 383.38 258.086 383.255 257.996 383.161C257.905 383.068 257.781 383.014 257.651 383.01C257.558 383.027 257.471 383.07 257.402 383.135Z" fill="#263238"/>
<path d="M269.113 376.863C269.193 376.804 269.251 376.722 269.28 376.627C269.325 376.504 269.319 376.368 269.265 376.248C269.21 376.129 269.111 376.036 268.988 375.989C268.252 375.702 267.456 375.599 266.671 375.688C265.885 375.778 265.133 376.057 264.48 376.502C264.393 376.587 264.34 376.701 264.331 376.822C264.322 376.943 264.358 377.063 264.431 377.16C264.504 377.257 264.61 377.324 264.728 377.348C264.847 377.373 264.971 377.353 265.076 377.293C265.599 376.948 266.198 376.735 266.821 376.672C267.445 376.609 268.074 376.698 268.655 376.932C268.731 376.96 268.813 376.968 268.893 376.956C268.973 376.944 269.049 376.912 269.113 376.863Z" fill="#263238"/>
<path d="M270.486 399.674C270.758 399.571 271.022 399.451 271.277 399.313L271.957 393.846C271.957 393.846 271.624 393.846 271.111 393.846C269.39 393.846 265.562 394.235 264.535 396.205C264.423 396.431 264.335 396.669 264.272 396.913C264.013 397.794 264.077 398.739 264.452 399.577C265.076 400.743 266.741 401.353 270.486 399.674Z" fill="#263238"/>
<path d="M264.27 396.899L270.942 394.485L271.108 393.833C269.388 393.833 265.56 394.221 264.533 396.191C264.421 396.417 264.333 396.654 264.27 396.899Z" fill="white"/>
<path d="M270.486 399.674C269.32 397.732 266.213 398.731 264.451 399.591C265.075 400.743 266.74 401.353 270.486 399.674Z" fill="#DE5753"/>
<path d="M234.639 390.711C232.586 389.129 229.589 384.869 233.612 380.429C237.635 375.989 242.393 373.797 240.146 370.577C237.899 367.358 241.88 364.625 244.682 366.72C244.682 366.72 251.271 355.939 255.96 364.222C255.96 364.222 260.552 361.059 263.368 364.458C266.184 367.858 266.766 371.493 263.063 372.784C259.359 374.074 259.012 374.477 259.65 376.627C260.288 378.778 257.07 380.554 257.07 380.554C257.07 380.554 259.067 379.278 257.93 377.779C257.729 378.728 257.256 379.599 256.569 380.284C255.882 380.969 255.01 381.439 254.06 381.636C250.467 382.76 252.131 386.257 252.131 386.257C252.131 386.257 250.203 387.006 249.787 384.259C249.787 384.259 248.289 390.392 244.238 391.918C240.188 393.445 237.691 393.084 234.639 390.711Z" fill="#263238"/>
<path opacity="0.1" d="M287.031 437.208C286.365 439.567 285.741 441.968 285.159 444.382C285.152 444.433 285.152 444.484 285.159 444.535L280.484 444.701L277.251 444.812C274.685 444.882 272.091 444.951 269.455 444.993H268.498H266.709H264.975C266.657 441.83 269.027 439.084 271.911 436.959C272.424 436.569 272.961 436.212 273.52 435.89C274.674 435.256 275.926 434.82 277.224 434.6C280.708 434.156 284.228 435.092 287.031 437.208Z" fill="black"/>
<path d="M296.343 432.615C296.274 433.974 295.848 435.29 295.109 436.431C293.347 439.206 291.558 441.787 289.685 444.34L285.135 444.535L280.46 444.701L277.228 444.812C274.661 444.882 272.067 444.951 269.432 444.993C269.584 444.826 269.709 444.66 269.848 444.493C272.345 441.343 274.828 438.027 277.228 434.683C277.907 433.753 278.615 432.81 279.225 431.908C280.183 430.52 281.098 429.244 282 427.925L282.097 427.787C283.081 426.363 284.51 425.306 286.159 424.782C287.808 424.257 289.585 424.294 291.211 424.887C291.836 425.114 292.428 425.422 292.973 425.802C294.069 426.556 294.954 427.578 295.544 428.77C296.134 429.963 296.409 431.286 296.343 432.615Z" fill="#FFB573"/>
<path d="M297.133 432.657C296.393 436.793 294.79 440.726 292.431 444.202L289.656 444.34L285.106 444.535L280.431 444.701L277.199 444.812C274.633 444.881 272.039 444.951 269.403 444.992H268.446H266.656C268.196 442.661 270.097 439.747 271.886 436.986C273.107 435.071 274.272 433.24 275.215 431.686L276.2 430.062C277.748 427.388 279.966 425.164 282.637 423.61C285.703 421.869 289.2 421.032 292.722 421.196C293.905 421.964 294.901 422.988 295.635 424.193C297.127 426.745 297.658 429.747 297.133 432.657Z" fill="#6776FF"/>
<path opacity="0.7" d="M297.133 432.657C296.393 436.793 294.79 440.726 292.431 444.202L289.656 444.34L285.106 444.535L280.431 444.701L277.199 444.812C274.633 444.881 272.039 444.951 269.403 444.992H268.446H266.656C268.196 442.661 270.097 439.747 271.886 436.986C273.107 435.071 274.272 433.24 275.215 431.686L276.2 430.062C277.748 427.388 279.966 425.164 282.637 423.61C285.703 421.869 289.2 421.032 292.722 421.196C293.905 421.964 294.901 422.988 295.635 424.193C297.127 426.745 297.658 429.747 297.133 432.657Z" fill="white"/>
</svg>
