<svg width="640" height="484" viewBox="0 0 640 484" fill="none" xmlns="http://www.w3.org/2000/svg">
<path d="M640 426.233H0V426.553H640V426.233Z" fill="#EBEBEB"/>
<path d="M100.43 438.411H67.1504V438.731H100.43V438.411Z" fill="#EBEBEB"/>
<path d="M256.551 434.944H187.303V435.264H256.551V434.944Z" fill="#EBEBEB"/>
<path d="M135.399 450.294H101.709V450.614H135.399V450.294Z" fill="#EBEBEB"/>
<path d="M575.872 448.145H551.258V448.465H575.872V448.145Z" fill="#EBEBEB"/>
<path d="M539.851 448.145H501.08V448.465H539.851V448.145Z" fill="#EBEBEB"/>
<path d="M400.37 442.747H330.533V443.067H400.37V442.747Z" fill="#EBEBEB"/>
<path d="M303.361 369.182H56.2062C54.27 369.178 52.4142 368.407 51.0463 367.038C49.6784 365.668 48.9102 363.812 48.9102 361.877V14.6722C48.927 12.7484 49.7027 10.9089 51.0688 9.55327C52.4349 8.19766 54.281 7.43542 56.2062 7.43213H303.361C305.3 7.43213 307.159 8.20166 308.529 9.57144C309.9 10.9412 310.67 12.799 310.67 14.7362V361.877C310.67 363.815 309.9 365.672 308.529 367.042C307.159 368.412 305.3 369.182 303.361 369.182ZM56.2062 7.68796C54.3548 7.69135 52.5805 8.42869 51.2726 9.73812C49.9647 11.0476 49.2302 12.8221 49.2302 14.6722V361.877C49.2302 363.728 49.9647 365.502 51.2726 366.812C52.5805 368.121 54.3548 368.858 56.2062 368.862H303.361C305.214 368.858 306.99 368.121 308.299 366.812C309.609 365.503 310.347 363.729 310.35 361.877V14.6722C310.347 12.8209 309.609 11.0464 308.299 9.73734C306.99 8.42827 305.214 7.69135 303.361 7.68796H56.2062Z" fill="#EBEBEB"/>
<path d="M580.237 369.182H333.069C331.131 369.178 329.274 368.408 327.904 367.039C326.534 365.669 325.763 363.814 325.76 361.877V14.6722C325.78 12.7472 326.559 10.9077 327.927 9.55247C329.295 8.19721 331.142 7.43539 333.069 7.43213H580.237C582.159 7.43879 584.002 8.20251 585.366 9.55776C586.729 10.913 587.503 12.7506 587.52 14.6722V361.877C587.52 363.81 586.753 365.664 585.388 367.033C584.023 368.402 582.171 369.175 580.237 369.182ZM333.069 7.68796C331.216 7.69135 329.44 8.42827 328.13 9.73734C326.821 11.0464 326.083 12.8209 326.08 14.6722V361.877C326.083 363.729 326.821 365.503 328.13 366.812C329.44 368.121 331.216 368.858 333.069 368.862H580.237C582.089 368.858 583.865 368.121 585.175 366.812C586.485 365.503 587.222 363.729 587.225 361.877V14.6722C587.222 12.8209 586.485 11.0464 585.175 9.73734C583.865 8.42827 582.089 7.69135 580.237 7.68796H333.069Z" fill="#EBEBEB"/>
<path d="M489.202 128.455H400.332L388.057 140.722V413.966L400.332 426.233H489.202L501.477 413.966V140.722L489.202 128.455Z" fill="#E0E0E0"/>
<path d="M388.057 413.966L400.332 426.233H427.89L415.615 413.966H388.057Z" fill="#EBEBEB"/>
<path d="M388.057 140.722L400.332 128.455H427.89L415.615 140.722H388.057Z" fill="#EBEBEB"/>
<path d="M538.124 128.455H427.89L415.615 140.722V413.966L427.89 426.233H538.124C542.911 421.436 545.599 418.75 550.399 413.966V140.722L538.124 128.455Z" fill="#EBEBEB"/>
<path d="M429.454 420.502L421.352 412.405V142.282L429.454 134.185H536.564L544.667 142.282V412.405L536.564 420.502H429.454Z" fill="white"/>
<path d="M544.667 148.717H427.086V172.381H544.667V148.717Z" fill="#EBEBEB"/>
<path d="M538.024 388.51C538.021 388.715 538.08 388.917 538.192 389.089C538.304 389.261 538.465 389.396 538.655 389.476C538.844 389.557 539.053 389.579 539.255 389.54C539.457 389.502 539.643 389.404 539.789 389.26C539.935 389.116 540.035 388.931 540.076 388.73C540.117 388.528 540.097 388.319 540.019 388.129C539.941 387.939 539.808 387.777 539.638 387.662C539.467 387.548 539.266 387.487 539.06 387.487C538.788 387.487 538.526 387.594 538.332 387.786C538.138 387.977 538.027 388.237 538.024 388.51Z" fill="#F5F5F5"/>
<path d="M533.094 388.51C533.094 388.712 533.154 388.91 533.266 389.078C533.379 389.247 533.539 389.378 533.726 389.455C533.913 389.533 534.119 389.553 534.317 389.514C534.516 389.474 534.699 389.377 534.842 389.234C534.985 389.09 535.083 388.908 535.122 388.71C535.162 388.511 535.141 388.305 535.064 388.118C534.986 387.931 534.855 387.771 534.687 387.659C534.518 387.547 534.32 387.487 534.118 387.487C533.846 387.487 533.586 387.594 533.394 387.786C533.202 387.978 533.094 388.239 533.094 388.51Z" fill="white"/>
<path d="M528.152 388.51C528.152 388.712 528.212 388.91 528.325 389.078C528.437 389.247 528.597 389.378 528.784 389.455C528.972 389.533 529.177 389.553 529.376 389.514C529.575 389.474 529.757 389.377 529.9 389.234C530.044 389.09 530.141 388.908 530.181 388.71C530.22 388.511 530.2 388.305 530.122 388.118C530.045 387.931 529.914 387.771 529.745 387.659C529.577 387.547 529.379 387.487 529.176 387.487C528.905 387.487 528.644 387.594 528.452 387.786C528.26 387.978 528.152 388.239 528.152 388.51Z" fill="#F5F5F5"/>
<path d="M544.667 158.247H427.086V162.852H544.667V158.247Z" fill="#F5F5F5"/>
<path d="M421.352 172.381H427.086V148.717H421.352V172.381Z" fill="#E0E0E0"/>
<path d="M544.667 174.671H427.086V198.336H544.667V174.671Z" fill="#EBEBEB"/>
<path d="M538.024 362.556C538.021 362.761 538.08 362.963 538.192 363.135C538.304 363.307 538.465 363.441 538.655 363.522C538.844 363.602 539.053 363.625 539.255 363.586C539.457 363.548 539.643 363.45 539.789 363.306C539.935 363.161 540.035 362.977 540.076 362.775C540.117 362.574 540.097 362.365 540.019 362.175C539.941 361.985 539.808 361.822 539.638 361.708C539.467 361.593 539.266 361.532 539.06 361.532C538.788 361.532 538.526 361.64 538.332 361.831C538.138 362.023 538.027 362.283 538.024 362.556Z" fill="#F5F5F5"/>
<path d="M533.094 362.556C533.094 362.758 533.154 362.956 533.266 363.124C533.379 363.292 533.539 363.424 533.726 363.501C533.913 363.578 534.119 363.599 534.317 363.559C534.516 363.52 534.699 363.422 534.842 363.279C534.985 363.136 535.083 362.954 535.122 362.755C535.162 362.557 535.141 362.351 535.064 362.164C534.986 361.977 534.855 361.817 534.687 361.705C534.518 361.592 534.32 361.532 534.118 361.532C533.846 361.532 533.586 361.64 533.394 361.832C533.202 362.024 533.094 362.284 533.094 362.556Z" fill="white"/>
<path d="M528.152 362.556C528.152 362.758 528.212 362.956 528.325 363.124C528.437 363.292 528.597 363.424 528.784 363.501C528.972 363.578 529.177 363.599 529.376 363.559C529.575 363.52 529.757 363.422 529.9 363.279C530.044 363.136 530.141 362.954 530.181 362.755C530.22 362.557 530.2 362.351 530.122 362.164C530.045 361.977 529.914 361.817 529.745 361.705C529.577 361.592 529.379 361.532 529.176 361.532C528.905 361.532 528.644 361.64 528.452 361.832C528.26 362.024 528.152 362.284 528.152 362.556Z" fill="white"/>
<path d="M544.667 184.201H427.086V188.806H544.667V184.201Z" fill="#F5F5F5"/>
<path d="M421.352 198.336H427.086V174.671H421.352V198.336Z" fill="#E0E0E0"/>
<path d="M544.667 200.625H427.086V224.29H544.667V200.625Z" fill="#EBEBEB"/>
<path d="M538.024 336.614C538.024 336.819 538.084 337.019 538.198 337.189C538.312 337.36 538.474 337.493 538.664 337.571C538.853 337.65 539.062 337.67 539.263 337.63C539.464 337.59 539.648 337.491 539.793 337.346C539.938 337.202 540.037 337.017 540.077 336.816C540.117 336.615 540.097 336.407 540.018 336.217C539.94 336.028 539.807 335.866 539.636 335.752C539.466 335.638 539.265 335.578 539.06 335.578C538.924 335.576 538.788 335.602 538.662 335.653C538.535 335.705 538.42 335.781 538.323 335.877C538.227 335.974 538.15 336.089 538.099 336.215C538.047 336.342 538.022 336.477 538.024 336.614Z" fill="#F5F5F5"/>
<path d="M533.094 336.614C533.094 336.886 533.202 337.146 533.394 337.338C533.586 337.53 533.846 337.638 534.118 337.638C534.389 337.638 534.65 337.53 534.842 337.338C535.034 337.146 535.142 336.886 535.142 336.614C535.142 336.343 535.034 336.082 534.842 335.891C534.65 335.699 534.389 335.591 534.118 335.591C533.846 335.591 533.586 335.699 533.394 335.891C533.202 336.082 533.094 336.343 533.094 336.614Z" fill="#F5F5F5"/>
<path d="M528.152 336.614C528.155 336.816 528.217 337.013 528.331 337.179C528.445 337.346 528.606 337.475 528.793 337.551C528.981 337.626 529.186 337.644 529.384 337.604C529.582 337.563 529.763 337.464 529.905 337.321C530.047 337.177 530.143 336.995 530.182 336.796C530.22 336.598 530.199 336.393 530.121 336.207C530.043 336.021 529.912 335.862 529.744 335.75C529.576 335.638 529.378 335.578 529.176 335.578C529.041 335.578 528.907 335.605 528.782 335.657C528.656 335.709 528.543 335.786 528.448 335.882C528.353 335.979 528.277 336.093 528.227 336.219C528.176 336.344 528.151 336.479 528.152 336.614Z" fill="#F5F5F5"/>
<path d="M544.667 210.155H427.086V214.76H544.667V210.155Z" fill="#F5F5F5"/>
<path d="M421.352 224.29H427.086V200.626H421.352V224.29Z" fill="#E0E0E0"/>
<path d="M544.667 226.58H427.086V250.244H544.667V226.58Z" fill="#EBEBEB"/>
<path d="M538.024 310.66C538.024 310.865 538.084 311.065 538.198 311.235C538.312 311.406 538.474 311.539 538.664 311.617C538.853 311.695 539.062 311.716 539.263 311.676C539.464 311.636 539.648 311.537 539.793 311.392C539.938 311.247 540.037 311.063 540.077 310.862C540.117 310.661 540.097 310.453 540.018 310.263C539.94 310.074 539.807 309.912 539.636 309.798C539.466 309.684 539.265 309.624 539.06 309.624C538.924 309.622 538.788 309.648 538.662 309.699C538.535 309.75 538.42 309.827 538.323 309.923C538.227 310.02 538.15 310.135 538.099 310.261C538.047 310.388 538.022 310.523 538.024 310.66Z" fill="white"/>
<path d="M533.094 310.66C533.094 310.931 533.202 311.191 533.394 311.383C533.586 311.575 533.846 311.683 534.118 311.683C534.389 311.683 534.65 311.575 534.842 311.383C535.034 311.191 535.142 310.931 535.142 310.66C535.142 310.388 535.034 310.128 534.842 309.936C534.65 309.744 534.389 309.636 534.118 309.636C533.846 309.636 533.586 309.744 533.394 309.936C533.202 310.128 533.094 310.388 533.094 310.66Z" fill="white"/>
<path d="M528.152 310.66C528.155 310.861 528.217 311.058 528.331 311.225C528.445 311.391 528.606 311.52 528.793 311.596C528.981 311.671 529.186 311.69 529.384 311.649C529.582 311.608 529.763 311.51 529.905 311.366C530.047 311.222 530.143 311.04 530.182 310.842C530.22 310.644 530.199 310.439 530.121 310.252C530.043 310.066 529.912 309.907 529.744 309.795C529.576 309.683 529.378 309.624 529.176 309.624C529.041 309.624 528.907 309.65 528.782 309.703C528.656 309.755 528.543 309.831 528.448 309.928C528.353 310.024 528.277 310.138 528.227 310.264C528.176 310.39 528.151 310.524 528.152 310.66Z" fill="#F5F5F5"/>
<path d="M544.667 236.11H427.086V240.715H544.667V236.11Z" fill="#F5F5F5"/>
<path d="M421.352 250.244H427.086V226.58H421.352V250.244Z" fill="#E0E0E0"/>
<path d="M544.667 252.534H427.086V276.199H544.667V252.534Z" fill="#EBEBEB"/>
<path d="M538.024 284.706C538.024 284.911 538.084 285.111 538.198 285.281C538.312 285.452 538.474 285.584 538.664 285.663C538.853 285.741 539.062 285.762 539.263 285.722C539.464 285.682 539.648 285.583 539.793 285.438C539.938 285.293 540.037 285.109 540.077 284.908C540.117 284.707 540.097 284.498 540.018 284.309C539.94 284.12 539.807 283.958 539.636 283.844C539.466 283.73 539.265 283.67 539.06 283.67C538.924 283.668 538.788 283.693 538.662 283.745C538.535 283.796 538.42 283.873 538.323 283.969C538.227 284.066 538.15 284.181 538.099 284.307C538.047 284.434 538.022 284.569 538.024 284.706Z" fill="white"/>
<path d="M533.094 284.705C533.094 284.977 533.202 285.237 533.394 285.429C533.586 285.621 533.846 285.729 534.118 285.729C534.389 285.729 534.65 285.621 534.842 285.429C535.034 285.237 535.142 284.977 535.142 284.705C535.142 284.434 535.034 284.174 534.842 283.982C534.65 283.79 534.389 283.682 534.118 283.682C533.846 283.682 533.586 283.79 533.394 283.982C533.202 284.174 533.094 284.434 533.094 284.705Z" fill="white"/>
<path d="M528.152 284.706C528.155 284.907 528.217 285.104 528.331 285.271C528.445 285.437 528.606 285.566 528.793 285.642C528.981 285.717 529.186 285.736 529.384 285.695C529.582 285.654 529.763 285.555 529.905 285.412C530.047 285.268 530.143 285.086 530.182 284.888C530.22 284.69 530.199 284.484 530.121 284.298C530.043 284.112 529.912 283.953 529.744 283.841C529.576 283.729 529.378 283.669 529.176 283.669C529.041 283.669 528.907 283.696 528.782 283.749C528.656 283.801 528.543 283.877 528.448 283.974C528.353 284.07 528.277 284.184 528.227 284.31C528.176 284.436 528.151 284.57 528.152 284.706Z" fill="white"/>
<path d="M544.667 262.064H427.086V266.669H544.667V262.064Z" fill="#F5F5F5"/>
<path d="M421.352 276.199H427.086V252.534H421.352V276.199Z" fill="#E0E0E0"/>
<path d="M544.667 278.489H427.086V302.153H544.667V278.489Z" fill="#EBEBEB"/>
<path d="M538.023 258.751C538.052 259.004 538.172 259.238 538.363 259.408C538.553 259.578 538.799 259.672 539.054 259.672C539.309 259.672 539.555 259.578 539.745 259.408C539.935 259.238 540.056 259.004 540.084 258.751C540.056 258.497 539.935 258.263 539.745 258.094C539.555 257.924 539.309 257.83 539.054 257.83C538.799 257.83 538.553 257.924 538.363 258.094C538.172 258.263 538.052 258.497 538.023 258.751Z" fill="#F5F5F5"/>
<path d="M533.094 258.751C533.094 258.953 533.154 259.151 533.266 259.319C533.379 259.488 533.539 259.619 533.726 259.696C533.913 259.774 534.119 259.794 534.317 259.755C534.516 259.715 534.699 259.618 534.842 259.474C534.985 259.331 535.083 259.149 535.122 258.951C535.162 258.752 535.141 258.546 535.064 258.359C534.986 258.172 534.855 258.012 534.687 257.9C534.518 257.788 534.32 257.728 534.118 257.728C533.846 257.728 533.586 257.835 533.394 258.027C533.202 258.219 533.094 258.479 533.094 258.751Z" fill="white"/>
<path d="M528.152 258.751C528.152 258.953 528.212 259.151 528.325 259.319C528.437 259.488 528.597 259.619 528.784 259.696C528.972 259.774 529.177 259.794 529.376 259.755C529.575 259.715 529.757 259.618 529.9 259.474C530.044 259.331 530.141 259.149 530.181 258.951C530.22 258.752 530.2 258.546 530.122 258.359C530.045 258.172 529.914 258.012 529.745 257.9C529.577 257.788 529.379 257.728 529.176 257.728C528.905 257.728 528.644 257.835 528.452 258.027C528.26 258.219 528.152 258.479 528.152 258.751Z" fill="#F5F5F5"/>
<path d="M544.667 288.018H427.086V292.623H544.667V288.018Z" fill="#F5F5F5"/>
<path d="M421.352 302.153H427.086V278.489H421.352V302.153Z" fill="#E0E0E0"/>
<path d="M544.667 304.443H427.086V328.108H544.667V304.443Z" fill="#EBEBEB"/>
<path d="M538.024 232.796C538.021 233.002 538.08 233.203 538.192 233.375C538.304 233.548 538.465 233.682 538.655 233.763C538.844 233.843 539.053 233.865 539.255 233.827C539.457 233.788 539.643 233.691 539.789 233.546C539.935 233.402 540.035 233.217 540.076 233.016C540.117 232.815 540.097 232.606 540.019 232.416C539.941 232.226 539.808 232.063 539.638 231.949C539.467 231.834 539.266 231.773 539.06 231.773C538.925 231.771 538.79 231.797 538.665 231.847C538.539 231.898 538.424 231.973 538.328 232.068C538.232 232.163 538.155 232.277 538.103 232.402C538.05 232.527 538.024 232.661 538.024 232.796Z" fill="white"/>
<path d="M533.094 232.796C533.094 232.999 533.154 233.197 533.266 233.365C533.379 233.533 533.539 233.664 533.726 233.742C533.913 233.819 534.119 233.839 534.317 233.8C534.516 233.76 534.699 233.663 534.842 233.52C534.985 233.377 535.083 233.194 535.122 232.996C535.162 232.797 535.141 232.592 535.064 232.405C534.986 232.218 534.855 232.058 534.687 231.945C534.518 231.833 534.32 231.773 534.118 231.773C533.846 231.773 533.586 231.881 533.394 232.073C533.202 232.265 533.094 232.525 533.094 232.796Z" fill="white"/>
<path d="M528.152 232.796C528.152 232.999 528.212 233.197 528.325 233.365C528.437 233.533 528.597 233.664 528.784 233.742C528.972 233.819 529.177 233.839 529.376 233.8C529.575 233.76 529.757 233.663 529.9 233.52C530.044 233.377 530.141 233.194 530.181 232.996C530.22 232.797 530.2 232.592 530.122 232.405C530.045 232.218 529.914 232.058 529.745 231.945C529.577 231.833 529.379 231.773 529.176 231.773C528.905 231.773 528.644 231.881 528.452 232.073C528.26 232.265 528.152 232.525 528.152 232.796Z" fill="#F5F5F5"/>
<path d="M544.667 313.973H427.086V318.578H544.667V313.973Z" fill="#F5F5F5"/>
<path d="M421.352 328.108H427.086V304.443H421.352V328.108Z" fill="#E0E0E0"/>
<path d="M544.667 330.397H427.086V354.062H544.667V330.397Z" fill="#EBEBEB"/>
<path d="M538.024 206.842C538.021 207.047 538.08 207.249 538.192 207.421C538.304 207.593 538.465 207.728 538.655 207.808C538.844 207.889 539.053 207.911 539.255 207.873C539.457 207.834 539.643 207.736 539.789 207.592C539.935 207.448 540.035 207.263 540.076 207.062C540.117 206.86 540.097 206.651 540.019 206.461C539.941 206.271 539.808 206.109 539.638 205.994C539.467 205.88 539.266 205.819 539.06 205.819C538.925 205.817 538.79 205.842 538.665 205.893C538.539 205.944 538.424 206.019 538.328 206.114C538.232 206.209 538.155 206.322 538.103 206.447C538.05 206.572 538.024 206.707 538.024 206.842Z" fill="white"/>
<path d="M533.094 206.842C533.094 207.044 533.154 207.242 533.266 207.41C533.379 207.579 533.539 207.71 533.726 207.787C533.913 207.865 534.119 207.885 534.317 207.846C534.516 207.806 534.699 207.709 534.842 207.566C534.985 207.422 535.083 207.24 535.122 207.042C535.162 206.843 535.141 206.637 535.064 206.45C534.986 206.263 534.855 206.104 534.687 205.991C534.518 205.879 534.32 205.819 534.118 205.819C533.846 205.819 533.586 205.926 533.394 206.118C533.202 206.31 533.094 206.571 533.094 206.842Z" fill="#F5F5F5"/>
<path d="M528.152 206.842C528.152 207.044 528.212 207.242 528.325 207.41C528.437 207.579 528.597 207.71 528.784 207.787C528.972 207.865 529.177 207.885 529.376 207.846C529.575 207.806 529.757 207.709 529.9 207.566C530.044 207.422 530.141 207.24 530.181 207.042C530.22 206.843 530.2 206.637 530.122 206.45C530.045 206.263 529.914 206.104 529.745 205.991C529.577 205.879 529.379 205.819 529.176 205.819C528.905 205.819 528.644 205.926 528.452 206.118C528.26 206.31 528.152 206.571 528.152 206.842Z" fill="white"/>
<path d="M544.667 339.927H427.086V344.532H544.667V339.927Z" fill="#F5F5F5"/>
<path d="M421.352 354.049H427.086V330.384H421.352V354.049Z" fill="#E0E0E0"/>
<path d="M544.667 356.352H427.086V380.016H544.667V356.352Z" fill="#EBEBEB"/>
<path d="M538.024 180.887C538.021 181.093 538.08 181.294 538.192 181.467C538.304 181.639 538.465 181.773 538.655 181.854C538.844 181.934 539.053 181.956 539.255 181.918C539.457 181.879 539.643 181.782 539.789 181.637C539.935 181.493 540.035 181.308 540.076 181.107C540.117 180.906 540.097 180.697 540.019 180.507C539.941 180.317 539.808 180.154 539.638 180.04C539.467 179.925 539.266 179.864 539.06 179.864C538.925 179.862 538.79 179.888 538.665 179.938C538.539 179.989 538.424 180.064 538.328 180.159C538.232 180.254 538.155 180.368 538.103 180.493C538.05 180.618 538.024 180.752 538.024 180.887Z" fill="#F5F5F5"/>
<path d="M533.094 180.888C533.094 181.09 533.154 181.288 533.266 181.456C533.379 181.625 533.539 181.756 533.726 181.833C533.913 181.911 534.119 181.931 534.317 181.892C534.516 181.852 534.699 181.755 534.842 181.611C534.985 181.468 535.083 181.286 535.122 181.087C535.162 180.889 535.141 180.683 535.064 180.496C534.986 180.309 534.855 180.149 534.687 180.037C534.518 179.925 534.32 179.865 534.118 179.865C533.846 179.865 533.586 179.972 533.394 180.164C533.202 180.356 533.094 180.616 533.094 180.888Z" fill="white"/>
<path d="M528.152 180.888C528.152 181.09 528.212 181.288 528.325 181.456C528.437 181.625 528.597 181.756 528.784 181.833C528.972 181.911 529.177 181.931 529.376 181.892C529.575 181.852 529.757 181.755 529.9 181.611C530.044 181.468 530.141 181.286 530.181 181.087C530.22 180.889 530.2 180.683 530.122 180.496C530.045 180.309 529.914 180.149 529.745 180.037C529.577 179.925 529.379 179.865 529.176 179.865C528.905 179.865 528.644 179.972 528.452 180.164C528.26 180.356 528.152 180.616 528.152 180.888Z" fill="#F5F5F5"/>
<path d="M544.667 365.882H427.086V370.487H544.667V365.882Z" fill="#F5F5F5"/>
<path d="M421.352 380.004H427.086V356.339H421.352V380.004Z" fill="#E0E0E0"/>
<path d="M544.667 382.306H427.086V405.971H544.667V382.306Z" fill="#EBEBEB"/>
<path d="M538.024 154.933C538.021 155.139 538.08 155.34 538.192 155.512C538.304 155.684 538.465 155.819 538.655 155.9C538.844 155.98 539.053 156.002 539.255 155.964C539.457 155.925 539.643 155.828 539.789 155.683C539.935 155.539 540.035 155.354 540.076 155.153C540.117 154.952 540.097 154.743 540.019 154.553C539.941 154.363 539.808 154.2 539.638 154.086C539.467 153.971 539.266 153.91 539.06 153.91C538.925 153.908 538.79 153.934 538.665 153.984C538.539 154.035 538.424 154.11 538.328 154.205C538.232 154.3 538.155 154.414 538.103 154.539C538.05 154.664 538.024 154.798 538.024 154.933Z" fill="#F5F5F5"/>
<path d="M533.094 154.933C533.094 155.136 533.154 155.334 533.266 155.502C533.379 155.67 533.539 155.801 533.726 155.879C533.913 155.956 534.119 155.976 534.317 155.937C534.516 155.897 534.699 155.8 534.842 155.657C534.985 155.514 535.083 155.331 535.122 155.133C535.162 154.934 535.141 154.729 535.064 154.542C534.986 154.355 534.855 154.195 534.687 154.082C534.518 153.97 534.32 153.91 534.118 153.91C533.846 153.91 533.586 154.018 533.394 154.21C533.202 154.402 533.094 154.662 533.094 154.933Z" fill="#F5F5F5"/>
<path d="M528.152 154.933C528.152 155.136 528.212 155.334 528.325 155.502C528.437 155.67 528.597 155.801 528.784 155.879C528.972 155.956 529.177 155.976 529.376 155.937C529.575 155.897 529.757 155.8 529.9 155.657C530.044 155.514 530.141 155.331 530.181 155.133C530.22 154.934 530.2 154.729 530.122 154.542C530.045 154.355 529.914 154.195 529.745 154.082C529.577 153.97 529.379 153.91 529.176 153.91C528.905 153.91 528.644 154.018 528.452 154.21C528.26 154.402 528.152 154.662 528.152 154.933Z" fill="white"/>
<path d="M544.667 391.836H427.086V396.441H544.667V391.836Z" fill="#F5F5F5"/>
<path d="M421.352 405.958H427.086V382.293H421.352V405.958Z" fill="#E0E0E0"/>
<path d="M339.981 128.455H251.11L238.822 140.722V413.966L251.11 426.233H339.981L352.256 413.966V140.722L339.981 128.455Z" fill="#E0E0E0"/>
<path d="M238.834 413.966L251.109 426.233H278.668L266.392 413.966H238.834Z" fill="#EBEBEB"/>
<path d="M238.834 140.722L251.109 128.455H278.668L266.392 140.722H238.834Z" fill="#EBEBEB"/>
<path d="M388.889 128.455H278.668L266.393 140.722V413.966L278.668 426.233H388.889L401.177 413.966V140.722L388.889 128.455Z" fill="#EBEBEB"/>
<path d="M280.227 420.502L272.125 412.405V142.282L280.227 134.185H387.325L395.44 142.282V412.405L387.325 420.502H280.227Z" fill="white"/>
<path d="M395.444 148.717H277.863V172.381H395.444V148.717Z" fill="#EBEBEB"/>
<path d="M388.801 154.933C388.801 154.731 388.861 154.533 388.973 154.365C389.086 154.196 389.246 154.065 389.433 153.988C389.62 153.91 389.826 153.89 390.025 153.93C390.223 153.969 390.406 154.067 390.549 154.21C390.692 154.353 390.79 154.535 390.829 154.734C390.869 154.932 390.848 155.138 390.771 155.325C390.693 155.512 390.562 155.672 390.394 155.784C390.225 155.897 390.027 155.957 389.825 155.957C389.553 155.957 389.293 155.849 389.101 155.657C388.909 155.465 388.801 155.205 388.801 154.933Z" fill="#F5F5F5"/>
<path d="M383.857 154.933C383.855 154.727 383.914 154.525 384.027 154.353C384.14 154.181 384.302 154.046 384.492 153.966C384.682 153.886 384.891 153.864 385.093 153.904C385.296 153.943 385.482 154.042 385.627 154.188C385.773 154.334 385.872 154.519 385.912 154.722C385.951 154.924 385.93 155.133 385.85 155.323C385.77 155.513 385.635 155.675 385.462 155.787C385.29 155.9 385.088 155.959 384.881 155.957C384.747 155.957 384.614 155.93 384.49 155.879C384.365 155.827 384.253 155.752 384.157 155.657C384.062 155.562 383.987 155.449 383.935 155.325C383.884 155.201 383.857 155.068 383.857 154.933Z" fill="white"/>
<path d="M378.879 154.933C378.876 154.727 378.935 154.525 379.048 154.353C379.161 154.181 379.323 154.046 379.513 153.966C379.703 153.886 379.913 153.864 380.115 153.904C380.317 153.943 380.503 154.042 380.649 154.188C380.795 154.334 380.894 154.519 380.933 154.722C380.973 154.924 380.951 155.133 380.871 155.323C380.791 155.513 380.656 155.675 380.484 155.787C380.311 155.9 380.109 155.959 379.903 155.957C379.631 155.957 379.371 155.849 379.179 155.657C378.987 155.465 378.879 155.205 378.879 154.933Z" fill="#F5F5F5"/>
<path d="M395.444 158.247H277.863V162.852H395.444V158.247Z" fill="#F5F5F5"/>
<path d="M272.115 172.381H277.85V148.717H272.115V172.381Z" fill="#E0E0E0"/>
<path d="M395.444 174.671H277.863V198.336H395.444V174.671Z" fill="#EBEBEB"/>
<path d="M388.801 180.888C388.801 180.685 388.861 180.488 388.973 180.319C389.086 180.151 389.246 180.02 389.433 179.942C389.62 179.865 389.826 179.845 390.025 179.884C390.223 179.924 390.406 180.021 390.549 180.164C390.692 180.307 390.79 180.49 390.829 180.688C390.869 180.887 390.848 181.092 390.771 181.279C390.693 181.466 390.562 181.626 390.394 181.739C390.225 181.851 390.027 181.911 389.825 181.911C389.553 181.911 389.293 181.803 389.101 181.611C388.909 181.42 388.801 181.159 388.801 180.888Z" fill="#F5F5F5"/>
<path d="M383.857 180.887C383.855 180.681 383.914 180.479 384.027 180.307C384.14 180.135 384.302 180 384.492 179.92C384.682 179.84 384.891 179.818 385.093 179.858C385.296 179.897 385.482 179.996 385.627 180.142C385.773 180.288 385.872 180.474 385.912 180.676C385.951 180.878 385.93 181.087 385.85 181.277C385.77 181.467 385.635 181.629 385.462 181.742C385.29 181.854 385.088 181.913 384.881 181.911C384.747 181.911 384.614 181.884 384.49 181.833C384.365 181.781 384.253 181.706 384.157 181.611C384.062 181.516 383.987 181.403 383.935 181.279C383.884 181.155 383.857 181.022 383.857 180.887Z" fill="white"/>
<path d="M378.879 180.887C378.876 180.681 378.935 180.479 379.048 180.307C379.161 180.135 379.323 180 379.513 179.92C379.703 179.84 379.913 179.818 380.115 179.858C380.317 179.897 380.503 179.996 380.649 180.142C380.795 180.288 380.894 180.474 380.933 180.676C380.973 180.878 380.951 181.087 380.871 181.277C380.791 181.467 380.656 181.629 380.484 181.742C380.311 181.854 380.109 181.913 379.903 181.911C379.631 181.911 379.371 181.803 379.179 181.611C378.987 181.419 378.879 181.159 378.879 180.887Z" fill="white"/>
<path d="M395.444 184.201H277.863V188.806H395.444V184.201Z" fill="#F5F5F5"/>
<path d="M272.115 198.336H277.85V174.671H272.115V198.336Z" fill="#E0E0E0"/>
<path d="M395.444 200.625H277.863V224.29H395.444V200.625Z" fill="#EBEBEB"/>
<path d="M388.801 206.842C388.801 206.64 388.861 206.442 388.973 206.273C389.086 206.105 389.246 205.974 389.433 205.896C389.62 205.819 389.826 205.799 390.025 205.838C390.223 205.878 390.406 205.975 390.549 206.118C390.692 206.261 390.79 206.444 390.829 206.642C390.869 206.841 390.848 207.047 390.771 207.234C390.693 207.421 390.562 207.58 390.394 207.693C390.225 207.805 390.027 207.865 389.825 207.865C389.553 207.865 389.293 207.757 389.101 207.566C388.909 207.374 388.801 207.113 388.801 206.842Z" fill="#F5F5F5"/>
<path d="M383.857 206.842C383.855 206.636 383.914 206.434 384.027 206.262C384.14 206.09 384.302 205.955 384.492 205.875C384.682 205.795 384.891 205.773 385.093 205.813C385.296 205.852 385.482 205.951 385.627 206.097C385.773 206.243 385.872 206.428 385.912 206.631C385.951 206.833 385.93 207.042 385.85 207.232C385.77 207.422 385.635 207.583 385.462 207.696C385.29 207.809 385.088 207.868 384.881 207.866C384.747 207.866 384.614 207.839 384.49 207.788C384.365 207.736 384.253 207.661 384.157 207.566C384.062 207.471 383.987 207.358 383.935 207.234C383.884 207.11 383.857 206.977 383.857 206.842Z" fill="#F5F5F5"/>
<path d="M378.879 206.842C378.876 206.636 378.935 206.434 379.048 206.262C379.161 206.09 379.323 205.955 379.513 205.875C379.703 205.795 379.913 205.773 380.115 205.813C380.317 205.852 380.503 205.951 380.649 206.097C380.795 206.243 380.894 206.428 380.933 206.631C380.973 206.833 380.951 207.042 380.871 207.232C380.791 207.422 380.656 207.583 380.484 207.696C380.311 207.809 380.109 207.868 379.903 207.866C379.631 207.866 379.371 207.758 379.179 207.566C378.987 207.374 378.879 207.114 378.879 206.842Z" fill="#F5F5F5"/>
<path d="M395.444 210.155H277.863V214.76H395.444V210.155Z" fill="#F5F5F5"/>
<path d="M272.115 224.29H277.85V200.626H272.115V224.29Z" fill="#E0E0E0"/>
<path d="M395.444 226.58H277.863V250.244H395.444V226.58Z" fill="#EBEBEB"/>
<path d="M388.801 232.796C388.801 232.594 388.861 232.396 388.973 232.228C389.086 232.059 389.246 231.928 389.433 231.851C389.62 231.773 389.826 231.753 390.025 231.793C390.223 231.832 390.406 231.93 390.549 232.073C390.692 232.216 390.79 232.398 390.829 232.597C390.869 232.795 390.848 233.001 390.771 233.188C390.693 233.375 390.562 233.535 390.394 233.647C390.225 233.76 390.027 233.82 389.825 233.82C389.553 233.82 389.293 233.712 389.101 233.52C388.909 233.328 388.801 233.068 388.801 232.796Z" fill="white"/>
<path d="M383.857 232.797C383.855 232.591 383.914 232.389 384.027 232.216C384.14 232.044 384.302 231.909 384.492 231.829C384.682 231.749 384.891 231.728 385.093 231.767C385.296 231.807 385.482 231.906 385.627 232.051C385.773 232.197 385.872 232.383 385.912 232.585C385.951 232.787 385.93 232.996 385.85 233.186C385.77 233.376 385.635 233.538 385.462 233.651C385.29 233.764 385.088 233.823 384.881 233.82C384.747 233.82 384.614 233.794 384.49 233.742C384.365 233.691 384.253 233.615 384.157 233.52C384.062 233.425 383.987 233.312 383.935 233.188C383.884 233.064 383.857 232.931 383.857 232.797Z" fill="white"/>
<path d="M378.879 232.797C378.876 232.591 378.935 232.389 379.048 232.216C379.161 232.044 379.323 231.909 379.513 231.829C379.703 231.749 379.913 231.728 380.115 231.767C380.317 231.807 380.503 231.906 380.649 232.051C380.795 232.197 380.894 232.383 380.933 232.585C380.973 232.787 380.951 232.996 380.871 233.186C380.791 233.376 380.656 233.538 380.484 233.651C380.311 233.764 380.109 233.823 379.903 233.82C379.631 233.82 379.371 233.712 379.179 233.52C378.987 233.328 378.879 233.068 378.879 232.797Z" fill="#F5F5F5"/>
<path d="M395.444 236.11H277.863V240.715H395.444V236.11Z" fill="#F5F5F5"/>
<path d="M272.115 250.244H277.85V226.58H272.115V250.244Z" fill="#E0E0E0"/>
<path d="M395.444 252.534H277.863V276.199H395.444V252.534Z" fill="#EBEBEB"/>
<path d="M388.801 258.751C388.801 258.548 388.861 258.351 388.973 258.182C389.086 258.014 389.246 257.883 389.433 257.805C389.62 257.728 389.826 257.708 390.025 257.747C390.223 257.787 390.406 257.884 390.549 258.027C390.692 258.17 390.79 258.353 390.829 258.551C390.869 258.75 390.848 258.956 390.771 259.142C390.693 259.329 390.562 259.489 390.394 259.602C390.225 259.714 390.027 259.774 389.825 259.774C389.553 259.774 389.293 259.666 389.101 259.474C388.909 259.283 388.801 259.022 388.801 258.751Z" fill="white"/>
<path d="M383.857 258.751C383.886 258.497 384.006 258.263 384.197 258.094C384.387 257.924 384.633 257.83 384.888 257.83C385.143 257.83 385.389 257.924 385.579 258.094C385.769 258.263 385.89 258.497 385.918 258.751C385.89 259.004 385.769 259.238 385.579 259.408C385.389 259.578 385.143 259.672 384.888 259.672C384.633 259.672 384.387 259.578 384.197 259.408C384.006 259.238 383.886 259.004 383.857 258.751Z" fill="white"/>
<path d="M378.879 258.751C378.907 258.497 379.028 258.263 379.218 258.094C379.408 257.924 379.654 257.83 379.909 257.83C380.164 257.83 380.41 257.924 380.601 258.094C380.791 258.263 380.911 258.497 380.94 258.751C380.911 259.004 380.791 259.238 380.601 259.408C380.41 259.578 380.164 259.672 379.909 259.672C379.654 259.672 379.408 259.578 379.218 259.408C379.028 259.238 378.907 259.004 378.879 258.751Z" fill="white"/>
<path d="M395.444 262.064H277.863V266.669H395.444V262.064Z" fill="#F5F5F5"/>
<path d="M272.115 276.199H277.85V252.534H272.115V276.199Z" fill="#E0E0E0"/>
<path d="M395.444 278.489H277.863V302.153H395.444V278.489Z" fill="#EBEBEB"/>
<path d="M388.801 284.705C388.801 284.503 388.861 284.305 388.973 284.137C389.086 283.968 389.246 283.837 389.433 283.76C389.62 283.682 389.826 283.662 390.025 283.702C390.223 283.741 390.406 283.838 390.549 283.982C390.692 284.125 390.79 284.307 390.829 284.506C390.869 284.704 390.848 284.91 390.771 285.097C390.693 285.284 390.562 285.444 390.394 285.556C390.225 285.669 390.027 285.729 389.825 285.729C389.553 285.729 389.293 285.621 389.101 285.429C388.909 285.237 388.801 284.977 388.801 284.705Z" fill="#F5F5F5"/>
<path d="M383.857 284.705C383.855 284.499 383.914 284.297 384.027 284.125C384.14 283.953 384.302 283.818 384.492 283.738C384.682 283.658 384.891 283.636 385.093 283.676C385.296 283.715 385.482 283.814 385.627 283.96C385.773 284.106 385.872 284.291 385.912 284.494C385.951 284.696 385.93 284.905 385.85 285.095C385.77 285.285 385.635 285.447 385.462 285.559C385.29 285.672 385.088 285.731 384.881 285.729C384.747 285.729 384.614 285.702 384.49 285.651C384.365 285.599 384.253 285.524 384.157 285.429C384.062 285.334 383.987 285.221 383.935 285.097C383.884 284.973 383.857 284.84 383.857 284.705Z" fill="white"/>
<path d="M378.879 284.705C378.876 284.499 378.935 284.297 379.048 284.125C379.161 283.953 379.323 283.818 379.513 283.738C379.703 283.658 379.913 283.636 380.115 283.676C380.317 283.715 380.503 283.814 380.649 283.96C380.795 284.106 380.894 284.291 380.933 284.494C380.973 284.696 380.951 284.905 380.871 285.095C380.791 285.285 380.656 285.447 380.484 285.559C380.311 285.672 380.109 285.731 379.903 285.729C379.631 285.729 379.371 285.621 379.179 285.429C378.987 285.237 378.879 284.977 378.879 284.705Z" fill="#F5F5F5"/>
<path d="M395.444 288.018H277.863V292.623H395.444V288.018Z" fill="#F5F5F5"/>
<path d="M272.115 302.153H277.85V278.489H272.115V302.153Z" fill="#E0E0E0"/>
<path d="M395.444 304.443H277.863V328.108H395.444V304.443Z" fill="#EBEBEB"/>
<path d="M388.801 310.66C388.801 310.457 388.861 310.259 388.973 310.091C389.086 309.923 389.246 309.792 389.433 309.714C389.62 309.637 389.826 309.616 390.025 309.656C390.223 309.695 390.406 309.793 390.549 309.936C390.692 310.079 390.79 310.261 390.829 310.46C390.869 310.658 390.848 310.864 390.771 311.051C390.693 311.238 390.562 311.398 390.394 311.51C390.225 311.623 390.027 311.683 389.825 311.683C389.553 311.683 389.293 311.575 389.101 311.383C388.909 311.191 388.801 310.931 388.801 310.66Z" fill="white"/>
<path d="M383.857 310.66C383.855 310.454 383.914 310.252 384.027 310.079C384.14 309.907 384.302 309.772 384.492 309.692C384.682 309.612 384.891 309.591 385.093 309.63C385.296 309.67 385.482 309.769 385.627 309.914C385.773 310.06 385.872 310.246 385.912 310.448C385.951 310.65 385.93 310.859 385.85 311.049C385.77 311.239 385.635 311.401 385.462 311.514C385.29 311.627 385.088 311.686 384.881 311.683C384.747 311.683 384.614 311.657 384.49 311.605C384.365 311.554 384.253 311.478 384.157 311.383C384.062 311.288 383.987 311.175 383.935 311.051C383.884 310.927 383.857 310.794 383.857 310.66Z" fill="white"/>
<path d="M378.879 310.66C378.876 310.454 378.935 310.252 379.048 310.079C379.161 309.907 379.323 309.772 379.513 309.692C379.703 309.612 379.913 309.591 380.115 309.63C380.317 309.67 380.503 309.769 380.649 309.914C380.795 310.06 380.894 310.246 380.933 310.448C380.973 310.65 380.951 310.859 380.871 311.049C380.791 311.239 380.656 311.401 380.484 311.514C380.311 311.627 380.109 311.686 379.903 311.683C379.631 311.683 379.371 311.575 379.179 311.383C378.987 311.191 378.879 310.931 378.879 310.66Z" fill="#F5F5F5"/>
<path d="M395.444 313.973H277.863V318.578H395.444V313.973Z" fill="#F5F5F5"/>
<path d="M272.115 328.108H277.85V304.443H272.115V328.108Z" fill="#E0E0E0"/>
<path d="M395.444 330.397H277.863V354.062H395.444V330.397Z" fill="#EBEBEB"/>
<path d="M388.801 336.614C388.801 336.412 388.861 336.214 388.973 336.046C389.086 335.877 389.246 335.746 389.433 335.669C389.62 335.591 389.826 335.571 390.025 335.61C390.223 335.65 390.406 335.747 390.549 335.891C390.692 336.034 390.79 336.216 390.829 336.415C390.869 336.613 390.848 336.819 390.771 337.006C390.693 337.193 390.562 337.353 390.394 337.465C390.225 337.578 390.027 337.638 389.825 337.638C389.553 337.638 389.293 337.53 389.101 337.338C388.909 337.146 388.801 336.886 388.801 336.614Z" fill="white"/>
<path d="M383.857 336.614C383.855 336.408 383.914 336.206 384.027 336.034C384.14 335.862 384.302 335.727 384.492 335.647C384.682 335.567 384.891 335.545 385.093 335.585C385.296 335.624 385.482 335.723 385.627 335.869C385.773 336.015 385.872 336.2 385.912 336.403C385.951 336.605 385.93 336.814 385.85 337.004C385.77 337.194 385.635 337.355 385.462 337.468C385.29 337.581 385.088 337.64 384.881 337.638C384.747 337.638 384.614 337.611 384.49 337.56C384.365 337.508 384.253 337.433 384.157 337.338C384.062 337.243 383.987 337.13 383.935 337.006C383.884 336.882 383.857 336.749 383.857 336.614Z" fill="#F5F5F5"/>
<path d="M378.879 336.614C378.876 336.408 378.935 336.206 379.048 336.034C379.161 335.862 379.323 335.727 379.513 335.647C379.703 335.567 379.913 335.545 380.115 335.585C380.317 335.624 380.503 335.723 380.649 335.869C380.795 336.015 380.894 336.2 380.933 336.403C380.973 336.605 380.951 336.814 380.871 337.004C380.791 337.194 380.656 337.355 380.484 337.468C380.311 337.581 380.109 337.64 379.903 337.638C379.631 337.638 379.371 337.53 379.179 337.338C378.987 337.146 378.879 336.886 378.879 336.614Z" fill="white"/>
<path d="M395.444 339.927H277.863V344.532H395.444V339.927Z" fill="#F5F5F5"/>
<path d="M272.115 354.049H277.85V330.384H272.115V354.049Z" fill="#E0E0E0"/>
<path d="M395.444 356.352H277.863V380.016H395.444V356.352Z" fill="#EBEBEB"/>
<path d="M388.801 362.556C388.803 362.354 388.866 362.157 388.98 361.991C389.094 361.824 389.254 361.695 389.442 361.619C389.629 361.544 389.835 361.525 390.032 361.566C390.23 361.607 390.411 361.706 390.553 361.849C390.695 361.993 390.792 362.175 390.83 362.374C390.868 362.572 390.847 362.777 390.77 362.963C390.692 363.149 390.561 363.308 390.392 363.42C390.224 363.532 390.027 363.592 389.825 363.592C389.689 363.592 389.555 363.565 389.43 363.513C389.305 363.461 389.191 363.384 389.096 363.288C389.001 363.191 388.926 363.077 388.875 362.951C388.824 362.826 388.799 362.691 388.801 362.556Z" fill="#F5F5F5"/>
<path d="M383.858 362.556C383.858 362.35 383.919 362.149 384.033 361.979C384.148 361.808 384.31 361.675 384.501 361.597C384.691 361.519 384.9 361.499 385.101 361.54C385.303 361.581 385.487 361.681 385.632 361.828C385.776 361.974 385.874 362.16 385.913 362.361C385.951 362.563 385.929 362.772 385.848 362.961C385.768 363.15 385.633 363.311 385.461 363.423C385.289 363.536 385.087 363.594 384.881 363.592C384.746 363.592 384.612 363.565 384.487 363.513C384.362 363.46 384.248 363.384 384.153 363.287C384.058 363.191 383.982 363.077 383.932 362.951C383.881 362.825 383.856 362.691 383.858 362.556Z" fill="white"/>
<path d="M378.879 362.556C378.879 362.35 378.94 362.149 379.055 361.979C379.169 361.808 379.332 361.675 379.522 361.597C379.712 361.519 379.921 361.499 380.123 361.54C380.324 361.581 380.509 361.681 380.653 361.828C380.798 361.974 380.896 362.16 380.934 362.361C380.973 362.563 380.95 362.772 380.87 362.961C380.789 363.15 380.655 363.311 380.482 363.423C380.31 363.536 380.109 363.594 379.903 363.592C379.767 363.592 379.633 363.565 379.508 363.513C379.383 363.46 379.27 363.384 379.174 363.287C379.079 363.191 379.004 363.077 378.953 362.951C378.903 362.825 378.877 362.691 378.879 362.556Z" fill="#F5F5F5"/>
<path d="M395.444 365.882H277.863V370.487H395.444V365.882Z" fill="#F5F5F5"/>
<path d="M272.115 380.004H277.85V356.339H272.115V380.004Z" fill="#E0E0E0"/>
<path d="M395.444 382.306H277.863V405.971H395.444V382.306Z" fill="#EBEBEB"/>
<path d="M388.801 388.51C388.803 388.308 388.866 388.111 388.98 387.945C389.094 387.778 389.254 387.649 389.442 387.574C389.629 387.498 389.835 387.48 390.032 387.521C390.23 387.561 390.411 387.66 390.553 387.804C390.695 387.947 390.792 388.129 390.83 388.328C390.868 388.526 390.847 388.731 390.77 388.917C390.692 389.103 390.561 389.262 390.392 389.374C390.224 389.486 390.027 389.546 389.825 389.546C389.689 389.546 389.555 389.519 389.43 389.467C389.305 389.415 389.191 389.338 389.096 389.242C389.001 389.145 388.926 389.031 388.875 388.905C388.824 388.78 388.799 388.645 388.801 388.51Z" fill="#F5F5F5"/>
<path d="M383.858 388.51C383.858 388.304 383.919 388.104 384.033 387.933C384.148 387.762 384.31 387.63 384.501 387.552C384.691 387.473 384.9 387.454 385.101 387.495C385.303 387.536 385.487 387.636 385.632 387.782C385.776 387.928 385.874 388.114 385.913 388.316C385.951 388.518 385.929 388.726 385.848 388.915C385.768 389.104 385.633 389.265 385.461 389.378C385.289 389.49 385.087 389.549 384.881 389.546C384.746 389.546 384.612 389.519 384.487 389.467C384.362 389.415 384.248 389.338 384.153 389.242C384.058 389.145 383.982 389.031 383.932 388.905C383.881 388.78 383.856 388.645 383.858 388.51Z" fill="#F5F5F5"/>
<path d="M378.879 388.51C378.879 388.304 378.94 388.104 379.055 387.933C379.169 387.762 379.332 387.63 379.522 387.552C379.712 387.473 379.921 387.454 380.123 387.495C380.324 387.536 380.509 387.636 380.653 387.782C380.798 387.928 380.896 388.114 380.934 388.316C380.973 388.518 380.95 388.726 380.87 388.915C380.789 389.104 380.655 389.265 380.482 389.378C380.31 389.49 380.109 389.549 379.903 389.546C379.767 389.546 379.633 389.519 379.508 389.467C379.383 389.415 379.27 389.338 379.174 389.242C379.079 389.145 379.004 389.031 378.953 388.905C378.903 388.78 378.877 388.645 378.879 388.51Z" fill="white"/>
<path d="M395.444 391.836H277.863V396.441H395.444V391.836Z" fill="#F5F5F5"/>
<path d="M272.115 405.958H277.85V382.293H272.115V405.958Z" fill="#E0E0E0"/>
<path d="M190.72 128.455H101.875L89.5996 140.722V413.966L101.875 426.233H190.72L203.008 413.966V140.722L190.72 128.455Z" fill="#E0E0E0"/>
<path d="M89.5996 413.966L101.875 426.233H129.446L117.158 413.966H89.5996Z" fill="#EBEBEB"/>
<path d="M89.5996 140.722L101.875 128.455H129.446L117.158 140.722H89.5996Z" fill="#EBEBEB"/>
<path d="M239.665 128.455H129.431L117.156 140.722V413.966L129.431 426.233H239.665L251.94 413.966V140.722L239.665 128.455Z" fill="#EBEBEB"/>
<path d="M131.008 420.502L122.893 412.405V142.282L131.008 134.185H238.105L246.208 142.282V412.405L238.105 420.502H131.008Z" fill="white"/>
<path d="M246.21 148.717H128.629V172.381H246.21V148.717Z" fill="#EBEBEB"/>
<path d="M239.566 388.51C239.564 388.715 239.623 388.917 239.735 389.089C239.847 389.261 240.008 389.396 240.198 389.476C240.387 389.557 240.596 389.579 240.798 389.54C241 389.502 241.185 389.404 241.332 389.26C241.478 389.116 241.578 388.931 241.619 388.73C241.66 388.528 241.64 388.319 241.562 388.129C241.484 387.939 241.351 387.777 241.181 387.662C241.01 387.548 240.809 387.487 240.603 387.487C240.331 387.487 240.069 387.594 239.875 387.786C239.681 387.977 239.57 388.237 239.566 388.51Z" fill="#F5F5F5"/>
<path d="M234.637 388.51C234.637 388.712 234.697 388.91 234.809 389.078C234.922 389.247 235.082 389.378 235.269 389.455C235.456 389.533 235.662 389.553 235.86 389.514C236.059 389.474 236.242 389.377 236.385 389.234C236.528 389.09 236.626 388.908 236.665 388.71C236.705 388.511 236.684 388.305 236.607 388.118C236.529 387.931 236.398 387.771 236.23 387.659C236.061 387.547 235.863 387.487 235.661 387.487C235.526 387.487 235.393 387.513 235.269 387.564C235.145 387.616 235.032 387.691 234.937 387.786C234.842 387.881 234.766 387.994 234.715 388.118C234.663 388.242 234.637 388.376 234.637 388.51Z" fill="white"/>
<path d="M229.695 388.51C229.695 388.712 229.755 388.91 229.868 389.078C229.98 389.247 230.14 389.378 230.327 389.455C230.515 389.533 230.72 389.553 230.919 389.514C231.118 389.474 231.3 389.377 231.443 389.234C231.587 389.09 231.684 388.908 231.724 388.71C231.763 388.511 231.743 388.305 231.665 388.118C231.588 387.931 231.457 387.771 231.288 387.659C231.12 387.547 230.922 387.487 230.719 387.487C230.448 387.487 230.187 387.594 229.995 387.786C229.803 387.978 229.695 388.239 229.695 388.51Z" fill="#F5F5F5"/>
<path d="M246.21 158.247H128.629V162.852H246.21V158.247Z" fill="#F5F5F5"/>
<path d="M122.895 172.381H128.629V148.717H122.895V172.381Z" fill="#E0E0E0"/>
<path d="M246.21 174.671H128.629V198.336H246.21V174.671Z" fill="#EBEBEB"/>
<path d="M239.566 362.556C239.564 362.761 239.623 362.963 239.735 363.135C239.847 363.307 240.008 363.441 240.198 363.522C240.387 363.602 240.596 363.625 240.798 363.586C241 363.548 241.185 363.45 241.332 363.306C241.478 363.161 241.578 362.977 241.619 362.775C241.66 362.574 241.64 362.365 241.562 362.175C241.484 361.985 241.351 361.822 241.181 361.708C241.01 361.593 240.809 361.532 240.603 361.532C240.331 361.532 240.069 361.64 239.875 361.831C239.681 362.023 239.57 362.283 239.566 362.556Z" fill="#F5F5F5"/>
<path d="M234.637 362.556C234.637 362.758 234.697 362.956 234.809 363.124C234.922 363.292 235.082 363.424 235.269 363.501C235.456 363.578 235.662 363.599 235.86 363.559C236.059 363.52 236.242 363.422 236.385 363.279C236.528 363.136 236.626 362.954 236.665 362.755C236.705 362.557 236.684 362.351 236.607 362.164C236.529 361.977 236.398 361.817 236.23 361.705C236.061 361.592 235.863 361.532 235.661 361.532C235.526 361.532 235.393 361.559 235.269 361.61C235.145 361.662 235.032 361.737 234.937 361.832C234.842 361.927 234.766 362.04 234.715 362.164C234.663 362.288 234.637 362.421 234.637 362.556Z" fill="white"/>
<path d="M229.695 362.556C229.695 362.758 229.755 362.956 229.868 363.124C229.98 363.292 230.14 363.424 230.327 363.501C230.515 363.578 230.72 363.599 230.919 363.559C231.118 363.52 231.3 363.422 231.443 363.279C231.587 363.136 231.684 362.954 231.724 362.755C231.763 362.557 231.743 362.351 231.665 362.164C231.588 361.977 231.457 361.817 231.288 361.705C231.12 361.592 230.922 361.532 230.719 361.532C230.448 361.532 230.187 361.64 229.995 361.832C229.803 362.024 229.695 362.284 229.695 362.556Z" fill="white"/>
<path d="M246.21 184.201H128.629V188.806H246.21V184.201Z" fill="#F5F5F5"/>
<path d="M122.895 198.336H128.629V174.671H122.895V198.336Z" fill="#E0E0E0"/>
<path d="M246.21 200.625H128.629V224.29H246.21V200.625Z" fill="#EBEBEB"/>
<path d="M239.566 336.614C239.566 336.819 239.627 337.019 239.741 337.189C239.855 337.36 240.017 337.493 240.207 337.571C240.396 337.65 240.604 337.67 240.806 337.63C241.007 337.59 241.191 337.491 241.336 337.346C241.481 337.202 241.58 337.017 241.62 336.816C241.66 336.615 241.64 336.407 241.561 336.217C241.483 336.028 241.35 335.866 241.179 335.752C241.009 335.638 240.808 335.578 240.603 335.578C240.467 335.576 240.331 335.602 240.204 335.653C240.078 335.705 239.963 335.781 239.866 335.877C239.77 335.974 239.693 336.089 239.642 336.215C239.59 336.342 239.565 336.477 239.566 336.614Z" fill="#F5F5F5"/>
<path d="M234.637 336.614C234.637 336.886 234.745 337.146 234.937 337.338C235.129 337.53 235.389 337.638 235.661 337.638C235.932 337.638 236.193 337.53 236.385 337.338C236.577 337.146 236.685 336.886 236.685 336.614C236.685 336.343 236.577 336.082 236.385 335.891C236.193 335.699 235.932 335.591 235.661 335.591C235.389 335.591 235.129 335.699 234.937 335.891C234.745 336.082 234.637 336.343 234.637 336.614Z" fill="#F5F5F5"/>
<path d="M229.695 336.614C229.698 336.816 229.76 337.013 229.874 337.179C229.988 337.346 230.149 337.475 230.336 337.551C230.524 337.626 230.729 337.644 230.927 337.604C231.125 337.563 231.306 337.464 231.448 337.321C231.59 337.177 231.686 336.995 231.725 336.796C231.763 336.598 231.742 336.393 231.664 336.207C231.586 336.021 231.455 335.862 231.287 335.75C231.119 335.638 230.921 335.578 230.719 335.578C230.584 335.578 230.45 335.605 230.325 335.657C230.199 335.709 230.086 335.786 229.991 335.882C229.896 335.979 229.82 336.093 229.77 336.219C229.719 336.344 229.694 336.479 229.695 336.614Z" fill="#F5F5F5"/>
<path d="M246.21 210.155H128.629V214.76H246.21V210.155Z" fill="#F5F5F5"/>
<path d="M122.895 224.29H128.629V200.626H122.895V224.29Z" fill="#E0E0E0"/>
<path d="M246.21 226.58H128.629V250.244H246.21V226.58Z" fill="#EBEBEB"/>
<path d="M239.566 310.66C239.566 310.865 239.627 311.065 239.741 311.235C239.855 311.406 240.017 311.539 240.207 311.617C240.396 311.695 240.604 311.716 240.806 311.676C241.007 311.636 241.191 311.537 241.336 311.392C241.481 311.247 241.58 311.063 241.62 310.862C241.66 310.661 241.64 310.453 241.561 310.263C241.483 310.074 241.35 309.912 241.179 309.798C241.009 309.684 240.808 309.624 240.603 309.624C240.467 309.622 240.331 309.648 240.204 309.699C240.078 309.75 239.963 309.827 239.866 309.923C239.77 310.02 239.693 310.135 239.642 310.261C239.59 310.388 239.565 310.523 239.566 310.66Z" fill="white"/>
<path d="M234.637 310.66C234.637 310.931 234.745 311.191 234.937 311.383C235.129 311.575 235.389 311.683 235.661 311.683C235.932 311.683 236.193 311.575 236.385 311.383C236.577 311.191 236.685 310.931 236.685 310.66C236.685 310.388 236.577 310.128 236.385 309.936C236.193 309.744 235.932 309.636 235.661 309.636C235.389 309.636 235.129 309.744 234.937 309.936C234.745 310.128 234.637 310.388 234.637 310.66Z" fill="white"/>
<path d="M229.695 310.66C229.698 310.861 229.76 311.058 229.874 311.225C229.988 311.391 230.149 311.52 230.336 311.596C230.524 311.671 230.729 311.69 230.927 311.649C231.125 311.608 231.306 311.51 231.448 311.366C231.59 311.222 231.686 311.04 231.725 310.842C231.763 310.644 231.742 310.439 231.664 310.252C231.586 310.066 231.455 309.907 231.287 309.795C231.119 309.683 230.921 309.624 230.719 309.624C230.584 309.624 230.45 309.65 230.325 309.703C230.199 309.755 230.086 309.831 229.991 309.928C229.896 310.024 229.82 310.138 229.77 310.264C229.719 310.39 229.694 310.524 229.695 310.66Z" fill="#F5F5F5"/>
<path d="M246.21 236.11H128.629V240.715H246.21V236.11Z" fill="#F5F5F5"/>
<path d="M122.895 250.244H128.629V226.58H122.895V250.244Z" fill="#E0E0E0"/>
<path d="M246.21 252.534H128.629V276.199H246.21V252.534Z" fill="#EBEBEB"/>
<path d="M239.564 284.705C239.552 284.91 239.601 285.115 239.705 285.293C239.809 285.47 239.964 285.613 240.15 285.702C240.336 285.791 240.544 285.823 240.748 285.794C240.952 285.764 241.142 285.675 241.295 285.536C241.448 285.398 241.556 285.218 241.606 285.018C241.655 284.818 241.644 284.608 241.574 284.415C241.504 284.221 241.377 284.053 241.211 283.931C241.044 283.81 240.846 283.741 240.64 283.733C240.505 283.726 240.371 283.746 240.244 283.791C240.117 283.836 240 283.906 239.9 283.996C239.8 284.086 239.719 284.195 239.662 284.317C239.604 284.439 239.571 284.571 239.564 284.705Z" fill="white"/>
<path d="M234.637 284.705C234.637 284.977 234.745 285.237 234.937 285.429C235.129 285.621 235.389 285.729 235.661 285.729C235.932 285.729 236.193 285.621 236.385 285.429C236.577 285.237 236.685 284.977 236.685 284.705C236.685 284.434 236.577 284.174 236.385 283.982C236.193 283.79 235.932 283.682 235.661 283.682C235.389 283.682 235.129 283.79 234.937 283.982C234.745 284.174 234.637 284.434 234.637 284.705Z" fill="white"/>
<path d="M229.695 284.706C229.698 284.907 229.76 285.104 229.874 285.271C229.988 285.437 230.149 285.566 230.336 285.642C230.524 285.717 230.729 285.736 230.927 285.695C231.125 285.654 231.306 285.555 231.448 285.412C231.59 285.268 231.686 285.086 231.725 284.888C231.763 284.69 231.742 284.484 231.664 284.298C231.586 284.112 231.455 283.953 231.287 283.841C231.119 283.729 230.921 283.669 230.719 283.669C230.584 283.669 230.45 283.696 230.325 283.749C230.199 283.801 230.086 283.877 229.991 283.974C229.896 284.07 229.82 284.184 229.77 284.31C229.719 284.436 229.694 284.57 229.695 284.706Z" fill="white"/>
<path d="M246.21 262.064H128.629V266.669H246.21V262.064Z" fill="#F5F5F5"/>
<path d="M122.895 276.199H128.629V252.534H122.895V276.199Z" fill="#E0E0E0"/>
<path d="M246.21 278.489H128.629V302.153H246.21V278.489Z" fill="#EBEBEB"/>
<path d="M239.566 258.751C239.595 259.004 239.715 259.238 239.906 259.408C240.096 259.578 240.342 259.672 240.597 259.672C240.852 259.672 241.098 259.578 241.288 259.408C241.478 259.238 241.599 259.004 241.627 258.751C241.599 258.497 241.478 258.263 241.288 258.094C241.098 257.924 240.852 257.83 240.597 257.83C240.342 257.83 240.096 257.924 239.906 258.094C239.715 258.263 239.595 258.497 239.566 258.751Z" fill="#F5F5F5"/>
<path d="M234.637 258.751C234.637 258.953 234.697 259.151 234.809 259.319C234.922 259.488 235.082 259.619 235.269 259.696C235.456 259.774 235.662 259.794 235.86 259.755C236.059 259.715 236.242 259.618 236.385 259.474C236.528 259.331 236.626 259.149 236.665 258.951C236.705 258.752 236.684 258.546 236.607 258.359C236.529 258.172 236.398 258.012 236.23 257.9C236.061 257.788 235.863 257.728 235.661 257.728C235.526 257.728 235.393 257.754 235.269 257.805C235.145 257.857 235.032 257.932 234.937 258.027C234.842 258.122 234.766 258.235 234.715 258.359C234.663 258.483 234.637 258.616 234.637 258.751Z" fill="white"/>
<path d="M229.695 258.751C229.695 258.953 229.755 259.151 229.868 259.319C229.98 259.488 230.14 259.619 230.327 259.696C230.515 259.774 230.72 259.794 230.919 259.755C231.118 259.715 231.3 259.618 231.443 259.474C231.587 259.331 231.684 259.149 231.724 258.951C231.763 258.752 231.743 258.546 231.665 258.359C231.588 258.172 231.457 258.012 231.288 257.9C231.12 257.788 230.922 257.728 230.719 257.728C230.448 257.728 230.187 257.835 229.995 258.027C229.803 258.219 229.695 258.479 229.695 258.751Z" fill="#F5F5F5"/>
<path d="M246.21 288.018H128.629V292.623H246.21V288.018Z" fill="#F5F5F5"/>
<path d="M122.895 302.153H128.629V278.489H122.895V302.153Z" fill="#E0E0E0"/>
<path d="M246.21 304.443H128.629V328.108H246.21V304.443Z" fill="#EBEBEB"/>
<path d="M239.566 232.796C239.564 233.002 239.623 233.203 239.735 233.375C239.847 233.548 240.008 233.682 240.198 233.763C240.387 233.843 240.596 233.865 240.798 233.827C241 233.788 241.185 233.691 241.332 233.546C241.478 233.402 241.578 233.217 241.619 233.016C241.66 232.815 241.64 232.606 241.562 232.416C241.484 232.226 241.351 232.063 241.181 231.949C241.01 231.834 240.809 231.773 240.603 231.773C240.468 231.771 240.333 231.797 240.207 231.847C240.082 231.898 239.967 231.973 239.871 232.068C239.774 232.163 239.698 232.277 239.646 232.402C239.593 232.527 239.566 232.661 239.566 232.796Z" fill="white"/>
<path d="M234.637 232.796C234.637 232.999 234.697 233.197 234.809 233.365C234.922 233.533 235.082 233.664 235.269 233.742C235.456 233.819 235.662 233.839 235.86 233.8C236.059 233.76 236.242 233.663 236.385 233.52C236.528 233.377 236.626 233.194 236.665 232.996C236.705 232.797 236.684 232.592 236.607 232.405C236.529 232.218 236.398 232.058 236.23 231.945C236.061 231.833 235.863 231.773 235.661 231.773C235.526 231.773 235.393 231.799 235.269 231.851C235.145 231.902 235.032 231.978 234.937 232.073C234.842 232.168 234.766 232.281 234.715 232.405C234.663 232.529 234.637 232.662 234.637 232.796Z" fill="white"/>
<path d="M229.695 232.796C229.695 232.999 229.755 233.197 229.868 233.365C229.98 233.533 230.14 233.664 230.327 233.742C230.515 233.819 230.72 233.839 230.919 233.8C231.118 233.76 231.3 233.663 231.443 233.52C231.587 233.377 231.684 233.194 231.724 232.996C231.763 232.797 231.743 232.592 231.665 232.405C231.588 232.218 231.457 232.058 231.288 231.945C231.12 231.833 230.922 231.773 230.719 231.773C230.448 231.773 230.187 231.881 229.995 232.073C229.803 232.265 229.695 232.525 229.695 232.796Z" fill="#F5F5F5"/>
<path d="M246.21 313.973H128.629V318.578H246.21V313.973Z" fill="#F5F5F5"/>
<path d="M122.895 328.108H128.629V304.443H122.895V328.108Z" fill="#E0E0E0"/>
<path d="M246.21 330.397H128.629V354.062H246.21V330.397Z" fill="#EBEBEB"/>
<path d="M239.566 206.842C239.564 207.047 239.623 207.249 239.735 207.421C239.847 207.593 240.008 207.728 240.198 207.808C240.387 207.889 240.596 207.911 240.798 207.873C241 207.834 241.185 207.736 241.332 207.592C241.478 207.448 241.578 207.263 241.619 207.062C241.66 206.86 241.64 206.651 241.562 206.461C241.484 206.271 241.351 206.109 241.181 205.994C241.01 205.88 240.809 205.819 240.603 205.819C240.468 205.817 240.333 205.842 240.207 205.893C240.082 205.944 239.967 206.019 239.871 206.114C239.774 206.209 239.698 206.322 239.646 206.447C239.593 206.572 239.566 206.707 239.566 206.842Z" fill="white"/>
<path d="M234.637 206.842C234.637 207.044 234.697 207.242 234.809 207.41C234.922 207.579 235.082 207.71 235.269 207.787C235.456 207.865 235.662 207.885 235.86 207.846C236.059 207.806 236.242 207.709 236.385 207.566C236.528 207.422 236.626 207.24 236.665 207.042C236.705 206.843 236.684 206.637 236.607 206.45C236.529 206.263 236.398 206.104 236.23 205.991C236.061 205.879 235.863 205.819 235.661 205.819C235.526 205.819 235.393 205.845 235.269 205.897C235.145 205.948 235.032 206.023 234.937 206.118C234.842 206.213 234.766 206.326 234.715 206.45C234.663 206.574 234.637 206.708 234.637 206.842Z" fill="#F5F5F5"/>
<path d="M229.695 206.842C229.695 207.044 229.755 207.242 229.868 207.41C229.98 207.579 230.14 207.71 230.327 207.787C230.515 207.865 230.72 207.885 230.919 207.846C231.118 207.806 231.3 207.709 231.443 207.566C231.587 207.422 231.684 207.24 231.724 207.042C231.763 206.843 231.743 206.637 231.665 206.45C231.588 206.263 231.457 206.104 231.288 205.991C231.12 205.879 230.922 205.819 230.719 205.819C230.448 205.819 230.187 205.926 229.995 206.118C229.803 206.31 229.695 206.571 229.695 206.842Z" fill="white"/>
<path d="M246.21 339.927H128.629V344.532H246.21V339.927Z" fill="#F5F5F5"/>
<path d="M122.895 354.049H128.629V330.384H122.895V354.049Z" fill="#E0E0E0"/>
<path d="M246.21 356.352H128.629V380.016H246.21V356.352Z" fill="#EBEBEB"/>
<path d="M239.566 180.887C239.564 181.093 239.623 181.294 239.735 181.467C239.847 181.639 240.008 181.773 240.198 181.854C240.387 181.934 240.596 181.956 240.798 181.918C241 181.879 241.185 181.782 241.332 181.637C241.478 181.493 241.578 181.308 241.619 181.107C241.66 180.906 241.64 180.697 241.562 180.507C241.484 180.317 241.351 180.154 241.181 180.04C241.01 179.925 240.809 179.864 240.603 179.864C240.468 179.862 240.333 179.888 240.207 179.938C240.082 179.989 239.967 180.064 239.871 180.159C239.774 180.254 239.698 180.368 239.646 180.493C239.593 180.618 239.566 180.752 239.566 180.887Z" fill="#F5F5F5"/>
<path d="M234.637 180.888C234.637 181.09 234.697 181.288 234.809 181.456C234.922 181.625 235.082 181.756 235.269 181.833C235.456 181.911 235.662 181.931 235.86 181.892C236.059 181.852 236.242 181.755 236.385 181.611C236.528 181.468 236.626 181.286 236.665 181.087C236.705 180.889 236.684 180.683 236.607 180.496C236.529 180.309 236.398 180.149 236.23 180.037C236.061 179.925 235.863 179.865 235.661 179.865C235.526 179.865 235.393 179.891 235.269 179.942C235.145 179.994 235.032 180.069 234.937 180.164C234.842 180.259 234.766 180.372 234.715 180.496C234.663 180.62 234.637 180.753 234.637 180.888Z" fill="white"/>
<path d="M229.695 180.888C229.695 181.09 229.755 181.288 229.868 181.456C229.98 181.625 230.14 181.756 230.327 181.833C230.515 181.911 230.72 181.931 230.919 181.892C231.118 181.852 231.3 181.755 231.443 181.611C231.587 181.468 231.684 181.286 231.724 181.087C231.763 180.889 231.743 180.683 231.665 180.496C231.588 180.309 231.457 180.149 231.288 180.037C231.12 179.925 230.922 179.865 230.719 179.865C230.448 179.865 230.187 179.972 229.995 180.164C229.803 180.356 229.695 180.616 229.695 180.888Z" fill="#F5F5F5"/>
<path d="M246.21 365.882H128.629V370.487H246.21V365.882Z" fill="#F5F5F5"/>
<path d="M122.895 380.004H128.629V356.339H122.895V380.004Z" fill="#E0E0E0"/>
<path d="M246.21 382.306H128.629V405.971H246.21V382.306Z" fill="#EBEBEB"/>
<path d="M239.566 154.933C239.564 155.139 239.623 155.34 239.735 155.512C239.847 155.684 240.008 155.819 240.198 155.9C240.387 155.98 240.596 156.002 240.798 155.964C241 155.925 241.185 155.828 241.332 155.683C241.478 155.539 241.578 155.354 241.619 155.153C241.66 154.952 241.64 154.743 241.562 154.553C241.484 154.363 241.351 154.2 241.181 154.086C241.01 153.971 240.809 153.91 240.603 153.91C240.468 153.908 240.333 153.934 240.207 153.984C240.082 154.035 239.967 154.11 239.871 154.205C239.774 154.3 239.698 154.414 239.646 154.539C239.593 154.664 239.566 154.798 239.566 154.933Z" fill="#F5F5F5"/>
<path d="M234.637 154.933C234.637 155.136 234.697 155.334 234.809 155.502C234.922 155.67 235.082 155.801 235.269 155.879C235.456 155.956 235.662 155.976 235.86 155.937C236.059 155.897 236.242 155.8 236.385 155.657C236.528 155.514 236.626 155.331 236.665 155.133C236.705 154.934 236.684 154.729 236.607 154.542C236.529 154.355 236.398 154.195 236.23 154.082C236.061 153.97 235.863 153.91 235.661 153.91C235.526 153.91 235.393 153.936 235.269 153.988C235.145 154.039 235.032 154.115 234.937 154.21C234.842 154.305 234.766 154.417 234.715 154.542C234.663 154.666 234.637 154.799 234.637 154.933Z" fill="#F5F5F5"/>
<path d="M229.695 154.933C229.695 155.136 229.755 155.334 229.868 155.502C229.98 155.67 230.14 155.801 230.327 155.879C230.515 155.956 230.72 155.976 230.919 155.937C231.118 155.897 231.3 155.8 231.443 155.657C231.587 155.514 231.684 155.331 231.724 155.133C231.763 154.934 231.743 154.729 231.665 154.542C231.588 154.355 231.457 154.195 231.288 154.082C231.12 153.97 230.922 153.91 230.719 153.91C230.448 153.91 230.187 154.018 229.995 154.21C229.803 154.402 229.695 154.662 229.695 154.933Z" fill="white"/>
<path d="M246.21 391.836H128.629V396.441H246.21V391.836Z" fill="#F5F5F5"/>
<path d="M122.895 405.958H128.629V382.293H122.895V405.958Z" fill="#E0E0E0"/>
<path d="M234.023 58.829C233.983 53.8233 231.965 49.0362 228.41 45.5097C224.855 41.9832 220.05 40.0028 215.041 39.9996C212.606 39.9944 210.193 40.4637 207.937 41.3811C205.848 37.1049 202.479 33.584 198.298 31.3064C194.117 29.0288 189.331 28.1072 184.602 28.6694C179.874 29.2317 175.437 31.2498 171.908 34.4442C168.378 37.6386 165.93 41.851 164.903 46.4978C159.777 46.8174 154.978 49.12 151.522 52.917C148.066 56.7141 146.227 61.7071 146.393 66.837C146.56 71.9668 148.719 76.8302 152.414 80.3955C156.108 83.9608 161.047 85.9476 166.183 85.9346H229.044C232.32 85.9421 235.495 84.8005 238.015 82.7089C240.535 80.6173 242.24 77.7082 242.834 74.4887C243.428 71.2692 242.873 67.9435 241.265 65.0912C239.658 62.2389 237.099 60.0408 234.036 58.8802L234.023 58.829Z" fill="#F5F5F5"/>
<path d="M540.505 40.0512C540.465 35.9594 539.425 31.9396 537.475 28.3414C535.525 24.7432 532.725 21.6757 529.318 19.4059C525.911 17.1361 522 15.7328 517.927 15.318C513.853 14.9032 509.74 15.4896 505.945 17.0261C503.181 11.3737 498.728 6.71933 493.201 3.70664C487.674 0.693956 481.347 -0.528166 475.095 0.209285C468.843 0.946737 462.975 3.60732 458.302 7.8231C453.629 12.0389 450.382 17.6015 449.011 23.7417C442.264 24.2134 435.962 27.2805 431.431 32.2984C426.899 37.3163 424.491 43.8943 424.711 50.65C424.932 57.4056 427.764 63.8128 432.613 68.5251C437.462 73.2373 443.95 75.8877 450.713 75.9191H533.913C538.249 75.925 542.449 74.4109 545.782 71.6405C549.115 68.8701 551.37 65.0189 552.155 60.7578C552.939 56.4967 552.203 52.0957 550.074 48.3213C547.945 44.547 544.559 41.6384 540.505 40.1023V40.0512Z" fill="#F5F5F5"/>
<path d="M320.001 484C457.067 484 568.181 477.517 568.181 469.52C568.181 461.523 457.067 455.04 320.001 455.04C182.936 455.04 71.8223 461.523 71.8223 469.52C71.8223 477.517 182.936 484 320.001 484Z" fill="#F5F5F5"/>
<path d="M110.747 450.626V448.746H99.2267C98.9687 448.746 98.7213 448.848 98.5388 449.031C98.3564 449.213 98.2539 449.46 98.2539 449.718C98.2539 449.976 98.3564 450.223 98.5388 450.405C98.7213 450.588 98.9687 450.69 99.2267 450.69L110.747 450.626Z" fill="#6776FF"/>
<path d="M110.747 458.979V457.035H99.2267C98.9687 457.035 98.7213 457.138 98.5388 457.32C98.3564 457.502 98.2539 457.749 98.2539 458.007C98.2539 458.265 98.3564 458.512 98.5388 458.695C98.7213 458.877 98.9687 458.979 99.2267 458.979H110.747Z" fill="#6776FF"/>
<path d="M106.627 443.936C106.41 443.929 106.194 443.966 105.991 444.045C105.789 444.124 105.604 444.243 105.449 444.394C105.293 444.546 105.17 444.728 105.087 444.928C105.003 445.129 104.961 445.344 104.963 445.561V462.459C104.96 462.677 105 462.894 105.083 463.096C105.166 463.297 105.289 463.481 105.444 463.634C105.6 463.787 105.785 463.907 105.988 463.986C106.191 464.066 106.409 464.103 106.627 464.096C106.84 464.096 107.051 464.054 107.247 463.972C107.444 463.89 107.622 463.771 107.772 463.619C107.922 463.468 108.041 463.289 108.121 463.092C108.201 462.895 108.242 462.684 108.24 462.472V445.561C108.242 445.348 108.201 445.137 108.121 444.94C108.041 444.743 107.922 444.564 107.772 444.413C107.622 444.262 107.444 444.142 107.247 444.06C107.051 443.978 106.84 443.936 106.627 443.936Z" fill="#263238"/>
<path d="M111.205 446.303H106.623V461.717H111.205C113.242 461.717 115.196 460.908 116.636 459.469C118.076 458.03 118.885 456.078 118.885 454.042C118.894 453.029 118.701 452.024 118.319 451.085C117.937 450.147 117.373 449.293 116.659 448.573C115.945 447.854 115.095 447.283 114.159 446.893C113.223 446.504 112.219 446.303 111.205 446.303Z" fill="#263238"/>
<path d="M147.356 464.557C144.049 464.495 140.749 464.234 137.474 463.776L131.842 463.098C130.946 463.098 130.037 463.201 129.116 463.303C127.836 463.431 126.492 463.648 125.212 463.84C122.761 464.309 120.27 464.541 117.775 464.531C117.252 464.543 116.732 464.443 116.252 464.237C115.954 464.112 115.7 463.902 115.522 463.634C115.343 463.365 115.248 463.05 115.248 462.727C115.248 462.405 115.343 462.09 115.522 461.821C115.7 461.553 115.954 461.343 116.252 461.218C116.699 461.013 117.181 460.896 117.672 460.873C120.512 460.723 123.36 460.865 126.172 461.295L131.932 461.986C134.261 461.883 136.514 461.986 138.703 461.986C141.604 462.11 144.51 462.076 147.407 461.883C149.967 461.678 151.797 460.809 151.9 460.425C151.349 459.76 149.928 459.555 147.023 459.146C144.872 458.877 142.133 458.8 139.228 458.724C136.949 458.66 134.581 458.596 132.162 458.442C127.324 458.11 121.103 457.342 115.816 454.259C115.697 454.18 115.613 454.058 115.581 453.919C115.548 453.78 115.57 453.633 115.642 453.509C115.714 453.386 115.83 453.294 115.967 453.252C116.104 453.211 116.251 453.224 116.38 453.287C121.5 456.268 127.528 457.01 132.226 457.329C134.632 457.483 136.988 457.547 139.266 457.611C142.184 457.687 144.962 457.764 147.164 458.046C148.435 458.163 149.697 458.368 150.94 458.66L150.799 458.468C150.376 457.918 149.941 457.368 149.519 456.766C148.945 455.995 148.512 455.129 148.239 454.208C148.105 453.688 148.092 453.145 148.201 452.62C148.309 452.094 148.537 451.601 148.866 451.176C149.68 450.384 150.763 449.927 151.9 449.897C154.572 449.729 157.256 449.897 159.887 450.396C159.959 450.407 160.028 450.432 160.091 450.47C160.154 450.508 160.208 450.557 160.252 450.616C160.295 450.675 160.326 450.742 160.344 450.813C160.361 450.884 160.365 450.957 160.354 451.029C160.343 451.102 160.318 451.171 160.28 451.234C160.243 451.296 160.193 451.351 160.134 451.394C160.075 451.437 160.008 451.469 159.937 451.486C159.866 451.504 159.793 451.507 159.72 451.496C157.19 451.017 154.611 450.854 152.04 451.01C151.194 451.027 150.382 451.344 149.749 451.906C149.529 452.198 149.379 452.536 149.31 452.896C149.241 453.255 149.256 453.625 149.352 453.978C149.582 454.779 149.945 455.536 150.428 456.216C150.786 456.766 151.196 457.304 151.605 457.828C152.015 458.353 152.13 458.506 152.373 458.852L152.501 459.031C153.263 459.832 153.689 460.893 153.692 461.998C153.346 464.467 149.852 464.557 148.188 464.557H147.356ZM142.082 463.175C144.073 463.369 146.072 463.455 148.072 463.431C149.506 463.431 152.348 463.354 152.565 461.832C152.602 461.663 152.602 461.489 152.565 461.32C151.618 462.318 149.096 462.855 147.445 462.996C145.794 463.137 143.861 463.175 142.082 463.175ZM119.631 461.896C118.974 461.896 118.321 461.922 117.672 461.973C117.328 461.987 116.99 462.065 116.674 462.203C116.564 462.234 116.466 462.3 116.397 462.391C116.327 462.482 116.29 462.594 116.29 462.708C116.29 462.823 116.327 462.934 116.397 463.025C116.466 463.117 116.564 463.183 116.674 463.213C117.015 463.351 117.381 463.416 117.749 463.405C120.172 463.411 122.589 463.184 124.968 462.727L126.607 462.472L125.928 462.395C123.857 462.113 121.772 461.951 119.682 461.909L119.631 461.896Z" fill="#263238"/>
<path d="M281.743 155.816H166.812L154.012 168.608V453.53L166.812 466.322H281.743L294.543 453.53V168.608L281.743 155.816Z" fill="black"/>
<path d="M133.325 180.632L130.739 184.163L124.16 174.773L129.088 193.168L131.687 189.65L138.253 199.039L133.325 180.632Z" fill="#6776FF"/>
<path d="M231.757 118.976L227.866 120.971L226.164 109.651L222.375 128.314L226.266 126.318L227.969 137.652L231.757 118.976Z" fill="#6776FF"/>
<path d="M264.513 124.093L258.599 122.711L266.971 109.19L246.183 125.564L252.097 126.933L243.713 140.453L264.513 124.093Z" fill="#6776FF"/>
<path opacity="0.7" d="M154.012 453.53L166.812 466.322H217.82L205.02 453.53H154.012Z" fill="#263238"/>
<path opacity="0.7" d="M154.012 168.621L166.812 155.829H217.82L205.02 168.621H154.012Z" fill="#263238"/>
<path d="M332.804 155.816H217.821C212.817 160.817 210.026 163.619 205.021 168.608V453.53C210.026 458.519 212.817 461.32 217.821 466.322H332.804L345.604 453.53V168.608L332.804 155.816Z" fill="#263238"/>
<path opacity="0.6" d="M219.442 460.348L210.994 451.893V170.258L219.442 161.803H331.122L339.57 170.258V451.893L331.122 460.348H219.442Z" fill="#6776FF"/>
<path d="M339.571 176.961H216.973V201.636H339.571V176.961Z" fill="#263238"/>
<path d="M332.646 183.446C332.65 183.162 332.764 182.891 332.965 182.69C333.166 182.489 333.438 182.375 333.722 182.372C334.007 182.372 334.28 182.485 334.482 182.686C334.684 182.888 334.797 183.161 334.797 183.446C334.797 183.731 334.684 184.004 334.482 184.206C334.28 184.407 334.007 184.521 333.722 184.521C333.438 184.517 333.166 184.403 332.965 184.202C332.764 184.001 332.65 183.73 332.646 183.446Z" fill="#6776FF"/>
<path d="M327.504 183.447C327.504 183.233 327.567 183.025 327.686 182.848C327.805 182.671 327.973 182.534 328.171 182.453C328.368 182.372 328.585 182.351 328.794 182.394C329.003 182.436 329.194 182.54 329.344 182.691C329.494 182.843 329.595 183.036 329.635 183.245C329.675 183.454 329.652 183.671 329.569 183.867C329.485 184.063 329.346 184.23 329.167 184.346C328.989 184.463 328.779 184.524 328.566 184.521C328.283 184.518 328.013 184.403 327.814 184.202C327.615 184.001 327.504 183.729 327.504 183.447Z" fill="white"/>
<path d="M322.344 183.446C322.344 183.234 322.407 183.026 322.525 182.849C322.643 182.672 322.811 182.535 323.007 182.453C323.204 182.372 323.42 182.351 323.629 182.392C323.837 182.434 324.029 182.536 324.179 182.686C324.33 182.837 324.432 183.028 324.473 183.236C324.515 183.445 324.494 183.661 324.412 183.857C324.331 184.054 324.193 184.221 324.016 184.339C323.839 184.458 323.632 184.521 323.419 184.521C323.135 184.517 322.863 184.403 322.662 184.202C322.461 184.001 322.347 183.73 322.344 183.446Z" fill="#6776FF"/>
<path d="M339.571 186.9H216.973V191.697H339.571V186.9Z" fill="#6776FF"/>
<path d="M210.995 201.649H216.973V176.973H210.995V201.649Z" fill="black"/>
<path d="M339.571 204.028H216.973V228.703H339.571V204.028Z" fill="#263238"/>
<path d="M333.722 211.575C334.315 211.575 334.797 211.094 334.797 210.501C334.797 209.907 334.315 209.426 333.722 209.426C333.128 209.426 332.646 209.907 332.646 210.501C332.646 211.094 333.128 211.575 333.722 211.575Z" fill="#6776FF"/>
<path d="M328.565 211.575C329.159 211.575 329.641 211.094 329.641 210.501C329.641 209.907 329.159 209.426 328.565 209.426C327.972 209.426 327.49 209.907 327.49 210.501C327.49 211.094 327.972 211.575 328.565 211.575Z" fill="white"/>
<path d="M323.419 211.575C324.013 211.575 324.494 211.094 324.494 210.501C324.494 209.907 324.013 209.426 323.419 209.426C322.825 209.426 322.344 209.907 322.344 210.501C322.344 211.094 322.825 211.575 323.419 211.575Z" fill="white"/>
<path d="M339.571 213.967H216.973V218.764H339.571V213.967Z" fill="#6776FF"/>
<path d="M210.995 228.703H216.973V204.028H210.995V228.703Z" fill="black"/>
<path d="M339.571 231.082H216.973V255.757H339.571V231.082Z" fill="#263238"/>
<path d="M333.722 238.643C334.315 238.643 334.797 238.162 334.797 237.568C334.797 236.975 334.315 236.494 333.722 236.494C333.128 236.494 332.646 236.975 332.646 237.568C332.646 238.162 333.128 238.643 333.722 238.643Z" fill="#6776FF"/>
<path d="M328.565 238.643C329.159 238.643 329.641 238.162 329.641 237.568C329.641 236.975 329.159 236.494 328.565 236.494C327.972 236.494 327.49 236.975 327.49 237.568C327.49 238.162 327.972 238.643 328.565 238.643Z" fill="#6776FF"/>
<path d="M323.419 238.643C324.013 238.643 324.494 238.162 324.494 237.568C324.494 236.975 324.013 236.494 323.419 236.494C322.825 236.494 322.344 236.975 322.344 237.568C322.344 238.162 322.825 238.643 323.419 238.643Z" fill="#6776FF"/>
<path d="M339.571 241.021H216.973V245.818H339.571V241.021Z" fill="#6776FF"/>
<path d="M210.995 255.77H216.973V231.095H210.995V255.77Z" fill="black"/>
<path d="M339.571 258.15H216.973V282.825H339.571V258.15Z" fill="#263238"/>
<path d="M333.722 265.697C334.315 265.697 334.797 265.216 334.797 264.622C334.797 264.029 334.315 263.548 333.722 263.548C333.128 263.548 332.646 264.029 332.646 264.622C332.646 265.216 333.128 265.697 333.722 265.697Z" fill="white"/>
<path d="M328.565 265.697C329.159 265.697 329.641 265.216 329.641 264.622C329.641 264.029 329.159 263.548 328.565 263.548C327.972 263.548 327.49 264.029 327.49 264.622C327.49 265.216 327.972 265.697 328.565 265.697Z" fill="white"/>
<path d="M323.419 265.697C324.013 265.697 324.494 265.216 324.494 264.622C324.494 264.029 324.013 263.548 323.419 263.548C322.825 263.548 322.344 264.029 322.344 264.622C322.344 265.216 322.825 265.697 323.419 265.697Z" fill="#6776FF"/>
<path d="M339.571 268.089H216.973V272.886H339.571V268.089Z" fill="#6776FF"/>
<path d="M210.995 282.825H216.973V258.15H210.995V282.825Z" fill="black"/>
<path d="M339.571 285.204H216.973V309.88H339.571V285.204Z" fill="#263238"/>
<path d="M332.646 291.69C332.65 291.406 332.764 291.134 332.965 290.934C333.166 290.733 333.438 290.619 333.722 290.615C334.007 290.615 334.28 290.728 334.482 290.93C334.684 291.131 334.797 291.405 334.797 291.69C334.797 291.975 334.684 292.248 334.482 292.45C334.28 292.651 334.007 292.764 333.722 292.764C333.438 292.761 333.166 292.647 332.965 292.446C332.764 292.245 332.65 291.974 332.646 291.69Z" fill="white"/>
<path d="M327.504 291.69C327.504 291.477 327.567 291.268 327.686 291.091C327.805 290.914 327.973 290.777 328.171 290.696C328.368 290.615 328.585 290.594 328.794 290.637C329.003 290.679 329.194 290.783 329.344 290.935C329.494 291.086 329.595 291.279 329.635 291.488C329.675 291.697 329.652 291.914 329.569 292.11C329.485 292.306 329.346 292.473 329.167 292.589C328.989 292.706 328.779 292.767 328.566 292.764C328.283 292.761 328.013 292.646 327.814 292.445C327.615 292.244 327.504 291.972 327.504 291.69Z" fill="white"/>
<path d="M322.344 291.69C322.344 291.477 322.407 291.269 322.525 291.093C322.643 290.916 322.811 290.778 323.007 290.697C323.204 290.616 323.42 290.594 323.629 290.636C323.837 290.677 324.029 290.78 324.179 290.93C324.33 291.08 324.432 291.272 324.473 291.48C324.515 291.689 324.494 291.905 324.412 292.101C324.331 292.297 324.193 292.465 324.016 292.583C323.839 292.701 323.632 292.764 323.419 292.764C323.135 292.761 322.863 292.647 322.662 292.446C322.461 292.245 322.347 291.974 322.344 291.69Z" fill="white"/>
<path d="M339.571 295.144H216.973V299.94H339.571V295.144Z" fill="#6776FF"/>
<path d="M210.995 309.892H216.973V285.217H210.995V309.892Z" fill="black"/>
<path d="M339.571 312.272H216.973V336.947H339.571V312.272Z" fill="#263238"/>
<path d="M332.646 318.744C332.65 318.461 332.765 318.191 332.966 317.993C333.167 317.794 333.439 317.682 333.722 317.682C333.985 317.711 334.228 317.836 334.405 318.033C334.582 318.23 334.68 318.486 334.68 318.75C334.68 319.015 334.582 319.271 334.405 319.468C334.228 319.665 333.985 319.79 333.722 319.819C333.437 319.819 333.163 319.705 332.961 319.504C332.76 319.302 332.646 319.029 332.646 318.744Z" fill="#6776FF"/>
<path d="M327.504 318.744C327.504 318.531 327.567 318.323 327.686 318.146C327.805 317.969 327.974 317.831 328.171 317.75C328.368 317.669 328.585 317.649 328.794 317.691C329.003 317.734 329.194 317.837 329.344 317.989C329.494 318.141 329.595 318.333 329.635 318.542C329.675 318.752 329.652 318.968 329.569 319.164C329.485 319.36 329.346 319.527 329.167 319.644C328.989 319.76 328.78 319.821 328.566 319.819C328.426 319.819 328.287 319.791 328.157 319.737C328.027 319.682 327.909 319.603 327.811 319.503C327.712 319.403 327.634 319.285 327.581 319.154C327.529 319.024 327.502 318.885 327.504 318.744Z" fill="white"/>
<path d="M322.344 318.744C322.344 318.532 322.407 318.324 322.525 318.147C322.643 317.971 322.811 317.833 323.007 317.751C323.204 317.67 323.42 317.649 323.629 317.69C323.837 317.732 324.029 317.834 324.179 317.984C324.33 318.135 324.432 318.326 324.473 318.535C324.515 318.743 324.494 318.959 324.412 319.155C324.331 319.352 324.193 319.52 324.016 319.638C323.839 319.756 323.632 319.819 323.419 319.819C323.134 319.819 322.86 319.705 322.659 319.504C322.457 319.302 322.344 319.029 322.344 318.744Z" fill="#6776FF"/>
<path d="M339.571 322.211H216.973V327.008H339.571V322.211Z" fill="#6776FF"/>
<path d="M210.995 336.934H216.973V312.259H210.995V336.934Z" fill="black"/>
<path d="M339.571 339.326H216.973V364.001H339.571V339.326Z" fill="#263238"/>
<path d="M333.722 346.886C334.315 346.886 334.797 346.405 334.797 345.811C334.797 345.218 334.315 344.737 333.722 344.737C333.128 344.737 332.646 345.218 332.646 345.811C332.646 346.405 333.128 346.886 333.722 346.886Z" fill="white"/>
<path d="M328.565 346.886C329.159 346.886 329.641 346.405 329.641 345.811C329.641 345.218 329.159 344.737 328.565 344.737C327.972 344.737 327.49 345.218 327.49 345.811C327.49 346.405 327.972 346.886 328.565 346.886Z" fill="white"/>
<path d="M323.419 346.886C324.013 346.886 324.494 346.405 324.494 345.811C324.494 345.218 324.013 344.737 323.419 344.737C322.825 344.737 322.344 345.218 322.344 345.811C322.344 346.405 322.825 346.886 323.419 346.886Z" fill="#6776FF"/>
<path d="M339.571 349.265H216.973V354.062H339.571V349.265Z" fill="#6776FF"/>
<path d="M210.995 364.001H216.973V339.326H210.995V364.001Z" fill="black"/>
<path d="M339.571 366.393H216.973V391.069H339.571V366.393Z" fill="#263238"/>
<path d="M333.722 373.941C334.315 373.941 334.797 373.459 334.797 372.866C334.797 372.273 334.315 371.792 333.722 371.792C333.128 371.792 332.646 372.273 332.646 372.866C332.646 373.459 333.128 373.941 333.722 373.941Z" fill="white"/>
<path d="M328.565 373.941C329.159 373.941 329.641 373.459 329.641 372.866C329.641 372.273 329.159 371.792 328.565 371.792C327.972 371.792 327.49 372.273 327.49 372.866C327.49 373.459 327.972 373.941 328.565 373.941Z" fill="#6776FF"/>
<path d="M323.419 373.941C324.013 373.941 324.494 373.459 324.494 372.866C324.494 372.273 324.013 371.792 323.419 371.792C322.825 371.792 322.344 372.273 322.344 372.866C322.344 373.459 322.825 373.941 323.419 373.941Z" fill="white"/>
<path d="M339.571 376.333H216.973V381.129H339.571V376.333Z" fill="#6776FF"/>
<path d="M210.995 391.055H216.973V366.38H210.995V391.055Z" fill="black"/>
<path d="M339.571 393.448H216.973V418.123H339.571V393.448Z" fill="#263238"/>
<path d="M333.722 401.008C334.315 401.008 334.797 400.527 334.797 399.933C334.797 399.34 334.315 398.859 333.722 398.859C333.128 398.859 332.646 399.34 332.646 399.933C332.646 400.527 333.128 401.008 333.722 401.008Z" fill="#6776FF"/>
<path d="M328.565 401.008C329.159 401.008 329.641 400.527 329.641 399.933C329.641 399.34 329.159 398.859 328.565 398.859C327.972 398.859 327.49 399.34 327.49 399.933C327.49 400.527 327.972 401.008 328.565 401.008Z" fill="white"/>
<path d="M323.419 401.008C324.013 401.008 324.494 400.527 324.494 399.933C324.494 399.34 324.013 398.859 323.419 398.859C322.825 398.859 322.344 399.34 322.344 399.933C322.344 400.527 322.825 401.008 323.419 401.008Z" fill="#6776FF"/>
<path d="M339.571 403.387H216.973V408.184H339.571V403.387Z" fill="#6776FF"/>
<path d="M210.995 418.123H216.973V393.448H210.995V418.123Z" fill="black"/>
<path d="M339.571 420.515H216.973V445.19H339.571V420.515Z" fill="#263238"/>
<path d="M333.722 428.062C334.315 428.062 334.797 427.581 334.797 426.988C334.797 426.394 334.315 425.913 333.722 425.913C333.128 425.913 332.646 426.394 332.646 426.988C332.646 427.581 333.128 428.062 333.722 428.062Z" fill="#6776FF"/>
<path d="M328.565 428.062C329.159 428.062 329.641 427.581 329.641 426.988C329.641 426.394 329.159 425.913 328.565 425.913C327.972 425.913 327.49 426.394 327.49 426.988C327.49 427.581 327.972 428.062 328.565 428.062Z" fill="#6776FF"/>
<path d="M323.419 428.062C324.013 428.062 324.494 427.581 324.494 426.988C324.494 426.394 324.013 425.913 323.419 425.913C322.825 425.913 322.344 426.394 322.344 426.988C322.344 427.581 322.825 428.062 323.419 428.062Z" fill="white"/>
<path d="M339.571 430.454H216.973V435.251H339.571V430.454Z" fill="#6776FF"/>
<path d="M210.995 445.177H216.973V420.502H210.995V445.177Z" fill="black"/>
<path opacity="0.7" d="M219.442 460.348L210.994 451.893V170.258L219.442 161.803H285.593L294.041 170.258V451.893L285.593 460.348H219.442Z" fill="#6776FF"/>
<path d="M285.594 460.348L294.042 451.893V170.258L285.594 161.803H288.909L296.167 169.056V453.095L288.909 460.348H285.594Z" fill="#6776FF"/>
<path d="M458.47 166.957C461.26 172.406 463.718 177.817 465.996 183.471C467.123 186.285 468.198 189.164 469.171 192.106C470.235 195.165 471.09 198.294 471.731 201.469L471.846 202.109L471.91 202.454L471.974 202.927C471.974 203.234 472.064 203.567 472.089 203.874V204.718C472.111 205.714 472.064 206.71 471.948 207.699C471.733 209.399 471.421 211.086 471.014 212.751C470.241 215.786 469.301 218.775 468.198 221.706C466.065 227.403 463.524 232.939 460.595 238.271C460.193 239.025 459.53 239.607 458.729 239.907C457.929 240.207 457.046 240.204 456.247 239.899C455.449 239.594 454.789 239.008 454.392 238.251C453.995 237.495 453.889 236.619 454.092 235.789V235.713C455.372 230.059 456.793 224.328 457.932 218.751C458.521 215.962 458.995 213.174 459.328 210.538C459.483 209.303 459.568 208.061 459.584 206.816C459.585 206.333 459.555 205.85 459.494 205.371V205.102V204.961L459.417 204.693L459.289 204.245C458.598 201.904 457.612 199.295 456.563 196.698C455.513 194.101 454.361 191.492 453.171 188.869C450.816 183.65 448.332 178.342 445.9 173.187V173.11C445.077 171.434 444.954 169.5 445.558 167.733C446.161 165.966 447.443 164.512 449.12 163.689C450.797 162.866 452.732 162.743 454.5 163.346C456.268 163.95 457.724 165.23 458.547 166.906L458.47 166.957Z" fill="#FFB573"/>
<path d="M452.261 237.542L456.626 231.146L460.965 229.867C462.962 232.298 462.386 236.046 461.797 238.195L460.517 246.202C460.402 246.933 460.053 247.608 459.522 248.124C458.991 248.641 458.308 248.972 457.573 249.068L454.719 249.477C454.216 249.548 453.704 249.516 453.215 249.383C452.725 249.25 452.268 249.018 451.871 248.702C451.475 248.386 451.147 247.992 450.908 247.544C450.669 247.097 450.524 246.605 450.482 246.1L450.367 244.718C450.148 242.179 450.818 239.643 452.261 237.542Z" fill="#FFB573"/>
<path d="M445.129 254.823C446.183 253.623 446.749 252.071 446.717 250.474L468.246 240.484L468.413 240.637C469.723 241.739 471.418 242.275 473.124 242.129C474.831 241.982 476.409 241.165 477.513 239.857C477.988 239.29 478.36 238.645 478.614 237.951L473.942 238.591C473.648 238.63 473.349 238.609 473.062 238.53C472.776 238.45 472.509 238.314 472.277 238.129C472.045 237.943 471.853 237.713 471.713 237.452C471.572 237.191 471.486 236.903 471.459 236.608L471.318 234.996C471.292 234.7 471.326 234.401 471.42 234.118C471.513 233.835 471.663 233.574 471.861 233.352C472.059 233.129 472.3 232.949 472.57 232.823C472.84 232.696 473.132 232.626 473.43 232.617L478.153 232.438C477.774 231.806 477.294 231.24 476.733 230.762C475.788 229.935 474.62 229.403 473.376 229.234C472.131 229.065 470.864 229.266 469.733 229.812C468.601 230.357 467.656 231.223 467.014 232.302C466.371 233.381 466.061 234.625 466.121 235.879L444.579 245.869L444.425 245.716C443.114 244.614 441.42 244.078 439.713 244.224C438.007 244.371 436.429 245.188 435.325 246.496C434.853 247.063 434.477 247.702 434.211 248.389L438.896 247.762C439.19 247.723 439.489 247.744 439.775 247.823C440.061 247.903 440.329 248.039 440.561 248.224C440.792 248.41 440.985 248.64 441.125 248.901C441.266 249.162 441.352 249.449 441.379 249.745L441.507 251.357C441.533 251.652 441.499 251.95 441.406 252.232C441.314 252.514 441.165 252.774 440.968 252.997C440.772 253.219 440.532 253.4 440.264 253.527C439.996 253.654 439.704 253.725 439.408 253.736L434.685 253.902C435.052 254.546 435.533 255.119 436.105 255.591C436.748 256.133 437.491 256.543 438.293 256.798C439.094 257.053 439.938 257.148 440.777 257.076C441.615 257.005 442.43 256.769 443.177 256.383C443.924 255.996 444.588 255.466 445.129 254.823Z" fill="#263238"/>
<path opacity="0.1" d="M446.219 247.916C446.144 247.762 446.101 247.595 446.092 247.423C446.083 247.252 446.108 247.081 446.167 246.92C446.225 246.759 446.315 246.611 446.432 246.486C446.549 246.36 446.69 246.259 446.846 246.189L464.075 238.207C464.229 238.132 464.397 238.089 464.568 238.08C464.739 238.071 464.91 238.097 465.072 238.155C465.233 238.214 465.381 238.304 465.506 238.42C465.632 238.537 465.733 238.678 465.803 238.834C465.876 238.988 465.918 239.154 465.925 239.324C465.933 239.493 465.907 239.663 465.849 239.823C465.791 239.982 465.701 240.129 465.585 240.253C465.47 240.378 465.331 240.478 465.176 240.548L447.998 248.505C447.844 248.589 447.674 248.641 447.499 248.657C447.324 248.673 447.147 248.653 446.98 248.598C446.813 248.542 446.66 248.453 446.529 248.336C446.398 248.219 446.292 248.076 446.219 247.916Z" fill="white"/>
<path d="M443.302 153.616C450.982 155.304 454.822 159.244 462.246 171.652C458.022 177.907 447.693 183.318 447.693 183.318L443.213 178.202C437.606 167.802 443.302 153.642 443.302 153.642" fill="#263238"/>
<path opacity="0.2" d="M440.755 167.776C440.722 171.39 441.565 174.958 443.212 178.176L447.68 183.292C447.68 183.292 449.305 182.435 451.52 181.016C447.884 173.724 445.03 170.079 440.755 167.776Z" fill="black"/>
<path d="M407.744 165.512L407.603 166.318L407.475 166.932L407.206 168.071C407.001 168.8 406.771 169.516 406.528 170.207C406.033 171.595 405.447 172.95 404.774 174.262C403.422 176.903 401.698 179.337 399.654 181.489C397.596 183.653 395.222 185.494 392.614 186.951C390.077 188.371 387.361 189.442 384.537 190.136L384.089 190.251C382.494 190.65 380.805 190.4 379.394 189.556C377.983 188.712 376.965 187.342 376.563 185.749C376.487 185.446 376.436 185.138 376.409 184.828C376.185 182.261 376.336 179.676 376.857 177.153C377.326 174.898 377.954 172.679 378.739 170.514C380.254 166.48 382.108 162.582 384.281 158.861C386.375 155.269 388.647 151.786 391.091 148.423C393.561 145.097 396.045 141.899 398.873 138.778C399.451 138.133 400.248 137.725 401.109 137.634C401.971 137.543 402.835 137.775 403.535 138.285C404.235 138.795 404.72 139.546 404.897 140.394C405.074 141.241 404.93 142.124 404.493 142.871V142.96C402.56 146.274 400.589 149.74 398.809 153.194C397.03 156.648 395.302 160.127 393.792 163.632C392.288 167.025 391.031 170.522 390.028 174.095C389.098 177.08 388.775 180.22 389.081 183.331L380.94 178.023C382.604 177.377 384.188 176.544 385.664 175.541C387.056 174.564 388.32 173.417 389.427 172.126C390.524 170.815 391.465 169.381 392.23 167.853C392.631 167.085 392.977 166.29 393.267 165.474C393.42 165.077 393.536 164.668 393.664 164.284L393.83 163.721L393.894 163.478C393.894 163.478 393.894 163.274 393.894 163.478C394.017 162.55 394.324 161.655 394.797 160.847C395.27 160.039 395.9 159.333 396.649 158.771C397.399 158.209 398.253 157.803 399.162 157.575C400.071 157.347 401.016 157.303 401.943 157.445C402.869 157.588 403.757 157.913 404.556 158.403C405.354 158.893 406.047 159.537 406.593 160.298C407.14 161.059 407.529 161.921 407.737 162.834C407.946 163.747 407.97 164.692 407.808 165.615L407.744 165.512Z" fill="#FFB573"/>
<path d="M410.992 164.553C411.786 159.743 408.432 153.974 408.432 153.974C400.752 154.345 393.431 156.212 386.365 170.667C388.068 178.726 398.756 184.405 398.756 184.405L406.295 174.632C406.295 174.632 410.186 169.375 410.992 164.553Z" fill="#263238"/>
<path d="M400.933 135.196L403.058 132.893C403.98 131.904 405.125 131.149 406.399 130.693L408.421 129.964C408.956 129.775 409.525 129.704 410.09 129.755C410.654 129.806 411.202 129.978 411.694 130.26C412.186 130.542 412.611 130.926 412.941 131.387C413.271 131.848 413.497 132.375 413.605 132.931L414.104 135.592C414.287 136.55 414.106 137.542 413.598 138.374C413.089 139.206 412.288 139.82 411.352 140.095L408.242 141.003C407.119 142.773 405.403 144.086 403.4 144.707C401.397 145.328 399.239 145.217 397.311 144.393C397.308 140.979 398.603 137.692 400.933 135.196Z" fill="#FFB573"/>
<path d="M456.739 446.303H446.09C446.09 446.303 446.602 454.093 446.563 458.711L455.959 459.836C455.152 454.72 456.739 446.303 456.739 446.303Z" fill="#FFB573"/>
<path d="M409.816 227.36C409.816 227.36 428.927 308.293 434.892 341.206C441.151 375.744 445.413 445.037 445.4 447.569C448.831 446.891 454.36 446.738 457.112 447.569C457.112 447.569 470.271 366.086 458.392 335.834C453.874 278.476 459.672 246.023 448.152 227.373L409.816 227.36Z" fill="#6776FF"/>
<path opacity="0.2" d="M434.15 252.457C431.027 239.666 420.428 240.945 413.529 243.273C417.83 261.757 424.96 292.879 430.169 317.567C437.568 299.838 438.374 269.662 434.15 252.457Z" fill="black"/>
<path d="M388.912 444.909C387.952 457.278 377.904 470.582 377.904 470.582L393.405 466.616L399.933 456.92C399.972 453.23 400.458 449.557 401.379 445.983L388.912 444.909Z" fill="#FFB573"/>
<path d="M394.238 227.36C394.238 227.36 396.939 313.474 396.235 338.648C395.249 373.544 387.928 447.582 387.928 447.582C393.483 447.006 398.283 446.84 401.355 447.582C401.355 447.582 424.395 387.64 421.694 338.981C427.454 293.89 446.859 252.47 434.865 227.386L394.238 227.36Z" fill="#6776FF"/>
<path d="M435.287 130.233C433.776 136.756 432.074 148.717 436.49 153.079C432.575 159.06 426.919 163.699 420.285 166.369C411.735 160.894 416.189 153.079 416.189 153.079C423.536 151.339 423.536 145.941 422.448 140.863L435.287 130.233Z" fill="#FFB573"/>
<path d="M436.568 146.312C436.568 146.312 421.72 144.291 414.424 150.354C414.314 151.862 413.685 153.286 412.645 154.383C420.598 156.128 428.788 156.53 436.875 155.573C438.808 152.26 436.568 146.312 436.568 146.312Z" fill="#6776FF"/>
<path d="M395.802 168.352C396.595 188.819 392.09 219.941 394.266 227.36C416.231 229.586 433.395 229.215 448.167 227.36C450.727 219.263 444.634 195.214 451.635 166.599C452.016 165.129 452.074 163.594 451.804 162.099C451.535 160.605 450.946 159.186 450.077 157.94C449.207 156.695 448.078 155.652 446.768 154.883C445.457 154.115 443.995 153.639 442.483 153.488C440.589 153.296 438.567 153.13 436.493 153.027C429.735 152.547 422.951 152.547 416.192 153.027C413.632 153.258 410.919 153.603 408.41 153.974C401.267 155.01 395.52 161.188 395.802 168.352Z" fill="#263238"/>
<path d="M411.185 119.206C411.095 120.102 410.558 120.792 409.982 120.754C409.406 120.716 409.009 119.974 409.099 119.078C409.188 118.183 409.713 117.505 410.289 117.543C410.865 117.582 411.262 118.324 411.185 119.206Z" fill="#263238"/>
<path d="M410.545 117.608L408.484 116.852C408.484 116.852 409.406 118.593 410.545 117.608Z" fill="#263238"/>
<path d="M410.048 113.373C409.982 113.36 409.919 113.332 409.863 113.293C409.808 113.253 409.762 113.202 409.728 113.143C409.659 113.022 409.64 112.879 409.676 112.745C409.712 112.611 409.8 112.496 409.92 112.426C410.603 111.958 411.39 111.662 412.213 111.564C413.035 111.466 413.87 111.568 414.644 111.864C414.705 111.893 414.759 111.935 414.803 111.986C414.848 112.037 414.882 112.097 414.903 112.161C414.925 112.225 414.933 112.293 414.928 112.361C414.923 112.428 414.905 112.494 414.874 112.554C414.818 112.681 414.714 112.781 414.584 112.832C414.454 112.882 414.31 112.879 414.183 112.823C413.567 112.597 412.905 112.523 412.254 112.608C411.604 112.692 410.983 112.933 410.445 113.309C410.326 113.38 410.184 113.402 410.048 113.373Z" fill="#263238"/>
<path d="M411.006 121.662C410.03 123.642 408.794 125.483 407.332 127.137C407.754 127.491 408.25 127.747 408.784 127.884C409.318 128.021 409.876 128.037 410.417 127.93L411.006 121.662Z" fill="#ED893E"/>
<path d="M441.25 117.441C439.561 128.314 439.074 132.957 433.084 138.227C424.124 146.158 411.234 142.142 409.673 131.077C408.278 121.125 411.273 105.007 422.268 101.31C424.647 100.459 427.208 100.249 429.693 100.702C432.179 101.155 434.501 102.255 436.426 103.891C438.351 105.526 439.81 107.64 440.657 110.019C441.504 112.398 441.709 114.958 441.25 117.441Z" fill="#FFB573"/>
<path d="M414.103 105.135C411.915 109.446 416.228 117.441 419.121 120.715C414.001 126.254 408.881 135.809 415.627 141.54C421.847 146.759 455.204 146.657 448.715 135.477C454.436 128.441 444.875 127.444 449.457 113.731C452.772 103.792 446.539 101.029 440.945 101.975C434.571 93.9678 418.647 96.168 414.103 105.135Z" fill="#263238"/>
<path d="M416.549 109.651C416.549 109.651 426.866 118.093 438.744 119.475C445.144 120.217 448.344 120.127 448.638 119.155C448.933 118.183 449.483 114.908 449.483 114.908L416.549 109.651Z" fill="#E0E0E0"/>
<path d="M407.794 107.438C410.917 109.906 434.52 116.648 450.431 115.113C450.584 114.166 450.072 114.051 450.072 114.051C450.072 114.051 453.733 101.784 445.324 97.1787C441.356 90.6933 429.375 91.0898 424.075 92.9191L423.32 93.8656C423.32 93.8656 412.939 96.2833 412.786 104.879C408.69 105.404 404.351 104.726 407.794 107.438Z" fill="#6776FF"/>
<path opacity="0.2" d="M423.318 93.9169L424.074 92.9703C429.662 92.638 435.163 94.4705 439.434 98.087C435.453 95.695 428.797 93.4564 423.318 93.9169Z" fill="black"/>
<path d="M417.561 117.262C415.295 116.955 413.145 120.255 412.364 122.609C411.506 125.244 412.441 127.725 414.796 126.83C416.69 126.059 418.244 124.634 419.173 122.813C420.415 120.447 419.839 117.556 417.561 117.262Z" fill="#FFB573"/>
<path d="M449.805 451.56C456.346 450.409 456.205 453.786 456.64 457.406C456.972 459.598 456.596 461.838 455.565 463.802C453.261 467.857 455.232 473.843 447.885 473.843C440.538 473.843 439.885 472.142 441.856 468.522C443.709 464.859 445.003 460.94 445.696 456.894C446.195 454.796 446.899 452.072 449.805 451.56Z" fill="#263238"/>
<path d="M456.216 459.299C456.216 463.687 456.292 473.843 456.292 473.843H455.128C455.128 473.843 454.129 463.034 453.502 460.118L456.216 459.299Z" fill="#263238"/>
<path d="M400.766 453.006C401.255 454.169 401.461 455.431 401.368 456.69C401.099 461.32 400.088 473.626 400.088 473.626H399.026C399.191 469.853 399.156 466.074 398.923 462.305C398.526 459.248 397.016 464.646 394.891 467.691C392.766 470.735 388.722 473.524 381.81 473.741C373.72 473.997 370.456 473.651 372.85 471.63C375.243 469.609 380.696 468.279 380.696 468.279C384.975 466.395 388.537 463.189 390.859 459.133C392.868 455.84 395.814 453.221 399.32 451.611C399.66 451.702 399.97 451.878 400.224 452.122C400.477 452.366 400.663 452.67 400.766 453.006Z" fill="#263238"/>
</svg>
