<svg width="297" height="264" viewBox="0 0 297 264" fill="none" xmlns="http://www.w3.org/2000/svg">
<path d="M78.0723 240.273H46.9414V240.449H78.0723V240.273Z" fill="#E0E0E0"/>
<path d="M41.7826 240.356H29.6738V240.532H41.7826V240.356Z" fill="#E0E0E0"/>
<path d="M134.387 239.172H119.666V239.348H134.387V239.172Z" fill="#E0E0E0"/>
<path d="M170.354 237.268H131.437V237.443H170.354V237.268Z" fill="#E0E0E0"/>
<path d="M240.641 240.532H231.235V240.708H240.641V240.532Z" fill="#E0E0E0"/>
<path d="M227.326 240.532H224.257V240.708H227.326V240.532Z" fill="#E0E0E0"/>
<path d="M288.877 238.587H248.925V238.763H288.877V238.587Z" fill="#E0E0E0"/>
<path d="M139.948 200.74H4.0128C2.94789 200.739 1.92724 200.314 1.17489 199.559C0.42255 198.805 -1.63309e-06 197.782 0 196.716V5.41561C0.00927024 4.35563 0.435912 3.34211 1.18726 2.59521C1.9386 1.8483 2.95396 1.42833 4.0128 1.42651H139.948C141.014 1.42651 142.037 1.85051 142.791 2.60521C143.544 3.35992 143.968 4.38353 143.968 5.45085V196.716C143.968 197.783 143.544 198.807 142.791 199.562C142.037 200.316 141.014 200.74 139.948 200.74ZM4.0128 1.56747C2.99457 1.56934 2.01868 1.97559 1.29935 2.69705C0.580007 3.41852 0.175998 4.39624 0.176 5.41561V196.716C0.175998 197.735 0.580007 198.713 1.29935 199.435C2.01868 200.156 2.99457 200.562 4.0128 200.564H139.948C140.966 200.56 141.942 200.154 142.662 199.433C143.382 198.712 143.788 197.736 143.792 196.716V5.41561C143.788 4.39616 143.382 3.41953 142.662 2.69867C141.942 1.97781 140.966 1.57119 139.948 1.56747H4.0128Z" fill="#E0E0E0"/>
<path d="M292.232 200.74H156.289C155.224 200.737 154.204 200.312 153.451 199.558C152.698 198.804 152.273 197.782 152.27 196.716V5.41561C152.281 4.35499 152.709 3.34148 153.461 2.59476C154.214 1.84805 155.23 1.42831 156.289 1.42651H292.232C293.289 1.43018 294.303 1.85097 295.053 2.59768C295.803 3.34439 296.228 4.35685 296.238 5.41561V196.716C296.238 197.244 296.136 197.766 295.935 198.254C295.734 198.742 295.439 199.185 295.067 199.559C294.695 199.932 294.253 200.229 293.767 200.432C293.28 200.635 292.759 200.739 292.232 200.74ZM156.289 1.56747C155.271 1.57119 154.296 1.97781 153.575 2.69867C152.855 3.41953 152.449 4.39616 152.446 5.41561V196.716C152.449 197.736 152.855 198.712 153.575 199.433C154.296 200.154 155.271 200.56 156.289 200.564H292.232C293.25 200.56 294.226 200.154 294.946 199.433C295.666 198.712 296.072 197.736 296.076 196.716V5.41561C296.072 4.39616 295.666 3.41953 294.946 2.69867C294.226 1.97781 293.25 1.57119 292.232 1.56747H156.289Z" fill="#E0E0E0"/>
<path d="M266.429 17.4685H179.189V154.169H266.429V17.4685Z" fill="#E0E0E0"/>
<path d="M270.265 17.4685H180.983V154.169H270.265V17.4685Z" fill="#EBEBEB"/>
<path d="M266.429 154.175H179.189V161.3H266.429V154.175Z" fill="#E6E6E6"/>
<path d="M276.645 154.175H187.363V161.3H276.645V154.175Z" fill="#F0F0F0"/>
<path d="M264.901 22.8396H186.349V148.806H264.901V22.8396Z" fill="#FAFAFA"/>
<path d="M214.543 148.806L232.101 22.8396H246.962L229.404 148.806H214.543Z" fill="white"/>
<path d="M189.93 138.861C189.829 138.859 189.732 138.817 189.661 138.745C189.59 138.672 189.55 138.574 189.55 138.473V26.3341C189.544 26.2837 189.547 26.2324 189.559 26.1831C189.572 26.1339 189.595 26.0876 189.625 26.0471C189.656 26.0065 189.695 25.9724 189.738 25.9466C189.782 25.9209 189.831 25.9041 189.881 25.8972C189.932 25.8902 189.983 25.8933 190.032 25.9062C190.081 25.9191 190.127 25.9415 190.168 25.9723C190.208 26.0031 190.242 26.0415 190.268 26.0855C190.294 26.1294 190.311 26.178 190.317 26.2284C190.324 26.2633 190.324 26.2992 190.317 26.3341V138.473C190.317 138.576 190.277 138.674 190.204 138.747C190.132 138.82 190.033 138.861 189.93 138.861Z" fill="#E6E6E6"/>
<path d="M232.594 148.806L250.152 22.8396H255.945L238.388 148.806H232.594Z" fill="white"/>
<path d="M264.898 22.8396H264.216V148.806H264.898V22.8396Z" fill="#E6E6E6"/>
<path d="M271.524 26.9616H184.292L183.799 24.9248H271.031L271.524 26.9616Z" fill="#E0E0E0"/>
<path d="M271.524 28.4482H184.292L183.799 26.4185H271.031L271.524 28.4482Z" fill="#E0E0E0"/>
<path d="M271.524 30.2385H184.292L183.799 28.2017H271.031L271.524 30.2385Z" fill="#E0E0E0"/>
<path d="M271.524 32.2314H184.292L183.799 30.1946H271.031L271.524 32.2314Z" fill="#E0E0E0"/>
<path d="M271.524 34.6162H184.292L183.799 32.5793H271.031L271.524 34.6162Z" fill="#E0E0E0"/>
<path d="M271.524 37.2995H184.292L183.799 35.2627H271.031L271.524 37.2995Z" fill="#E0E0E0"/>
<path d="M38.0783 136.744C38.0783 138.859 39.5637 140.367 37.4306 140.367C35.2975 140.367 30.3906 138.88 30.3906 136.744C30.3906 135.716 30.7986 134.73 31.5247 134.004C32.2509 133.277 33.2357 132.868 34.2626 132.868C35.2895 132.868 36.2744 133.277 37.0005 134.004C37.7267 134.73 38.1346 135.716 38.1346 136.744H38.0783Z" fill="#E0E0E0"/>
<path d="M44.6828 138.598C44.6828 140.713 46.1682 142.214 44.0351 142.214C41.902 142.214 36.9951 140.727 36.9951 138.598C36.9951 137.57 37.4031 136.584 38.1292 135.858C38.8553 135.131 39.8402 134.722 40.8671 134.722C41.894 134.722 42.8789 135.131 43.605 135.858C44.3312 136.584 44.7391 137.57 44.7391 138.598H44.6828Z" fill="#E0E0E0"/>
<path d="M51.0109 137.451C51.0109 139.566 52.4964 141.067 50.3632 141.067C48.2301 141.067 43.3232 139.58 43.3232 137.451C43.3232 136.423 43.7312 135.437 44.4573 134.71C45.1835 133.983 46.1683 133.575 47.1952 133.575C48.2222 133.575 49.207 133.983 49.9332 134.71C50.6593 135.437 51.0672 136.423 51.0672 137.451H51.0109Z" fill="#E0E0E0"/>
<path d="M28.0117 137.963C28.0117 137.963 28.3285 145.497 40.4232 145.497C52.518 145.497 52.8348 137.963 52.8348 137.963H28.0117Z" fill="#F0F0F0"/>
<path d="M170.424 145.506H164.939V232.174H170.424V145.506Z" fill="#E0E0E0"/>
<path d="M172.154 145.506H168.346V232.174H172.154V145.506Z" fill="#F0F0F0"/>
<path d="M173.337 145.506H59.4648V152.251H173.337V145.506Z" fill="#F0F0F0"/>
<path d="M57.0105 152.25H51.5264V232.172H57.0105V152.25Z" fill="#E0E0E0"/>
<path d="M58.7413 152.25H54.9326V232.172H58.7413V152.25Z" fill="#F0F0F0"/>
<path d="M22.3025 152.25H16.8184V232.172H22.3025V152.25Z" fill="#E0E0E0"/>
<path d="M24.0342 152.25H20.2256V232.172H24.0342V152.25Z" fill="#F0F0F0"/>
<path d="M135.719 152.25H130.234V232.172H135.719V152.25Z" fill="#E0E0E0"/>
<path d="M137.448 152.25H133.64V232.172H137.448V152.25Z" fill="#F0F0F0"/>
<path d="M59.4667 145.506H16.8184V152.251H59.4667V145.506Z" fill="#E0E0E0"/>
<path d="M58.7422 116.948H104.516L111.148 144.005H65.3739L58.7422 116.948Z" fill="#E0E0E0"/>
<path d="M65.373 144.005L65.5631 145.506H111.337L111.154 144.005H65.373Z" fill="#E0E0E0"/>
<path d="M60.1504 116.948H105.924L112.556 144.005H66.7891L60.1504 116.948Z" fill="#F0F0F0"/>
<path d="M67.7518 142.771L61.7256 118.181H104.958L110.984 142.771H67.7518Z" fill="white"/>
<path d="M78.7129 144.005L78.8959 145.506H129.302L129.119 144.005H78.7129Z" fill="#EBEBEB"/>
<path d="M167.142 134.478C167.01 134.485 166.879 134.499 166.748 134.52V133.632C166.748 133.337 166.631 133.053 166.422 132.844C166.214 132.636 165.931 132.518 165.636 132.518H156.948C156.653 132.518 156.37 132.636 156.162 132.844C155.953 133.053 155.836 133.337 155.836 133.632V145.501H166.748V143.506C166.879 143.525 167.01 143.536 167.142 143.541C167.573 143.541 168 143.456 168.398 143.291C168.796 143.126 169.157 142.884 169.462 142.579C169.767 142.274 170.008 141.912 170.173 141.514C170.338 141.115 170.423 140.688 170.423 140.257V137.769C170.423 136.897 170.077 136.061 169.462 135.444C168.847 134.827 168.013 134.479 167.142 134.478ZM169.015 140.257C169.015 140.754 168.818 141.231 168.466 141.583C168.115 141.934 167.639 142.132 167.142 142.132C167.01 142.132 166.877 142.118 166.748 142.089V135.929C166.877 135.901 167.01 135.887 167.142 135.887C167.639 135.889 168.116 136.088 168.467 136.441C168.818 136.794 169.015 137.271 169.015 137.769V140.257Z" fill="#E6E6E6"/>
<path d="M119.946 232.176H118.426L114.068 210.694L113.308 206.93L108.556 183.524H90.3503L80.4943 232.154H78.9736L89.0268 182.608C89.0522 182.44 89.1375 182.287 89.2669 182.177C89.3962 182.066 89.561 182.007 89.7308 182.009H109.154C109.324 182.007 109.489 182.066 109.618 182.177C109.747 182.287 109.833 182.44 109.858 182.608L114.033 203.167L114.793 206.923L119.946 232.176Z" fill="#E0E0E0"/>
<path d="M149.184 232.173H147.692L137.836 183.543H119.581L114.829 206.963L114.069 210.748L109.711 232.23H108.19L113.309 206.984L114.069 203.242L118.237 182.683C118.271 182.519 118.359 182.371 118.486 182.263C118.613 182.154 118.773 182.091 118.941 182.084H138.364C138.534 182.082 138.698 182.142 138.828 182.252C138.957 182.362 139.042 182.515 139.068 182.683L149.184 232.173Z" fill="#E0E0E0"/>
<path d="M104.297 182.774H137.758C140.826 182.773 143.771 181.569 145.964 179.421C148.156 177.272 149.42 174.35 149.487 171.279L150.733 120.372C150.756 119.25 150.558 118.133 150.151 117.087C149.743 116.041 149.133 115.086 148.357 114.275C147.58 113.465 146.651 112.816 145.624 112.365C144.597 111.914 143.491 111.67 142.369 111.647H121.214C119.116 111.647 117.091 112.42 115.525 113.819C113.959 115.217 112.962 117.144 112.724 119.231L104.297 182.774Z" fill="#F0F0F0"/>
<path d="M122.545 182.774H86.8941C86.4516 182.774 86.0272 182.598 85.7143 182.285C85.4014 181.972 85.2256 181.547 85.2256 181.104V180.949C85.2247 180.346 85.3426 179.749 85.5726 179.192C85.8026 178.635 86.1401 178.129 86.5659 177.703C86.9916 177.276 87.4972 176.938 88.0537 176.708C88.6101 176.478 89.2065 176.36 89.8086 176.361H122.545V182.774Z" fill="#F0F0F0"/>
<path d="M116.096 21.5706H20.0566V97.1238H116.096V21.5706Z" fill="#E0E0E0"/>
<path d="M117.222 21.5706H21.1826V97.1238H117.222V21.5706Z" fill="#EBEBEB"/>
<path d="M110.9 27.8999H27.5039V90.7951H110.9V27.8999Z" fill="white"/>
<path opacity="0.5" d="M27.5039 47.4214V90.794H99.9033C102.114 81.8221 99.2626 72.7937 87.9353 67.8743C78.1567 63.6456 66.5055 68.2056 56.3397 66.0348C44.6041 63.5258 40.718 53.8984 31.0732 48.9437C29.9208 48.3527 28.728 47.8439 27.5039 47.4214Z" fill="#E6E6E6"/>
<path opacity="0.7" d="M27.5039 27.8999V30.3667C35.6281 36.9776 45.6178 49.4734 56.2975 52.8494C73.1935 58.1987 95.9045 43.7435 96.9324 27.8999H27.5039Z" fill="#E6E6E6"/>
<path d="M96.4951 62.8203C99.7476 71.1932 104.88 77.5504 110.899 83.2239V31.1965C99.3252 34.6711 91.0039 48.6894 96.4951 62.8203Z" fill="#E6E6E6"/>
<path d="M149.1 264C224.486 264 285.599 260.428 285.599 256.022C285.599 251.616 224.486 248.044 149.1 248.044C73.7141 248.044 12.6016 251.616 12.6016 256.022C12.6016 260.428 73.7141 264 149.1 264Z" fill="#F5F5F5"/>
<path d="M25.2402 254.43V256.022H272.964V153.173H256.314L227.711 171.892H200.431L169.842 191.908V199.964H157.261L122.449 222.742H99.3222L70.5145 241.595H49.9366L25.2402 254.43Z" fill="#FFA319"/>
<path opacity="0.2" d="M25.2402 254.43V256.022H272.964V153.173H256.314L227.711 171.892H200.431L169.842 191.908V199.964H157.261L122.449 222.742H99.3222L70.5145 241.595H49.9366L25.2402 254.43Z" fill="black"/>
<path d="M41.8906 256.023H272.965V154.767L244.361 173.479H217.081L186.492 193.495V201.557H173.912L139.099 224.336H115.973L87.1719 243.189H66.5869L41.8906 256.023Z" fill="#FFA319"/>
<path opacity="0.1" d="M41.8906 256.023H272.965V154.767L244.361 173.479H217.081L186.492 193.495V201.557H173.912L139.099 224.336H115.973L87.1719 243.189H66.5869L41.8906 256.023Z" fill="white"/>
<path d="M90.6668 66.0487C89.6812 67.1975 88.5548 68.4802 87.5904 69.7418C86.6259 71.0033 85.5699 72.2861 84.6124 73.5899C82.7024 76.1183 80.9823 78.785 79.4662 81.5681L78.9523 82.5901L78.7622 82.9777C78.7059 83.0834 78.6636 83.2314 78.6073 83.3583C78.3807 84.0074 78.1996 84.6715 78.0652 85.3458C77.7696 86.8117 77.5443 88.4045 77.3612 90.0185C77.0304 93.2464 76.8121 96.6224 76.6079 99.9349L72.743 100.28C71.9962 96.8536 71.5254 93.3725 71.335 89.8705C71.2352 88.048 71.2587 86.2207 71.4054 84.4014C71.4777 83.3937 71.6355 82.394 71.8771 81.4131C71.9545 81.1382 72.0108 80.8774 72.1164 80.5885C72.222 80.2995 72.3206 79.9823 72.398 79.7991L72.926 78.5023C73.6457 76.81 74.4661 75.1626 75.383 73.5688C76.263 71.99 77.2415 70.4959 78.199 69.0299C79.1564 67.564 80.2476 66.1403 81.3529 64.8012C81.902 64.0964 82.4652 63.3916 83.0355 62.7503C83.6057 62.1089 84.176 61.4394 84.8377 60.7275L90.6668 66.0487Z" fill="#FED1BC"/>
<path d="M91.9418 67.8238C91.2378 69.1277 90.4422 70.3892 89.6749 71.5662C88.3514 73.6031 87.0701 75.365 86.1549 76.5773C85.3312 77.6697 84.8032 78.3111 84.8032 78.3111L74.377 71.1998C74.377 71.1998 80.7129 58.8519 85.5917 58.0625C90.6182 57.2661 95.2154 61.9741 91.9418 67.8238Z" fill="#FFA319"/>
<path opacity="0.3" d="M91.9418 67.8238C91.2378 69.1277 90.4422 70.3892 89.6749 71.5662C88.3514 73.6031 87.0701 75.365 86.1549 76.5773C85.3312 77.6697 84.8032 78.3111 84.8032 78.3111L74.377 71.1998C74.377 71.1998 80.7129 58.8519 85.5917 58.0625C90.6182 57.2661 95.2154 61.9741 91.9418 67.8238Z" fill="black"/>
<path d="M110.308 218.408H115.475L115.989 206.42H110.822L110.308 218.408Z" fill="#FED1BC"/>
<path d="M60.0146 196.075L64.2105 199.106L74.1087 191.473L69.9129 188.442L60.0146 196.075Z" fill="#FED1BC"/>
<path d="M115.989 206.42L115.728 212.601H110.554L110.814 206.42H115.989Z" fill="#CE6F64"/>
<path d="M69.9116 188.442L74.1075 191.473L68.9964 195.405L64.8076 192.375L69.9116 188.442Z" fill="#CE6F64"/>
<path d="M105.063 103.082C105.063 103.082 105.654 139.929 101.029 154.377C93.7074 177.261 71.5878 195.797 71.5878 195.797L63.6748 190.081C63.6748 190.081 82.0844 174.421 85.4988 155.152C88.533 137.835 87.2447 117.227 87.2447 103.082H105.063Z" fill="#FFA319"/>
<path opacity="0.7" d="M105.063 103.082C105.063 103.082 105.654 139.929 101.029 154.377C93.7074 177.261 71.5878 195.797 71.5878 195.797L63.6748 190.081C63.6748 190.081 82.0844 174.421 85.4988 155.152C88.533 137.835 87.2447 117.227 87.2447 103.082H105.063Z" fill="white"/>
<path d="M76.7894 98.9812L78.655 102.336L72.1219 103.309C72.1219 103.309 71.4531 100.489 73.0653 98.5442L76.7894 98.9812Z" fill="#FED1BC"/>
<path d="M79.6427 106.798L74.2079 107.348L72.124 103.31L78.6571 102.337L79.6427 106.798Z" fill="#FED1BC"/>
<path d="M109.775 39.0968C109.838 39.5056 110.106 39.8016 110.38 39.8016C110.654 39.8016 110.809 39.3858 110.746 38.977C110.683 38.5682 110.415 38.2722 110.141 38.2722C109.866 38.2722 109.712 38.681 109.775 39.0968Z" fill="#263238"/>
<path d="M110.069 39.8154C110.758 40.9978 111.606 42.0794 112.59 43.0293C112.342 43.279 112.043 43.4714 111.714 43.5932C111.384 43.715 111.032 43.763 110.682 43.734L110.069 39.8154Z" fill="#DE5753"/>
<path d="M107.915 37.0387C107.884 37.0396 107.853 37.0343 107.823 37.0232C107.794 37.012 107.767 36.9951 107.744 36.9735C107.721 36.9519 107.703 36.926 107.69 36.8973C107.677 36.8685 107.67 36.8376 107.669 36.8061C107.669 36.7719 107.676 36.738 107.689 36.7066C107.702 36.6751 107.722 36.6466 107.746 36.6228C108.017 36.3453 108.35 36.1365 108.717 36.0139C109.084 35.8913 109.476 35.8585 109.858 35.9181C109.89 35.9239 109.92 35.9361 109.947 35.954C109.974 35.9718 109.997 35.9949 110.015 36.0219C110.033 36.0489 110.045 36.0792 110.051 36.1111C110.056 36.1429 110.056 36.1755 110.048 36.207C110.043 36.2381 110.031 36.2677 110.013 36.2941C109.996 36.3205 109.973 36.3432 109.947 36.3609C109.921 36.3785 109.892 36.3909 109.861 36.3971C109.83 36.4034 109.798 36.4035 109.767 36.3973C109.462 36.3558 109.152 36.3871 108.862 36.4888C108.572 36.5905 108.31 36.7596 108.098 36.9823C108.074 37.0042 108.045 37.0205 108.013 37.0302C107.981 37.04 107.948 37.0428 107.915 37.0387Z" fill="#263238"/>
<path d="M96.0161 43.6423C96.7623 47.427 97.5015 54.3692 94.8545 56.8923C94.8545 56.8923 95.8894 60.7405 102.915 60.7405C110.659 60.7405 106.611 56.8923 106.611 56.8923C102.387 55.8845 102.5 52.7552 103.239 49.8445L96.0161 43.6423Z" fill="#FED1BC"/>
<path d="M91.9823 59.458C92.8201 58.1471 91.4121 54.9896 91.4121 54.9896C91.4121 54.9896 103.866 51.8533 108.949 56.667C110.005 57.6608 108.836 59.1267 108.836 59.1267L91.9823 59.458Z" fill="#FFA319"/>
<path d="M66.4196 201.585C65.7649 201.585 64.8075 200.303 64.54 199.845C64.5266 199.825 64.5195 199.801 64.5195 199.778C64.5195 199.754 64.5266 199.73 64.54 199.711C64.5541 199.693 64.5725 199.679 64.5934 199.671C64.6144 199.662 64.6372 199.659 64.6596 199.661C64.73 199.661 66.4267 200.028 66.8209 200.697C66.8659 200.768 66.8948 200.847 66.9058 200.93C66.9167 201.013 66.9094 201.097 66.8843 201.177C66.7857 201.48 66.6027 201.564 66.4689 201.578L66.4196 201.585ZM64.906 199.971C65.3496 200.62 66.0817 201.381 66.4478 201.339C66.483 201.339 66.5886 201.339 66.659 201.099C66.6733 201.053 66.6769 201.004 66.6696 200.957C66.6623 200.909 66.6442 200.864 66.6168 200.824C66.1434 200.371 65.5492 200.066 64.906 199.943V199.971Z" fill="#FFA319"/>
<path d="M65.4826 199.98C65.1857 199.987 64.8893 199.951 64.6026 199.874C64.5851 199.862 64.5708 199.847 64.561 199.828C64.5511 199.81 64.5459 199.789 64.5459 199.768C64.5459 199.747 64.5511 199.727 64.561 199.708C64.5708 199.69 64.5851 199.674 64.6026 199.662C64.6518 199.62 65.8134 198.69 66.5808 198.767C66.6744 198.778 66.7651 198.807 66.8473 198.853C66.9295 198.899 67.0017 198.961 67.0595 199.035C67.1242 199.102 67.1632 199.19 67.1697 199.282C67.1761 199.375 67.1496 199.467 67.0947 199.543C66.8413 199.853 66.1232 199.98 65.4826 199.98ZM64.9264 199.698C65.5811 199.796 66.6582 199.698 66.8624 199.402C66.879 199.366 66.8845 199.326 66.8783 199.287C66.872 199.248 66.8542 199.212 66.8272 199.183C66.7905 199.135 66.7439 199.094 66.6905 199.065C66.6371 199.036 66.5781 199.019 66.5174 199.014C65.9302 199.075 65.3753 199.314 64.9264 199.698Z" fill="#FFA319"/>
<path d="M117.552 218.678C117.021 218.671 116.492 218.621 115.968 218.53C115.944 218.526 115.921 218.514 115.903 218.496C115.886 218.478 115.874 218.456 115.87 218.431C115.866 218.406 115.869 218.38 115.881 218.357C115.892 218.334 115.911 218.316 115.933 218.304C116.011 218.262 117.813 217.226 118.679 217.465C118.759 217.484 118.835 217.518 118.901 217.566C118.968 217.615 119.024 217.676 119.066 217.747C119.121 217.826 119.151 217.919 119.151 218.015C119.151 218.111 119.121 218.205 119.066 218.283C118.862 218.586 118.221 218.678 117.552 218.678ZM116.363 218.346C117.327 218.487 118.637 218.473 118.876 218.142C118.911 218.054 118.911 217.955 118.876 217.867C118.849 217.823 118.814 217.785 118.771 217.756C118.729 217.726 118.68 217.707 118.63 217.698C118.08 217.557 116.996 218.022 116.363 218.346Z" fill="#FFA319"/>
<path d="M116.011 218.5H115.941C115.923 218.487 115.909 218.47 115.901 218.45C115.892 218.43 115.889 218.409 115.892 218.387C115.95 217.65 116.238 216.95 116.715 216.385C116.813 216.305 116.925 216.245 117.046 216.208C117.167 216.172 117.294 216.16 117.419 216.174C117.524 216.162 117.63 216.191 117.714 216.256C117.798 216.32 117.854 216.415 117.87 216.519C117.968 217.104 116.729 218.225 116.11 218.507L116.011 218.5ZM117.278 216.385C117.122 216.388 116.971 216.443 116.849 216.541C116.458 216.99 116.213 217.548 116.145 218.14C116.786 217.753 117.623 216.872 117.553 216.526C117.553 216.526 117.553 216.407 117.314 216.385H117.278Z" fill="#FFA319"/>
<path d="M64.8087 199.062L60.7888 194.834C60.7166 194.76 60.6217 194.713 60.5194 194.7C60.4172 194.688 60.3137 194.71 60.2256 194.763L56.2058 197.216C56.1206 197.266 56.0463 197.334 55.987 197.413C55.9278 197.493 55.8849 197.583 55.8607 197.68C55.8365 197.776 55.8315 197.876 55.846 197.974C55.8605 198.072 55.8943 198.167 55.9453 198.252C55.9795 198.305 56.0196 198.355 56.065 198.4C57.473 199.809 58.2615 200.465 60.0285 202.311C61.1197 203.446 64.0835 207.435 65.5831 209.007C67.0826 210.578 68.8355 209.289 68.3568 208.513C66.2448 205.032 65.217 201.578 65.1607 199.859C65.1466 199.559 65.021 199.275 64.8087 199.062Z" fill="#263238"/>
<path d="M115.439 217.795H109.807C109.705 217.795 109.606 217.83 109.526 217.894C109.447 217.958 109.392 218.048 109.371 218.148L108.343 222.729C108.299 222.923 108.333 223.127 108.439 223.296C108.544 223.465 108.712 223.586 108.906 223.631C108.967 223.638 109.029 223.638 109.089 223.631C111.131 223.631 114.074 223.476 116.636 223.476C119.628 223.476 122.212 223.638 125.725 223.638C127.837 223.638 128.435 221.489 127.548 221.298C123.5 220.41 120.198 220.312 116.7 218.155C116.32 217.922 115.884 217.797 115.439 217.795Z" fill="#263238"/>
<path opacity="0.3" d="M89.6743 71.5669C88.3508 73.6038 87.0695 75.3657 86.1543 76.578C86.2599 74.1535 86.7597 70.2349 88.6394 67.2466C89.3223 67.9232 89.5969 69.6711 89.6743 71.5669Z" fill="black"/>
<path d="M118.122 63.1721C118.404 63.6161 118.918 64.2927 119.389 64.92C119.861 65.5472 120.403 66.1886 120.938 66.8229C122.015 68.0845 123.113 69.339 124.261 70.5442C126.471 72.9391 128.893 75.1282 131.498 77.0846C132.103 77.5274 132.731 77.939 133.378 78.318L133.807 78.5647C133.856 78.5647 133.878 78.6281 133.969 78.6563L134.082 78.7056L134.237 78.755C134.352 78.7906 134.47 78.8188 134.589 78.8395C135.991 79.0358 137.416 79.0168 138.813 78.7832C142.111 78.2608 145.371 77.5167 148.57 76.556L150.238 80.08C147.102 82.1102 143.703 83.7014 140.136 84.8091C138.119 85.463 136.004 85.7611 133.885 85.6901C133.566 85.6746 133.249 85.6417 132.934 85.5914L132.448 85.4998L131.927 85.3729C131.562 85.2739 131.205 85.149 130.857 84.9994L130.639 84.9078L130.463 84.8232L130.111 84.654C129.203 84.21 128.323 83.7237 127.464 83.1951C124.295 81.1291 121.359 78.7259 118.706 76.0274C117.404 74.7095 116.137 73.3704 114.947 71.9467C114.342 71.2419 113.757 70.5371 113.173 69.7478C112.534 68.931 111.949 68.0741 111.42 67.1824L118.122 63.1721Z" fill="#FED1BC"/>
<path d="M147.739 77.4928L151.175 73.3979L153.512 79.3746C153.512 79.3746 150.548 80.7841 148.239 79.9736L147.739 77.4928Z" fill="#FED1BC"/>
<path d="M156.217 72.5107L157.175 77.2892L153.514 79.3754L151.184 73.3988L156.217 72.5107Z" fill="#FED1BC"/>
<path d="M95.8907 40.3723C96.9889 45.3903 97.3832 48.3857 100.347 50.5846C104.803 53.8971 110.689 50.5846 111.104 45.3481C111.477 40.626 109.612 33.2116 104.346 31.9571C103.184 31.6774 101.97 31.7002 100.82 32.0232C99.6695 32.3463 98.6209 32.9588 97.7739 33.8024C96.927 34.6461 96.3099 35.6928 95.9815 36.8428C95.6531 37.9928 95.6242 39.2079 95.8977 40.3723H95.8907Z" fill="#FED1BC"/>
<path d="M93.7706 30.5688C89.3706 30.6886 88.8426 35.023 91.025 36.2987C91.025 36.2987 88.4906 37.518 89.793 40.4288C91.7783 44.8478 95.5799 49.7038 99.466 49.4359C104.288 49.1047 105.661 43.847 105.492 38.6597C108.034 36.2564 106.499 35.0865 109.012 33.6205C113.462 31.0269 115.714 23.5914 108.308 23.7041C100.719 23.824 104.999 30.2657 93.7706 30.5688Z" fill="#263238"/>
<path d="M91.5751 35.6636C91.5751 35.6636 89.8784 36.5446 87.2666 35.0222C88.1748 37.2493 90.9626 38.1656 91.5751 35.6636Z" fill="#263238"/>
<path d="M102.845 39.9067C102.981 41.1768 103.533 42.3661 104.415 43.2897C105.583 44.4948 106.731 43.6773 106.879 42.1549C107.012 40.7877 106.562 38.5112 105.161 37.8769C103.76 37.2426 102.697 38.3702 102.845 39.9067Z" fill="#FED1BC"/>
<path d="M74.954 194.13L71.7086 196.069L63.0635 189.824L65.9428 187.618L74.954 194.13Z" fill="#FFA319"/>
<path d="M99.8949 109.413C98.9164 116.053 102.373 134.539 103.57 140.593C104.823 129.274 105.055 115.848 105.076 108.518C102.542 106.799 100.345 106.355 99.8949 109.413Z" fill="#FFA319"/>
<path opacity="0.4" d="M99.8949 109.413C98.9164 116.053 102.373 134.539 103.57 140.593C104.823 129.274 105.055 115.848 105.076 108.518C102.542 106.799 100.345 106.355 99.8949 109.413Z" fill="white"/>
<path d="M114.87 103.082C114.87 103.082 122.663 136.137 123.212 151.924C123.825 169.635 117.65 211.401 117.65 211.401H108.893C108.893 211.401 107.816 169.311 107.421 153.179C106.999 135.594 96.6924 103.082 96.6924 103.082H114.87Z" fill="#FFA319"/>
<path opacity="0.7" d="M114.87 103.082C114.87 103.082 122.663 136.137 123.212 151.924C123.825 169.635 117.65 211.401 117.65 211.401H108.893C108.893 211.401 107.816 169.311 107.421 153.179C106.999 135.594 96.6924 103.082 96.6924 103.082H114.87Z" fill="white"/>
<path d="M119.339 207.93C119.382 207.93 118.847 211.567 118.847 211.567H108.188L107.899 208.318L119.339 207.93Z" fill="#FFA319"/>
<path d="M117.111 75.2095C117.111 76.9714 117.069 78.9096 116.97 81.0451C116.717 86.8526 116.083 94.0907 114.858 103.084H87.212C87.0219 98.8551 89.6901 78.0921 85.5928 58.062C88.6643 57.4716 91.7707 57.0808 94.8926 56.892C98.8083 56.6665 102.734 56.6665 106.649 56.892C109.333 57.1605 111.992 57.6317 114.605 58.3016C114.605 58.3016 117.118 61.2124 117.111 75.2095Z" fill="#FFA319"/>
<path opacity="0.3" d="M117.111 75.2095C117.111 76.9714 117.069 78.9096 116.97 81.0451C116.717 86.8526 116.083 94.0907 114.858 103.084H87.212C87.0219 98.8551 89.6901 78.0921 85.5928 58.062C88.6643 57.4716 91.7707 57.0808 94.8926 56.892C98.8083 56.6665 102.734 56.6665 106.649 56.892C109.333 57.1605 111.992 57.6317 114.605 58.3016C114.605 58.3016 117.118 61.2124 117.111 75.2095Z" fill="black"/>
<path opacity="0.3" d="M117.107 75.2079C117.107 76.9699 117.065 78.9081 116.967 81.0436C113.721 77.872 113.503 71.395 113.503 71.395L117.107 75.2079Z" fill="black"/>
<path d="M107.195 64.3711C107.808 69.3046 118.987 79.6932 118.987 79.6932L129.054 71.7079C126.525 67.9581 123.564 64.5187 120.233 61.4603C112.954 55.1313 106.456 58.472 107.195 64.3711Z" fill="#FFA319"/>
<path opacity="0.3" d="M107.195 64.3711C107.808 69.3046 118.987 79.6932 118.987 79.6932L129.054 71.7079C126.525 67.9581 123.564 64.5187 120.233 61.4603C112.954 55.1313 106.456 58.472 107.195 64.3711Z" fill="black"/>
<path d="M225.153 167.395L219.978 167.903L214.593 155.569L219.767 155.061L225.153 167.395Z" fill="#FED1BC"/>
<path d="M259.593 151.892L255.087 154.796L246.921 145.288L251.426 142.385L259.593 151.892Z" fill="#FED1BC"/>
<path d="M214.598 155.577L217.371 161.934H222.771L219.772 155.07L214.598 155.577Z" fill="#CE6F64"/>
<path d="M251.434 142.385L246.921 145.288L251.138 150.187L255.643 147.283L251.434 142.385Z" fill="#CE6F64"/>
<path d="M180.778 35.7221C180.665 37.6392 180.426 39.387 180.151 41.2054C179.877 43.0237 179.489 44.7857 179.053 46.5688C178.202 50.2008 176.884 53.707 175.132 56.9997C174.671 57.8538 174.156 58.6777 173.59 59.4664C173.041 60.2487 172.457 60.9676 171.872 61.6654C170.704 63.0749 169.493 64.3788 168.261 65.6685C165.776 68.2269 163.241 70.6725 160.517 73.0054L158.56 71.1166C160.721 68.3749 162.938 65.6615 165.043 62.9128C167.148 60.1642 169.331 57.4296 170.675 54.6809C172.049 51.6836 173.083 48.5418 173.759 45.3143C174.132 43.6792 174.414 42.0088 174.681 40.3808C174.949 38.7527 175.146 36.9908 175.294 35.4473L180.778 35.7221Z" fill="#FED1BC"/>
<path d="M178.624 0.77732C174.851 0.77732 170.571 4.82985 170.747 10.6443C170.923 16.4588 172.155 25.0925 163.179 33.0848C166.403 40.1326 181.567 46.7365 191.691 41.7678C201.286 37.0598 197.323 10.9615 190.487 4.12506C186.657 0.298065 182.187 -0.984649 178.624 0.77732Z" fill="#263238"/>
<path d="M184.889 36.3854C184.608 38.091 183.193 41.3189 182.073 43.7152C181.243 45.4489 180.567 46.7528 180.567 46.7528L179.581 46.3158L171.422 42.6791C172.041 38.2742 173.048 33.5169 177.899 31.3532C180.926 30.0141 185.389 33.3407 184.889 36.3854Z" fill="#FFA319"/>
<path opacity="0.6" d="M184.889 36.3854C184.608 38.091 183.193 41.3189 182.073 43.7152C181.243 45.4489 180.567 46.7528 180.567 46.7528L179.581 46.3158L171.422 42.6791C172.041 38.2742 173.048 33.5169 177.899 31.3532C180.926 30.0141 185.389 33.3407 184.889 36.3854Z" fill="white"/>
<path d="M182.053 43.7133C181.222 45.4471 180.546 46.7509 180.546 46.7509L179.561 46.314C179.694 44.5731 180.039 41.8315 180.969 40.5981C181.548 41.5473 181.917 42.6094 182.053 43.7133Z" fill="#FFA319"/>
<path opacity="0.5" d="M182.053 43.7626C181.222 45.4964 180.546 46.8003 180.546 46.8003L179.561 46.3633C179.694 44.6225 180.039 41.8808 180.969 40.6475C181.548 41.5966 181.917 42.6587 182.053 43.7626Z" fill="white"/>
<path d="M209.642 55.4835L188.874 62.038C174.513 33.5928 176.554 32.0846 176.554 32.0846C176.554 32.0846 179.87 30.1887 183.32 28.61L184.89 27.9052C187.954 26.6841 191.102 25.6854 194.309 24.9169C194.781 24.79 195.252 24.6773 195.717 24.5645C198.271 23.9881 200.857 23.5622 203.461 23.2888C203.771 27.2286 204.081 30.5622 204.418 33.4589C204.855 37.2366 205.327 40.2601 205.826 42.8749C206.762 47.1726 208.038 51.3888 209.642 55.4835Z" fill="#FFA319"/>
<path opacity="0.6" d="M209.642 55.4835L188.874 62.038C174.513 33.5928 176.554 32.0846 176.554 32.0846C176.554 32.0846 179.87 30.1887 183.32 28.61L184.89 27.9052C187.954 26.6841 191.102 25.6854 194.309 24.9169C194.781 24.79 195.252 24.6773 195.717 24.5645C198.271 23.9881 200.857 23.5622 203.461 23.2888C203.771 27.2286 204.081 30.5622 204.418 33.4589C204.855 37.2366 205.327 40.2601 205.826 42.8749C206.762 47.1726 208.038 51.3888 209.642 55.4835Z" fill="white"/>
<path d="M188.874 62.0397C188.874 62.0397 188.17 104.609 193.724 119.987C199.074 134.731 215.034 160.076 215.034 160.076L224.285 159.836C224.285 159.836 209.592 127.747 207.178 115.054C203.186 94.0018 204.066 57.2612 204.066 57.2612L188.874 62.0397Z" fill="#FFA319"/>
<path opacity="0.4" d="M188.874 62.0397C188.874 62.0397 188.17 104.609 193.724 119.987C199.074 134.731 215.034 160.076 215.034 160.076L224.285 159.836C224.285 159.836 209.592 127.747 207.178 115.054C203.186 94.0018 204.066 57.2612 204.066 57.2612L188.874 62.0397Z" fill="black"/>
<path opacity="0.3" d="M197.182 65.6943L199.667 58.6464L204.067 57.2368C204.067 57.2368 203.665 73.9614 204.63 91.3062C200.638 83.6452 197.182 69.5495 197.182 65.6943Z" fill="black"/>
<path d="M193.45 60.6842C193.45 60.6842 207.882 93.7317 217.21 112.542C224.743 127.731 248.186 148.12 248.186 148.12L254.607 143.659C254.607 143.659 236.971 119.513 231.769 109.209C215.119 76.2389 219.224 62.6506 209.649 55.4829L193.45 60.6842Z" fill="#FFA319"/>
<path opacity="0.4" d="M193.45 60.6842C193.45 60.6842 207.882 93.7317 217.21 112.542C224.743 127.731 248.186 148.12 248.186 148.12L254.607 143.659C254.607 143.659 236.971 119.513 231.769 109.209C215.119 76.2389 219.224 62.6506 209.649 55.4829L193.45 60.6842Z" fill="black"/>
<path d="M159.814 70.615L155.111 71.4889L158.441 75.9996C158.441 75.9996 160.898 74.2869 161.412 72.1162L159.814 70.615Z" fill="#FED1BC"/>
<path d="M152.028 75.055L155.119 77.9446L158.435 75.9994L155.112 71.4888L152.028 75.055Z" fill="#FED1BC"/>
<path d="M253.423 153.372L258.316 149.848C258.399 149.787 258.501 149.759 258.603 149.768C258.706 149.777 258.801 149.823 258.872 149.898L262.209 153.372C262.361 153.541 262.44 153.764 262.428 153.991C262.416 154.219 262.314 154.432 262.146 154.584L262.068 154.648C260.337 155.839 259.442 156.332 257.295 157.876C255.972 158.827 253.184 161.125 251.354 162.436C249.523 163.747 248.136 162.006 248.777 161.301C251.663 158.115 252.431 155.945 252.888 154.147C252.972 153.835 253.161 153.561 253.423 153.372Z" fill="#263238"/>
<path d="M219.293 166.305H225.629C225.743 166.308 225.852 166.347 225.942 166.417C226.032 166.487 226.097 166.583 226.129 166.693L227.537 171.725C227.566 171.825 227.575 171.93 227.563 172.033C227.552 172.136 227.52 172.237 227.469 172.328C227.419 172.419 227.351 172.499 227.27 172.564C227.188 172.628 227.095 172.676 226.995 172.705C226.918 172.715 226.839 172.715 226.762 172.705H212.112C209.789 172.705 209.296 170.351 210.268 170.139C214.576 169.181 217.061 167.87 218.392 166.615C218.642 166.401 218.964 166.29 219.293 166.305Z" fill="#263238"/>
<path d="M195.733 24.5779V24.9514C195.733 25.1699 195.585 30.2162 190.431 34.1982L189.911 34.6L189.277 34.459C186.545 33.867 184.729 32.7323 183.863 31.0901C183.462 30.3278 183.279 29.4692 183.335 28.6093L184.905 27.9045C187.969 26.6834 191.117 25.6847 194.325 24.9162C194.789 24.8034 195.261 24.6836 195.733 24.5779Z" fill="white"/>
<path d="M190.03 14.603C190.396 17.8239 191.558 23.575 194.317 24.9282C194.317 24.9282 194.247 29.467 189.565 33.0826C183.363 31.7294 184.898 27.9165 184.898 27.9165C188.023 26.0347 187.143 23.5538 185.806 21.3831L190.03 14.603Z" fill="#FED1BC"/>
<path d="M188.311 17.3669L185.812 21.3772C186.129 21.8809 186.403 22.4115 186.628 22.963C187.86 22.3639 189.444 20.5878 189.148 19.1923C188.981 18.5386 188.697 17.9203 188.311 17.3669Z" fill="#CE6F64"/>
<path d="M188.564 7.42488C190.338 12.45 191.19 14.5362 189.789 18.0954C187.677 23.4447 181.13 24.523 177.891 20.1393C174.984 16.1854 172.576 8.64417 176.532 4.63392C177.888 3.26571 179.731 2.49261 181.656 2.48468C183.581 2.47675 185.43 3.23464 186.797 4.59164C187.6 5.38356 188.206 6.35433 188.564 7.42488Z" fill="#FED1BC"/>
<path d="M181.919 1.56689C180.215 3.42049 183.714 11.1731 189.05 12.3642C194.387 13.5553 190.078 5.12607 190.078 5.12607L181.919 1.56689Z" fill="#263238"/>
<path d="M182.475 3.73658C182.672 5.85095 174.189 9.04363 173.464 10.6083C173.816 8.06398 173.936 5.08273 177.139 2.96837C180.342 0.854002 182.982 1.67861 182.982 1.67861L182.475 3.73658Z" fill="#263238"/>
<path d="M181.848 3.82202C181.848 3.82202 180.912 6.25354 177.343 9.22774C180.157 8.42327 182.568 6.59274 184.101 4.09689L181.848 3.82202Z" fill="#263238"/>
<path d="M191.597 11.5029C191.752 12.5214 191.499 13.56 190.893 14.3925C190.083 15.492 188.844 14.9704 188.373 13.7723C187.943 12.6869 187.845 10.8122 188.992 10.1427C189.191 10.0282 189.41 9.95409 189.637 9.92472C189.864 9.89535 190.095 9.91126 190.316 9.97151C190.538 10.0318 190.745 10.1352 190.926 10.2758C191.107 10.4165 191.258 10.5916 191.372 10.7911C191.498 11.0089 191.575 11.252 191.597 11.5029Z" fill="#FED1BC"/>
<path d="M209.543 54.1659L211.071 55.7305C211.191 55.8503 211.071 56.0547 210.825 56.1252L189.064 63.018C188.992 63.0499 188.912 63.0576 188.836 63.0397C188.76 63.0219 188.692 62.9797 188.641 62.9193L187.867 61.1221C187.818 60.9953 187.945 60.8402 188.149 60.7697L209.156 54.1165C209.219 54.0897 209.288 54.0801 209.356 54.0888C209.424 54.0975 209.489 54.1241 209.543 54.1659Z" fill="#263238"/>
<path d="M181.116 12.1664C181.286 12.5611 181.208 12.9769 180.947 13.0826C180.687 13.1884 180.342 12.9628 180.173 12.5611C180.004 12.1594 180.081 11.7506 180.342 11.6449C180.602 11.5392 180.947 11.7647 181.116 12.1664Z" fill="#263238"/>
<path d="M176.619 14.0695C176.788 14.4712 176.711 14.88 176.45 14.9928C176.19 15.1055 175.845 14.873 175.676 14.4712C175.507 14.0695 175.584 13.6607 175.845 13.548C176.105 13.4352 176.45 13.6748 176.619 14.0695Z" fill="#263238"/>
<path d="M175.963 13.5266L174.893 13.6533C174.893 13.6533 175.703 14.1951 175.963 13.5266Z" fill="#263238"/>
<path d="M178.201 14.1543C178.231 15.2153 178.115 16.2754 177.856 17.3047C178.121 17.363 178.396 17.3629 178.661 17.3045C178.926 17.2461 179.175 17.1307 179.391 16.9664L178.201 14.1543Z" fill="#DE5753"/>
<path d="M181.918 17.819C181.891 17.8172 181.864 17.8064 181.843 17.7881C181.822 17.7699 181.808 17.7452 181.802 17.718C181.797 17.6908 181.8 17.6625 181.812 17.6375C181.824 17.6124 181.844 17.592 181.869 17.5794C182.369 17.3794 182.814 17.0647 183.17 16.6608C183.526 16.2568 183.782 15.7748 183.918 15.2536C183.919 15.2378 183.924 15.2226 183.932 15.2087C183.94 15.1948 183.95 15.1826 183.962 15.1727C183.975 15.1629 183.989 15.1556 184.004 15.1514C184.02 15.1471 184.036 15.1459 184.051 15.1479C184.068 15.1504 184.084 15.1563 184.099 15.1652C184.113 15.1741 184.126 15.1858 184.135 15.1996C184.145 15.2134 184.152 15.229 184.156 15.2455C184.16 15.2621 184.16 15.2792 184.157 15.2959C184.02 15.861 183.748 16.3847 183.366 16.8226C182.984 17.2606 182.501 17.5999 181.961 17.812L181.918 17.819Z" fill="#263238"/>
<path d="M181.758 10.1591C181.716 10.1662 181.673 10.1662 181.631 10.1591C181.358 9.99509 181.05 9.89641 180.733 9.87074C180.416 9.84507 180.096 9.8931 179.8 10.0111C179.742 10.0411 179.673 10.0468 179.61 10.0271C179.547 10.0073 179.494 9.96365 179.463 9.90537C179.432 9.84529 179.426 9.7758 179.446 9.71143C179.466 9.64706 179.509 9.59281 179.568 9.56002C179.938 9.39921 180.341 9.32998 180.743 9.3582C181.145 9.38642 181.534 9.51125 181.877 9.72212C181.935 9.75597 181.977 9.81125 181.994 9.87593C182.011 9.94061 182.002 10.0095 181.969 10.0675C181.943 10.0979 181.91 10.122 181.874 10.1379C181.837 10.1538 181.797 10.161 181.758 10.1591Z" fill="#263238"/>
<path d="M173.596 12.885H173.547C173.515 12.8791 173.485 12.8669 173.458 12.8492C173.43 12.8314 173.407 12.8084 173.389 12.7816C173.37 12.7547 173.357 12.7245 173.351 12.6927C173.344 12.6608 173.344 12.628 173.35 12.5961C173.418 12.1955 173.582 11.8173 173.827 11.4935C174.072 11.1696 174.391 10.9096 174.758 10.7354C174.821 10.7118 174.89 10.7133 174.952 10.7396C175.013 10.7658 175.063 10.8148 175.089 10.8764C175.115 10.9381 175.115 11.0075 175.09 11.0696C175.065 11.1316 175.017 11.1812 174.955 11.2076C174.664 11.3496 174.411 11.5594 174.218 11.8194C174.024 12.0793 173.896 12.3819 173.843 12.7018C173.83 12.7564 173.798 12.8047 173.753 12.8381C173.708 12.8716 173.652 12.8882 173.596 12.885Z" fill="#263238"/>
<path d="M206.651 28.2781C207.488 28.9053 208.192 29.4903 208.925 30.1246C209.657 30.7589 210.333 31.3932 211.037 32.0487C212.409 33.3737 213.719 34.7621 214.979 36.214C216.247 37.6733 217.422 39.2104 218.499 40.8162C218.781 41.2109 219.027 41.6408 219.287 42.0496C219.548 42.4584 219.808 42.8742 220.041 43.3041C220.273 43.7341 220.519 44.1358 220.745 44.6221L221.118 45.3974L221.421 46.1938C222.067 48.1933 222.372 50.2878 222.322 52.3889C222.279 54.3437 222.069 56.2913 221.695 58.2104C221.321 60.0776 220.851 61.9243 220.287 63.743C219.72 65.5514 219.054 67.3278 218.295 69.0641L215.753 68.1197C216.19 66.4282 216.605 64.6522 216.915 62.8972C217.26 61.1595 217.512 59.4044 217.668 57.6395C217.838 55.93 217.878 54.2101 217.788 52.4946C217.736 51.681 217.635 50.8714 217.485 50.0701C217.338 49.3284 217.124 48.6018 216.845 47.8994L216.633 47.4131L216.394 46.962C216.204 46.6378 215.943 46.2572 215.69 45.9048C215.437 45.5524 215.225 45.2 214.986 44.8406C214.747 44.4811 214.507 44.1358 214.233 43.7905C213.212 42.3809 212.05 41.1052 210.896 39.8014C209.741 38.4975 208.474 37.2641 207.186 36.073C206.545 35.4669 205.897 34.8749 205.236 34.297C204.574 33.719 203.884 33.1411 203.307 32.6478L206.651 28.2781Z" fill="#FED1BC"/>
<path d="M216.57 66.4355L212.712 69.2547L217.64 71.8624C217.64 71.8624 219.111 69.2547 218.633 67.0769L216.57 66.4355Z" fill="#FED1BC"/>
<path d="M211.485 73.8203L215.526 75.0748L217.666 71.8751L212.71 69.2673L211.485 73.8203Z" fill="#FED1BC"/>
<path d="M251.571 155.576H251.487C251.364 155.561 251.248 155.514 251.149 155.44C251.05 155.366 250.972 155.267 250.924 155.153C250.885 155.087 250.865 155.011 250.865 154.935C250.865 154.858 250.885 154.783 250.924 154.716C251.269 154.124 253.205 154.011 253.423 154.011C253.446 154.012 253.469 154.018 253.489 154.031C253.509 154.043 253.525 154.061 253.536 154.082C253.549 154.103 253.557 154.127 253.557 154.152C253.557 154.178 253.549 154.202 253.536 154.223C253.071 154.737 252.233 155.576 251.571 155.576ZM253.12 154.286C252.346 154.343 251.318 154.526 251.142 154.836C251.121 154.863 251.109 154.897 251.109 154.931C251.109 154.966 251.121 154.999 251.142 155.026C251.172 155.103 251.222 155.171 251.286 155.223C251.35 155.274 251.427 155.309 251.508 155.322C251.881 155.358 252.465 154.977 253.12 154.286Z" fill="#FFA319"/>
<path d="M253.29 154.274C252.642 154.274 251.368 153.915 251.128 153.393C251.086 153.301 251.078 153.198 251.103 153.1C251.129 153.003 251.188 152.917 251.269 152.858C251.342 152.793 251.426 152.744 251.518 152.714C251.61 152.683 251.708 152.672 251.804 152.681C252.579 152.759 253.487 154.013 253.522 154.091C253.533 154.11 253.538 154.132 253.538 154.154C253.538 154.176 253.533 154.198 253.522 154.218C253.513 154.238 253.5 154.255 253.482 154.269C253.465 154.282 253.445 154.291 253.423 154.295L253.29 154.274ZM251.727 152.935C251.675 152.934 251.623 152.943 251.575 152.963C251.526 152.982 251.482 153.011 251.445 153.048C251.326 153.154 251.34 153.231 251.361 153.287C251.516 153.633 252.515 153.992 253.17 153.992C252.846 153.591 252.241 152.956 251.762 152.907L251.727 152.935Z" fill="#FFA319"/>
<path d="M216.47 167.354C216.036 167.385 215.604 167.282 215.231 167.058C215.136 166.986 215.057 166.893 215.001 166.787C214.945 166.681 214.913 166.565 214.907 166.445C214.897 166.378 214.907 166.309 214.936 166.248C214.965 166.186 215.011 166.135 215.069 166.1C215.639 165.712 217.807 166.692 218.237 166.896C218.261 166.907 218.281 166.925 218.293 166.948C218.306 166.97 218.311 166.997 218.307 167.023C218.305 167.05 218.294 167.075 218.276 167.095C218.259 167.116 218.235 167.13 218.209 167.136C217.638 167.268 217.055 167.341 216.47 167.354ZM215.456 166.255C215.37 166.249 215.285 166.268 215.21 166.311C215.193 166.326 215.179 166.344 215.171 166.365C215.162 166.386 215.158 166.408 215.16 166.431C215.163 166.514 215.184 166.596 215.223 166.669C215.262 166.742 215.318 166.806 215.386 166.854C215.752 167.136 216.632 167.171 217.772 166.967C217.043 166.608 216.261 166.368 215.456 166.255Z" fill="#FFA319"/>
<path d="M218.181 167.137H218.132C217.428 166.841 215.971 165.678 216.055 165.079C216.055 164.945 216.161 164.783 216.485 164.741C217.752 164.593 218.287 166.855 218.308 166.989C218.312 167.012 218.31 167.036 218.303 167.058C218.296 167.08 218.283 167.1 218.266 167.116C218.241 167.134 218.211 167.141 218.181 167.137ZM216.604 164.988H216.52C216.386 164.988 216.309 165.044 216.302 165.108C216.259 165.453 217.259 166.376 217.984 166.778C217.822 166.221 217.386 164.988 216.604 164.988Z" fill="#FFA319"/>
<path d="M180.462 11.6152L179.392 11.7419C179.392 11.7419 180.195 12.2837 180.462 11.6152Z" fill="#263238"/>
<path d="M213.733 160.565L225.152 160.276L224.497 156.759L212.022 157.351L213.733 160.565Z" fill="#FFA319"/>
<path opacity="0.5" d="M213.733 160.565L225.152 160.276L224.497 156.759L212.022 157.351L213.733 160.565Z" fill="white"/>
<path d="M248.512 150.247L256.059 144.869L254.348 141.571L246.055 147.851L248.512 150.247Z" fill="#FFA319"/>
<path opacity="0.5" d="M248.512 150.247L256.059 144.869L254.348 141.571L246.055 147.851L248.512 150.247Z" fill="white"/>
<path d="M207.467 57.4151L208.03 57.2319C208.143 57.1967 208.213 57.1121 208.178 57.0487L207.15 54.7158C207.15 54.6453 207.01 54.6171 206.897 54.6524L206.334 54.8356C206.221 54.8709 206.151 54.9554 206.186 55.0189L207.207 57.3517C207.237 57.3898 207.279 57.4167 207.326 57.4282C207.373 57.4397 207.423 57.4351 207.467 57.4151Z" fill="#FFA319"/>
<path d="M190.712 62.7425L191.275 62.5663C191.388 62.5241 191.451 62.4395 191.423 62.376L190.395 60.0432C190.395 59.9727 190.247 59.9445 190.135 59.9798L189.571 60.163C189.459 60.163 189.395 60.2828 189.424 60.3463L190.451 62.6791C190.48 62.7425 190.635 62.7425 190.712 62.7425Z" fill="#FFA319"/>
<path d="M199.083 60.0631L199.646 59.8869C199.669 59.8864 199.692 59.8808 199.712 59.8705C199.733 59.8601 199.751 59.8453 199.765 59.827C199.779 59.8088 199.789 59.7876 199.794 59.765C199.799 59.7425 199.799 59.7191 199.794 59.6966L198.766 57.3637C198.766 57.3003 198.618 57.2721 198.505 57.3073L197.949 57.4835C197.837 57.5188 197.766 57.6034 197.794 57.6738L198.822 60.0067C198.854 60.0426 198.896 60.0674 198.943 60.0776C198.99 60.0877 199.039 60.0826 199.083 60.0631Z" fill="#FFA319"/>
<path opacity="0.4" d="M207.467 57.4151L208.03 57.2319C208.143 57.1967 208.213 57.1121 208.178 57.0487L207.15 54.7158C207.15 54.6453 207.01 54.6171 206.897 54.6524L206.334 54.8356C206.221 54.8709 206.151 54.9554 206.186 55.0189L207.207 57.3517C207.237 57.3898 207.279 57.4167 207.326 57.4282C207.373 57.4397 207.423 57.4351 207.467 57.4151Z" fill="black"/>
<path opacity="0.4" d="M190.712 62.7425L191.275 62.5663C191.388 62.5241 191.451 62.4395 191.423 62.376L190.395 60.0432C190.395 59.9727 190.247 59.9445 190.135 59.9798L189.571 60.163C189.459 60.163 189.395 60.2828 189.424 60.3463L190.451 62.6791C190.48 62.7425 190.635 62.7425 190.712 62.7425Z" fill="black"/>
<path opacity="0.4" d="M199.083 60.0631L199.646 59.8869C199.669 59.8864 199.692 59.8808 199.712 59.8705C199.733 59.8601 199.751 59.8453 199.765 59.827C199.779 59.8088 199.789 59.7876 199.794 59.765C199.799 59.7425 199.799 59.7191 199.794 59.6966L198.766 57.3637C198.766 57.3003 198.618 57.2721 198.505 57.3073L197.949 57.4835C197.837 57.5188 197.766 57.6034 197.794 57.6738L198.822 60.0067C198.854 60.0426 198.896 60.0674 198.943 60.0776C198.99 60.0877 199.039 60.0826 199.083 60.0631Z" fill="black"/>
<path d="M205.89 42.8888C203.898 40.0696 201.99 33.508 202.483 31.0483L204.454 33.4728C204.891 37.2505 205.362 40.274 205.89 42.8888Z" fill="#FFA319"/>
<path opacity="0.5" d="M205.89 42.8888C203.898 40.0696 201.99 33.508 202.483 31.0483L204.454 33.4728C204.891 37.2505 205.362 40.274 205.89 42.8888Z" fill="white"/>
<path d="M203.497 23.2726C206.193 23.1528 211.494 29.7848 211.494 29.7848L205.989 37.5375C205.989 37.5375 199.808 32.604 199.329 29.1717C198.921 26.3102 200.061 23.4558 203.497 23.2726Z" fill="#FFA319"/>
<path opacity="0.6" d="M203.497 23.2726C206.193 23.1528 211.494 29.7848 211.494 29.7848L205.989 37.5375C205.989 37.5375 199.808 32.604 199.329 29.1717C198.921 26.3102 200.061 23.4558 203.497 23.2726Z" fill="white"/>
<path d="M237.253 213.567C225.686 210.043 218.519 197.42 218.519 197.42C218.519 197.42 214.852 197.216 214.676 200.528C214.373 206.35 217.534 210.55 219.477 212.559L213.915 212.249C211.933 212.137 209.945 212.346 208.03 212.869L206.185 213.376C204.651 213.8 203.343 214.807 202.542 216.184C201.741 217.56 201.51 219.196 201.898 220.741L204.545 231.567C205.342 234.823 207.321 237.665 210.098 239.538C212.874 241.412 216.248 242.184 219.561 241.702C225.229 240.877 234.05 239.587 235.577 239.313L239.604 238.974L241.012 214.687L237.253 213.567Z" fill="white"/>
<path d="M255.36 210.231H239.781C238.564 210.231 237.577 211.219 237.577 212.437V240.022C237.577 241.241 238.564 242.228 239.781 242.228H255.36C256.577 242.228 257.564 241.241 257.564 240.022V212.437C257.564 211.219 256.577 210.231 255.36 210.231Z" fill="#FFA319"/>
<path opacity="0.3" d="M255.36 210.231H239.781C238.564 210.231 237.577 211.219 237.577 212.437V240.022C237.577 241.241 238.564 242.228 239.781 242.228H255.36C256.577 242.228 257.564 241.241 257.564 240.022V212.437C257.564 211.219 256.577 210.231 255.36 210.231Z" fill="black"/>
</svg>
