<svg width="22" height="22" viewBox="0 0 22 22" fill="none" xmlns="http://www.w3.org/2000/svg">
<path fill-rule="evenodd" clip-rule="evenodd" d="M1.37475 10.9999C1.37475 10.8176 1.44718 10.6427 1.57611 10.5138C1.70504 10.3848 1.87991 10.3124 2.06225 10.3124H18.2776L13.9505 5.98664C13.8866 5.92272 13.8359 5.84684 13.8013 5.76332C13.7667 5.6798 13.7489 5.59029 13.7489 5.49989C13.7489 5.40949 13.7667 5.31998 13.8013 5.23646C13.8359 5.15295 13.8866 5.07706 13.9505 5.01314C14.0144 4.94922 14.0903 4.89852 14.1738 4.86392C14.2573 4.82933 14.3468 4.81152 14.4372 4.81152C14.5276 4.81152 14.6172 4.82933 14.7007 4.86392C14.7842 4.89852 14.8601 4.94922 14.924 5.01314L20.424 10.5131C20.488 10.577 20.5388 10.6529 20.5735 10.7364C20.6081 10.8199 20.626 10.9095 20.626 10.9999C20.626 11.0903 20.6081 11.1799 20.5735 11.2634C20.5388 11.3469 20.488 11.4228 20.424 11.4866L14.924 16.9866C14.8601 17.0506 14.7842 17.1013 14.7007 17.1359C14.6172 17.1705 14.5276 17.1883 14.4372 17.1883C14.3468 17.1883 14.2573 17.1705 14.1738 17.1359C14.0903 17.1013 14.0144 17.0506 13.9505 16.9866C13.8866 16.9227 13.8359 16.8468 13.8013 16.7633C13.7667 16.6798 13.7489 16.5903 13.7489 16.4999C13.7489 16.4095 13.7667 16.32 13.8013 16.2365C13.8359 16.1529 13.8866 16.0771 13.9505 16.0131L18.2776 11.6874H2.06225C1.87991 11.6874 1.70504 11.615 1.57611 11.486C1.44718 11.3571 1.37475 11.1822 1.37475 10.9999Z" fill="#6776FF"/>
</svg>
