<svg width="29" height="29" viewBox="0 0 29 29" fill="none" xmlns="http://www.w3.org/2000/svg">
<path d="M19.4064 2.96525C19.7462 3.30514 19.9371 3.76607 19.9371 4.24668C19.9371 4.72729 19.7462 5.18823 19.4064 5.52812L10.4346 14.5L19.4064 23.4719C19.7366 23.8137 19.9193 24.2716 19.9152 24.7468C19.911 25.222 19.7204 25.6766 19.3844 26.0127C19.0483 26.3487 18.5937 26.5393 18.1185 26.5435C17.6432 26.5476 17.1854 26.3649 16.8436 26.0347L6.59025 15.7814C6.25045 15.4415 6.05957 14.9806 6.05957 14.5C6.05957 14.0194 6.25045 13.5585 6.59025 13.2186L16.8436 2.96525C17.1835 2.62545 17.6444 2.43457 18.125 2.43457C18.6056 2.43457 19.0665 2.62545 19.4064 2.96525Z" fill="white"/>
</svg>
