<svg width="16" height="16" viewBox="0 0 16 16" fill="none" xmlns="http://www.w3.org/2000/svg">
<path d="M5.38166 8.36196L10.9547 13.672C11.0477 13.7606 11.1712 13.8101 11.2997 13.8101C11.4281 13.8101 11.5517 13.7606 11.6447 13.672L11.6507 13.666C11.6959 13.623 11.7319 13.5713 11.7565 13.5139C11.7811 13.4566 11.7938 13.3949 11.7938 13.3325C11.7938 13.2701 11.7811 13.2083 11.7565 13.151C11.7319 13.0937 11.6959 13.0419 11.6507 12.999L6.40266 7.99896L11.6507 3.00096C11.6959 2.95799 11.7319 2.90626 11.7565 2.84893C11.7811 2.7916 11.7938 2.72986 11.7938 2.66746C11.7938 2.60507 11.7811 2.54333 11.7565 2.486C11.7319 2.42866 11.6959 2.37694 11.6507 2.33396L11.6447 2.32796C11.5517 2.23932 11.4281 2.18987 11.2997 2.18987C11.1712 2.18987 11.0477 2.23932 10.9547 2.32796L5.38166 7.63796C5.33265 7.68466 5.29363 7.74082 5.26697 7.80305C5.24031 7.86528 5.22656 7.93227 5.22656 7.99996C5.22656 8.06766 5.24031 8.13465 5.26697 8.19688C5.29363 8.2591 5.33265 8.31527 5.38166 8.36196Z" fill="#6776FF" stroke="#6776FF"/>
</svg>
