<svg width="18" height="18" viewBox="0 0 18 18" fill="none" xmlns="http://www.w3.org/2000/svg">
<path d="M8.3819 3.32325C8.4507 3.22332 8.54277 3.14161 8.65016 3.08517C8.75756 3.02872 8.87707 2.99923 8.9984 2.99923C9.11972 2.99923 9.23923 3.02872 9.34663 3.08517C9.45403 3.14161 9.54609 3.22332 9.6149 3.32325L16.3649 13.0732C16.443 13.1857 16.4888 13.3174 16.4974 13.4541C16.5059 13.5908 16.4768 13.7272 16.4133 13.8485C16.3497 13.9698 16.2541 14.0713 16.1369 14.1421C16.0197 14.2129 15.8853 14.2502 15.7484 14.25H2.2484C2.11178 14.2494 1.9779 14.2116 1.86116 14.1407C1.74441 14.0697 1.64922 13.9683 1.58582 13.8473C1.52242 13.7262 1.49321 13.5902 1.50133 13.4539C1.50945 13.3175 1.55459 13.1859 1.6319 13.0732L8.3819 3.32325Z" fill="#6776FF"/>
</svg>
