<svg width="321" height="239" viewBox="0 0 321 239" fill="none" xmlns="http://www.w3.org/2000/svg">
<path d="M320.278 209.718H0V209.878H320.278V209.718Z" fill="#EBEBEB"/>
<path d="M288.186 220.024H266.971V220.185H288.186V220.024Z" fill="#EBEBEB"/>
<path d="M212.165 221.767H206.599V221.927H212.165V221.767Z" fill="#EBEBEB"/>
<path d="M266.33 214.08H254.038V214.24H266.33V214.08Z" fill="#EBEBEB"/>
<path d="M61.2691 215.156H33.6035V215.316H61.2691V215.156Z" fill="#EBEBEB"/>
<path d="M71.0313 215.156H66.9766V215.316H71.0313V215.156Z" fill="#EBEBEB"/>
<path d="M144.221 217.859H84.2139V218.019H144.221V217.859Z" fill="#EBEBEB"/>
<path d="M151.812 181.149H28.1268C27.1578 181.147 26.2291 180.761 25.5446 180.076C24.8601 179.39 24.4756 178.46 24.4756 177.491V3.62554C24.484 2.66216 24.8722 1.74102 25.5558 1.06218C26.2395 0.383346 27.1633 0.00165032 28.1268 0H151.812C152.782 0 153.712 0.38535 154.398 1.07128C155.084 1.75721 155.469 2.68752 155.469 3.65757V177.491C155.469 178.462 155.084 179.392 154.398 180.078C153.712 180.764 152.782 181.149 151.812 181.149ZM28.1268 0.128112C27.2003 0.129808 26.3123 0.499034 25.6578 1.15475C25.0033 1.81046 24.6357 2.69908 24.6357 3.62554V177.491C24.6357 178.418 25.0033 179.307 25.6578 179.962C26.3123 180.618 27.2003 180.987 28.1268 180.989H151.812C152.739 180.987 153.627 180.618 154.283 179.963C154.938 179.307 155.307 178.419 155.309 177.491V3.62554C155.307 2.69849 154.938 1.80988 154.283 1.15436C153.627 0.498826 152.739 0.129805 151.812 0.128112H28.1268Z" fill="#EBEBEB"/>
<path d="M290.37 181.149H166.679C165.71 181.147 164.78 180.761 164.095 180.076C163.409 179.39 163.023 178.461 163.021 177.491V3.62554C163.032 2.66158 163.421 1.74044 164.106 1.06178C164.791 0.383122 165.715 0.00163232 166.679 0H290.37C291.333 0.00333377 292.255 0.385774 292.937 1.06443C293.619 1.74308 294.007 2.66327 294.015 3.62554V177.491C294.015 178.459 293.631 179.388 292.948 180.073C292.265 180.759 291.338 181.146 290.37 181.149ZM166.679 0.128112C165.752 0.129805 164.863 0.498826 164.208 1.15436C163.552 1.80988 163.183 2.69849 163.182 3.62554V177.491C163.183 178.419 163.552 179.307 164.208 179.963C164.863 180.618 165.752 180.987 166.679 180.989H290.37C291.297 180.987 292.186 180.618 292.841 179.963C293.497 179.307 293.866 178.419 293.868 177.491V3.62554C293.866 2.69849 293.497 1.80988 292.841 1.15436C292.186 0.498826 291.297 0.129805 290.37 0.128112H166.679Z" fill="#EBEBEB"/>
<path d="M127.619 162.567H122.219H118.657L128.637 170.83H130.469H132.102L129.771 167.288L136.574 170.83H138.213H140.148L127.619 162.567Z" fill="#E0E0E0"/>
<path d="M56.8486 170.83H60.4229L68.3594 166.698L64.894 170.83H68.3594L78.3393 162.567H69.3779L56.8486 170.83Z" fill="#E0E0E0"/>
<path d="M66.521 170.83L74.7778 162.567H69.3779L56.8486 170.83H58.7831L68.3594 165.564L64.894 170.83H66.521Z" fill="#F0F0F0"/>
<path d="M38.5996 170.83V210.019H159.293V170.83H38.5996ZM157.32 186.203H60.4233V173.392H157.32V186.203Z" fill="#E0E0E0"/>
<path d="M57.7842 170.83V210.019H159.293V170.83H57.7842ZM157.32 186.203H60.4233V173.392H157.32V186.203Z" fill="#EBEBEB"/>
<path d="M157.32 173.373H139.653V186.177H157.32V173.373Z" fill="#E0E0E0"/>
<path d="M86.0076 179.772H60.4238V186.177H86.0076V179.772Z" fill="#E0E0E0"/>
<path d="M104.071 182.373H87.6152V186.177H104.071V182.373Z" fill="#E0E0E0"/>
<path d="M127.278 178.395H107.876V186.178H127.278V178.395Z" fill="#E0E0E0"/>
<path d="M79.6853 188.964L79.2177 190.495H72.9211L72.4535 188.964H60.4238V205.971H91.715V188.964H79.6853Z" fill="#E0E0E0"/>
<path d="M112.442 188.964L111.975 190.495H105.684L105.217 188.964H93.1807V205.971H124.478V188.964H112.442Z" fill="#E0E0E0"/>
<path d="M145.208 188.964L144.74 190.495H138.45L137.976 188.964H125.946V205.971H157.237V188.964H145.208Z" fill="#E0E0E0"/>
<path d="M138.034 110.694H54.8959C53.6471 110.694 52.6348 111.707 52.6348 112.955V161.401C52.6348 162.649 53.6471 163.662 54.8959 163.662H138.034C139.282 163.662 140.295 162.649 140.295 161.401V112.955C140.295 111.707 139.282 110.694 138.034 110.694Z" fill="#E0E0E0"/>
<path d="M140.096 110.694H56.9584C55.7096 110.694 54.6973 111.707 54.6973 112.955V161.401C54.6973 162.649 55.7096 163.662 56.9584 163.662H140.096C141.345 163.662 142.357 162.649 142.357 161.401V112.955C142.357 111.707 141.345 110.694 140.096 110.694Z" fill="#E6E6E6"/>
<path d="M139.775 161.087V113.27H57.2655V161.087H139.775Z" fill="#F0F0F0"/>
<path d="M241.464 52.2415C247.96 50.599 251.894 44.0014 250.252 37.5055C248.609 31.0096 242.012 27.0751 235.516 28.7176C229.02 30.3601 225.085 36.9576 226.728 43.4536C228.37 49.9495 234.968 53.884 241.464 52.2415Z" fill="#E0E0E0"/>
<path d="M248.514 42.827C249.822 37.2837 246.389 31.7292 240.845 30.4209C235.302 29.1125 229.748 32.5457 228.439 38.0891C227.131 43.6324 230.564 49.1869 236.107 50.4952C241.651 51.8036 247.205 48.3704 248.514 42.827Z" fill="#F0F0F0"/>
<path d="M238.004 33.3921V40.5983L233.226 37.8952" fill="#F0F0F0"/>
<path d="M238.004 41.239C237.892 41.2398 237.782 41.2111 237.684 41.1557L232.905 38.4334C232.759 38.3489 232.652 38.2098 232.607 38.0466C232.563 37.8834 232.585 37.7093 232.668 37.5622C232.752 37.4146 232.89 37.3061 233.054 37.2605C233.217 37.2148 233.392 37.2358 233.54 37.3188L237.383 39.4839V33.373C237.383 33.2031 237.45 33.0402 237.571 32.92C237.691 32.7999 237.854 32.7324 238.024 32.7324C238.193 32.7324 238.356 32.7999 238.476 32.92C238.597 33.0402 238.664 33.2031 238.664 33.373V40.5792C238.664 40.7491 238.597 40.912 238.476 41.0322C238.356 41.1523 238.193 41.2198 238.024 41.2198L238.004 41.239Z" fill="#E0E0E0"/>
<path d="M73.2602 40.5087C73.2602 40.5087 72.6709 36.6653 75.4893 34.1736C78.3078 31.6818 78.0515 30.2278 77.2509 30.0356C76.4502 29.8434 75.7071 32.316 74.4708 32.995C74.4708 32.995 74.426 29.4719 75.6879 28.1716C76.9498 26.8713 77.6096 23.5276 76.4053 23.4699C75.2011 23.4123 75.0858 25.4556 74.8424 26.9033C74.5018 28.1449 73.9679 29.3252 73.2602 30.4007C73.2602 30.4007 72.9976 27.2428 72.1841 25.9168C71.3706 24.5909 73.542 21.6507 72.7029 20.3504C71.8638 19.0501 70.3841 21.529 70.5058 24.309C70.6275 27.089 72.4915 30.074 72.056 32.9693C72.056 32.9693 71.236 30.9324 70.4994 30.7466C69.7628 30.5609 69.0261 29.2093 68.5265 28.7097C68.0269 28.21 67.4183 29.9395 68.5265 31.5473C69.6347 33.1551 72.4915 37.4596 72.056 40.9379L73.2602 40.5087Z" fill="#E6E6E6"/>
<path d="M74.9454 38.7537L75.8614 44.5187C75.9292 44.9385 75.9049 45.3681 75.7902 45.7776C75.6755 46.1871 75.4731 46.5668 75.1971 46.8903C74.9211 47.2139 74.578 47.4735 74.1917 47.6513C73.8054 47.8291 73.385 47.9208 72.9597 47.92H71.9797C71.5542 47.9206 71.1336 47.8289 70.7471 47.6512C70.3605 47.4734 70.0171 47.2139 69.7406 46.8905C69.4641 46.5671 69.2611 46.1876 69.1456 45.7781C69.0301 45.3686 69.0048 44.9389 69.0716 44.5187L69.994 38.7537H74.9454Z" fill="#E6E6E6"/>
<path d="M60.9999 49.1499L126.157 49.1499V45.7998L60.9999 45.7998V49.1499Z" fill="#E0E0E0"/>
<path d="M120.289 45.8062H123.159V33.4691H120.289V45.8062Z" fill="#EBEBEB"/>
<path d="M106.409 45.8062H109.278V33.4691H106.409V45.8062Z" fill="#EBEBEB"/>
<path d="M88.5587 45.3182L91.3867 45.8057L93.4835 33.6416L90.6555 33.1541L88.5587 45.3182Z" fill="#EBEBEB"/>
<path d="M116.728 45.8062H119.598V35.0897H116.728V45.8062Z" fill="#EBEBEB"/>
<path d="M110.137 45.8062H113.007V35.0897H110.137V45.8062Z" fill="#EBEBEB"/>
<path d="M93.477 45.8062H96.3467V35.0897H93.477V45.8062Z" fill="#EBEBEB"/>
<path d="M100.321 45.1767L103.122 45.7993L105.447 35.3381L102.646 34.7155L100.321 45.1767Z" fill="#EBEBEB"/>
<path d="M114.25 45.8062H115.685V32.8541H114.25V45.8062Z" fill="#EBEBEB"/>
<path d="M97.1784 45.8062H98.6133V32.8541H97.1784V45.8062Z" fill="#EBEBEB"/>
<path d="M126.157 70.7942H61V74.1443H126.157V70.7942Z" fill="#E0E0E0"/>
<path d="M66.8677 58.457H63.998V70.8005H66.8677V58.457Z" fill="#EBEBEB"/>
<path d="M80.7486 58.457H77.8789V70.8005H80.7486V58.457Z" fill="#EBEBEB"/>
<path d="M96.5067 58.1446L93.6787 58.6321L95.7754 70.7962L98.6034 70.3087L96.5067 58.1446Z" fill="#EBEBEB"/>
<path d="M70.4293 60.0842H67.5596V70.8007H70.4293V60.0842Z" fill="#EBEBEB"/>
<path d="M77.0259 60.0842H74.1562V70.8007H77.0259V60.0842Z" fill="#EBEBEB"/>
<path d="M93.6754 60.0842H90.8057V70.8007H93.6754V60.0842Z" fill="#EBEBEB"/>
<path d="M84.523 59.708L81.7217 60.3306L84.0466 70.7918L86.848 70.1692L84.523 59.708Z" fill="#EBEBEB"/>
<path d="M72.9075 57.842H71.4727V70.7941H72.9075V57.842Z" fill="#EBEBEB"/>
<path d="M89.9856 57.842H88.5508V70.7941H89.9856V57.842Z" fill="#EBEBEB"/>
<path d="M119.913 61.0322H105.923V70.6854H119.913V61.0322Z" fill="#EBEBEB"/>
<path d="M160.14 238.645C228.732 238.645 284.337 235.399 284.337 231.394C284.337 227.389 228.732 224.143 160.14 224.143C91.5474 224.143 35.9424 227.389 35.9424 231.394C35.9424 235.399 91.5474 238.645 160.14 238.645Z" fill="#F5F5F5"/>
<path d="M58.0044 207.63C58.0044 207.437 57.3639 188.413 54.2828 185.434C51.3234 182.565 47.9157 185.332 47.7684 185.434L47.3584 184.941C47.3968 184.909 51.3555 181.681 54.7248 184.941C57.9852 188.105 58.6194 206.778 58.645 207.572L58.0044 207.63Z" fill="#FFA319"/>
<path d="M58.2918 211.383C58.2021 210.448 56.1715 188.49 64.4539 178.978L64.9407 179.4C56.8185 188.695 58.8875 211.089 58.9323 211.313L58.2918 211.383Z" fill="#FFA319"/>
<path d="M58.118 208.981L57.4774 208.936C57.4774 208.68 59.0981 183.244 53.0576 177.696L53.4932 177.222C59.7514 182.981 58.1885 207.918 58.118 208.981Z" fill="#FFA319"/>
<path d="M58.9325 208.962H58.292C58.292 208.257 58.4906 191.712 63.2179 189.002C63.6731 188.708 64.1921 188.527 64.7314 188.475C65.2708 188.423 65.8149 188.5 66.3181 188.701C69.1878 189.893 70.6035 194.972 70.6611 195.184L70.0206 195.357C70.0206 195.305 68.6306 190.36 66.0555 189.297C65.6395 189.128 65.1884 189.064 64.7417 189.109C64.2951 189.155 63.8664 189.31 63.4933 189.559C59.1055 192.077 58.9325 208.821 58.9325 208.962Z" fill="#FFA319"/>
<path d="M57.0813 208.975L56.4408 208.936C56.4408 208.808 57.1454 195.927 53.68 191.398C52.8473 190.322 51.9569 189.803 51.0153 189.873C48.7733 190.027 46.8773 193.332 46.8645 193.364L46.3008 193.05C46.3905 192.903 48.3826 189.412 50.9704 189.207C52.1362 189.124 53.2188 189.72 54.1732 190.988C57.8052 195.728 57.1134 208.437 57.0813 208.975Z" fill="#FFA319"/>
<path d="M57.69 210.742C57.6003 209.461 55.416 179.996 59.2721 174.756L59.7846 175.14C56.0694 180.169 58.3113 210.371 58.3305 210.691L57.69 210.742Z" fill="#FFA319"/>
<path d="M67.3101 191.757C67.3101 191.757 65.0105 192.609 65.6959 194.614C66.3813 196.619 73.6644 199.917 73.6644 199.917C73.6644 199.917 76.7135 197.118 73.9143 192.57C71.115 188.022 67.3742 190.322 67.3101 191.757Z" fill="#FFA319"/>
<path opacity="0.2" d="M67.3101 191.757C67.3101 191.757 65.0105 192.609 65.6959 194.614C66.3813 196.619 73.6644 199.917 73.6644 199.917C73.6644 199.917 76.7135 197.118 73.9143 192.57C71.115 188.022 67.3742 190.322 67.3101 191.757Z" fill="white"/>
<path d="M57.2984 187.939C57.2984 187.939 59.7518 187.836 59.8607 189.95C59.9695 192.064 54.5761 197.931 54.5761 197.931C54.5761 197.931 50.6815 196.529 51.5142 191.25C52.3469 185.972 56.6835 186.638 57.2984 187.939Z" fill="#FFA319"/>
<path opacity="0.2" d="M57.2984 187.939C57.2984 187.939 59.7518 187.836 59.8607 189.95C59.9695 192.064 54.5761 197.931 54.5761 197.931C54.5761 197.931 50.6815 196.529 51.5142 191.25C52.3469 185.972 56.6835 186.638 57.2984 187.939Z" fill="white"/>
<path d="M55.2172 177.818C55.2172 177.818 56.857 177.639 56.7225 176.646C56.588 175.653 50.3618 173.084 46.6914 177.229C46.6914 177.229 49.0422 181.271 52.4564 181.322C55.8706 181.373 55.2172 177.818 55.2172 177.818Z" fill="#FFA319"/>
<path opacity="0.2" d="M55.2172 177.818C55.2172 177.818 56.857 177.639 56.7225 176.646C56.588 175.653 50.3618 173.084 46.6914 177.229C46.6914 177.229 49.0422 181.271 52.4564 181.322C55.8706 181.373 55.2172 177.818 55.2172 177.818Z" fill="white"/>
<path d="M58.2923 175.397C58.2923 175.397 56.8126 176.114 56.3706 175.198C55.9286 174.282 59.8873 168.793 65.1975 170.388C65.1975 170.388 65.3384 175.064 62.4815 176.909C59.6246 178.753 58.2923 175.397 58.2923 175.397Z" fill="#FFA319"/>
<path opacity="0.2" d="M58.2923 175.397C58.2923 175.397 56.8126 176.114 56.3706 175.198C55.9286 174.282 59.8873 168.793 65.1975 170.388C65.1975 170.388 65.3384 175.064 62.4815 176.909C59.6246 178.753 58.2923 175.397 58.2923 175.397Z" fill="white"/>
<path d="M50.522 190.95C50.522 190.95 51.6494 190.04 50.4323 189.592C49.2152 189.143 43.2325 189.278 43.1748 195.196C43.1748 195.196 50.1376 196.356 50.996 194.101C51.8543 191.846 50.522 190.95 50.522 190.95Z" fill="#FFA319"/>
<path opacity="0.2" d="M50.522 190.95C50.522 190.95 51.6494 190.04 50.4323 189.592C49.2152 189.143 43.2325 189.278 43.1748 195.196C43.1748 195.196 50.1376 196.356 50.996 194.101C51.8543 191.846 50.522 190.95 50.522 190.95Z" fill="white"/>
<path d="M64.6981 177.671C64.6981 177.671 63.5643 176.755 64.7878 176.313C66.0112 175.871 71.9812 175.992 72.0453 181.917C72.0453 181.917 65.0824 183.07 64.2177 180.816C63.3529 178.561 64.6981 177.671 64.6981 177.671Z" fill="#FFA319"/>
<path opacity="0.2" d="M64.6981 177.671C64.6981 177.671 63.5643 176.755 64.7878 176.313C66.0112 175.871 71.9812 175.992 72.0453 181.917C72.0453 181.917 65.0824 183.07 64.2177 180.816C63.3529 178.561 64.6981 177.671 64.6981 177.671Z" fill="white"/>
<path d="M61.0402 182.436C61.0402 182.436 60.9377 181.328 61.8345 181.764C62.7313 182.199 65.8444 185.562 62.616 188.752C62.616 188.752 58.2666 185.549 59.0481 183.852C59.8296 182.155 61.0402 182.436 61.0402 182.436Z" fill="#FFA319"/>
<path opacity="0.2" d="M61.0402 182.436C61.0402 182.436 60.9377 181.328 61.8345 181.764C62.7313 182.199 65.8444 185.562 62.616 188.752C62.616 188.752 58.2666 185.549 59.0481 183.852C59.8296 182.155 61.0402 182.436 61.0402 182.436Z" fill="white"/>
<path d="M49.5105 184.019C49.5105 184.019 50.1894 183.135 49.1966 183.026C48.2037 182.917 43.7839 184.096 44.8408 188.516C44.8408 188.516 50.2343 188.112 50.4649 186.274C50.6955 184.435 49.5105 184.019 49.5105 184.019Z" fill="#FFA319"/>
<path opacity="0.2" d="M49.5105 184.019C49.5105 184.019 50.1894 183.135 49.1966 183.026C48.2037 182.917 43.7839 184.096 44.8408 188.516C44.8408 188.516 50.2343 188.112 50.4649 186.274C50.6955 184.435 49.5105 184.019 49.5105 184.019Z" fill="white"/>
<path d="M67.7465 225.373H49.228L47.2295 205.099H69.7386L67.7465 225.373Z" fill="#FFA319"/>
<path opacity="0.5" d="M67.7465 225.373H49.228L47.2295 205.099H69.7386L67.7465 225.373Z" fill="white"/>
<path d="M70.7316 202.864H46.2432V207.335H70.7316V202.864Z" fill="#FFA319"/>
<path opacity="0.2" d="M70.7316 202.864H46.2432V207.335H70.7316V202.864Z" fill="white"/>
<path d="M217.801 225.373L217.839 225.136L218.922 212.466H223.54L220.241 225.373" fill="#263238"/>
<path d="M260.538 225.373L260.5 225.136L259.411 212.466H254.799L258.098 225.373" fill="#263238"/>
<path d="M211.716 225.373L211.754 225.136L213.855 212.466H218.467L214.156 225.373" fill="#263238"/>
<path d="M266.624 225.373L266.58 225.136L264.485 212.466H259.873L264.184 225.373" fill="#263238"/>
<g opacity="0.2">
<path d="M211.716 225.373L211.754 225.136L213.855 212.466H218.467L214.156 225.373" fill="white"/>
<path d="M266.624 225.373L266.58 225.136L264.485 212.466H259.873L264.184 225.373" fill="white"/>
</g>
<path d="M266.97 136.624H211.377C209.969 136.624 208.827 137.765 208.827 139.173V212.741C208.827 214.149 209.969 215.291 211.377 215.291H266.97C268.378 215.291 269.52 214.149 269.52 212.741V139.173C269.52 137.765 268.378 136.624 266.97 136.624Z" fill="#FFA319"/>
<path opacity="0.4" d="M266.97 136.624H211.377C209.969 136.624 208.827 137.765 208.827 139.173V212.741C208.827 214.149 209.969 215.291 211.377 215.291H266.97C268.378 215.291 269.52 214.149 269.52 212.741V139.173C269.52 137.765 268.378 136.624 266.97 136.624Z" fill="white"/>
<path opacity="0.5" d="M267.041 153.778H211.3V182.174H267.041V153.778Z" fill="white"/>
<path opacity="0.5" d="M267.041 184.063H211.3V212.459H267.041V184.063Z" fill="white"/>
<path opacity="0.5" d="M267.041 139.449H211.3V151.882H267.041V139.449Z" fill="white"/>
<path opacity="0.5" d="M243.732 141.518H234.61C234.337 141.517 234.069 141.439 233.837 141.294C233.605 141.15 233.418 140.943 233.297 140.698L232.688 139.449H245.653L245.013 140.698C244.896 140.94 244.714 141.144 244.488 141.289C244.262 141.434 244 141.513 243.732 141.518Z" fill="black"/>
<path opacity="0.5" d="M243.732 155.841H234.61C234.336 155.841 234.068 155.764 233.836 155.619C233.604 155.474 233.417 155.267 233.297 155.021L232.688 153.778H245.653L245.013 155.021C244.897 155.263 244.716 155.469 244.489 155.613C244.263 155.758 244 155.837 243.732 155.841Z" fill="black"/>
<path opacity="0.5" d="M243.732 186.132H234.61C234.336 186.133 234.068 186.056 233.836 185.911C233.604 185.766 233.417 185.559 233.297 185.313L232.688 184.063H245.653L245.013 185.313C244.897 185.555 244.716 185.76 244.489 185.905C244.263 186.05 244 186.129 243.732 186.132Z" fill="black"/>
<path d="M255.383 127.945L260.2 136.624H254.204L255.383 127.945Z" fill="#FFA319"/>
<path opacity="0.2" d="M255.383 127.945L260.2 136.624H254.204L255.383 127.945Z" fill="black"/>
<path d="M256.99 136.624H245.652L249.201 121.936H260.539L256.99 136.624Z" fill="#FFA319"/>
<path opacity="0.5" d="M247.215 135.458L250.2 123.102H258.975L255.99 135.458H247.215Z" fill="white"/>
<path d="M223.816 129.937L221.004 136.624H228.524L223.816 129.937Z" fill="#FFA319"/>
<path d="M239.17 136.624H224.771L221.389 126.189H235.795L239.17 136.624Z" fill="#FFA319"/>
<path opacity="0.2" d="M239.17 136.624H224.771L221.389 126.189H235.795L239.17 136.624Z" fill="white"/>
<path opacity="0.5" d="M225.565 135.119L223.156 127.695H235L237.402 135.119H225.565Z" fill="white"/>
<path d="M175.019 58.156H82.9909C79.3117 58.156 76.3291 61.1386 76.3291 64.8178V228.179C76.3291 231.858 79.3117 234.84 82.9909 234.84H175.019C178.699 234.84 181.681 231.858 181.681 228.179V64.8178C181.681 61.1386 178.699 58.156 175.019 58.156Z" fill="#263238"/>
<path d="M178.127 64.5039V228.153C178.127 228.494 178.059 228.832 177.926 229.147C177.794 229.462 177.6 229.747 177.356 229.985C177.112 230.224 176.823 230.412 176.505 230.537C176.188 230.662 175.848 230.723 175.507 230.715H82.2228C81.9124 230.72 81.6043 230.661 81.3169 230.544C81.0296 230.426 80.769 230.252 80.5506 230.031C80.3323 229.81 80.1608 229.548 80.0464 229.259C79.932 228.971 79.877 228.662 79.8848 228.352V64.2925C79.8728 64.0183 79.9153 63.7445 80.0098 63.4869C80.1043 63.2293 80.249 62.9929 80.4354 62.7916C80.6219 62.5902 80.8464 62.4279 81.0961 62.3139C81.3457 62.1999 81.6155 62.1365 81.8897 62.1274H105.212C105.537 62.134 105.853 62.2367 106.12 62.4225C106.387 62.6083 106.592 62.869 106.711 63.1715L107.678 65.5544C107.797 65.8568 108.003 66.117 108.27 66.3018C108.537 66.4867 108.853 66.5877 109.177 66.5921H148.892C149.215 66.5905 149.531 66.492 149.798 66.3093C150.065 66.1266 150.272 65.8682 150.391 65.5672L151.358 63.178C151.476 62.8742 151.681 62.6122 151.948 62.4252C152.215 62.2382 152.531 62.1345 152.857 62.1274H175.846C176.462 62.1459 177.046 62.4052 177.472 62.8496C177.899 63.294 178.134 63.888 178.127 64.5039Z" fill="#FFA319"/>
<path opacity="0.3" d="M178.127 64.5039V228.153C178.127 228.494 178.059 228.832 177.926 229.147C177.794 229.462 177.6 229.747 177.356 229.985C177.112 230.224 176.823 230.412 176.505 230.537C176.188 230.662 175.848 230.723 175.507 230.715H82.2228C81.9124 230.72 81.6043 230.661 81.3169 230.544C81.0296 230.426 80.769 230.252 80.5506 230.031C80.3323 229.81 80.1608 229.548 80.0464 229.259C79.932 228.971 79.877 228.662 79.8848 228.352V64.2925C79.8728 64.0183 79.9153 63.7445 80.0098 63.4869C80.1043 63.2293 80.249 62.9929 80.4354 62.7916C80.6219 62.5902 80.8464 62.4279 81.0961 62.3139C81.3457 62.1999 81.6155 62.1365 81.8897 62.1274H105.212C105.537 62.134 105.853 62.2367 106.12 62.4225C106.387 62.6083 106.592 62.869 106.711 63.1715L107.678 65.5544C107.797 65.8568 108.003 66.117 108.27 66.3018C108.537 66.4867 108.853 66.5877 109.177 66.5921H148.892C149.215 66.5905 149.531 66.492 149.798 66.3093C150.065 66.1266 150.272 65.8682 150.391 65.5672L151.358 63.178C151.476 62.8742 151.681 62.6122 151.948 62.4252C152.215 62.2382 152.531 62.1345 152.857 62.1274H175.846C176.462 62.1459 177.046 62.4052 177.472 62.8496C177.899 63.294 178.134 63.888 178.127 64.5039Z" fill="black"/>
<path opacity="0.6" d="M178.126 73.1514H79.8838V218.692H178.126V73.1514Z" fill="white"/>
<path opacity="0.6" d="M90.7161 69.2375H91.9268V67.6169H90.7161V69.2375Z" fill="white"/>
<path opacity="0.6" d="M88.7366 69.2375H89.9473V67.0789H88.7366V69.2375Z" fill="white"/>
<path opacity="0.6" d="M86.7571 69.2375H87.9678V66.5408H86.7571V69.2375Z" fill="white"/>
<path opacity="0.6" d="M84.7776 69.2375H85.9883V66.0027H84.7776V69.2375Z" fill="white"/>
<path opacity="0.6" d="M167.006 67.0278H166.289V68.6484H167.006V67.0278Z" fill="white"/>
<path opacity="0.6" d="M167.499 69.2375H173.232V66.4383H167.499V69.2375Z" fill="white"/>
<path opacity="0.6" d="M128.989 62.3579C128.989 62.6253 128.91 62.8866 128.762 63.1088C128.613 63.3311 128.402 63.5043 128.155 63.6066C127.908 63.7089 127.636 63.7357 127.374 63.6835C127.112 63.6314 126.871 63.5027 126.682 63.3136C126.493 63.1246 126.364 62.8838 126.312 62.6216C126.26 62.3594 126.287 62.0877 126.389 61.8407C126.491 61.5937 126.665 61.3827 126.887 61.2341C127.109 61.0856 127.37 61.0064 127.638 61.0064C127.815 61.0055 127.992 61.0399 128.156 61.1075C128.32 61.1751 128.47 61.2747 128.595 61.4003C128.721 61.526 128.821 61.6753 128.888 61.8397C128.956 62.0041 128.99 62.1802 128.989 62.3579Z" fill="white"/>
<path opacity="0.6" d="M131.718 62.3582C131.718 62.5292 131.667 62.6964 131.572 62.8386C131.477 62.9808 131.342 63.0916 131.184 63.1571C131.026 63.2225 130.852 63.2397 130.684 63.2063C130.517 63.1729 130.363 63.0906 130.242 62.9696C130.121 62.8487 130.038 62.6946 130.005 62.5269C129.972 62.3591 129.989 62.1852 130.054 62.0272C130.12 61.8692 130.23 61.7342 130.373 61.6391C130.515 61.5441 130.682 61.4934 130.853 61.4934C131.082 61.4934 131.302 61.5845 131.465 61.7467C131.627 61.9089 131.718 62.1288 131.718 62.3582Z" fill="white"/>
<path d="M178.126 73.1514H79.8838V89.9531H178.126V73.1514Z" fill="#FFA319"/>
<path d="M173.957 82.9263V81.6451H172.816C172.743 81.3196 172.613 81.0095 172.432 80.7291L173.239 79.922L172.31 78.9932L171.503 79.8003C171.222 79.6224 170.912 79.4946 170.587 79.4224V78.2822H169.306V79.4288C168.982 79.5022 168.672 79.63 168.39 79.8067L167.583 78.9996L166.673 79.9156L167.481 80.7227C167.3 81.0031 167.169 81.3132 167.096 81.6387H165.956V82.9198H167.096C167.171 83.243 167.301 83.5508 167.481 83.8294L166.673 84.6365L167.583 85.5525L168.39 84.7454C168.673 84.9215 168.982 85.0513 169.306 85.1298V86.2635H170.587V85.1298C170.912 85.0525 171.221 84.9226 171.503 84.7454L172.31 85.5525L173.22 84.6365L172.413 83.8294C172.593 83.5508 172.723 83.243 172.797 82.9198L173.957 82.9263ZM169.96 83.4707C169.722 83.4707 169.491 83.4003 169.293 83.2684C169.096 83.1365 168.943 82.949 168.852 82.7298C168.762 82.5105 168.738 82.2694 168.785 82.0368C168.832 81.8043 168.947 81.5909 169.115 81.4236C169.283 81.2563 169.497 81.1428 169.73 81.0973C169.963 81.0518 170.204 81.0764 170.422 81.1681C170.641 81.2597 170.828 81.4142 170.959 81.6121C171.089 81.8099 171.159 82.0421 171.157 82.2793C171.157 82.4363 171.126 82.5917 171.066 82.7367C171.006 82.8817 170.917 83.0133 170.806 83.124C170.695 83.2348 170.563 83.3224 170.417 83.3819C170.272 83.4414 170.117 83.4716 169.96 83.4707Z" fill="white"/>
<path d="M88.3775 78.7498L84.0537 82.8557H85.3925V85.8023H91.3624V82.8557H92.6948L88.3775 78.7498Z" fill="white"/>
<path opacity="0.4" d="M147.259 118.163C147.263 121.775 146.195 125.307 144.191 128.312C142.187 131.317 139.337 133.659 136.001 135.044C132.665 136.428 128.994 136.792 125.451 136.09C121.908 135.387 118.653 133.649 116.099 131.096C113.544 128.543 111.804 125.29 111.098 121.747C110.393 118.205 110.755 114.533 112.137 111.196C113.519 107.86 115.86 105.008 118.863 103.002C121.867 100.996 125.398 99.9255 129.009 99.9268C131.406 99.9226 133.78 100.391 135.995 101.306C138.21 102.221 140.223 103.564 141.918 105.258C143.614 106.952 144.958 108.964 145.874 111.179C146.791 113.393 147.261 115.767 147.259 118.163Z" fill="black"/>
<path opacity="0.8" d="M142.806 130.116C141.092 132.094 138.973 133.68 136.593 134.768C134.212 135.855 131.626 136.418 129.008 136.418C126.391 136.418 123.805 135.855 121.424 134.768C119.044 133.68 116.925 132.094 115.211 130.116C115.872 127.746 117.132 125.585 118.87 123.843C120.608 122.101 122.765 120.835 125.133 120.168C123.867 119.335 122.902 118.116 122.384 116.691C121.866 115.267 121.82 113.713 122.255 112.26C122.69 110.808 123.582 109.535 124.798 108.63C126.014 107.724 127.489 107.235 129.005 107.235C130.521 107.235 131.997 107.724 133.213 108.63C134.429 109.535 135.321 110.808 135.755 112.26C136.19 113.713 136.145 115.267 135.627 116.691C135.108 118.116 134.144 119.335 132.877 120.168C135.246 120.836 137.404 122.102 139.143 123.844C140.881 125.586 142.143 127.746 142.806 130.116Z" fill="white"/>
<g opacity="0.5">
<path d="M94.7388 147.251V147.584H92.7852V144.894H94.7068V145.227H93.1951V146.047H94.5467V146.373H93.1951V147.244L94.7388 147.251Z" fill="black"/>
<path d="M95.0977 146.367H96.1354V146.687H95.0977V146.367Z" fill="black"/>
<path d="M100.081 146.412V147.584H99.716V146.457C99.716 146.053 99.5238 145.861 99.1908 145.861C99.1016 145.852 99.0117 145.864 98.9278 145.895C98.8439 145.926 98.7682 145.976 98.7064 146.041C98.6447 146.106 98.5985 146.184 98.5715 146.269C98.5444 146.355 98.5371 146.445 98.5502 146.534V147.584H98.1851V146.457C98.1851 146.053 97.9929 145.861 97.6534 145.861C97.5643 145.852 97.4744 145.864 97.3905 145.895C97.3066 145.926 97.2309 145.976 97.1691 146.041C97.1074 146.106 97.0612 146.184 97.0341 146.269C97.0071 146.355 96.9998 146.445 97.0129 146.534V147.584H96.7246V145.547H97.0769V145.855C97.1564 145.746 97.2621 145.659 97.3841 145.602C97.5062 145.545 97.6407 145.519 97.7751 145.528C97.9172 145.517 98.0593 145.547 98.1851 145.614C98.3109 145.681 98.4153 145.782 98.4861 145.906C98.575 145.783 98.6929 145.684 98.8293 145.618C98.9656 145.552 99.1163 145.521 99.2676 145.528C99.3821 145.522 99.4965 145.542 99.6026 145.585C99.7087 145.629 99.8039 145.695 99.8816 145.779C99.9592 145.864 100.017 145.964 100.052 146.073C100.086 146.183 100.096 146.298 100.081 146.412Z" fill="black"/>
<path d="M102.381 146.354V147.584H102.028V147.328C101.953 147.425 101.856 147.503 101.744 147.554C101.633 147.606 101.51 147.629 101.388 147.622C100.926 147.622 100.632 147.373 100.632 147.02C100.632 146.668 100.843 146.425 101.452 146.425H102.035V146.354C102.035 146.04 101.855 145.861 101.49 145.861C101.258 145.86 101.033 145.937 100.85 146.079L100.696 145.803C100.938 145.623 101.234 145.53 101.535 145.541C102.06 145.528 102.381 145.797 102.381 146.354ZM102.009 146.963V146.687H101.439C101.074 146.687 100.971 146.835 100.971 147.007C100.971 147.18 101.138 147.334 101.42 147.334C101.545 147.342 101.669 147.31 101.774 147.244C101.88 147.177 101.962 147.079 102.009 146.963Z" fill="black"/>
<path d="M102.996 144.919C102.996 144.887 103.003 144.855 103.015 144.825C103.028 144.795 103.046 144.768 103.07 144.745C103.093 144.722 103.121 144.704 103.151 144.693C103.181 144.681 103.213 144.675 103.246 144.676C103.294 144.677 103.34 144.692 103.379 144.72C103.419 144.747 103.449 144.786 103.466 144.83C103.484 144.875 103.488 144.924 103.477 144.971C103.467 145.017 103.444 145.06 103.409 145.094C103.375 145.127 103.332 145.149 103.285 145.158C103.238 145.167 103.189 145.162 103.145 145.143C103.101 145.125 103.063 145.094 103.037 145.054C103.01 145.014 102.996 144.967 102.996 144.919ZM103.067 145.56H103.432V147.597H103.067V145.56Z" fill="black"/>
<path d="M104.136 144.766H104.501V147.616H104.136V144.766Z" fill="black"/>
</g>
<g opacity="0.8">
<path d="M160.811 160.901H97.1978C95.9203 160.901 94.6951 160.394 93.7917 159.49C92.8884 158.587 92.3809 157.362 92.3809 156.084C92.3809 154.807 92.8884 153.581 93.7917 152.678C94.6951 151.775 95.9203 151.267 97.1978 151.267H160.811C162.089 151.267 163.314 151.775 164.217 152.678C165.121 153.581 165.628 154.807 165.628 156.084C165.628 157.362 165.121 158.587 164.217 159.49C163.314 160.394 162.089 160.901 160.811 160.901Z" fill="white"/>
</g>
<g opacity="0.5">
<path d="M94.9574 169.536C94.9574 170.119 94.5346 170.471 93.8364 170.471H93.1959V171.284H92.8115V168.594H93.862C94.5346 168.594 94.9574 168.946 94.9574 169.536ZM94.5731 169.536C94.5731 169.151 94.3168 168.927 93.8236 168.927H93.183V170.138H93.8236C94.3168 170.138 94.5731 169.914 94.5731 169.536Z" fill="black"/>
<path d="M97.065 170.055V171.285H96.7255V171.028C96.6511 171.126 96.5538 171.204 96.442 171.256C96.3303 171.307 96.2077 171.33 96.085 171.323C95.6238 171.323 95.3291 171.073 95.3291 170.721C95.3291 170.369 95.5405 170.125 96.149 170.125H96.7255V170.055C96.7255 169.741 96.5461 169.562 96.181 169.562C95.9492 169.561 95.7237 169.637 95.5405 169.779L95.3867 169.504C95.6309 169.323 95.9289 169.231 96.2323 169.241C96.7255 169.228 97.065 169.497 97.065 170.055ZM96.6935 170.663V170.388H96.1234C95.7583 170.388 95.6558 170.535 95.6558 170.708C95.6558 170.881 95.8287 171.035 96.1042 171.035C96.2343 171.051 96.3661 171.023 96.4786 170.956C96.5912 170.888 96.678 170.786 96.7255 170.663H96.6935Z" fill="black"/>
<path d="M97.4932 171.067L97.6469 170.779C97.8579 170.918 98.1053 170.991 98.3579 170.99C98.6974 170.99 98.8447 170.887 98.8447 170.715C98.8447 170.253 97.5636 170.65 97.5636 169.837C97.5636 169.478 97.8903 169.228 98.4092 169.228C98.6688 169.224 98.925 169.288 99.1522 169.414L98.9921 169.702C98.8172 169.594 98.6148 169.539 98.4092 169.542C98.0825 169.542 97.9287 169.664 97.9287 169.824C97.9287 170.305 99.2099 169.914 99.2099 170.702C99.2099 171.073 98.8704 171.31 98.3323 171.31C98.0342 171.317 97.7413 171.232 97.4932 171.067Z" fill="black"/>
<path d="M99.416 171.067L99.5698 170.779C99.7835 170.917 100.033 170.99 100.287 170.99C100.627 170.99 100.768 170.887 100.768 170.714C100.768 170.253 99.4865 170.65 99.4865 169.837C99.4865 169.478 99.8132 169.228 100.338 169.228C100.598 169.225 100.854 169.289 101.081 169.414L100.921 169.702C100.744 169.595 100.54 169.539 100.332 169.542C100.012 169.542 99.8516 169.664 99.8516 169.824C99.8516 170.305 101.133 169.914 101.133 170.702C101.133 171.073 100.793 171.31 100.249 171.31C99.953 171.315 99.6627 171.23 99.416 171.067Z" fill="black"/>
<path d="M104.643 169.248L103.881 171.285H103.529L102.939 169.747L102.344 171.291H101.991L101.21 169.248H101.556L102.152 170.868L102.792 169.248H103.132L103.772 170.875L104.374 169.248H104.643Z" fill="black"/>
<path d="M104.771 170.266C104.769 170.056 104.828 169.851 104.943 169.675C105.057 169.5 105.222 169.362 105.415 169.28C105.607 169.199 105.82 169.176 106.026 169.215C106.232 169.254 106.422 169.354 106.571 169.501C106.72 169.649 106.822 169.837 106.864 170.042C106.905 170.248 106.885 170.461 106.806 170.655C106.726 170.849 106.591 171.014 106.416 171.131C106.242 171.248 106.038 171.31 105.828 171.31C105.689 171.316 105.549 171.294 105.419 171.244C105.289 171.194 105.171 171.117 105.071 171.019C104.972 170.921 104.894 170.803 104.842 170.674C104.791 170.544 104.766 170.405 104.771 170.266ZM106.513 170.266C106.513 170.176 106.496 170.087 106.461 170.004C106.427 169.921 106.376 169.845 106.313 169.781C106.249 169.718 106.173 169.667 106.09 169.633C106.007 169.598 105.918 169.581 105.828 169.581C105.738 169.581 105.649 169.598 105.566 169.633C105.483 169.667 105.407 169.718 105.343 169.781C105.28 169.845 105.229 169.921 105.195 170.004C105.16 170.087 105.143 170.176 105.143 170.266C105.143 170.356 105.16 170.445 105.195 170.528C105.229 170.611 105.28 170.687 105.343 170.751C105.407 170.814 105.483 170.865 105.566 170.899C105.649 170.934 105.738 170.951 105.828 170.951C105.918 170.951 106.007 170.934 106.09 170.899C106.173 170.865 106.249 170.814 106.313 170.751C106.376 170.687 106.427 170.611 106.461 170.528C106.496 170.445 106.513 170.356 106.513 170.266Z" fill="black"/>
<path d="M108.493 169.228V169.587H108.41C108.321 169.587 108.233 169.605 108.152 169.64C108.071 169.676 107.998 169.727 107.937 169.792C107.877 169.857 107.831 169.934 107.802 170.018C107.773 170.102 107.762 170.191 107.769 170.279V171.291H107.397V169.254H107.75V169.594C107.827 169.469 107.938 169.369 108.069 169.304C108.2 169.24 108.347 169.214 108.493 169.228Z" fill="black"/>
<path d="M110.85 168.466V171.317H110.497V170.996C110.413 171.109 110.302 171.199 110.175 171.26C110.048 171.32 109.908 171.348 109.767 171.342C109.505 171.322 109.261 171.203 109.082 171.01C108.904 170.817 108.805 170.564 108.805 170.301C108.805 170.038 108.904 169.785 109.082 169.592C109.261 169.4 109.505 169.281 109.767 169.26C109.903 169.255 110.038 169.282 110.162 169.339C110.285 169.395 110.394 169.481 110.478 169.587V168.466H110.85ZM110.484 170.298C110.478 170.164 110.433 170.035 110.354 169.926C110.275 169.818 110.166 169.735 110.04 169.688C109.914 169.641 109.778 169.632 109.647 169.662C109.516 169.692 109.397 169.76 109.304 169.857C109.212 169.954 109.149 170.076 109.125 170.208C109.102 170.34 109.117 170.476 109.17 170.599C109.222 170.723 109.31 170.828 109.422 170.902C109.534 170.976 109.665 171.015 109.799 171.015C109.897 171.024 109.995 171.01 110.087 170.974C110.178 170.938 110.26 170.882 110.326 170.81C110.393 170.737 110.441 170.65 110.469 170.556C110.496 170.462 110.502 170.363 110.484 170.266V170.298Z" fill="black"/>
</g>
<g opacity="0.8">
<path d="M160.811 184.601H97.1978C95.9203 184.601 94.6951 184.094 93.7917 183.191C92.8884 182.287 92.3809 181.062 92.3809 179.785C92.3809 178.507 92.8884 177.282 93.7917 176.378C94.6951 175.475 95.9203 174.968 97.1978 174.968H160.811C162.089 174.968 163.314 175.475 164.217 176.378C165.121 177.282 165.628 178.507 165.628 179.785C165.628 181.062 165.121 182.287 164.217 183.191C163.314 184.094 162.089 184.601 160.811 184.601Z" fill="white"/>
</g>
<path d="M144.798 204.459H113.212C112.58 204.459 111.954 204.334 111.369 204.092C110.785 203.85 110.254 203.495 109.806 203.048C109.359 202.601 109.004 202.07 108.762 201.485C108.52 200.901 108.396 200.275 108.396 199.642C108.396 199.009 108.52 198.383 108.762 197.799C109.004 197.214 109.359 196.683 109.806 196.236C110.254 195.789 110.785 195.434 111.369 195.192C111.954 194.95 112.58 194.825 113.212 194.825H144.798C146.076 194.825 147.301 195.332 148.204 196.236C149.108 197.139 149.615 198.364 149.615 199.642C149.615 200.919 149.108 202.145 148.204 203.048C147.301 203.951 146.076 204.459 144.798 204.459Z" fill="#FFA319"/>
<path d="M122.122 204.362C121.676 204.362 121.243 204.294 120.825 204.159C120.413 204.017 120.088 203.836 119.85 203.616L120.164 202.955C120.39 203.158 120.678 203.325 121.029 203.455C121.385 203.579 121.749 203.642 122.122 203.642C122.614 203.642 122.981 203.56 123.224 203.396C123.467 203.226 123.588 203.003 123.588 202.726C123.588 202.523 123.521 202.359 123.385 202.235C123.255 202.105 123.091 202.006 122.893 201.938C122.701 201.87 122.427 201.794 122.071 201.709C121.625 201.602 121.263 201.494 120.986 201.387C120.715 201.28 120.481 201.116 120.283 200.895C120.091 200.669 119.995 200.367 119.995 199.988C119.995 199.672 120.076 199.387 120.24 199.132C120.41 198.878 120.664 198.675 121.003 198.522C121.342 198.369 121.763 198.293 122.266 198.293C122.616 198.293 122.961 198.338 123.3 198.429C123.639 198.519 123.93 198.649 124.173 198.819L123.894 199.497C123.645 199.339 123.379 199.22 123.097 199.141C122.814 199.056 122.537 199.014 122.266 199.014C121.786 199.014 121.424 199.101 121.181 199.276C120.944 199.452 120.825 199.678 120.825 199.954C120.825 200.158 120.893 200.325 121.029 200.455C121.164 200.579 121.331 200.678 121.529 200.751C121.732 200.819 122.006 200.892 122.351 200.972C122.797 201.079 123.156 201.186 123.427 201.294C123.699 201.401 123.93 201.565 124.122 201.785C124.32 202.006 124.419 202.302 124.419 202.675C124.419 202.986 124.334 203.271 124.165 203.531C123.995 203.786 123.738 203.989 123.393 204.142C123.049 204.289 122.625 204.362 122.122 204.362ZM125.539 199.802H126.352V204.294H125.539V199.802ZM125.946 198.937C125.787 198.937 125.655 198.886 125.547 198.785C125.445 198.683 125.395 198.559 125.395 198.412C125.395 198.265 125.445 198.141 125.547 198.039C125.655 197.932 125.787 197.878 125.946 197.878C126.104 197.878 126.234 197.929 126.335 198.03C126.443 198.126 126.496 198.248 126.496 198.395C126.496 198.547 126.443 198.677 126.335 198.785C126.234 198.886 126.104 198.937 125.946 198.937ZM132.203 199.802V203.684C132.203 204.469 132.008 205.049 131.619 205.422C131.229 205.8 130.647 205.989 129.872 205.989C129.449 205.989 129.045 205.93 128.66 205.811C128.276 205.698 127.965 205.535 127.728 205.32L128.118 204.693C128.327 204.873 128.584 205.015 128.889 205.116C129.2 205.224 129.519 205.277 129.847 205.277C130.373 205.277 130.76 205.153 131.008 204.904C131.263 204.656 131.39 204.277 131.39 203.769V203.413C131.198 203.644 130.96 203.82 130.678 203.938C130.401 204.051 130.098 204.108 129.771 204.108C129.341 204.108 128.951 204.017 128.601 203.836C128.256 203.65 127.985 203.393 127.787 203.065C127.59 202.732 127.491 202.353 127.491 201.929C127.491 201.506 127.59 201.13 127.787 200.802C127.985 200.469 128.256 200.212 128.601 200.031C128.951 199.85 129.341 199.76 129.771 199.76C130.11 199.76 130.423 199.822 130.712 199.946C131.005 200.07 131.246 200.254 131.432 200.497V199.802H132.203ZM129.864 203.396C130.158 203.396 130.421 203.334 130.652 203.209C130.89 203.085 131.073 202.913 131.203 202.692C131.339 202.466 131.407 202.212 131.407 201.929C131.407 201.494 131.263 201.144 130.974 200.878C130.686 200.607 130.316 200.471 129.864 200.471C129.406 200.471 129.033 200.607 128.745 200.878C128.457 201.144 128.313 201.494 128.313 201.929C128.313 202.212 128.378 202.466 128.508 202.692C128.643 202.913 128.827 203.085 129.059 203.209C129.296 203.334 129.564 203.396 129.864 203.396ZM122.673 209.76C123.244 209.76 123.696 209.926 124.029 210.26C124.368 210.587 124.538 211.07 124.538 211.709V214.294H123.724V211.802C123.724 211.367 123.619 211.039 123.41 210.819C123.201 210.599 122.902 210.488 122.512 210.488C122.071 210.488 121.724 210.618 121.469 210.878C121.215 211.133 121.088 211.5 121.088 211.98V214.294H120.274V209.802H121.054V210.48C121.218 210.248 121.438 210.07 121.715 209.946C121.998 209.822 122.317 209.76 122.673 209.76ZM128.32 209.802H129.134V214.294H128.32V209.802ZM128.727 208.937C128.569 208.937 128.436 208.886 128.328 208.785C128.227 208.683 128.176 208.559 128.176 208.412C128.176 208.265 128.227 208.141 128.328 208.039C128.436 207.932 128.569 207.878 128.727 207.878C128.885 207.878 129.015 207.929 129.117 208.03C129.224 208.126 129.278 208.248 129.278 208.395C129.278 208.547 129.224 208.677 129.117 208.785C129.015 208.886 128.885 208.937 128.727 208.937ZM133.086 209.76C133.657 209.76 134.109 209.926 134.442 210.26C134.781 210.587 134.951 211.07 134.951 211.709V214.294H134.137V211.802C134.137 211.367 134.032 211.039 133.823 210.819C133.614 210.599 133.315 210.488 132.925 210.488C132.484 210.488 132.137 210.618 131.882 210.878C131.628 211.133 131.501 211.5 131.501 211.98V214.294H130.687V209.802H131.467V210.48C131.631 210.248 131.851 210.07 132.128 209.946C132.411 209.822 132.73 209.76 133.086 209.76Z" fill="white"/>
<path d="M243.474 83.2208L215.969 82.9646C215.342 82.9561 214.743 82.6992 214.305 82.2501C213.866 81.801 213.624 81.1964 213.631 80.5689L213.894 72.2737C213.897 71.9633 213.961 71.6566 214.083 71.3711C214.205 71.0856 214.382 70.8269 214.604 70.6098C214.826 70.3927 215.088 70.2214 215.376 70.1058C215.664 69.9901 215.972 69.9323 216.283 69.9357L243.827 70.1983C244.454 70.2068 245.053 70.4637 245.491 70.9128C245.929 71.3619 246.172 71.9665 246.165 72.594L245.902 80.8892C245.899 81.2026 245.833 81.5122 245.709 81.7999C245.584 82.0876 245.404 82.3476 245.178 82.5648C244.952 82.7819 244.685 82.9517 244.392 83.0644C244.1 83.177 243.788 83.2302 243.474 83.2208Z" fill="#FFA319"/>
<path d="M229.318 81.1263C229.318 81.1263 225.834 88.8129 218.211 91.1638C218.211 91.1638 222.439 88.7937 222.221 80.7163L229.318 81.1263Z" fill="#FFA319"/>
<path d="M220.768 76.4822L221.408 76.8409L221.114 77.3341L220.473 76.937V77.6672H219.909V76.937L219.269 77.3341L218.98 76.8409L219.621 76.4822L218.98 76.1235L219.269 75.6303L219.909 76.0274V75.2908H220.473V76.0274L221.114 75.6303L221.408 76.1235L220.768 76.4822Z" fill="white"/>
<path d="M224.699 76.4822L225.34 76.8409L225.045 77.3342L224.405 76.937V77.6672H223.841V76.937L223.2 77.3342L222.912 76.8665L223.553 76.5078L222.912 76.1491L223.207 75.6559L223.847 76.053V75.3164H224.411V76.053L225.052 75.6559L225.346 76.1491L224.699 76.4822Z" fill="white"/>
<path d="M228.639 76.4822L229.28 76.8409L228.985 77.3341L228.345 76.937V77.6672H227.774V76.937L227.134 77.3341L226.846 76.8409L227.486 76.4822L226.846 76.1235L227.134 75.6303L227.774 76.0274V75.2908H228.345V76.0274L228.985 75.6303L229.28 76.1235L228.639 76.4822Z" fill="white"/>
<path d="M232.572 76.4822L233.213 76.8409L232.918 77.3341L232.278 76.937V77.6672H231.714V76.937L231.073 77.3341L230.785 76.8409L231.426 76.4822L230.785 76.1235L231.073 75.6303L231.714 76.0274V75.2908H232.278V76.0274L232.918 75.6303L233.213 76.1235L232.572 76.4822Z" fill="white"/>
<path d="M236.505 76.4822L237.146 76.8409L236.851 77.3341L236.211 76.937V77.6672H235.647V76.937L235.007 77.3341L234.712 76.8409L235.352 76.4822L234.712 76.1235L235.007 75.6303L235.647 76.0274V75.2908H236.211V76.0274L236.851 75.6303L237.146 76.1235L236.505 76.4822Z" fill="white"/>
<path d="M240.445 76.4822L241.086 76.8409L240.791 77.3341L240.15 76.937V77.6672H239.567V76.937L238.927 77.3341L238.639 76.8409L239.279 76.4822L238.639 76.1235L238.927 75.6303L239.567 76.0274V75.2908H240.138V76.0274L240.778 75.6303L241.073 76.1235L240.445 76.4822Z" fill="white"/>
<path d="M199.944 96.7236C203.608 97.2937 207.163 108.58 208.707 109.535C210.251 110.489 208.925 98.9656 208.925 98.9656L211.859 98.5748C211.859 98.5748 215.33 115.947 210.264 115.819C206.42 115.723 201.808 109.272 200.655 105.986L199.944 96.7236Z" fill="#EBB376"/>
<path opacity="0.1" d="M210.264 115.774C207.926 115.716 205.306 113.314 203.358 110.701C202.245 109.249 201.344 107.646 200.681 105.941L200.303 101.201L199.944 96.7173C203.608 97.2874 207.163 108.574 208.707 109.528C210.251 110.483 208.925 98.9592 208.925 98.9592L211.859 98.5685C211.859 98.5685 215.33 115.902 210.264 115.774Z" fill="black"/>
<path opacity="0.2" d="M203.358 110.701C202.245 109.249 201.344 107.646 200.681 105.941L200.303 101.201C200.303 101.201 204.3 105.224 203.358 110.701Z" fill="black"/>
<path d="M186.453 73.3817C186.453 73.3817 179.926 73.3049 180.239 82.279C180.553 91.2532 186.831 91.3749 184.723 93.9692C186.596 94.763 188.608 95.1721 190.642 95.1721C192.676 95.1721 194.689 94.763 196.561 93.9692C196.561 93.9692 195.401 93.5144 195.952 91.8682C196.503 90.2219 199.527 87.8647 199.796 84.3929C200.065 80.9211 193.204 72.485 186.453 73.3817Z" fill="#263238"/>
<path d="M192.904 90.5614C192.904 90.5614 201.231 89.0177 199.841 81.1004C198.701 74.6116 195.671 72.5298 192.904 71.601C191.712 71.1995 190.421 71.1987 189.229 71.5989C188.037 71.999 187.008 72.7781 186.299 73.8173C186.299 73.8173 180.65 72.2159 181.63 81.504C182.61 90.792 188.746 94.8019 192.904 90.5614Z" fill="#263238"/>
<path d="M208.085 223.227L204.383 221.331L205.728 215.796L206.971 210.729L211.634 212.254L209.757 218.064L208.085 223.227Z" fill="#EBB376"/>
<path d="M203.352 220.46C203.57 220.05 208.541 222.932 208.541 222.932C208.541 222.932 210.097 227.717 212.807 229.978C215.516 232.239 212.884 233.213 209.457 231.509L200.976 227.282C198.574 226.058 201.097 224.739 203.352 220.46Z" fill="#263238"/>
<path d="M210.224 225.366C209.686 224.931 209.202 224.432 208.783 223.88C208.779 223.865 208.779 223.85 208.783 223.835C208.78 223.816 208.78 223.797 208.783 223.778C208.78 223.765 208.78 223.752 208.783 223.739C208.788 223.716 208.802 223.695 208.821 223.682C208.866 223.637 209.891 222.657 210.743 222.714C210.868 222.723 210.99 222.758 211.101 222.818C211.211 222.877 211.308 222.96 211.383 223.06C211.464 223.135 211.52 223.234 211.541 223.342C211.563 223.45 211.551 223.562 211.505 223.662C211.351 223.925 210.865 224.008 210.326 224.027C210.748 224.154 211.125 224.395 211.415 224.726C211.464 224.795 211.498 224.873 211.515 224.956C211.531 225.038 211.53 225.124 211.512 225.206C211.441 225.552 211.255 225.661 211.114 225.693C210.951 225.703 210.788 225.679 210.635 225.623C210.482 225.566 210.342 225.479 210.224 225.366ZM209.295 224.027C209.891 224.726 210.692 225.482 211.031 225.398C211.063 225.398 211.153 225.398 211.198 225.148C211.207 225.104 211.207 225.058 211.197 225.014C211.187 224.97 211.168 224.928 211.14 224.892C210.877 224.495 209.929 224.194 209.295 224.027ZM210.999 223.124C210.907 223.058 210.798 223.02 210.685 223.015C210.153 223.072 209.653 223.296 209.257 223.656C210.16 223.746 211.095 223.707 211.223 223.483C211.262 223.413 211.178 223.291 211.121 223.22C211.085 223.183 211.044 223.15 210.999 223.124Z" fill="#FFA319"/>
<path opacity="0.2" d="M209.712 218.179L205.689 215.905L206.945 210.781L211.627 212.28L209.712 218.179Z" fill="black"/>
<path d="M201.552 227.852H197.318L196.108 222.407L195.006 217.417L199.957 216.661L200.803 222.586L201.552 227.852Z" fill="#EBB376"/>
<path d="M195.921 227.685C195.921 227.217 201.686 227.582 201.686 227.582C201.686 227.582 205.216 231.17 208.643 231.977C212.07 232.784 210.155 234.84 206.324 234.84H196.825C194.089 234.84 195.806 232.521 195.921 227.685Z" fill="#263238"/>
<path d="M204.677 229.05C203.85 228.946 203.046 228.702 202.301 228.326L202.25 228.287V228.255C202.237 228.216 202.237 228.173 202.25 228.134C202.25 228.082 202.756 226.744 203.531 226.417C203.647 226.363 203.774 226.335 203.902 226.335C204.031 226.335 204.158 226.363 204.274 226.417C204.537 226.545 204.658 226.705 204.652 226.904C204.652 227.205 204.223 227.506 203.755 227.756C204.187 227.678 204.632 227.727 205.036 227.897C205.11 227.937 205.176 227.992 205.228 228.058C205.281 228.124 205.32 228.2 205.344 228.281C205.391 228.389 205.403 228.509 205.377 228.624C205.352 228.739 205.291 228.843 205.203 228.921C205.048 229.024 204.862 229.07 204.677 229.05ZM202.826 228.23C203.672 228.582 204.748 228.902 204.991 228.678C204.991 228.678 205.087 228.601 205.03 228.377C205.019 228.334 204.999 228.294 204.972 228.26C204.944 228.226 204.909 228.198 204.87 228.178C204.453 227.935 203.473 228.082 202.826 228.23ZM203.851 226.647C203.772 226.649 203.693 226.667 203.621 226.699C203.171 226.995 202.826 227.425 202.634 227.929C203.486 227.608 204.306 227.16 204.319 226.904C204.319 226.82 204.197 226.75 204.12 226.711C204.037 226.669 203.945 226.647 203.851 226.647Z" fill="#FFA319"/>
<path opacity="0.2" d="M200.815 222.708L196.12 222.516L195.012 217.468L199.963 216.687L200.815 222.708Z" fill="black"/>
<path d="M180.907 128.2L191.303 126.535L200.725 124.613L203.288 139.987C203.288 139.987 216.553 159.203 219.769 172.424C222.985 185.645 210.923 216.315 210.923 216.315L205.382 213.862C205.382 213.862 209.225 184.364 209.136 180.822C209.078 178.516 201.513 167.883 196.222 160.715C196.068 162.515 197.785 180.457 197.785 180.457L201.52 219.787H194.538C170.53 145.233 180.907 128.2 180.907 128.2Z" fill="#263238"/>
<path opacity="0.6" d="M194.538 219.761H201.495L197.76 180.431C197.76 180.431 196.056 162.368 196.197 160.689C197.241 162.105 198.375 163.649 199.522 165.244C204.179 171.72 209.066 178.939 209.13 180.79C209.22 184.339 205.376 213.836 205.376 213.836L210.917 216.29C210.917 216.29 222.979 185.607 219.763 172.392C216.548 159.178 203.282 139.961 203.282 139.961L200.72 124.588L191.297 126.509L180.901 128.175C180.901 128.175 170.53 145.233 194.538 219.761Z" fill="white"/>
<path d="M205.068 211.357L213.248 214.176L211.423 216.981L204.703 214.579L205.068 211.357Z" fill="#FFA319"/>
<path d="M193.539 218.82L202.289 217.622L201.853 220.889L194.628 221.798L193.539 218.82Z" fill="#FFA319"/>
<path opacity="0.2" d="M196.196 160.689C197.24 162.105 198.374 163.649 199.521 165.244C197.689 155.751 195.53 146.508 195.53 146.508C195.256 151.245 195.48 155.998 196.196 160.689Z" fill="black"/>
<path d="M200.54 125.215L181.573 126.529C181.573 126.529 181.317 116.369 179.805 111.085C179.6 110.374 179.376 109.631 179.126 108.836C178.774 107.722 178.37 106.524 177.909 105.217C177.8 104.91 177.525 104.141 177.192 103.251C176.928 102.54 176.876 101.769 177.04 101.029C177.205 100.289 177.58 99.6125 178.12 99.0808C178.646 98.554 179.314 98.1913 180.042 98.0367C181.438 97.7293 182.816 97.441 183.565 97.3257C186.406 96.8749 189.273 96.6032 192.148 96.5122C194.583 96.5122 197.273 96.6531 198.81 96.762L200.143 96.8645C200.143 96.8645 200.745 96.999 201.129 100.528C201.475 103.847 201.308 113.147 200.54 125.215Z" fill="#FFA319"/>
<path d="M191.527 100.567C186.742 99.7023 185.396 97.5756 185.396 97.5756C188.599 94.8469 186.319 89.7224 186.319 89.7224L192.084 91.0996C191.907 91.8991 191.789 92.7105 191.732 93.5273C191.507 97.044 193.096 97.1592 193.096 97.1592C193.974 99.0873 191.527 100.567 191.527 100.567Z" fill="#EBB376"/>
<path opacity="0.2" d="M192.039 91.0674C191.862 91.8668 191.744 92.6783 191.687 93.4951C188.926 92.7072 186.3 89.6902 186.3 89.6902L192.039 91.0674Z" fill="black"/>
<path d="M191.617 74.6374C196.645 75.0922 198.022 77.9298 197.926 83.1503C197.804 89.6712 195.953 94.1487 189.785 92.195C181.406 89.5495 183.257 73.8879 191.617 74.6374Z" fill="#EBB376"/>
<path d="M194.73 82.5737C195.066 83.3634 195.496 84.1097 196.011 84.7965C195.844 84.99 195.628 85.1341 195.385 85.2132C195.142 85.2922 194.882 85.3032 194.634 85.2448L194.73 82.5737Z" fill="#D58745"/>
<path d="M191.655 81.8881C191.655 82.2981 191.379 82.6184 191.104 82.6055C190.828 82.5927 190.63 82.234 190.656 81.8177C190.681 81.4013 190.931 81.0874 191.206 81.1002C191.482 81.113 191.68 81.4718 191.655 81.8881Z" fill="#263238"/>
<path d="M191.085 81.1133L192.014 80.8186C192.014 80.8186 191.527 81.5488 191.085 81.1133Z" fill="#263238"/>
<path d="M196.812 82.1444C196.78 82.5544 196.537 82.8747 196.261 82.8554C195.986 82.8362 195.781 82.4903 195.813 82.074C195.845 81.6576 196.082 81.3373 196.364 81.3565C196.646 81.3758 196.838 81.7281 196.812 82.1444Z" fill="#263238"/>
<path d="M196.241 81.3503L197.17 81.0557C197.17 81.0557 196.651 81.8051 196.241 81.3503Z" fill="#263238"/>
<path d="M189.663 79.2044C189.603 79.2027 189.547 79.18 189.502 79.1403C189.46 79.0952 189.437 79.0357 189.437 78.9738C189.437 78.9119 189.46 78.8524 189.502 78.8072C189.837 78.5164 190.234 78.3072 190.663 78.196C191.092 78.0848 191.541 78.0748 191.975 78.1667C192.005 78.1734 192.033 78.186 192.058 78.2036C192.083 78.2213 192.104 78.2437 192.121 78.2695C192.137 78.2954 192.148 78.3243 192.153 78.3544C192.159 78.3846 192.158 78.4155 192.151 78.4453C192.144 78.4752 192.132 78.5034 192.114 78.5285C192.097 78.5535 192.074 78.5748 192.048 78.5911C192.022 78.6075 191.994 78.6186 191.963 78.6238C191.933 78.629 191.902 78.6282 191.872 78.6215C191.517 78.5458 191.149 78.5514 190.797 78.6379C190.444 78.7245 190.115 78.8896 189.836 79.1211C189.814 79.1466 189.788 79.1672 189.758 79.1816C189.728 79.196 189.696 79.2037 189.663 79.2044Z" fill="#263238"/>
<path d="M197.561 79.3516C197.508 79.3503 197.456 79.3324 197.414 79.3004C197.182 79.0801 196.902 78.916 196.597 78.8205C196.291 78.725 195.968 78.7007 195.652 78.7495C195.593 78.7633 195.53 78.7538 195.478 78.7227C195.425 78.6917 195.387 78.6417 195.37 78.583C195.354 78.5244 195.362 78.4619 195.392 78.4092C195.422 78.3564 195.472 78.3176 195.53 78.3011C195.918 78.2334 196.316 78.256 196.694 78.3671C197.072 78.4781 197.419 78.6748 197.708 78.9417C197.732 78.9609 197.752 78.9847 197.766 79.0116C197.781 79.0384 197.79 79.0679 197.793 79.0983C197.796 79.1287 197.792 79.1594 197.783 79.1886C197.774 79.2178 197.76 79.2449 197.74 79.2684C197.719 79.295 197.691 79.3164 197.66 79.3308C197.629 79.3453 197.595 79.3524 197.561 79.3516Z" fill="#263238"/>
<path d="M185.352 82.6314C185.352 82.6314 188.074 78.7048 188.003 75.4828C188.003 75.4828 198.342 72.28 197.926 82.4713C197.926 82.4713 199.706 73.574 191.078 72.5939C182.45 71.6139 181.342 84.2776 185.473 88.4477C185.473 88.4412 183.661 85.0783 185.352 82.6314Z" fill="#263238"/>
<path d="M186.075 83.7587C186.078 83.4685 186.023 83.1806 185.914 82.9115C185.805 82.6424 185.645 82.3974 185.441 82.1904C185.238 81.9834 184.996 81.8185 184.729 81.7051C184.461 81.5917 184.175 81.5321 183.884 81.5295C182.309 81.5616 181.277 84.6939 185.089 85.8149C185.633 85.975 185.998 85.4561 186.075 83.7587Z" fill="#EBB376"/>
<path d="M194.147 87.5891C193.533 87.6194 192.925 87.448 192.418 87.1011C191.91 86.7541 191.53 86.2507 191.335 85.6674C191.326 85.6393 191.322 85.6096 191.325 85.5802C191.328 85.5507 191.336 85.5221 191.35 85.4959C191.363 85.4697 191.382 85.4465 191.405 85.4275C191.428 85.4086 191.454 85.3944 191.482 85.3856C191.511 85.3767 191.542 85.3736 191.572 85.3766C191.602 85.3795 191.631 85.3883 191.658 85.4026C191.685 85.4169 191.709 85.4363 191.728 85.4598C191.747 85.4833 191.761 85.5103 191.77 85.5393C191.941 86.046 192.277 86.4807 192.724 86.7735C193.171 87.0662 193.704 87.2001 194.236 87.1535C194.297 87.15 194.356 87.1701 194.401 87.2096C194.447 87.2491 194.475 87.3049 194.48 87.3649C194.483 87.4251 194.463 87.4842 194.424 87.5297C194.384 87.5752 194.328 87.6034 194.268 87.6083L194.147 87.5891Z" fill="#263238"/>
<path d="M197.849 81.0492C197.801 81.0488 197.753 81.0332 197.714 81.0044C197.675 80.9757 197.646 80.9353 197.631 80.8891C195.671 74.4835 188.164 75.4828 188.093 75.4956C188.064 75.4998 188.034 75.4982 188.005 75.4908C187.976 75.4834 187.949 75.4704 187.926 75.4526C187.902 75.4347 187.882 75.4124 187.867 75.3868C187.851 75.3612 187.841 75.3329 187.837 75.3034C187.833 75.274 187.835 75.244 187.842 75.2152C187.849 75.1864 187.862 75.1593 187.88 75.1355C187.898 75.1117 187.92 75.0917 187.946 75.0765C187.972 75.0614 188 75.0514 188.029 75.0472C188.106 75.0472 195.992 73.9903 198.067 80.7546C198.076 80.7832 198.079 80.8132 198.076 80.843C198.073 80.8728 198.064 80.9016 198.049 80.9279C198.035 80.9542 198.016 80.9773 197.992 80.9959C197.969 81.0146 197.942 81.0283 197.913 81.0364L197.849 81.0492Z" fill="#263238"/>
<path d="M210.871 91.8681C210.871 91.8681 213.516 91.8233 213.606 92.2845C213.696 92.7457 213.523 96.6211 213.171 97.1655C212.787 97.6576 212.346 98.1027 211.857 98.4915L212.114 105.358L210.538 105.909L209.109 99.6253C209.109 99.6253 207.489 98.0431 207.963 96.0381C208.437 94.0332 210.871 91.8681 210.871 91.8681Z" fill="#EBB376"/>
<path opacity="0.1" d="M210.871 91.8681C210.871 91.8681 213.516 91.8233 213.606 92.2845C213.696 92.7457 213.523 96.6211 213.171 97.1655C212.787 97.6576 212.346 98.1027 211.857 98.4915L212.114 105.358L210.538 105.909L209.109 99.6253C209.109 99.6253 207.489 98.0431 207.963 96.0381C208.437 94.0332 210.871 91.8681 210.871 91.8681Z" fill="black"/>
<path d="M206.381 95.2504C206.379 95.3078 206.389 95.3651 206.411 95.4182C206.433 95.4714 206.466 95.5193 206.508 95.5588C206.55 95.5982 206.599 95.6282 206.654 95.6468C206.708 95.6654 206.766 95.6722 206.823 95.6667L211.307 95.3208C211.432 95.3088 211.548 95.2524 211.635 95.1619C211.722 95.0715 211.774 94.9529 211.781 94.8276L212.101 85.8598C212.105 85.7985 212.096 85.7371 212.075 85.6794C212.054 85.6216 212.022 85.5687 211.98 85.5238C211.938 85.479 211.887 85.443 211.831 85.4182C211.775 85.3934 211.714 85.3802 211.653 85.3794L207.169 85.7253C207.039 85.7512 206.921 85.8203 206.835 85.9215C206.749 86.0226 206.7 86.1499 206.695 86.2826L206.381 95.2504Z" fill="#263238"/>
<path opacity="0.5" d="M207.195 86.1929L206.9 95.2375C206.891 95.2911 206.895 95.3459 206.912 95.3975C206.928 95.4492 206.957 95.4962 206.995 95.5349C207.033 95.5735 207.079 95.6027 207.131 95.62C207.182 95.6374 207.237 95.6424 207.291 95.6347L211.102 95.34C211.358 95.34 211.819 95.1415 211.826 94.8852L212.146 85.815C212.146 85.5587 211.704 85.3922 211.448 85.4114L207.604 85.7061C207.487 85.719 207.378 85.7768 207.302 85.8674C207.226 85.9581 207.187 86.0746 207.195 86.1929Z" fill="white"/>
<path d="M201.808 102.053L203.518 98.0625C203.518 98.0625 204.075 92.7138 204.344 92.1373C204.613 91.5608 208.969 91.7786 209.469 91.7466C209.968 91.7146 209.853 97.0504 209.398 97.6141C208.943 98.1778 207.163 98.6262 207.163 98.6262L204.428 103.93L201.808 102.053Z" fill="#EBB376"/>
<path d="M196.991 99.888C196.529 101.72 194.755 103.129 191.085 103.091C189.003 103.055 186.986 102.365 185.32 101.118C183.993 100.143 182.845 98.9469 181.925 97.582C182.456 97.4859 182.995 97.4026 183.533 97.3194C186.374 96.8686 189.241 96.5969 192.116 96.5059C193.634 96.5059 195.242 96.5507 196.6 96.6212C197.076 97.6403 197.213 98.7853 196.991 99.888Z" fill="#EBB376"/>
<path d="M181.521 125.094L180.727 128.566L201.199 127.489L200.609 124.062L181.521 125.094Z" fill="#263238"/>
<path d="M193.154 128.06C192.964 128.061 192.781 127.991 192.64 127.864C192.499 127.738 192.411 127.563 192.392 127.374L192.155 125.158C192.136 124.948 192.2 124.738 192.334 124.575C192.4 124.496 192.482 124.431 192.575 124.385C192.668 124.338 192.769 124.312 192.872 124.306L195.857 124.101C196.058 124.087 196.256 124.152 196.41 124.283C196.563 124.413 196.659 124.599 196.677 124.799L196.882 126.984C196.9 127.189 196.838 127.393 196.709 127.554C196.643 127.632 196.562 127.696 196.471 127.743C196.379 127.789 196.279 127.816 196.177 127.823L193.218 128.06H193.154ZM192.795 125.087L193.026 127.304C193.03 127.337 193.048 127.368 193.074 127.389C193.1 127.41 193.133 127.421 193.167 127.419L196.126 127.189C196.144 127.186 196.161 127.181 196.176 127.172C196.191 127.163 196.205 127.151 196.216 127.137C196.238 127.111 196.25 127.076 196.248 127.041L196.036 124.857C196.036 124.84 196.031 124.824 196.024 124.809C196.017 124.794 196.007 124.781 195.994 124.77C195.981 124.759 195.967 124.751 195.951 124.746C195.935 124.741 195.918 124.74 195.902 124.742L192.917 124.947C192.898 124.946 192.88 124.949 192.863 124.957C192.847 124.965 192.832 124.977 192.821 124.991C192.814 125.007 192.811 125.023 192.811 125.039C192.811 125.056 192.814 125.072 192.821 125.087H192.795Z" fill="white"/>
<path d="M196.011 126.189H194.909C194.824 126.189 194.743 126.155 194.683 126.095C194.623 126.035 194.589 125.954 194.589 125.869C194.591 125.784 194.625 125.704 194.684 125.644C194.744 125.584 194.825 125.55 194.909 125.549H196.011C196.095 125.55 196.176 125.584 196.236 125.644C196.295 125.704 196.33 125.784 196.331 125.869C196.331 125.954 196.297 126.035 196.237 126.095C196.177 126.155 196.096 126.189 196.011 126.189Z" fill="white"/>
<path opacity="0.2" d="M184.347 110.399C182.534 111.04 180.503 109.919 179.126 108.836C178.774 107.722 178.37 106.524 177.909 105.217C177.8 104.91 177.525 104.141 177.192 103.251C176.928 102.54 176.876 101.769 177.04 101.029C177.205 100.289 177.58 99.6125 178.12 99.0808C181.605 102.367 186.768 109.573 184.347 110.399Z" fill="black"/>
<path d="M178.075 98.6452C178.439 98.3523 178.858 98.1373 179.308 98.0137C179.759 97.89 180.229 97.8603 180.691 97.9264C181.153 97.9925 181.597 98.153 181.994 98.3978C182.392 98.6427 182.734 98.9668 183.001 99.3499C185.813 103.379 190.534 110.079 191.104 110.406C191.918 110.88 198.054 105.224 203.524 98.0495L206.874 99.3306C206.874 99.3306 198.221 117.125 192.078 117.202C187.472 117.26 180.548 107.92 177.403 103.225C176.917 102.517 176.717 101.653 176.842 100.803C176.967 99.9545 177.407 99.1837 178.075 98.6452Z" fill="#EBB376"/>
<path opacity="0.2" d="M184.345 131.41C184.345 131.41 182.782 135.657 178.92 137.175V138.699C178.92 138.699 184.582 136.291 185.377 132.294L184.345 131.41Z" fill="black"/>
<path opacity="0.2" d="M179.952 153.778L185.377 152.759L186.671 163.662L181.476 164.417L180.727 157.32L185.416 156.654L185.146 153.964L185.07 156.353L179.798 157.198L179.952 153.778Z" fill="black"/>
</svg>
