<svg width="181" height="130" viewBox="0 0 181 130" fill="none" xmlns="http://www.w3.org/2000/svg">
<path d="M148.488 43.3233C148.331 41.0284 143.581 40.2058 141.469 39.6459C141.033 39.5445 140.603 39.4175 140.181 39.2657C131.729 36.5007 126.294 30.9708 125.999 24.8118C125.54 15.1343 137.467 6.65272 152.58 5.91999C167.694 5.18727 180.388 12.4592 180.848 22.1366C181.307 31.8141 169.38 40.2888 154.253 41.0215C154.033 41.0559 153.832 41.1679 153.687 41.3375C153.541 41.5071 153.46 41.7234 153.458 41.9478C153.026 45.404 151.004 46.3856 149.345 47.1805L149.133 47.2842C148.102 47.7305 147.041 48.1047 145.959 48.404C145.863 48.4312 145.76 48.4235 145.669 48.382C145.578 48.3406 145.505 48.2682 145.461 48.1774C145.418 48.0867 145.408 47.9835 145.432 47.8859C145.457 47.7883 145.515 47.7025 145.596 47.6436C147.131 46.5791 148.612 45.086 148.488 43.3233Z" fill="white"/>
<path d="M145.625 48.7708C145.469 48.761 145.321 48.7037 145.198 48.6067C145.076 48.5096 144.986 48.3773 144.94 48.2274C144.894 48.0774 144.894 47.9168 144.94 47.767C144.987 47.6171 145.077 47.485 145.2 47.3883C146.516 46.4759 148.065 45.0381 147.942 43.3722C147.825 41.6302 144.247 40.7593 142.109 40.2408L141.176 40.0127C140.56 39.8468 140.1 39.7224 139.847 39.6187C131.279 36.8537 125.761 31.1855 125.453 24.8537C124.986 14.9827 137.057 6.349 152.363 5.60245C167.669 4.85591 180.514 12.2868 180.987 22.1924C181.459 32.0979 169.382 40.6901 154.063 41.4367C153.699 41.4367 153.617 41.9206 153.597 42.0588C153.144 45.6948 150.93 46.7731 149.319 47.5888L149.1 47.6925C148.045 48.1528 146.956 48.5317 145.844 48.8261C145.769 48.82 145.694 48.8013 145.625 48.7708ZM154.481 6.2384C153.795 6.2384 153.11 6.2384 152.424 6.28679C137.496 7.0126 125.692 15.3214 126.165 24.8122C126.453 30.8468 131.8 36.2661 140.107 38.962C140.347 39.0588 140.793 39.1832 141.334 39.3214L142.301 39.5634C144.768 40.1648 148.469 41.0703 148.655 43.3169C148.764 44.9137 147.736 46.4759 145.604 47.9482C145.591 47.9623 145.584 47.9808 145.584 48.0001C145.584 48.0193 145.591 48.0378 145.604 48.0519C145.608 48.0617 145.614 48.0706 145.621 48.0781C145.628 48.0855 145.637 48.0914 145.647 48.0953C145.656 48.0992 145.667 48.101 145.677 48.1007C145.688 48.1004 145.698 48.0979 145.707 48.0934C146.783 47.8076 147.837 47.4426 148.86 47.0012L149.073 46.8975C150.711 46.0957 152.562 45.1971 152.973 41.9344C152.978 41.6271 153.094 41.3322 153.3 41.1055C153.506 40.8788 153.787 40.736 154.09 40.7039C169.026 39.9781 180.822 31.6694 180.356 22.1855C179.876 13.1509 168.477 6.2384 154.481 6.2384Z" fill="#FFA319"/>
<path d="M159.575 31.6676L159.55 31.6664L159.524 31.6665C159.514 31.6665 159.503 31.6642 159.493 31.659L153.958 28.7094L153.488 28.4587L153.018 28.7094L147.477 31.6623L147.476 31.6632C147.463 31.6701 147.449 31.6726 147.437 31.6717C147.425 31.6708 147.411 31.6662 147.398 31.6565C147.385 31.6467 147.372 31.6315 147.364 31.6111L146.444 31.9742L147.364 31.6111C147.356 31.5906 147.354 31.5672 147.358 31.5444L147.358 31.5443L148.444 25.3177L148.534 24.8024L148.162 24.4346L143.694 20.0182C143.682 20.0058 143.673 19.9891 143.668 19.9689C143.663 19.9503 143.663 19.9308 143.667 19.9124C143.674 19.8952 143.684 19.8816 143.695 19.872C143.708 19.861 143.722 19.8554 143.735 19.8536L143.738 19.8531L149.93 18.9352L150.455 18.8573L150.685 18.3791L153.412 12.7055L153.412 12.7055L153.413 12.7019C153.423 12.6825 153.436 12.6688 153.449 12.6603C153.462 12.6519 153.476 12.6484 153.488 12.6484C153.501 12.6484 153.514 12.6519 153.527 12.6603L154.063 11.8202L153.527 12.6603C153.54 12.6688 153.554 12.6825 153.563 12.7019L153.563 12.7019L153.567 12.7104L156.326 18.373L156.557 18.8468L157.078 18.9241L163.271 19.8421L163.274 19.8426C163.287 19.8444 163.3 19.8499 163.313 19.861C163.324 19.8706 163.335 19.8841 163.342 19.9013C163.346 19.9198 163.346 19.9393 163.341 19.9578C163.336 19.9781 163.327 19.9948 163.315 20.0071L158.847 24.4236L158.475 24.7913L158.565 25.3067L159.651 31.5333L159.651 31.5333L159.653 31.5453C159.658 31.5685 159.655 31.5924 159.647 31.6133C159.64 31.6321 159.629 31.6464 159.617 31.6562C159.603 31.6649 159.588 31.6682 159.575 31.6676Z" stroke="#FFA319" stroke-width="2"/>
<path d="M126.98 47.6801L104.637 67.9193L97.7318 74.1748C97.4186 74.4498 97.1724 74.7938 97.0121 75.1802C96.8518 75.5665 96.7817 75.9849 96.8073 76.4029L97.3112 87.0911L98.6978 116.331C98.8688 118.387 96.5901 119.958 94.843 118.984L86.856 114.509L75.176 107.983L66.5743 103.149L75.1621 107.946L86.8606 114.443L88.5384 115.376C90.2856 116.35 92.5643 114.779 92.3933 112.728L91.5197 102.25L89.278 75.3214C89.2506 74.9026 89.3198 74.483 89.4802 74.0956C89.6406 73.7082 89.8878 73.3636 90.2024 73.0887L109.264 55.842L119.432 46.6174C121.036 45.163 120.445 42.6227 118.42 42.3243L114.621 41.7603L103.297 40.0776L81.6515 36.866C81.2612 36.812 80.8922 36.654 80.5826 36.4081C80.273 36.1623 80.0341 35.8376 79.8905 35.4676L75.4395 24.3738L73.415 19.349L70.6417 12.4503L69.5417 9.71411L67.7298 5.20667L66.2138 1.44037C66.0938 1.13332 65.9069 0.857428 65.6669 0.633116C65.4268 0.408803 65.1398 0.241818 64.8271 0.144531L71.4645 1.12806L72.4397 1.27256L72.657 1.48232L73.72 2.52178L77.011 10.6697L77.6303 12.2079L78.8875 15.3309L87.4384 36.5583C87.5832 36.9276 87.8225 37.2515 88.1318 37.4971C88.4412 37.7428 88.8095 37.9014 89.1994 37.9567L103.324 40.0543L114.649 41.7324L125.973 43.4151C127.993 43.6947 128.589 46.2351 126.98 47.6801Z" fill="#FFA319"/>
<path opacity="0.5" d="M126.98 47.6801L104.637 67.9193L97.7318 74.1748C97.4186 74.4498 97.1724 74.7938 97.0121 75.1802C96.8518 75.5665 96.7817 75.9849 96.8073 76.4029L97.3112 87.0911L98.6978 116.331C98.8688 118.387 96.5901 119.958 94.843 118.984L86.856 114.509L75.176 107.983L66.5743 103.149L75.1621 107.946L86.8606 114.443L88.5384 115.376C90.2856 116.35 92.5643 114.779 92.3933 112.728L91.5197 102.25L89.278 75.3214C89.2506 74.9026 89.3198 74.483 89.4802 74.0956C89.6406 73.7082 89.8878 73.3636 90.2024 73.0887L109.264 55.842L119.432 46.6174C121.036 45.163 120.445 42.6227 118.42 42.3243L114.621 41.7603L103.297 40.0776L81.6515 36.866C81.2612 36.812 80.8922 36.654 80.5826 36.4081C80.273 36.1623 80.0341 35.8376 79.8905 35.4676L75.4395 24.3738L73.415 19.349L70.6417 12.4503L69.5417 9.71411L67.7298 5.20667L66.2138 1.44037C66.0938 1.13332 65.9069 0.857428 65.6669 0.633116C65.4268 0.408803 65.1398 0.241818 64.8271 0.144531L71.4645 1.12806L72.4397 1.27256L72.657 1.48232L73.72 2.52178L77.011 10.6697L77.6303 12.2079L78.8875 15.3309L87.4384 36.5583C87.5832 36.9276 87.8225 37.2515 88.1318 37.4971C88.4412 37.7428 88.8095 37.9014 89.1994 37.9567L103.324 40.0543L114.649 41.7324L125.973 43.4151C127.993 43.6947 128.589 46.2351 126.98 47.6801Z" fill="black"/>
<path d="M73.734 2.52266L72.4531 1.27344C72.7428 1.37725 73.007 1.54247 73.228 1.75797C73.4489 1.97347 73.6215 2.23423 73.734 2.52266Z" fill="#263238"/>
<path d="M71.4648 1.12753C71.7961 1.10745 72.1279 1.15501 72.4405 1.26736L71.4648 1.12753Z" fill="#263238"/>
<path d="M61.2956 100.236L42.8951 109.558L34.1825 113.972L28.7469 116.727L28.636 116.778C27.8351 117.077 26.9548 117.077 26.1539 116.778L26.0106 116.853L18.4951 115.683C18.8788 115.668 19.2544 115.568 19.5952 115.389L23.8937 113.213L31.4693 109.376L35.4119 107.344L37.3209 106.379L45.7284 102.114L54.4365 97.7046C54.793 97.5163 55.1895 97.418 55.592 97.418C55.9944 97.418 56.3909 97.5163 56.7475 97.7046L61.2956 100.236Z" fill="#FFA319"/>
<path opacity="0.5" d="M61.2956 100.236L42.8951 109.558L34.1825 113.972L28.7469 116.727L28.636 116.778C27.8351 117.077 26.9548 117.077 26.1539 116.778L26.0106 116.853L18.4951 115.683C18.8788 115.668 19.2544 115.568 19.5952 115.389L23.8937 113.213L31.4693 109.376L35.4119 107.344L37.3209 106.379L45.7284 102.114L54.4365 97.7046C54.793 97.5163 55.1895 97.418 55.592 97.418C55.9944 97.418 56.3909 97.5163 56.7475 97.7046L61.2956 100.236Z" fill="black"/>
<path d="M70.6327 12.441L67.2447 6.01783L64.0693 0.0234375L64.7811 0.130645C65.0938 0.227932 65.3808 0.394917 65.6209 0.619229C65.8609 0.843541 66.0478 1.11943 66.1678 1.42648L67.6838 5.19278L70.6327 12.441Z" fill="#263238"/>
<path d="M35.4125 107.345L23.9035 113.199L19.6049 115.376C19.2642 115.555 18.8885 115.655 18.5049 115.67L26.1683 101.346L26.8293 101.775L35.4125 107.345Z" fill="#263238"/>
<path d="M119.451 46.594L109.282 55.8187L90.2207 73.0654C89.9061 73.3402 89.6589 73.6849 89.4985 74.0723C89.3382 74.4596 89.2689 74.8792 89.2963 75.2981L91.538 102.226L92.4116 112.705C92.5826 114.756 90.3039 116.327 88.5568 115.352L86.879 114.42L75.162 107.946L66.5742 103.149L66.4032 103.051L61.3189 100.222L56.7892 97.7048C56.4327 97.5166 56.0362 97.4182 55.6337 97.4182C55.2312 97.4182 54.8347 97.5166 54.4782 97.7048L45.7702 102.114L37.3349 106.412L35.4121 107.344L31.4648 109.349L23.8892 113.185L19.5907 115.362C19.2499 115.54 18.8743 115.64 18.4906 115.655C18.126 115.678 17.7614 115.611 17.4279 115.46C17.0944 115.31 16.8017 115.081 16.5749 114.792C16.348 114.504 16.1936 114.164 16.1248 113.802C16.056 113.44 16.0748 113.067 16.1796 112.714L16.7573 110.463L25.7843 75.3028C25.8928 74.9165 25.9018 74.5088 25.8104 74.118C25.719 73.7273 25.5303 73.3666 25.262 73.07L0.607786 46.58C-0.741862 45.1257 0.293486 42.5853 2.36418 42.287L40.085 36.8287C40.5014 36.7625 40.8977 36.6024 41.2442 36.3603C41.5908 36.1181 41.8786 35.8003 42.0864 35.4303L61.6932 1.40306C61.8379 1.15239 62.0203 0.925943 62.234 0.731833C62.5859 0.399503 63.0203 0.169204 63.4912 0.0652718C63.6747 0.0228917 63.8623 0.00100766 64.0505 1.43511e-05C64.206 -0.00056898 64.3611 0.0166325 64.5127 0.0512886C64.5924 0.06498 64.6711 0.0836625 64.7484 0.107225C65.0611 0.204512 65.3481 0.371494 65.5882 0.595806C65.8282 0.820118 66.0151 1.09601 66.1351 1.40306L67.6511 5.16936L69.463 9.68146L70.563 12.4176L73.3363 19.3163L75.4393 24.3738L79.9089 35.4676C80.0525 35.8376 80.2914 36.1623 80.6009 36.4081C80.9105 36.6539 81.2795 36.812 81.6699 36.866L103.315 40.0776L114.639 41.7603L118.439 42.3243C120.458 42.5993 121.055 45.1397 119.451 46.594Z" fill="#FFA319"/>
<path opacity="0.4" d="M69.5325 9.70408L69.3892 10.0816L32.8747 105.698L31.4881 109.362L23.9125 113.198L19.614 115.375C19.2732 115.553 18.8976 115.654 18.5139 115.669C18.1493 115.691 17.7847 115.624 17.4512 115.474C17.1176 115.324 16.825 115.094 16.5981 114.806C16.3713 114.517 16.2169 114.177 16.1481 113.815C16.0792 113.453 16.098 113.08 16.2029 112.727L16.7806 110.476L62.2666 0.754452C62.6185 0.422122 63.0528 0.191823 63.5238 0.0878906H64.1154H64.5776C64.6573 0.101582 64.736 0.120261 64.8133 0.143824C65.126 0.24111 65.413 0.408096 65.653 0.632408C65.8931 0.85672 66.08 1.13262 66.2 1.43966L67.716 5.20596L69.5325 9.70408Z" fill="white"/>
<path opacity="0.2" d="M75.4404 24.3647V24.3694L45.7435 102.129L37.3359 106.394L73.4159 19.3398L75.4404 24.3647Z" fill="white"/>
<path opacity="0.3" d="M114.649 41.7129V41.7362L109.273 55.8179L90.2116 73.0646C89.897 73.3394 89.6498 73.6841 89.4894 74.0715C89.329 74.4589 89.2598 74.8784 89.2872 75.2973L91.5289 102.225L86.8698 114.419L86.8421 114.494L75.1621 107.968V107.94L103.301 40.0488L114.649 41.7129Z" fill="white"/>
<path d="M74.5921 90.2715L73.5914 94.3775C73.5914 94.3775 63.7143 91.3844 60.3967 99.7485C57.0792 108.113 65.7157 125.961 91.9885 119.795C91.9885 119.795 99.069 121.737 105.128 120.196C114.101 117.914 125.534 112.592 126.768 104.193C128.824 90.1125 101.057 95.1102 101.057 95.1102L100.022 92.4696L74.5921 90.2715Z" fill="#FFA319"/>
<path opacity="0.1" d="M78.0957 96.1816C78.0957 96.1816 84.3195 99.3475 86.5745 104.67L89.2546 105.666C89.2546 105.666 87.6781 98.4075 78.0957 96.1816Z" fill="black"/>
<path d="M98.2539 109.619C98.2539 109.619 98.4458 100.633 107.322 93.7207H114.225L100.9 111.306L98.2539 109.619Z" fill="#FFA319"/>
<path d="M60.1649 100.432C60.1649 100.432 57.6562 107.683 67.2523 115.764C76.8484 123.845 81.9343 113.089 81.9343 113.089L82.6746 108.983L76.1492 103.107L67.8212 97.4805L63.2905 98.0196L60.1649 100.432Z" fill="#FFA319"/>
<path d="M60.1094 101.435C60.5325 104.59 61.7312 107.589 63.5962 110.158C65.4613 112.727 67.9337 114.785 70.7885 116.145C78.9726 120.085 81.07 108.949 81.07 108.949L65.9904 99.0293L60.3973 99.7482L60.1094 101.435Z" fill="#FED1BC"/>
<path opacity="0.1" d="M60.1094 101.435C60.5325 104.59 61.7312 107.589 63.5962 110.158C65.4613 112.727 67.9337 114.785 70.7885 116.145C78.9726 120.085 81.07 108.949 81.07 108.949L65.9904 99.0293L60.3973 99.7482L60.1094 101.435Z" fill="black"/>
<path d="M125.466 127.895C123.768 124.785 121.024 122.389 117.728 121.142C117.381 120.964 117.088 120.697 116.878 120.367C116.79 120.244 116.718 120.109 116.665 119.967L114.979 114.437C114.934 114.339 114.922 114.23 114.945 114.126C114.952 114.053 114.975 113.982 115.011 113.919C115.048 113.856 115.098 113.801 115.157 113.759L119.873 110.994C119.97 110.921 120.08 110.868 120.198 110.839C120.315 110.809 120.437 110.803 120.557 110.821C120.677 110.839 120.792 110.88 120.896 110.943C120.999 111.006 121.09 111.089 121.162 111.188C121.196 111.243 121.23 111.298 121.258 111.354C122.21 113.669 122.971 115.757 124.212 118.605C125.672 121.964 125.706 120.934 127.468 124.867C128.537 127.204 126.042 128.821 125.466 127.895Z" fill="#263238"/>
<path d="M108.637 94.6758C108.637 94.6758 132.381 89.4707 136.178 97.0744C139.976 104.678 126.5 109.759 121.709 111.459C113.36 114.439 84.3867 123.611 84.3867 123.611L86.2717 117.653L100.097 109.724C100.097 109.724 100.728 101.733 108.637 94.6758Z" fill="#FED1BC"/>
<path d="M86.327 122.865L88.3833 116.581C88.4226 116.466 88.4216 116.341 88.3805 116.226C88.3393 116.112 88.2605 116.015 88.1571 115.952L83.455 113.125C83.3565 113.065 83.2471 113.024 83.1331 113.006C83.0191 112.989 82.9028 112.994 82.7907 113.021C82.6787 113.049 82.5731 113.099 82.4801 113.167C82.3871 113.236 82.3084 113.323 82.2487 113.422C82.2144 113.476 82.1868 113.534 82.1664 113.595C81.481 115.876 80.9258 117.929 80.0004 120.749C78.9037 124.081 78.7872 123.107 77.4437 126.971C76.6418 129.321 79.1573 130.641 79.6166 129.687C81.6729 125.298 83.2151 125.277 85.4222 124.054C85.8602 123.785 86.1829 123.361 86.327 122.865Z" fill="#263238"/>
<path opacity="0.1" d="M119.276 96.8872C119.05 96.0024 105.889 104.456 101.784 103.952C101.239 105.167 100.801 106.427 100.474 107.719C100.413 107.961 100.365 108.182 100.324 108.41V108.514C100.324 108.59 100.289 108.659 100.276 108.735V108.853C100.276 108.915 100.276 108.97 100.241 109.032C100.238 109.069 100.238 109.106 100.241 109.143C100.239 109.189 100.239 109.235 100.241 109.281C100.245 109.316 100.245 109.35 100.241 109.385C100.245 109.417 100.245 109.45 100.241 109.482C100.241 109.516 100.241 109.544 100.241 109.572C100.238 109.59 100.238 109.609 100.241 109.627C100.238 109.65 100.238 109.673 100.241 109.696L87.1289 117.161L97.2802 119.498C103.339 117.549 110.365 115.281 115.691 113.512L102.243 108.396C107.301 105.265 119.468 97.6407 119.276 96.8872Z" fill="black"/>
<path d="M116.877 120.348C109.529 119.408 95.5804 117.583 90.7755 116.525C82.0979 114.638 53.5084 107.228 60.7808 97.4054C68.3755 87.1404 83.5647 102.728 83.5647 102.728L114.944 114.071C114.921 114.176 114.933 114.285 114.978 114.382L116.664 119.912C116.715 120.067 116.786 120.214 116.877 120.348Z" fill="#FED1BC"/>
<path opacity="0.1" d="M71.4594 96.9702C69.1974 97.9587 83.5641 102.728 83.5641 102.728C81.6798 100.869 79.631 99.1866 77.4432 97.7029C75.2292 96.7905 72.9742 96.3066 71.4594 96.9702Z" fill="black"/>
<path d="M133.274 60.6927L138.757 58.1005L136.605 52.1074L134.336 55.2526C133.779 56.0022 133.152 56.6966 132.465 57.3263L133.274 60.6927Z" fill="#FED1BC"/>
<path d="M135.356 52.4394L137.721 58.5984L141.224 57.2159C141.404 57.1313 141.547 56.9839 141.628 56.801C141.708 56.618 141.721 56.4118 141.662 56.2205L140.593 51.4578C140.56 51.3515 140.487 51.2625 140.39 51.2096C140.292 51.1567 140.179 51.1441 140.072 51.1744L135.356 52.4394Z" fill="#FED1BC"/>
<path d="M137.516 54.8939L136.049 56.1174L133.849 55.8339L134.198 55.0597C134.438 54.5376 134.48 53.9448 134.315 53.3938C134.14 52.8155 133.91 52.2553 133.63 51.721L133.54 51.5413C133.473 51.3769 133.46 51.1947 133.505 51.0225C133.549 50.8503 133.648 50.6975 133.787 50.5874C133.787 50.5874 134.589 50.4007 135.391 52.2325L135.933 53.0413L136.748 52.9514L137.516 54.8939Z" fill="#FED1BC"/>
<path d="M101.955 54.6992L114.292 63.5817L133.3 56.6693L134.938 59.5863C134.938 59.5863 119.687 70.6048 114.745 70.5219C109.803 70.4389 97.0674 59.8145 97.0674 59.8145L101.955 54.6992Z" fill="#FED1BC"/>
<path d="M98.8301 54.0295C100.818 52.7023 103.354 50.5733 112.032 60.6931L106.151 67.5226C100.461 65.3936 95.0054 58.0802 98.8301 54.0295Z" fill="#263238"/>
<path d="M95.704 50.4755L89.7338 49.0446L82.1392 48.9962C80.9849 48.9876 79.8598 49.3618 78.9371 50.0613C78.0144 50.7607 77.3453 51.7466 77.0327 52.8672C75.6667 58.3278 74.6365 63.8684 73.9482 69.4571C73.0983 75.7406 74.147 82.9295 74.3732 91.4457L101.468 92.4895C100.036 80.047 102.469 69.1737 104.087 62.6207C104.443 58.5977 104.121 53.8281 101.955 52.8949L95.704 50.4755Z" fill="#263238"/>
<path opacity="0.3" d="M73.9485 69.43C74.538 65.0268 75.3194 60.0567 76.2516 55.9369C81.269 54.8724 84.1615 65.9323 82.8797 71.5314C81.598 77.1305 73.4824 74.096 73.4824 74.096C73.6058 72.4231 73.7634 70.8471 73.9485 69.43Z" fill="black"/>
<path d="M91.6811 39.2441L94.1144 42.7004L97.425 47.387C97.0395 47.8148 96.733 48.3088 96.5203 48.8456C96.0199 50.0276 95.5606 50.9193 98.0419 52.4746C98.3077 52.6335 98.523 52.8655 98.6626 53.1434C98.8022 53.4214 98.8603 53.7337 98.8302 54.0437C98.7136 54.7972 98.0076 55.5576 95.403 55.205C92.8727 54.8236 90.5304 53.634 88.72 51.811C87.8221 50.9746 87.9934 50.311 88.7885 49.364C91.0573 46.6889 91.5988 42.5621 91.6811 39.2441Z" fill="#FED1BC"/>
<path opacity="0.2" d="M96.6294 46.2109L94.5731 42.8652L94.4566 43.1556C94.3003 43.5845 94.1811 44.0262 94.1002 44.4759C93.8123 46.0104 95.0666 48.1395 96.3964 49.121L96.5403 48.8169C96.7495 48.3183 97.0288 47.8526 97.3697 47.4344C97.388 47.4064 97.4143 47.3848 97.4451 47.3722L96.6294 46.2109Z" fill="black"/>
<path d="M100.913 39.4638C103.723 35.3163 103.552 32.7656 106.02 30.6919C107.247 30.3186 109.008 32.7656 107.192 36.2219C105.375 39.6781 100.913 39.4638 100.913 39.4638Z" fill="#263238"/>
<path d="M92.4837 33.4089C91.5789 38.5103 90.8318 41.4481 92.7442 44.5656C95.6367 49.2938 102.34 48.3606 104.732 43.6048C106.878 39.326 107.954 31.7154 103.526 28.6255C102.536 27.9446 101.392 27.5266 100.199 27.4103C99.0063 27.294 97.8037 27.4831 96.7027 27.96C95.6017 28.437 94.6378 29.1864 93.9003 30.1388C93.1628 31.0913 92.6756 32.2161 92.4837 33.4089Z" fill="#FED1BC"/>
<path d="M91.3105 37.8884L93.8535 39.893L94.772 35.4483L97.1916 34.4322L100.461 30.6234C100.461 30.6234 94.7172 28.1073 92.9693 27.6372C92.3593 27.4782 89.9602 28.9091 89.5421 29.5866C88.9986 30.5394 88.7287 31.6259 88.7626 32.7246C88.7965 33.8233 89.1328 34.8909 89.734 35.8078C90.1882 36.5534 90.7165 37.2506 91.3105 37.8884Z" fill="#263238"/>
<path d="M89.5293 36.782C89.5254 37.9389 89.9452 39.0565 90.7083 39.9203C91.7022 41.0263 93.1279 40.0585 93.45 38.6138C93.7036 37.3281 93.2307 35.365 91.9558 34.8051C90.6809 34.2452 89.5362 35.3442 89.5293 36.782Z" fill="#FED1BC"/>
<path d="M99.8302 37.2176C99.7137 37.6254 99.8303 38.0332 100.098 38.1231C100.365 38.2129 100.646 37.9434 100.783 37.5355C100.863 37.3778 100.88 37.1953 100.83 37.0255C100.78 36.8558 100.668 36.7117 100.516 36.6231C100.255 36.5332 99.9468 36.7959 99.8302 37.2176Z" fill="#263238"/>
<path d="M104.43 38.7244C104.313 39.1392 104.43 39.547 104.704 39.6369C104.978 39.7268 105.273 39.4572 105.39 39.0493C105.506 38.6415 105.39 38.2267 105.122 38.1438C104.855 38.0608 104.546 38.289 104.43 38.7244Z" fill="#263238"/>
<path d="M102.895 38.5312C102.929 39.7515 103.121 40.9621 103.464 42.1326C103.169 42.2086 102.861 42.2176 102.563 42.159C102.264 42.1005 101.982 41.9758 101.736 41.7939L102.895 38.5312Z" fill="#FF5652"/>
<path d="M100.66 44.1091C100.184 43.9716 99.7408 43.7384 99.3567 43.4236C98.9727 43.1088 98.6559 42.7189 98.4252 42.2773C98.4106 42.2469 98.4081 42.212 98.4183 42.1798C98.4285 42.1476 98.4506 42.1206 98.4801 42.1045C98.512 42.0924 98.5473 42.0928 98.579 42.1056C98.6107 42.1184 98.6365 42.1426 98.6514 42.1736C98.9087 42.6503 99.2712 43.0609 99.711 43.3737C100.151 43.6866 100.656 43.8932 101.188 43.9777C101.216 43.9845 101.242 44.0008 101.26 44.024C101.278 44.0472 101.288 44.076 101.288 44.1056C101.288 44.1352 101.278 44.164 101.26 44.1872C101.242 44.2104 101.216 44.2267 101.188 44.2335C101.009 44.2035 100.833 44.1619 100.66 44.1091Z" fill="#263238"/>
<path d="M99.3449 35.4618C99.3083 35.44 99.2759 35.412 99.2489 35.3789C99.2131 35.3231 99.1995 35.2558 99.211 35.1904C99.2224 35.1249 99.258 35.0663 99.3106 35.0263C99.6291 34.7908 100 34.638 100.391 34.5813C100.782 34.5247 101.181 34.5659 101.552 34.7014C101.583 34.7128 101.611 34.7304 101.635 34.7532C101.659 34.776 101.677 34.8035 101.69 34.8339C101.703 34.8644 101.71 34.8972 101.709 34.9303C101.709 34.9633 101.702 34.996 101.689 35.0263C101.676 35.0573 101.656 35.0853 101.632 35.1087C101.608 35.132 101.58 35.1504 101.548 35.1626C101.517 35.1748 101.484 35.1806 101.45 35.1798C101.417 35.1789 101.384 35.1714 101.353 35.1577C101.06 35.0578 100.748 35.0308 100.442 35.0789C100.137 35.1271 99.8473 35.2489 99.5985 35.4342C99.5631 35.4624 99.5205 35.4799 99.4756 35.4848C99.4308 35.4897 99.3855 35.4817 99.3449 35.4618Z" fill="#263238"/>
<path d="M105.219 36.0227C105.207 35.9795 105.207 35.9338 105.22 35.8909C105.233 35.848 105.258 35.8097 105.292 35.7806C105.326 35.7516 105.367 35.7329 105.411 35.7268C105.455 35.7207 105.5 35.7274 105.541 35.7462C105.916 35.875 106.254 36.096 106.523 36.3892C106.793 36.6825 106.985 37.0388 107.084 37.426C107.09 37.4582 107.09 37.4913 107.084 37.5236C107.077 37.5558 107.064 37.5864 107.046 37.6137C107.028 37.6409 107.005 37.6643 106.978 37.6825C106.951 37.7007 106.92 37.7134 106.888 37.7198C106.856 37.7261 106.823 37.726 106.791 37.7196C106.759 37.7131 106.729 37.7004 106.702 37.6821C106.675 37.6638 106.652 37.6403 106.634 37.613C106.616 37.5856 106.603 37.555 106.597 37.5227C106.511 37.2223 106.355 36.9472 106.142 36.7209C105.928 36.4946 105.663 36.3238 105.369 36.2232C105.329 36.2057 105.294 36.1781 105.268 36.143C105.241 36.1078 105.224 36.0664 105.219 36.0227Z" fill="#263238"/>
<path d="M103.394 94.8557L86.8206 93.2313C86.8206 93.2313 86.7658 92.9133 88.1915 92.8373C88.26 92.8373 88.3834 92.8373 88.5616 92.8373C88.8426 92.8373 89.9736 92.7543 91.4747 92.6783C91.5638 92.6783 91.7283 92.6783 91.9614 92.6783C96.2933 92.4709 103.141 92.1875 103.141 92.1875L103.353 94.441L103.394 94.8557Z" fill="#FFA319"/>
<path opacity="0.2" d="M103.353 94.3987L90.8989 93.1338C90.8989 93.1338 90.4053 92.7674 91.4746 92.6568C91.5637 92.6568 91.7282 92.6568 91.9613 92.6568C96.2932 92.4494 103.141 92.166 103.141 92.166L103.353 94.3987Z" fill="white"/>
<path d="M95.5454 87.8047L98.0404 88.4476L94.7434 93.6112C94.7434 93.6112 89.4861 91.9453 90.4526 89.6296L91.7275 88.8278C92.8173 88.1503 94.2088 87.4176 95.5454 87.8047Z" fill="#FED1BC"/>
<path d="M100.365 91.8332L97.9931 94.4253L94.7441 93.6235L98.0411 88.4668L100.365 91.8332Z" fill="#FED1BC"/>
<path d="M81.1448 66.8311C79.5888 71.58 77.9164 72.209 79.815 74.6975C81.7137 77.186 92.4682 85.6952 94.4834 88.2114L91.1041 90.8035C87.1286 88.5869 83.1302 86.4141 79.109 84.2851C76.1754 82.7298 73.0498 81.0293 71.5144 78.0639C69.321 73.8127 70.5548 69.7689 73.0086 64.2389C75.4077 63.8449 81.1448 66.8311 81.1448 66.8311Z" fill="#FED1BC"/>
<path d="M80.4456 49.0937C85.7577 48.0568 88.568 52.5499 86.3266 59.573C85.1821 63.3613 83.6954 67.0357 81.885 70.55L70.1641 65.9324C71.9873 59.0407 75.0169 50.179 80.4456 49.0937Z" fill="#263238"/>
<path d="M101.564 95.6974L131.484 94.4739C131.632 94.4667 131.772 94.4012 131.873 94.2914C131.974 94.1816 132.029 94.0362 132.025 93.8863C132.018 93.7353 131.952 93.5933 131.842 93.4911C131.731 93.3888 131.586 93.3346 131.436 93.3402L101.523 94.5637C101.45 94.5664 101.377 94.5837 101.31 94.6147C101.243 94.6457 101.182 94.6897 101.132 94.7443C101.082 94.7989 101.042 94.8629 101.017 94.9328C100.991 95.0026 100.979 95.0769 100.982 95.1513C100.989 95.301 101.054 95.442 101.163 95.5441C101.272 95.6462 101.416 95.7012 101.564 95.6974Z" fill="#263238"/>
<path d="M87.0057 94.2053L101.331 95.6846C101.405 95.6932 101.479 95.6869 101.55 95.666C101.621 95.6452 101.688 95.6102 101.745 95.5632C101.803 95.5162 101.85 95.4581 101.885 95.3923C101.92 95.3265 101.941 95.2543 101.948 95.18C101.957 95.1058 101.951 95.0307 101.93 94.959C101.909 94.8874 101.875 94.8206 101.828 94.7627C101.781 94.7047 101.724 94.6567 101.658 94.6215C101.593 94.5864 101.522 94.5647 101.448 94.5578L87.1291 93.0786C86.9813 93.0649 86.8341 93.11 86.7189 93.2043C86.6036 93.2986 86.5295 93.4345 86.5122 93.5832C86.4986 93.7311 86.5424 93.8787 86.6344 93.9947C86.7265 94.1107 86.8596 94.1862 87.0057 94.2053Z" fill="#FFA319"/>
<path opacity="0.4" d="M87.0057 94.2053L101.331 95.6846C101.405 95.6932 101.479 95.6869 101.55 95.666C101.621 95.6452 101.688 95.6102 101.745 95.5632C101.803 95.5162 101.85 95.4581 101.885 95.3923C101.92 95.3265 101.941 95.2543 101.948 95.18C101.957 95.1058 101.951 95.0307 101.93 94.959C101.909 94.8874 101.875 94.8206 101.828 94.7627C101.781 94.7047 101.724 94.6567 101.658 94.6215C101.593 94.5864 101.522 94.5647 101.448 94.5578L87.1291 93.0786C86.9813 93.0649 86.8341 93.11 86.7189 93.2043C86.6036 93.2986 86.5295 93.4345 86.5122 93.5832C86.4986 93.7311 86.5424 93.8787 86.6344 93.9947C86.7265 94.1107 86.8596 94.1862 87.0057 94.2053Z" fill="black"/>
<path d="M102.332 94.5294L130.229 93.3888C130.716 93.358 131.175 93.1495 131.521 92.8022C131.866 92.4549 132.075 91.9927 132.107 91.5017L132.793 77.2067C132.806 76.9761 132.772 76.7452 132.691 76.529C132.61 76.3127 132.486 76.1161 132.325 75.9517C132.164 75.7874 131.97 75.6591 131.757 75.5752C131.543 75.4913 131.315 75.4537 131.086 75.4648L103.182 76.6053C102.696 76.6378 102.238 76.847 101.894 77.1941C101.55 77.5412 101.343 78.0026 101.31 78.4925L100.625 92.7874C100.609 93.0185 100.642 93.2505 100.722 93.4677C100.802 93.6849 100.927 93.8825 101.088 94.0473C101.25 94.2121 101.444 94.3404 101.658 94.4235C101.873 94.5066 102.102 94.5427 102.332 94.5294Z" fill="#FFA319"/>
<path opacity="0.4" d="M102.332 94.5294L130.229 93.3888C130.716 93.358 131.175 93.1495 131.521 92.8022C131.866 92.4549 132.075 91.9927 132.107 91.5017L132.793 77.2067C132.806 76.9761 132.772 76.7452 132.691 76.529C132.61 76.3127 132.486 76.1161 132.325 75.9517C132.164 75.7874 131.97 75.6591 131.757 75.5752C131.543 75.4913 131.315 75.4537 131.086 75.4648L103.182 76.6053C102.696 76.6378 102.238 76.847 101.894 77.1941C101.55 77.5412 101.343 78.0026 101.31 78.4925L100.625 92.7874C100.609 93.0185 100.642 93.2505 100.722 93.4677C100.802 93.6849 100.927 93.8825 101.088 94.0473C101.25 94.2121 101.444 94.3404 101.658 94.4235C101.873 94.5066 102.102 94.5427 102.332 94.5294Z" fill="black"/>
<path d="M103.147 94.4334L131.051 93.2928C131.536 93.262 131.994 93.0542 132.338 92.7082C132.682 92.3623 132.89 91.9018 132.923 91.4126L133.608 77.1108C133.623 76.8802 133.589 76.6491 133.509 76.4326C133.429 76.2162 133.304 76.0195 133.142 75.8555C132.981 75.6915 132.787 75.5639 132.573 75.4812C132.359 75.3984 132.13 75.3625 131.901 75.3757L104.004 76.5163C103.517 76.544 103.057 76.7506 102.711 77.097C102.365 77.4435 102.157 77.9057 102.126 78.3965L101.44 92.6984C101.427 92.9287 101.461 93.1593 101.542 93.3752C101.623 93.5911 101.748 93.7874 101.909 93.9512C102.07 94.115 102.263 94.2426 102.477 94.3257C102.69 94.4088 102.919 94.4455 103.147 94.4334Z" fill="#FFA319"/>
<path opacity="0.5" d="M103.147 94.4334L131.051 93.2928C131.536 93.262 131.994 93.0542 132.338 92.7082C132.682 92.3623 132.89 91.9018 132.923 91.4126L133.608 77.1108C133.623 76.8802 133.589 76.6491 133.509 76.4326C133.429 76.2162 133.304 76.0195 133.142 75.8555C132.981 75.6915 132.787 75.5639 132.573 75.4812C132.359 75.3984 132.13 75.3625 131.901 75.3757L104.004 76.5163C103.517 76.544 103.057 76.7506 102.711 77.097C102.365 77.4435 102.157 77.9057 102.126 78.3965L101.44 92.6984C101.427 92.9287 101.461 93.1593 101.542 93.3752C101.623 93.5911 101.748 93.7874 101.909 93.9512C102.07 94.115 102.263 94.2426 102.477 94.3257C102.69 94.4088 102.919 94.4455 103.147 94.4334Z" fill="white"/>
<path d="M121.326 85.418C121.291 86.1912 120.976 86.9246 120.44 87.4789C119.904 88.0332 119.185 88.3698 118.42 88.4249C118.058 88.4541 117.693 88.4048 117.352 88.2802C117.01 88.1555 116.699 87.9586 116.439 87.7025C116.179 87.4464 115.977 87.1371 115.846 86.7955C115.714 86.4539 115.657 86.0879 115.678 85.7221C115.714 84.9494 116.03 84.2168 116.566 83.6628C117.101 83.1089 117.819 82.7718 118.584 82.7152C118.946 82.686 119.31 82.7353 119.652 82.8599C119.994 82.9846 120.305 83.1815 120.565 83.4376C120.825 83.6937 121.027 84.003 121.158 84.3446C121.29 84.6862 121.347 85.0522 121.326 85.418Z" fill="white"/>
<path d="M92.0433 24.0639C92.5781 23.557 93.2197 23.1787 93.92 22.9572C94.6203 22.7358 95.3613 22.6769 96.0874 22.7851C97.5362 23.0284 98.9394 23.4947 100.248 24.1676L108.172 27.6653C108.918 27.8921 109.558 28.383 109.974 29.0478C110.427 30.0709 109.659 31.3013 108.638 31.7368C107.58 32.0814 106.447 32.1197 105.368 31.8474C101.662 31.2024 98.011 30.2663 94.4491 29.0478C92.2352 28.3151 89.562 26.7391 92.0433 24.0639Z" fill="#263238"/>
<path d="M102.538 30.8653C102.173 31.0604 101.895 31.3885 101.761 31.7827C101.628 32.1769 101.648 32.6078 101.818 32.9875C101.861 32.7266 101.97 32.4813 102.135 32.2754C102.299 32.0695 102.514 31.91 102.757 31.8123C103.244 31.5497 103.711 30.9206 103.347 30.5059C103.067 30.6007 102.796 30.721 102.538 30.8653Z" fill="#263238"/>
<path d="M104.684 30.9635C104.885 31.4397 104.938 31.9658 104.836 32.4729C104.735 32.9799 104.483 33.4441 104.115 33.8045C104.421 33.7669 104.716 33.6649 104.98 33.5052C105.244 33.3455 105.472 33.1317 105.649 32.8776C105.826 32.6235 105.948 32.3348 106.008 32.0301C106.067 31.7254 106.063 31.4115 105.994 31.1087L104.842 30.8184L104.684 30.9635Z" fill="#263238"/>
</svg>
