<svg width="1484" height="174" viewBox="0 0 1484 174" fill="none" xmlns="http://www.w3.org/2000/svg">
<g filter="url(#filter0_d_1297_5186)">
<rect x="22" y="18" width="1440" height="64" fill="white"/>
</g>
<g clip-path="url(#clip0_1297_5186)">
<path d="M1297.5 65C1298.84 65 1299.93 63.8809 1299.93 62.5H1295.07C1295.07 63.8809 1296.16 65 1297.5 65ZM1305.67 59.152C1304.94 58.341 1303.57 57.1211 1303.57 53.125C1303.57 50.0898 1301.5 47.6602 1298.71 47.0641V46.25C1298.71 45.5598 1298.17 45 1297.5 45C1296.83 45 1296.29 45.5598 1296.29 46.25V47.0641C1293.5 47.6602 1291.43 50.0898 1291.43 53.125C1291.43 57.1211 1290.06 58.341 1289.33 59.152C1289.1 59.4039 1289 59.7051 1289 60C1289 60.6406 1289.49 61.25 1290.22 61.25H1304.78C1305.51 61.25 1306 60.6406 1306 60C1306 59.7051 1305.9 59.4035 1305.67 59.152V59.152Z" fill="#2F2F2F"/>
</g>
<circle cx="1304" cy="46" r="5.5" fill="#6776FF" stroke="white"/>
<path d="M723.44 46.56H729.968V47.744H724.832V58H723.44V46.56ZM732.475 54.768C732.379 55.92 732.177 56.7627 731.867 57.296C731.558 57.8187 731.073 58.08 730.411 58.08C730.273 58.08 730.129 58.0693 729.979 58.048L729.851 58V56.736L729.963 56.768C730.07 56.7893 730.182 56.8 730.299 56.8C730.47 56.8 730.609 56.752 730.715 56.656C730.833 56.5493 730.923 56.384 730.987 56.16C731.062 55.936 731.115 55.728 731.147 55.536C731.179 55.3333 731.217 55.0507 731.259 54.688C731.302 54.304 731.366 53.216 731.451 51.424L731.499 49.632H737.019V58H735.691V50.752H732.683C732.587 53.056 732.518 54.3947 732.475 54.768ZM741.895 58.144C741.074 58.144 740.402 57.9413 739.879 57.536C739.367 57.12 739.111 56.5013 739.111 55.68C739.111 55.2213 739.223 54.8213 739.447 54.48C739.682 54.128 740.002 53.856 740.407 53.664C740.813 53.4613 741.255 53.3173 741.735 53.232C742.215 53.136 742.738 53.088 743.303 53.088H744.503V52.48C744.503 51.808 744.365 51.328 744.087 51.04C743.81 50.7413 743.351 50.592 742.711 50.592C741.559 50.592 740.919 51.0933 740.791 52.096H739.463C739.549 51.2 739.895 50.544 740.503 50.128C741.122 49.7013 741.879 49.488 742.775 49.488C744.813 49.488 745.831 50.4853 745.831 52.48V58H744.503V56.944C743.863 57.744 742.994 58.144 741.895 58.144ZM742.023 57.088C742.749 57.088 743.341 56.912 743.799 56.56C744.269 56.1973 744.503 55.7013 744.503 55.072V54.032H743.351C741.41 54.032 740.439 54.5813 740.439 55.68C740.439 56.6187 740.967 57.088 742.023 57.088ZM748.344 49.632H751.272C753.235 49.632 754.216 50.3413 754.216 51.76V51.808C754.216 52.2133 754.104 52.5867 753.88 52.928C753.656 53.2587 753.32 53.4827 752.872 53.6C754.035 53.856 754.616 54.4853 754.616 55.488V55.536C754.616 56.3467 754.349 56.96 753.816 57.376C753.293 57.792 752.563 58 751.624 58H748.344V49.632ZM749.672 50.688V53.168H751.272C751.827 53.168 752.221 53.0667 752.456 52.864C752.701 52.6613 752.824 52.3307 752.824 51.872V51.824C752.824 51.3973 752.696 51.104 752.44 50.944C752.195 50.7733 751.8 50.688 751.256 50.688H749.672ZM749.672 54.224V56.944H751.496C752.083 56.944 752.515 56.8427 752.792 56.64C753.08 56.4267 753.224 56.0853 753.224 55.616V55.568C753.224 55.0987 753.08 54.7573 752.792 54.544C752.515 54.3307 752.083 54.224 751.496 54.224H749.672ZM762.175 54.272H758.063V58H756.735V49.632H758.063V53.152H762.175V49.632H763.503V58H762.175V54.272ZM768.38 58.144C767.558 58.144 766.886 57.9413 766.364 57.536C765.852 57.12 765.596 56.5013 765.596 55.68C765.596 55.2213 765.708 54.8213 765.932 54.48C766.166 54.128 766.486 53.856 766.892 53.664C767.297 53.4613 767.74 53.3173 768.22 53.232C768.7 53.136 769.222 53.088 769.788 53.088H770.988V52.48C770.988 51.808 770.849 51.328 770.572 51.04C770.294 50.7413 769.836 50.592 769.196 50.592C768.044 50.592 767.404 51.0933 767.276 52.096H765.948C766.033 51.2 766.38 50.544 766.988 50.128C767.606 49.7013 768.364 49.488 769.26 49.488C771.297 49.488 772.316 50.4853 772.316 52.48V58H770.988V56.944C770.348 57.744 769.478 58.144 768.38 58.144ZM768.508 57.088C769.233 57.088 769.825 56.912 770.284 56.56C770.753 56.1973 770.988 55.7013 770.988 55.072V54.032H769.836C767.894 54.032 766.924 54.5813 766.924 55.68C766.924 56.6187 767.452 57.088 768.508 57.088ZM777.612 50.688C776.418 50.688 775.82 51.1947 775.82 52.208V52.256C775.82 52.736 775.959 53.0987 776.236 53.344C776.514 53.5893 776.972 53.712 777.612 53.712H779.18V50.688H777.612ZM775.404 58H773.884L776.428 54.496C775.138 54.2293 774.492 53.4827 774.492 52.256V52.208C774.492 51.3333 774.791 50.688 775.388 50.272C775.986 49.8453 776.754 49.632 777.692 49.632H780.508V58H779.18V54.72H777.74L775.404 58Z" fill="#2F2F2F"/>
<path d="M836.64 56.992C837.899 56.992 838.896 56.56 839.632 55.696C840.379 54.832 840.752 53.7013 840.752 52.304V52.176C840.752 50.8533 840.379 49.7493 839.632 48.864C838.885 47.9787 837.877 47.536 836.608 47.536C835.307 47.536 834.283 47.968 833.536 48.832C832.789 49.6853 832.416 50.8107 832.416 52.208V52.336C832.416 53.7013 832.816 54.8213 833.616 55.696C834.427 56.56 835.435 56.992 836.64 56.992ZM836.64 58.144C834.976 58.144 833.616 57.5893 832.56 56.48C831.504 55.36 830.976 53.984 830.976 52.352V52.224C830.976 50.5707 831.499 49.1893 832.544 48.08C833.6 46.9707 834.955 46.416 836.608 46.416C838.261 46.416 839.605 46.9707 840.64 48.08C841.675 49.1787 842.192 50.5493 842.192 52.192V52.32C842.192 53.9627 841.675 55.344 840.64 56.464C839.605 57.584 838.272 58.144 836.64 58.144ZM847.913 58.144C846.654 58.144 845.657 57.7387 844.921 56.928C844.185 56.1173 843.817 54.8853 843.817 53.232V52.72C843.817 51.9307 843.849 51.232 843.913 50.624C843.977 50.0053 844.11 49.3867 844.313 48.768C844.515 48.1387 844.782 47.616 845.113 47.2C845.443 46.784 845.891 46.4373 846.457 46.16C847.033 45.8827 847.71 45.7227 848.489 45.68L848.809 45.664C849.982 45.6 850.777 45.4827 851.193 45.312L851.369 46.432C850.825 46.6667 849.977 46.8107 848.825 46.864L848.585 46.88C847.294 46.944 846.371 47.3653 845.817 48.144C845.273 48.912 844.953 50.1067 844.857 51.728H844.921C845.209 51.1413 845.635 50.6773 846.201 50.336C846.777 49.984 847.443 49.808 848.201 49.808C849.363 49.808 850.291 50.1867 850.985 50.944C851.689 51.6907 852.041 52.6613 852.041 53.856V53.92C852.041 55.2107 851.651 56.24 850.873 57.008C850.105 57.7653 849.118 58.144 847.913 58.144ZM845.913 56.224C846.403 56.768 847.075 57.04 847.929 57.04C848.782 57.04 849.449 56.7733 849.929 56.24C850.419 55.696 850.665 54.928 850.665 53.936V53.904C850.665 52.976 850.441 52.2453 849.993 51.712C849.555 51.1787 848.915 50.912 848.073 50.912C847.187 50.912 846.483 51.1893 845.961 51.744C845.449 52.2987 845.193 53.056 845.193 54.016V54.048C845.193 54.9547 845.433 55.68 845.913 56.224ZM856.307 57.136L853.027 49.632H854.451L857.011 55.632L859.331 49.632H860.691L856.067 60.912H854.723L856.307 57.136ZM867.224 58V54.096C866.648 54.7147 865.848 55.024 864.824 55.024C864.003 55.024 863.331 54.7627 862.808 54.24C862.285 53.7067 862.024 52.896 862.024 51.808V49.632H863.352V51.744C863.352 53.1627 863.96 53.872 865.176 53.872C866.083 53.872 866.765 53.5627 867.224 52.944V49.632H868.552V58H867.224ZM874.755 58.144C873.56 58.144 872.584 57.7547 871.827 56.976C871.08 56.1973 870.707 55.1733 870.707 53.904V53.776C870.707 52.5173 871.069 51.488 871.795 50.688C872.531 49.888 873.475 49.488 874.627 49.488C875.693 49.488 876.584 49.8347 877.299 50.528C878.024 51.2107 878.387 52.2507 878.387 53.648V54.08H872.083C872.147 56.0533 873.043 57.04 874.771 57.04C876.083 57.04 876.824 56.5547 876.995 55.584H878.323C878.173 56.416 877.784 57.0507 877.155 57.488C876.525 57.9253 875.725 58.144 874.755 58.144ZM877.027 53.008C876.909 51.3973 876.109 50.592 874.627 50.592C873.955 50.592 873.4 50.8053 872.963 51.232C872.525 51.6587 872.248 52.2507 872.131 53.008H877.027ZM885.768 54.272H881.656V58H880.328V49.632H881.656V53.152H885.768V49.632H887.096V58H885.768V54.272ZM889.782 58V49.632H891.11V56.08L895.382 49.632H896.71V58H895.382V51.552L891.11 58H889.782ZM902.755 58.144C901.56 58.144 900.584 57.7547 899.827 56.976C899.08 56.1973 898.707 55.1733 898.707 53.904V53.776C898.707 52.5173 899.069 51.488 899.795 50.688C900.531 49.888 901.475 49.488 902.627 49.488C903.693 49.488 904.584 49.8347 905.299 50.528C906.024 51.2107 906.387 52.2507 906.387 53.648V54.08H900.083C900.147 56.0533 901.043 57.04 902.771 57.04C904.083 57.04 904.824 56.5547 904.995 55.584H906.323C906.173 56.416 905.784 57.0507 905.155 57.488C904.525 57.9253 903.725 58.144 902.755 58.144ZM905.027 53.008C904.909 51.3973 904.109 50.592 902.627 50.592C901.955 50.592 901.4 50.8053 900.963 51.232C900.525 51.6587 900.248 52.2507 900.131 53.008H905.027Z" fill="#2F2F2F"/>
<path d="M956.536 46.56H958.472L962.008 55.472L965.432 46.56H967.352V58H965.96V48.368L962.168 58H961.736L957.816 48.368V58H956.536V46.56ZM973.567 58.144C972.372 58.144 971.396 57.7547 970.639 56.976C969.892 56.1973 969.519 55.1733 969.519 53.904V53.776C969.519 52.5173 969.882 51.488 970.607 50.688C971.343 49.888 972.287 49.488 973.439 49.488C974.506 49.488 975.396 49.8347 976.111 50.528C976.836 51.2107 977.199 52.2507 977.199 53.648V54.08H970.895C970.959 56.0533 971.855 57.04 973.583 57.04C974.895 57.04 975.636 56.5547 975.807 55.584H977.135C976.986 56.416 976.596 57.0507 975.967 57.488C975.338 57.9253 974.538 58.144 973.567 58.144ZM975.839 53.008C975.722 51.3973 974.922 50.592 973.439 50.592C972.767 50.592 972.212 50.8053 971.775 51.232C971.338 51.6587 971.06 52.2507 970.943 53.008H975.839ZM979.237 49.632H980.565V51.04C980.81 50.6133 981.194 50.2507 981.717 49.952C982.24 49.6427 982.8 49.488 983.397 49.488C984.517 49.488 985.429 49.8667 986.133 50.624C986.848 51.3813 987.205 52.4053 987.205 53.696V53.824C987.205 55.1147 986.853 56.16 986.149 56.96C985.456 57.7493 984.538 58.144 983.397 58.144C982.117 58.144 981.173 57.6373 980.565 56.624V60.912H979.237V49.632ZM983.269 57.04C984.101 57.04 984.736 56.7733 985.173 56.24C985.61 55.696 985.829 54.912 985.829 53.888V53.76C985.829 52.7467 985.584 51.968 985.093 51.424C984.613 50.8693 984 50.592 983.253 50.592C982.442 50.592 981.781 50.864 981.269 51.408C980.768 51.9413 980.517 52.7253 980.517 53.76V53.888C980.517 54.9227 980.762 55.7067 981.253 56.24C981.754 56.7733 982.426 57.04 983.269 57.04ZM992.756 57.04C993.588 57.04 994.249 56.752 994.74 56.176C995.241 55.6 995.492 54.8373 995.492 53.888V53.776C995.492 52.8053 995.241 52.032 994.74 51.456C994.249 50.88 993.588 50.592 992.756 50.592C991.913 50.592 991.247 50.88 990.756 51.456C990.265 52.032 990.02 52.8 990.02 53.76V53.888C990.02 54.8587 990.26 55.6267 990.74 56.192C991.231 56.7573 991.903 57.04 992.756 57.04ZM992.74 58.144C991.556 58.144 990.575 57.744 989.796 56.944C989.028 56.1333 988.644 55.1147 988.644 53.888V53.76C988.644 52.512 989.028 51.488 989.796 50.688C990.575 49.888 991.561 49.488 992.756 49.488C993.951 49.488 994.932 49.888 995.7 50.688C996.479 51.4773 996.868 52.496 996.868 53.744V53.872C996.868 55.1307 996.479 56.16 995.7 56.96C994.921 57.7493 993.935 58.144 992.74 58.144ZM1004.11 50.752H1000.16V58H998.828V49.632H1005.44V58H1004.11V50.752ZM1008.22 49.632H1009.55V51.04C1009.79 50.6133 1010.18 50.2507 1010.7 49.952C1011.22 49.6427 1011.78 49.488 1012.38 49.488C1013.5 49.488 1014.41 49.8667 1015.12 50.624C1015.83 51.3813 1016.19 52.4053 1016.19 53.696V53.824C1016.19 55.1147 1015.84 56.16 1015.13 56.96C1014.44 57.7493 1013.52 58.144 1012.38 58.144C1011.1 58.144 1010.16 57.6373 1009.55 56.624V60.912H1008.22V49.632ZM1012.25 57.04C1013.09 57.04 1013.72 56.7733 1014.16 56.24C1014.59 55.696 1014.81 54.912 1014.81 53.888V53.76C1014.81 52.7467 1014.57 51.968 1014.08 51.424C1013.6 50.8693 1012.98 50.592 1012.24 50.592C1011.43 50.592 1010.77 50.864 1010.25 51.408C1009.75 51.9413 1009.5 52.7253 1009.5 53.76V53.888C1009.5 54.9227 1009.75 55.7067 1010.24 56.24C1010.74 56.7733 1011.41 57.04 1012.25 57.04ZM1018.16 58V49.632H1019.48V56.08L1023.76 49.632H1025.08V58H1023.76V51.552L1019.48 58H1018.16ZM1030.39 50.688C1029.2 50.688 1028.6 51.1947 1028.6 52.208V52.256C1028.6 52.736 1028.74 53.0987 1029.02 53.344C1029.29 53.5893 1029.75 53.712 1030.39 53.712H1031.96V50.688H1030.39ZM1028.19 58H1026.67L1029.21 54.496C1027.92 54.2293 1027.27 53.4827 1027.27 52.256V52.208C1027.27 51.3333 1027.57 50.688 1028.17 50.272C1028.77 49.8453 1029.53 49.632 1030.47 49.632H1033.29V58H1031.96V54.72H1030.52L1028.19 58ZM1041.86 50.752H1039.15V58H1037.82V50.752H1035.12V49.632H1041.86V50.752ZM1043.69 58V49.632H1045.02V56.08L1049.29 49.632H1050.62V58H1049.29V51.552L1045.02 58H1043.69ZM1055.92 50.688C1054.73 50.688 1054.13 51.1947 1054.13 52.208V52.256C1054.13 52.736 1054.27 53.0987 1054.55 53.344C1054.83 53.5893 1055.28 53.712 1055.92 53.712H1057.49V50.688H1055.92ZM1053.72 58H1052.2L1054.74 54.496C1053.45 54.2293 1052.8 53.4827 1052.8 52.256V52.208C1052.8 51.3333 1053.1 50.688 1053.7 50.272C1054.3 49.8453 1055.07 49.632 1056 49.632H1058.82V58H1057.49V54.72H1056.05L1053.72 58Z" fill="#2F2F2F"/>
<path d="M1110.54 46.56H1112.47L1116.01 55.472L1119.43 46.56H1121.35V58H1119.96V48.368L1116.17 58H1115.74L1111.82 48.368V58H1110.54V46.56ZM1126.24 58.144C1125.42 58.144 1124.75 57.9413 1124.22 57.536C1123.71 57.12 1123.46 56.5013 1123.46 55.68C1123.46 55.2213 1123.57 54.8213 1123.79 54.48C1124.03 54.128 1124.35 53.856 1124.75 53.664C1125.16 53.4613 1125.6 53.3173 1126.08 53.232C1126.56 53.136 1127.08 53.088 1127.65 53.088H1128.85V52.48C1128.85 51.808 1128.71 51.328 1128.43 51.04C1128.15 50.7413 1127.7 50.592 1127.06 50.592C1125.9 50.592 1125.26 51.0933 1125.14 52.096H1123.81C1123.89 51.2 1124.24 50.544 1124.85 50.128C1125.47 49.7013 1126.22 49.488 1127.12 49.488C1129.16 49.488 1130.18 50.4853 1130.18 52.48V58H1128.85V56.944C1128.21 57.744 1127.34 58.144 1126.24 58.144ZM1126.37 57.088C1127.09 57.088 1127.68 56.912 1128.14 56.56C1128.61 56.1973 1128.85 55.7013 1128.85 55.072V54.032H1127.7C1125.75 54.032 1124.78 54.5813 1124.78 55.68C1124.78 56.6187 1125.31 57.088 1126.37 57.088ZM1134.02 50.752V58H1132.69V49.632H1138V50.752H1134.02ZM1141.94 58.144C1141.12 58.144 1140.45 57.9413 1139.93 57.536C1139.41 57.12 1139.16 56.5013 1139.16 55.68C1139.16 55.2213 1139.27 54.8213 1139.49 54.48C1139.73 54.128 1140.05 53.856 1140.45 53.664C1140.86 53.4613 1141.3 53.3173 1141.78 53.232C1142.26 53.136 1142.78 53.088 1143.35 53.088H1144.55V52.48C1144.55 51.808 1144.41 51.328 1144.13 51.04C1143.86 50.7413 1143.4 50.592 1142.76 50.592C1141.61 50.592 1140.97 51.0933 1140.84 52.096H1139.51C1139.6 51.2 1139.94 50.544 1140.55 50.128C1141.17 49.7013 1141.93 49.488 1142.82 49.488C1144.86 49.488 1145.88 50.4853 1145.88 52.48V58H1144.55V56.944C1143.91 57.744 1143.04 58.144 1141.94 58.144ZM1142.07 57.088C1142.8 57.088 1143.39 56.912 1143.85 56.56C1144.32 56.1973 1144.55 55.7013 1144.55 55.072V54.032H1143.4C1141.46 54.032 1140.49 54.5813 1140.49 55.68C1140.49 56.6187 1141.01 57.088 1142.07 57.088ZM1153.78 51.808C1153.78 52.224 1153.66 52.608 1153.41 52.96C1153.18 53.3013 1152.84 53.5147 1152.41 53.6C1152.95 53.696 1153.38 53.904 1153.7 54.224C1154.02 54.544 1154.18 54.9653 1154.18 55.488V55.536C1154.18 56.3147 1153.89 56.944 1153.32 57.424C1152.75 57.904 1151.98 58.144 1151 58.144C1149.99 58.144 1149.19 57.9093 1148.61 57.44C1148.05 56.96 1147.75 56.288 1147.7 55.424H1149C1149.06 55.9573 1149.24 56.3627 1149.54 56.64C1149.85 56.9067 1150.34 57.04 1151 57.04C1152.19 57.04 1152.79 56.5653 1152.79 55.616V55.568C1152.79 55.0987 1152.65 54.7573 1152.36 54.544C1152.08 54.3307 1151.65 54.224 1151.06 54.224H1149.8V53.168H1150.84C1151.39 53.168 1151.79 53.0667 1152.02 52.864C1152.27 52.6613 1152.39 52.3307 1152.39 51.872V51.824C1152.39 51.0027 1151.91 50.592 1150.95 50.592C1150.02 50.592 1149.47 51.0293 1149.29 51.904H1148.01C1148.1 51.0613 1148.42 50.448 1148.97 50.064C1149.52 49.68 1150.21 49.488 1151.03 49.488C1151.82 49.488 1152.48 49.6907 1153 50.096C1153.52 50.4907 1153.78 51.0453 1153.78 51.76V51.808ZM1156.3 58V49.632H1157.63V56.08L1161.9 49.632H1163.23V58H1161.9V51.552L1157.63 58H1156.3ZM1171.19 54.272H1167.08V58H1165.75V49.632H1167.08V53.152H1171.19V49.632H1172.52V58H1171.19V54.272Z" fill="#2F2F2F"/>
<path fill-rule="evenodd" clip-rule="evenodd" d="M1336 29C1330.48 29 1326 33.4772 1326 39V66C1326 74.8366 1318.84 82 1310 82H22V124.412C22 135.296 30.7024 144.181 41.5834 144.408L1441.58 173.575C1452.79 173.808 1462 164.788 1462 153.579V82H1392C1383.16 82 1376 74.8366 1376 66V39C1376 33.4772 1371.52 29 1366 29H1336Z" fill="#6776FF"/>
<path d="M1032 82H1190V131C1190 136.523 1185.52 141 1180 141H1042C1036.48 141 1032 136.523 1032 131V82Z" fill="#C6D1FF"/>
<path d="M861.536 106.56H863.472L867.008 115.472L870.432 106.56H872.352V118H870.96V108.368L867.168 118H866.736L862.816 108.368V118H861.536V106.56ZM878.631 117.04C879.463 117.04 880.124 116.752 880.615 116.176C881.116 115.6 881.367 114.837 881.367 113.888V113.776C881.367 112.805 881.116 112.032 880.615 111.456C880.124 110.88 879.463 110.592 878.631 110.592C877.788 110.592 877.122 110.88 876.631 111.456C876.14 112.032 875.895 112.8 875.895 113.76V113.888C875.895 114.859 876.135 115.627 876.615 116.192C877.106 116.757 877.778 117.04 878.631 117.04ZM878.615 118.144C877.431 118.144 876.45 117.744 875.671 116.944C874.903 116.133 874.519 115.115 874.519 113.888V113.76C874.519 112.512 874.903 111.488 875.671 110.688C876.45 109.888 877.436 109.488 878.631 109.488C879.826 109.488 880.807 109.888 881.575 110.688C882.354 111.477 882.743 112.496 882.743 113.744V113.872C882.743 115.131 882.354 116.16 881.575 116.96C880.796 117.749 879.81 118.144 878.615 118.144ZM884.703 118V109.632H886.031V116.08L890.303 109.632H891.631V118H890.303V111.552L886.031 118H884.703ZM899.511 110.944V118H898.407V109.632H900.279L902.663 115.92L905.111 109.632H906.935V118H905.623V110.944L902.855 118H902.247L899.511 110.944ZM913.161 118.144C911.966 118.144 910.99 117.755 910.233 116.976C909.486 116.197 909.113 115.173 909.113 113.904V113.776C909.113 112.517 909.476 111.488 910.201 110.688C910.937 109.888 911.881 109.488 913.033 109.488C914.1 109.488 914.99 109.835 915.705 110.528C916.43 111.211 916.793 112.251 916.793 113.648V114.08H910.489C910.553 116.053 911.449 117.04 913.177 117.04C914.489 117.04 915.23 116.555 915.401 115.584H916.729C916.58 116.416 916.19 117.051 915.561 117.488C914.932 117.925 914.132 118.144 913.161 118.144ZM915.433 113.008C915.316 111.397 914.516 110.592 913.033 110.592C912.361 110.592 911.806 110.805 911.369 111.232C910.932 111.659 910.654 112.251 910.537 113.008H915.433ZM918.831 109.632H920.159V111.04C920.404 110.613 920.788 110.251 921.311 109.952C921.833 109.643 922.393 109.488 922.991 109.488C924.111 109.488 925.023 109.867 925.727 110.624C926.441 111.381 926.799 112.405 926.799 113.696V113.824C926.799 115.115 926.447 116.16 925.743 116.96C925.049 117.749 924.132 118.144 922.991 118.144C921.711 118.144 920.767 117.637 920.159 116.624V120.912H918.831V109.632ZM922.863 117.04C923.695 117.04 924.329 116.773 924.767 116.24C925.204 115.696 925.423 114.912 925.423 113.888V113.76C925.423 112.747 925.177 111.968 924.687 111.424C924.207 110.869 923.593 110.592 922.847 110.592C922.036 110.592 921.375 110.864 920.863 111.408C920.361 111.941 920.111 112.725 920.111 113.76V113.888C920.111 114.923 920.356 115.707 920.847 116.24C921.348 116.773 922.02 117.04 922.863 117.04ZM932.35 117.04C933.182 117.04 933.843 116.752 934.334 116.176C934.835 115.6 935.086 114.837 935.086 113.888V113.776C935.086 112.805 934.835 112.032 934.334 111.456C933.843 110.88 933.182 110.592 932.35 110.592C931.507 110.592 930.841 110.88 930.35 111.456C929.859 112.032 929.614 112.8 929.614 113.76V113.888C929.614 114.859 929.854 115.627 930.334 116.192C930.825 116.757 931.497 117.04 932.35 117.04ZM932.334 118.144C931.15 118.144 930.169 117.744 929.39 116.944C928.622 116.133 928.238 115.115 928.238 113.888V113.76C928.238 112.512 928.622 111.488 929.39 110.688C930.169 109.888 931.155 109.488 932.35 109.488C933.545 109.488 934.526 109.888 935.294 110.688C936.073 111.477 936.462 112.496 936.462 113.744V113.872C936.462 115.131 936.073 116.16 935.294 116.96C934.515 117.749 933.529 118.144 932.334 118.144ZM943.702 110.752H939.75V118H938.422V109.632H945.03V118H943.702V110.752ZM947.815 109.632H949.143V111.04C949.388 110.613 949.772 110.251 950.295 109.952C950.818 109.643 951.378 109.488 951.975 109.488C953.095 109.488 954.007 109.867 954.711 110.624C955.426 111.381 955.783 112.405 955.783 113.696V113.824C955.783 115.115 955.431 116.16 954.727 116.96C954.034 117.749 953.116 118.144 951.975 118.144C950.695 118.144 949.751 117.637 949.143 116.624V120.912H947.815V109.632ZM951.847 117.04C952.679 117.04 953.314 116.773 953.751 116.24C954.188 115.696 954.407 114.912 954.407 113.888V113.76C954.407 112.747 954.162 111.968 953.671 111.424C953.191 110.869 952.578 110.592 951.831 110.592C951.02 110.592 950.359 110.864 949.847 111.408C949.346 111.941 949.095 112.725 949.095 113.76V113.888C949.095 114.923 949.34 115.707 949.831 116.24C950.332 116.773 951.004 117.04 951.847 117.04ZM957.75 118V109.632H959.078V116.08L963.35 109.632H964.678V118H963.35V111.552L959.078 118H957.75ZM969.987 110.688C968.793 110.688 968.195 111.195 968.195 112.208V112.256C968.195 112.736 968.334 113.099 968.611 113.344C968.889 113.589 969.347 113.712 969.987 113.712H971.555V110.688H969.987ZM967.779 118H966.259L968.803 114.496C967.513 114.229 966.867 113.483 966.867 112.256V112.208C966.867 111.333 967.166 110.688 967.763 110.272C968.361 109.845 969.129 109.632 970.067 109.632H972.883V118H971.555V114.72H970.115L967.779 118ZM981.45 110.752H978.746V118H977.418V110.752H974.714V109.632H981.45V110.752ZM983.282 118V109.632H984.61V116.08L988.882 109.632H990.21V118H988.882V111.552L984.61 118H983.282ZM995.519 110.688C994.324 110.688 993.727 111.195 993.727 112.208V112.256C993.727 112.736 993.865 113.099 994.143 113.344C994.42 113.589 994.879 113.712 995.519 113.712H997.087V110.688H995.519ZM993.311 118H991.791L994.335 114.496C993.044 114.229 992.399 113.483 992.399 112.256V112.208C992.399 111.333 992.697 110.688 993.295 110.272C993.892 109.845 994.66 109.632 995.599 109.632H998.415V118H997.087V114.72H995.647L993.311 118Z" fill="white"/>
<path d="M702.536 106.56H704.472L708.008 115.472L711.432 106.56H713.352V118H711.96V108.368L708.168 118H707.736L703.816 108.368V118H702.536V106.56ZM719.631 117.04C720.463 117.04 721.124 116.752 721.615 116.176C722.116 115.6 722.367 114.837 722.367 113.888V113.776C722.367 112.805 722.116 112.032 721.615 111.456C721.124 110.88 720.463 110.592 719.631 110.592C718.788 110.592 718.122 110.88 717.631 111.456C717.14 112.032 716.895 112.8 716.895 113.76V113.888C716.895 114.859 717.135 115.627 717.615 116.192C718.106 116.757 718.778 117.04 719.631 117.04ZM719.615 118.144C718.431 118.144 717.45 117.744 716.671 116.944C715.903 116.133 715.519 115.115 715.519 113.888V113.76C715.519 112.512 715.903 111.488 716.671 110.688C717.45 109.888 718.436 109.488 719.631 109.488C720.826 109.488 721.807 109.888 722.575 110.688C723.354 111.477 723.743 112.496 723.743 113.744V113.872C723.743 115.131 723.354 116.16 722.575 116.96C721.796 117.749 720.81 118.144 719.615 118.144ZM729.223 118.144C728.029 118.144 727.053 117.755 726.295 116.976C725.549 116.197 725.175 115.173 725.175 113.904V113.776C725.175 112.517 725.538 111.488 726.263 110.688C726.999 109.888 727.943 109.488 729.095 109.488C730.162 109.488 731.053 109.835 731.767 110.528C732.493 111.211 732.855 112.251 732.855 113.648V114.08H726.551C726.615 116.053 727.511 117.04 729.239 117.04C730.551 117.04 731.293 116.555 731.463 115.584H732.791C732.642 116.416 732.253 117.051 731.623 117.488C730.994 117.925 730.194 118.144 729.223 118.144ZM731.495 113.008C731.378 111.397 730.578 110.592 729.095 110.592C728.423 110.592 727.869 110.805 727.431 111.232C726.994 111.659 726.717 112.251 726.599 113.008H731.495ZM728.183 107.616C728.023 107.776 727.826 107.856 727.591 107.856C727.357 107.856 727.154 107.776 726.983 107.616C726.823 107.445 726.743 107.243 726.743 107.008C726.743 106.773 726.823 106.576 726.983 106.416C727.154 106.245 727.357 106.16 727.591 106.16C727.826 106.16 728.023 106.245 728.183 106.416C728.354 106.576 728.439 106.773 728.439 107.008C728.439 107.243 728.354 107.445 728.183 107.616ZM731.191 107.616C731.031 107.776 730.834 107.856 730.599 107.856C730.365 107.856 730.162 107.776 729.991 107.616C729.831 107.445 729.751 107.243 729.751 107.008C729.751 106.773 729.831 106.576 729.991 106.416C730.162 106.245 730.365 106.16 730.599 106.16C730.834 106.16 731.031 106.245 731.191 106.416C731.362 106.576 731.447 106.773 731.447 107.008C731.447 107.243 731.362 107.445 731.191 107.616ZM742.616 117.04C743.448 117.04 744.109 116.752 744.6 116.176C745.101 115.6 745.352 114.837 745.352 113.888V113.776C745.352 112.805 745.101 112.032 744.6 111.456C744.109 110.88 743.448 110.592 742.616 110.592C741.773 110.592 741.106 110.88 740.616 111.456C740.125 112.032 739.88 112.8 739.88 113.76V113.888C739.88 114.859 740.12 115.627 740.6 116.192C741.09 116.757 741.762 117.04 742.616 117.04ZM742.6 118.144C741.416 118.144 740.434 117.744 739.656 116.944C738.888 116.133 738.504 115.115 738.504 113.888V113.76C738.504 112.512 738.888 111.488 739.656 110.688C740.434 109.888 741.421 109.488 742.616 109.488C743.81 109.488 744.792 109.888 745.56 110.688C746.338 111.477 746.727 112.496 746.727 113.744V113.872C746.727 115.131 746.338 116.16 745.56 116.96C744.781 117.749 743.794 118.144 742.6 118.144ZM752.288 118.144C751.029 118.144 750.032 117.739 749.296 116.928C748.56 116.117 748.192 114.885 748.192 113.232V112.72C748.192 111.931 748.224 111.232 748.288 110.624C748.352 110.005 748.485 109.387 748.688 108.768C748.89 108.139 749.157 107.616 749.488 107.2C749.818 106.784 750.266 106.437 750.832 106.16C751.408 105.883 752.085 105.723 752.864 105.68L753.184 105.664C754.357 105.6 755.152 105.483 755.568 105.312L755.744 106.432C755.2 106.667 754.352 106.811 753.2 106.864L752.96 106.88C751.669 106.944 750.746 107.365 750.192 108.144C749.648 108.912 749.328 110.107 749.232 111.728H749.296C749.584 111.141 750.01 110.677 750.576 110.336C751.152 109.984 751.818 109.808 752.576 109.808C753.738 109.808 754.666 110.187 755.36 110.944C756.064 111.691 756.416 112.661 756.416 113.856V113.92C756.416 115.211 756.026 116.24 755.248 117.008C754.48 117.765 753.493 118.144 752.288 118.144ZM750.288 116.224C750.778 116.768 751.45 117.04 752.304 117.04C753.157 117.04 753.824 116.773 754.304 116.24C754.794 115.696 755.04 114.928 755.04 113.936V113.904C755.04 112.976 754.816 112.245 754.368 111.712C753.93 111.179 753.29 110.912 752.448 110.912C751.562 110.912 750.858 111.189 750.336 111.744C749.824 112.299 749.568 113.056 749.568 114.016V114.048C749.568 114.955 749.808 115.68 750.288 116.224ZM760.682 117.136L757.402 109.632H758.826L761.386 115.632L763.706 109.632H765.066L760.442 120.912H759.098L760.682 117.136ZM771.599 118V114.096C771.023 114.715 770.223 115.024 769.199 115.024C768.378 115.024 767.706 114.763 767.183 114.24C766.66 113.707 766.399 112.896 766.399 111.808V109.632H767.727V111.744C767.727 113.163 768.335 113.872 769.551 113.872C770.458 113.872 771.14 113.563 771.599 112.944V109.632H772.927V118H771.599ZM779.13 118.144C777.935 118.144 776.959 117.755 776.202 116.976C775.455 116.197 775.082 115.173 775.082 113.904V113.776C775.082 112.517 775.444 111.488 776.17 110.688C776.906 109.888 777.85 109.488 779.002 109.488C780.068 109.488 780.959 109.835 781.674 110.528C782.399 111.211 782.762 112.251 782.762 113.648V114.08H776.458C776.522 116.053 777.418 117.04 779.146 117.04C780.458 117.04 781.199 116.555 781.37 115.584H782.698C782.548 116.416 782.159 117.051 781.53 117.488C780.9 117.925 780.1 118.144 779.13 118.144ZM781.402 113.008C781.284 111.397 780.484 110.592 779.002 110.592C778.33 110.592 777.775 110.805 777.338 111.232C776.9 111.659 776.623 112.251 776.506 113.008H781.402ZM790.143 114.272H786.031V118H784.703V109.632H786.031V113.152H790.143V109.632H791.471V118H790.143V114.272ZM794.157 118V109.632H795.485V116.08L799.757 109.632H801.085V118H799.757V111.552L795.485 118H794.157ZM807.13 118.144C805.935 118.144 804.959 117.755 804.202 116.976C803.455 116.197 803.082 115.173 803.082 113.904V113.776C803.082 112.517 803.444 111.488 804.17 110.688C804.906 109.888 805.85 109.488 807.002 109.488C808.068 109.488 808.959 109.835 809.674 110.528C810.399 111.211 810.762 112.251 810.762 113.648V114.08H804.458C804.522 116.053 805.418 117.04 807.146 117.04C808.458 117.04 809.199 116.555 809.37 115.584H810.698C810.548 116.416 810.159 117.051 809.53 117.488C808.9 117.925 808.1 118.144 807.13 118.144ZM809.402 113.008C809.284 111.397 808.484 110.592 807.002 110.592C806.33 110.592 805.775 110.805 805.338 111.232C804.9 111.659 804.623 112.251 804.506 113.008H809.402Z" fill="white"/>
<path d="M1051.73 113.984C1051.57 116.747 1050.67 118.128 1049.02 118.128C1048.8 118.128 1048.64 118.107 1048.54 118.064L1048.4 118V116.656L1048.54 116.688C1048.69 116.709 1048.85 116.72 1049.02 116.72C1049.46 116.72 1049.78 116.496 1049.98 116.048C1050.19 115.6 1050.34 114.875 1050.43 113.872C1050.52 112.72 1050.59 111.104 1050.66 109.024L1050.7 106.56H1057.58V118H1056.19V107.728H1051.98C1051.9 110.491 1051.81 112.576 1051.73 113.984ZM1060.38 118V109.632H1061.7V116.08L1065.98 109.632H1067.3V118H1065.98V111.552L1061.7 118H1060.38ZM1074.71 118V114.096C1074.13 114.715 1073.33 115.024 1072.31 115.024C1071.49 115.024 1070.82 114.763 1070.29 114.24C1069.77 113.707 1069.51 112.896 1069.51 111.808V109.632H1070.84V111.744C1070.84 113.163 1071.44 113.872 1072.66 113.872C1073.57 113.872 1074.25 113.563 1074.71 112.944V109.632H1076.04V118H1074.71ZM1084.16 114.272H1080.05V118H1078.72V109.632H1080.05V113.152H1084.16V109.632H1085.49V118H1084.16V114.272ZM1095.37 109.632H1096.7V118H1095.37V109.632ZM1088.17 109.632H1089.5V112.56H1090.99C1091.94 112.56 1092.71 112.773 1093.29 113.2C1093.89 113.627 1094.19 114.299 1094.19 115.216V115.264C1094.19 116.171 1093.89 116.853 1093.29 117.312C1092.69 117.771 1091.93 118 1090.99 118H1088.17V109.632ZM1091.07 116.944C1091.7 116.944 1092.15 116.811 1092.43 116.544C1092.72 116.267 1092.86 115.84 1092.86 115.264V115.216C1092.86 114.683 1092.72 114.283 1092.44 114.016C1092.17 113.739 1091.71 113.6 1091.07 113.6H1089.5V116.944H1091.07ZM1102.83 108.096C1102.25 108.096 1101.76 107.899 1101.36 107.504C1100.95 107.099 1100.74 106.592 1100.72 105.984H1101.87C1101.93 106.773 1102.25 107.168 1102.83 107.168C1103.46 107.168 1103.81 106.773 1103.89 105.984H1105.01C1104.96 106.592 1104.73 107.099 1104.32 107.504C1103.91 107.899 1103.42 108.096 1102.83 108.096ZM1099.39 118V109.632H1100.72V116.08L1104.99 109.632H1106.32V118H1104.99V111.552L1100.72 118H1099.39ZM1114.41 113.728V118H1113.08V109.632H1114.41V113.536L1117.88 109.632H1119.43L1115.85 113.568L1119.73 118H1118.12L1114.41 113.728ZM1123.44 118.144C1122.62 118.144 1121.95 117.941 1121.43 117.536C1120.91 117.12 1120.66 116.501 1120.66 115.68C1120.66 115.221 1120.77 114.821 1120.99 114.48C1121.23 114.128 1121.55 113.856 1121.95 113.664C1122.36 113.461 1122.8 113.317 1123.28 113.232C1123.76 113.136 1124.28 113.088 1124.85 113.088H1126.05V112.48C1126.05 111.808 1125.91 111.328 1125.63 111.04C1125.36 110.741 1124.9 110.592 1124.26 110.592C1123.11 110.592 1122.47 111.093 1122.34 112.096H1121.01C1121.1 111.2 1121.44 110.544 1122.05 110.128C1122.67 109.701 1123.43 109.488 1124.32 109.488C1126.36 109.488 1127.38 110.485 1127.38 112.48V118H1126.05V116.944C1125.41 117.744 1124.54 118.144 1123.44 118.144ZM1123.57 117.088C1124.3 117.088 1124.89 116.912 1125.35 116.56C1125.82 116.197 1126.05 115.701 1126.05 115.072V114.032H1124.9C1122.96 114.032 1121.99 114.581 1121.99 115.68C1121.99 116.619 1122.51 117.088 1123.57 117.088ZM1133.49 118.144C1132.23 118.144 1131.23 117.739 1130.5 116.928C1129.76 116.117 1129.39 114.885 1129.39 113.232V112.72C1129.39 111.931 1129.43 111.232 1129.49 110.624C1129.55 110.005 1129.69 109.387 1129.89 108.768C1130.09 108.139 1130.36 107.616 1130.69 107.2C1131.02 106.784 1131.47 106.437 1132.03 106.16C1132.61 105.883 1133.29 105.723 1134.07 105.68L1134.39 105.664C1135.56 105.6 1136.35 105.483 1136.77 105.312L1136.95 106.432C1136.4 106.667 1135.55 106.811 1134.4 106.864L1134.16 106.88C1132.87 106.944 1131.95 107.365 1131.39 108.144C1130.85 108.912 1130.53 110.107 1130.43 111.728H1130.5C1130.79 111.141 1131.21 110.677 1131.78 110.336C1132.35 109.984 1133.02 109.808 1133.78 109.808C1134.94 109.808 1135.87 110.187 1136.56 110.944C1137.27 111.691 1137.62 112.661 1137.62 113.856V113.92C1137.62 115.211 1137.23 116.24 1136.45 117.008C1135.68 117.765 1134.7 118.144 1133.49 118.144ZM1131.49 116.224C1131.98 116.768 1132.65 117.04 1133.51 117.04C1134.36 117.04 1135.03 116.773 1135.51 116.24C1136 115.696 1136.24 114.928 1136.24 113.936V113.904C1136.24 112.976 1136.02 112.245 1135.57 111.712C1135.13 111.179 1134.49 110.912 1133.65 110.912C1132.77 110.912 1132.06 111.189 1131.54 111.744C1131.03 112.299 1130.77 113.056 1130.77 114.016V114.048C1130.77 114.955 1131.01 115.68 1131.49 116.224ZM1139.69 118V109.632H1141.02V116.08L1145.29 109.632H1146.62V118H1145.29V111.552L1141.02 118H1139.69ZM1154.58 114.272H1150.47V118H1149.14V109.632H1150.47V113.152H1154.58V109.632H1155.91V118H1154.58V114.272ZM1162.11 118.144C1160.92 118.144 1159.94 117.755 1159.19 116.976C1158.44 116.197 1158.07 115.173 1158.07 113.904V113.776C1158.07 112.517 1158.43 111.488 1159.15 110.688C1159.89 109.888 1160.83 109.488 1161.99 109.488C1163.05 109.488 1163.94 109.835 1164.66 110.528C1165.38 111.211 1165.75 112.251 1165.75 113.648V114.08H1159.44C1159.51 116.053 1160.4 117.04 1162.13 117.04C1163.44 117.04 1164.18 116.555 1164.35 115.584H1165.68C1165.53 116.416 1165.14 117.051 1164.51 117.488C1163.88 117.925 1163.08 118.144 1162.11 118.144ZM1164.39 113.008C1164.27 111.397 1163.47 110.592 1161.99 110.592C1161.31 110.592 1160.76 110.805 1160.32 111.232C1159.88 111.659 1159.61 112.251 1159.49 113.008H1164.39ZM1173.48 110.752H1170.78V118H1169.45V110.752H1166.75V109.632H1173.48V110.752Z" fill="#2F2F2F"/>
<path d="M1363 105.45V121.55C1363 121.855 1362.87 122.147 1362.65 122.363C1362.42 122.579 1362.12 122.7 1361.8 122.7H1358.2V120.4H1360.6V106.6H1358.2V104.3H1361.8C1362.12 104.3 1362.42 104.421 1362.65 104.637C1362.87 104.852 1363 105.145 1363 105.45ZM1345.91 104.334L1355.51 102.034C1355.69 101.992 1355.87 101.989 1356.05 102.025C1356.23 102.061 1356.39 102.136 1356.54 102.244C1356.68 102.351 1356.8 102.489 1356.88 102.646C1356.96 102.803 1357 102.975 1357 103.15V123.85C1357 124.025 1356.96 124.197 1356.88 124.354C1356.8 124.512 1356.68 124.649 1356.54 124.757C1356.4 124.864 1356.23 124.939 1356.05 124.975C1355.87 125.011 1355.69 125.008 1355.51 124.965L1345.91 122.665C1345.65 122.603 1345.42 122.46 1345.25 122.257C1345.09 122.055 1345 121.806 1345 121.55V105.45C1345 105.193 1345.09 104.944 1345.25 104.742C1345.42 104.54 1345.65 104.396 1345.91 104.334V104.334ZM1351 113.716C1351.01 114.012 1351.15 114.292 1351.37 114.496C1351.59 114.701 1351.89 114.816 1352.2 114.816C1352.51 114.816 1352.81 114.701 1353.03 114.496C1353.25 114.292 1353.39 114.012 1353.4 113.716V113.282C1353.4 112.977 1353.27 112.685 1353.05 112.469C1352.82 112.254 1352.52 112.133 1352.2 112.133C1351.88 112.133 1351.58 112.254 1351.35 112.47C1351.13 112.686 1351 112.978 1351 113.283V113.716V113.716Z" fill="white"/>
<path d="M1354.83 54.7762L1351 58.8752L1347.17 54.7762C1344.29 54.9094 1342 57.4229 1342 60.5251V60.9376C1342 62.0762 1342.86 63 1343.93 63H1358.07C1359.14 63 1360 62.0762 1360 60.9376V60.5251C1360 57.4229 1357.71 54.9094 1354.83 54.7762V54.7762ZM1342.55 44.4298L1342.8 44.4943V47.0035C1342.52 47.184 1342.32 47.4976 1342.32 47.8757C1342.32 48.2367 1342.51 48.5374 1342.77 48.7222L1342.14 51.399C1342.07 51.6955 1342.23 52.0005 1342.45 52.0005H1344.13C1344.35 52.0005 1344.5 51.6955 1344.43 51.399L1343.8 48.7222C1344.07 48.5374 1344.25 48.2367 1344.25 47.8757C1344.25 47.4976 1344.05 47.184 1343.77 47.0035V44.7435L1346.42 45.4266C1346.07 46.1657 1345.86 46.9906 1345.86 47.8757C1345.86 50.9135 1348.16 53.3755 1351 53.3755C1353.84 53.3755 1356.14 50.9135 1356.14 47.8757C1356.14 46.9906 1355.93 46.1657 1355.58 45.4266L1359.45 44.4298C1360.18 44.2408 1360.18 43.2654 1359.45 43.0764L1351.8 41.0999C1351.28 40.9667 1350.73 40.9667 1350.2 41.0999L1342.55 43.0721C1341.82 43.2611 1341.82 44.2408 1342.55 44.4298V44.4298Z" fill="white"/>
<g clip-path="url(#clip1_1297_5186)">
<path d="M127.45 36.1903L122.148 41.502L127.45 46.8136L132.752 41.502L127.45 36.1903Z" fill="#BBBBBA"/>
<path d="M130.104 44.1542V49.998H118.967V38.8438H124.8L118.967 33L102 49.998L118.967 67L135.937 49.998L130.104 44.1542Z" fill="#003DA5"/>
<path d="M147.409 57.2189H149.106C149.078 58.2499 148.537 59.07 147.282 59.07C145.919 59.07 145.208 58.1305 145.208 56.6815V56.6138C145.208 55.1927 145.959 54.2254 147.298 54.2254C148.14 54.2254 148.772 54.5876 148.935 55.5072H149.638C149.467 54.2094 148.422 53.6641 147.282 53.6641C145.621 53.6641 144.477 54.93 144.477 56.6258V56.6935C144.477 58.3893 145.498 59.6313 147.282 59.6313C148.772 59.6313 149.793 58.7396 149.793 57.0557V56.6337H147.409V57.2189Z" fill="black"/>
<path d="M151.543 56.0887V55.3204H150.875V59.5679H151.547V57.2352C151.547 56.1883 152.087 55.9215 152.941 55.8817V55.2488C152.652 55.2348 152.366 55.3067 152.118 55.4555C151.87 55.6042 151.671 55.8231 151.547 56.0848" fill="black"/>
<path d="M156.777 57.4777C156.777 58.437 156.244 59.07 155.394 59.07C154.544 59.07 154.007 58.445 154.007 57.4777V57.414C154.007 56.4387 154.544 55.8217 155.394 55.8217C156.244 55.8217 156.777 56.4546 156.777 57.4379V57.4777ZM155.394 55.2484C155.112 55.243 154.832 55.296 154.572 55.404C154.312 55.5119 154.077 55.6726 153.881 55.8759C153.686 56.0792 153.534 56.3208 153.436 56.5854C153.338 56.8501 153.296 57.1322 153.312 57.414V57.4777C153.312 58.0309 153.531 58.5615 153.922 58.9526C154.312 59.3438 154.842 59.5636 155.394 59.5636C155.946 59.5636 156.476 59.3438 156.866 58.9526C157.257 58.5615 157.476 58.0309 157.476 57.4777V57.414C157.492 57.1325 157.45 56.8508 157.352 56.5865C157.254 56.3223 157.102 56.0812 156.906 55.8786C156.711 55.6759 156.476 55.516 156.215 55.4089C155.955 55.3018 155.675 55.2499 155.394 55.2564" fill="black"/>
<path d="M161.204 57.8919C161.211 58.0471 161.185 58.2019 161.129 58.3466C161.072 58.4913 160.986 58.6225 160.877 58.732C160.767 58.8414 160.635 58.9266 160.49 58.9821C160.345 59.0376 160.191 59.0622 160.036 59.0543C159.364 59.0543 159.054 58.7199 159.054 57.9755V55.3203H158.383V58.0074C158.383 59.1777 159.015 59.6395 159.857 59.6395C160.131 59.6525 160.402 59.5877 160.641 59.4524C160.879 59.3172 161.074 59.117 161.204 58.8752V59.5519H161.875V55.3203H161.204V57.8919Z" fill="black"/>
<path d="M166.412 57.4783C166.412 58.5173 165.955 59.0706 165.113 59.0706C164.27 59.0706 163.718 58.5531 163.718 57.4783V57.4146C163.718 56.3278 164.318 55.8223 165.105 55.8223C165.82 55.8223 166.412 56.3597 166.412 57.4146V57.4783ZM165.18 55.249C164.894 55.2513 164.613 55.3253 164.362 55.4644C164.111 55.6035 163.9 55.8031 163.746 56.0452V55.3207H163.07V61.0451H163.746V58.8755C163.894 59.1198 164.105 59.3197 164.356 59.4541C164.608 59.5886 164.891 59.6528 165.176 59.6398C166.34 59.6398 167.103 58.7481 167.103 57.4464V57.3827C167.103 56.0492 166.285 55.249 165.176 55.249" fill="black"/>
<path d="M173.55 57.4777C173.55 58.437 173.018 59.07 172.167 59.07C171.317 59.07 170.781 58.445 170.781 57.4777V57.414C170.781 56.4387 171.317 55.8217 172.167 55.8217C173.018 55.8217 173.55 56.4546 173.55 57.4379V57.4777ZM172.167 55.2484C171.886 55.243 171.606 55.296 171.346 55.404C171.085 55.5119 170.85 55.6726 170.655 55.8759C170.459 56.0792 170.308 56.3208 170.21 56.5854C170.112 56.8501 170.069 57.1322 170.085 57.414V57.4777C170.085 58.0309 170.305 58.5615 170.695 58.9526C171.086 59.3438 171.615 59.5636 172.167 59.5636C172.72 59.5636 173.249 59.3438 173.64 58.9526C174.03 58.5615 174.249 58.0309 174.249 57.4777V57.414C174.265 57.1325 174.223 56.8508 174.125 56.5865C174.027 56.3223 173.875 56.0812 173.68 55.8786C173.484 55.6759 173.249 55.516 172.989 55.4089C172.728 55.3018 172.449 55.2499 172.167 55.2564" fill="black"/>
<path d="M175.256 54.6315V55.3202H174.648V55.8895H175.256V59.5677H175.932V55.8895H176.969V55.3202H175.932V54.5559C175.932 54.126 176.099 53.8274 176.548 53.8274C176.711 53.8236 176.873 53.8534 177.025 53.915V53.3458C176.863 53.2885 176.692 53.2615 176.52 53.2661C175.678 53.2661 175.256 53.7598 175.256 54.6315" fill="black"/>
<path d="M181.927 59.0786C181.109 59.0786 180.54 58.5372 180.54 57.4862V57.4225C180.54 56.4234 181.132 55.8063 181.903 55.8063C182.179 55.7783 182.454 55.8598 182.671 56.0332C182.887 56.2067 183.027 56.4583 183.06 56.7339H183.727C183.596 55.6551 182.769 55.249 181.887 55.249C181.607 55.2486 181.33 55.3054 181.073 55.4159C180.816 55.5265 180.584 55.6884 180.391 55.8918C180.199 56.0953 180.049 56.336 179.953 56.5992C179.856 56.8623 179.814 57.1425 179.829 57.4225V57.4862C179.809 57.7677 179.849 58.0501 179.945 58.3153C180.042 58.5804 180.192 58.8223 180.388 59.0254C180.583 59.2284 180.819 59.388 181.08 59.4939C181.341 59.5997 181.622 59.6495 181.903 59.6398C182.356 59.6606 182.799 59.5073 183.143 59.2113C183.486 58.9153 183.704 58.499 183.751 58.0475H183.127C183.1 58.3454 182.957 58.6208 182.73 58.8149C182.503 59.009 182.209 59.1065 181.911 59.0865" fill="black"/>
<path d="M187.859 57.4777C187.859 58.437 187.322 59.07 186.472 59.07C185.622 59.07 185.085 58.445 185.085 57.4777V57.414C185.085 56.4387 185.622 55.8217 186.472 55.8217C187.322 55.8217 187.859 56.4546 187.859 57.4379V57.4777ZM186.472 55.2484C186.19 55.243 185.911 55.296 185.65 55.404C185.39 55.5119 185.155 55.6726 184.959 55.8759C184.764 56.0792 184.612 56.3208 184.514 56.5854C184.416 56.8501 184.374 57.1322 184.39 57.414V57.4777C184.39 57.7516 184.444 58.0228 184.548 58.2759C184.653 58.529 184.806 58.7589 185 58.9526C185.193 59.1463 185.423 59.3 185.675 59.4048C185.928 59.5097 186.199 59.5636 186.472 59.5636C186.746 59.5636 187.016 59.5097 187.269 59.4048C187.521 59.3 187.751 59.1463 187.944 58.9526C188.138 58.7589 188.291 58.529 188.396 58.2759C188.5 58.0228 188.554 57.7516 188.554 57.4777V57.414C188.57 57.1325 188.528 56.8508 188.43 56.5865C188.332 56.3223 188.18 56.0812 187.985 55.8786C187.789 55.6759 187.554 55.516 187.293 55.4089C187.033 55.3018 186.753 55.2499 186.472 55.2564" fill="black"/>
<path d="M194.117 55.2491C193.827 55.2437 193.541 55.3143 193.287 55.454C193.032 55.5936 192.819 55.7974 192.667 56.0452C192.576 55.7949 192.405 55.5815 192.181 55.4377C191.957 55.2939 191.692 55.2276 191.427 55.2491C191.17 55.2379 190.916 55.2996 190.692 55.427C190.468 55.5545 190.285 55.7426 190.164 55.9696V55.3207H189.488V59.5682H190.164V56.9688C190.156 56.8189 190.179 56.669 190.232 56.5287C190.286 56.3883 190.367 56.2606 190.472 56.1535C190.577 56.0465 190.703 55.9625 190.842 55.9068C190.981 55.8512 191.131 55.8251 191.28 55.8303C191.864 55.8303 192.178 56.1408 192.178 56.8891V59.5682H192.854V56.9688C192.846 56.8189 192.869 56.669 192.922 56.5287C192.976 56.3883 193.057 56.2606 193.162 56.1535C193.267 56.0465 193.393 55.9625 193.532 55.9068C193.671 55.8512 193.821 55.8251 193.97 55.8303C194.554 55.8303 194.872 56.1408 194.872 56.8891V59.5682H195.544V56.9369C195.544 55.7029 194.872 55.2491 194.117 55.2491" fill="black"/>
<path d="M200.064 57.4783C200.064 58.5173 199.611 59.0706 198.769 59.0706C197.927 59.0706 197.374 58.5531 197.374 57.4783V57.4146C197.374 56.3278 197.974 55.8223 198.761 55.8223C199.476 55.8223 200.064 56.3597 200.064 57.4146V57.4783ZM198.833 55.249C198.546 55.252 198.265 55.3264 198.015 55.4654C197.764 55.6044 197.552 55.8036 197.398 56.0452V55.3207H196.727V61.0451H197.398V58.8755C197.547 59.1201 197.759 59.3206 198.011 59.4563C198.263 59.592 198.547 59.6581 198.833 59.6478C200.001 59.6478 200.764 58.7561 200.764 57.4544V57.3907C200.764 56.0571 199.945 55.257 198.833 55.257" fill="black"/>
<path d="M204.116 58.0794C204.116 58.7282 203.576 59.1024 202.861 59.1024C202.269 59.1024 202.066 58.8357 202.066 58.3899C202.066 57.7728 202.69 57.5539 203.544 57.5539H204.116V58.0794ZM203.242 55.249C202.424 55.249 201.653 55.5954 201.566 56.5706H202.237C202.305 56.0571 202.634 55.8063 203.211 55.8063C203.858 55.8063 204.116 56.085 204.116 56.7657V57.0722H203.509C202.424 57.0722 201.387 57.4146 201.387 58.3899C201.387 59.2577 202.011 59.6398 202.797 59.6398C203.05 59.6565 203.304 59.6095 203.534 59.5032C203.764 59.3968 203.965 59.2344 204.116 59.0308V59.5682H204.792V56.7816C204.792 55.5874 204.053 55.2649 203.242 55.2649" fill="black"/>
<path d="M208.007 55.2484C207.733 55.2299 207.459 55.2901 207.217 55.4219C206.976 55.5537 206.777 55.7518 206.644 55.9928V55.3201H205.973V59.5676H206.644V56.992C206.638 56.8349 206.664 56.6781 206.722 56.532C206.78 56.3859 206.868 56.2537 206.981 56.144C207.093 56.0343 207.228 55.9496 207.375 55.8954C207.522 55.8413 207.68 55.8188 207.836 55.8296C208.516 55.8296 208.834 56.164 208.834 56.9124V59.5676H209.505V56.9601C209.505 55.7261 208.889 55.2484 208.015 55.2484" fill="black"/>
<path d="M210.992 53.541C210.903 53.5402 210.816 53.5661 210.741 53.6152C210.667 53.6643 210.608 53.7345 210.574 53.8169C210.54 53.8992 210.53 53.99 210.547 54.0776C210.565 54.1653 210.608 54.2458 210.671 54.3089C210.734 54.3721 210.814 54.415 210.901 54.4322C210.989 54.4495 211.08 54.4402 211.162 54.4057C211.244 54.3711 211.314 54.3129 211.363 54.2383C211.412 54.1637 211.438 54.0762 211.437 53.9869C211.438 53.9282 211.426 53.87 211.404 53.8156C211.382 53.7613 211.349 53.7119 211.308 53.6704C211.266 53.6289 211.217 53.5961 211.163 53.5739C211.109 53.5517 211.051 53.5405 210.992 53.541" fill="black"/>
<path d="M211.339 55.3203H210.668V59.5678H211.339V55.3203Z" fill="black"/>
<path d="M212.977 57.0324C213.096 56.2801 213.549 55.8063 214.241 55.8063C214.932 55.8063 215.389 56.1566 215.457 57.0324H212.977ZM214.241 55.249C213.072 55.249 212.254 56.1407 212.254 57.4225V57.4862C212.254 58.788 213.104 59.6398 214.304 59.6398C215.27 59.6398 215.957 59.194 216.112 58.3421H215.437C215.349 58.8357 214.976 59.0786 214.312 59.0786C213.438 59.0786 212.985 58.5531 212.949 57.5778H216.128V57.3588C216.128 55.8382 215.202 55.249 214.225 55.249" fill="black"/>
<path d="M218.51 57.0921C217.715 56.9608 217.52 56.7896 217.52 56.4154C217.52 56.0412 217.838 55.8063 218.315 55.8063C218.792 55.8063 219.11 56.0094 219.205 56.4751H219.857C219.749 55.5555 219.062 55.249 218.323 55.249C217.652 55.249 216.889 55.6471 216.889 56.4433C216.889 57.2394 217.262 57.5022 218.363 57.6932C219.022 57.8166 219.352 57.9639 219.352 58.4098C219.352 58.8556 219.078 59.0825 218.43 59.0825C217.783 59.0825 217.489 58.776 217.433 58.2625H216.777C216.817 59.1383 217.425 59.6438 218.438 59.6438C219.451 59.6438 220.012 59.1263 220.012 58.3501C220.012 57.4385 219.396 57.2673 218.522 57.0921" fill="black"/>
<path d="M160.808 42.9244C162.088 42.9244 163.193 43.9076 163.193 45.5358C163.193 47.1639 162.08 48.1512 160.808 48.1512C159.537 48.1512 158.424 47.1639 158.424 45.5358C158.424 43.9076 159.537 42.9244 160.808 42.9244M160.808 50.0062C163.272 50.0062 165.418 48.3184 165.418 45.5358C165.418 42.7532 163.272 41.0693 160.808 41.0693C158.345 41.0693 156.199 42.7572 156.199 45.5358C156.199 48.3144 158.345 50.0062 160.808 50.0062Z" fill="black"/>
<path d="M181.742 49.9185V43.0238H184.81V41.2324H176.648V43.0238H179.704V49.9185H181.742Z" fill="black"/>
<path d="M175.131 49.9185V41.2324H173.068V46.7976L169.214 41.2324H166.941V49.9185H169.004V44.3534L172.858 49.9185H175.131Z" fill="black"/>
<path d="M152.65 49.9145H154.692V41.2324H152.435L149.582 46.3159L146.733 41.2324H144.477V49.9145H146.515V44.7913L149.364 49.9145H149.805L152.65 44.7913V49.9145Z" fill="black"/>
</g>
<defs>
<filter id="filter0_d_1297_5186" x="0" y="0" width="1484" height="108" filterUnits="userSpaceOnUse" color-interpolation-filters="sRGB">
<feFlood flood-opacity="0" result="BackgroundImageFix"/>
<feColorMatrix in="SourceAlpha" type="matrix" values="0 0 0 0 0 0 0 0 0 0 0 0 0 0 0 0 0 0 127 0" result="hardAlpha"/>
<feMorphology radius="2" operator="dilate" in="SourceAlpha" result="effect1_dropShadow_1297_5186"/>
<feOffset dy="4"/>
<feGaussianBlur stdDeviation="10"/>
<feComposite in2="hardAlpha" operator="out"/>
<feColorMatrix type="matrix" values="0 0 0 0 0 0 0 0 0 0.204 0 0 0 0 0.6 0 0 0 0.05 0"/>
<feBlend mode="normal" in2="BackgroundImageFix" result="effect1_dropShadow_1297_5186"/>
<feBlend mode="normal" in="SourceGraphic" in2="effect1_dropShadow_1297_5186" result="shape"/>
</filter>
<clipPath id="clip0_1297_5186">
<rect width="17" height="20" fill="white" transform="translate(1289 45)"/>
</clipPath>
<clipPath id="clip1_1297_5186">
<rect width="118" height="34" fill="white" transform="translate(102 33)"/>
</clipPath>
</defs>
</svg>
