<svg width="417" height="310" viewBox="0 0 417 310" fill="none" xmlns="http://www.w3.org/2000/svg">
<path d="M416.04 272.423H0V272.631H416.04V272.423Z" fill="#E0E0E0"/>
<path d="M91.042 282.4H42.9727V282.608H91.042V282.4Z" fill="#E0E0E0"/>
<path d="M196.088 277.882H174.188V278.09H196.088V277.882Z" fill="#E0E0E0"/>
<path d="M246.763 277.774H204.094V277.982H246.763V277.774Z" fill="#E0E0E0"/>
<path d="M327.983 280.27H317.59V280.478H327.983V280.27Z" fill="#E0E0E0"/>
<path d="M281.7 280.27H240.246V280.478H281.7V280.27Z" fill="#E0E0E0"/>
<path d="M107.339 282.4H99.1016V282.608H107.339V282.4Z" fill="#E0E0E0"/>
<path d="M370.757 280.27H334.77V280.478H370.757V280.27Z" fill="#E0E0E0"/>
<path d="M197.206 235.312H36.5397C35.2811 235.31 34.0747 234.809 33.1855 233.918C32.2963 233.027 31.7969 231.82 31.7969 230.561V4.70958C31.8078 3.45815 32.3121 2.26158 33.2001 1.37977C34.0882 0.497966 35.2883 0.00214376 36.5397 0H197.206C198.466 0 199.675 0.50057 200.566 1.39159C201.457 2.28261 201.957 3.49109 201.957 4.75118V230.561C201.957 231.821 201.457 233.03 200.566 233.921C199.675 234.812 198.466 235.312 197.206 235.312ZM36.5397 0.166417C35.3363 0.168621 34.1828 0.648245 33.3326 1.50001C32.4824 2.35178 32.0049 3.5061 32.0049 4.70958V230.561C32.0049 231.765 32.4824 232.919 33.3326 233.771C34.1828 234.623 35.3363 235.102 36.5397 235.104H197.206C198.411 235.102 199.565 234.623 200.416 233.771C201.268 232.92 201.747 231.766 201.749 230.561V4.70958C201.747 3.50533 201.268 2.35104 200.416 1.49951C199.565 0.647975 198.411 0.168616 197.206 0.166417H36.5397Z" fill="#E0E0E0"/>
<path d="M377.188 235.312H216.513C215.253 235.31 214.046 234.809 213.156 233.918C212.265 233.028 211.764 231.821 211.762 230.561V4.70958C211.775 3.45739 212.281 2.26083 213.17 1.37925C214.06 0.497675 215.261 0.00212038 216.513 0H377.188C378.438 0.00433056 379.636 0.50112 380.522 1.38269C381.408 2.26426 381.911 3.45959 381.922 4.70958V230.561C381.922 231.819 381.424 233.024 380.537 233.915C379.649 234.806 378.445 235.308 377.188 235.312ZM216.513 0.166417C215.309 0.168616 214.154 0.647975 213.303 1.49951C212.451 2.35104 211.972 3.50533 211.97 4.70958V230.561C211.972 231.766 212.451 232.92 213.303 233.771C214.154 234.623 215.309 235.102 216.513 235.104H377.188C378.392 235.102 379.546 234.623 380.398 233.771C381.249 232.92 381.729 231.766 381.731 230.561V4.70958C381.729 3.50533 381.249 2.35104 380.398 1.49951C379.546 0.647975 378.392 0.168616 377.188 0.166417H216.513Z" fill="#E0E0E0"/>
<path d="M63.7535 68.0726C60.1257 60.2344 63.0047 54.6594 71.8663 54.6594C77.433 54.6594 84.3475 56.8561 91.0042 60.4257C91.7697 58.3871 93.8998 57.1723 97.3363 57.1723C103.386 57.1723 111.731 60.9416 118.271 66.2669C120.288 64.9224 122.662 64.215 125.086 64.2367C130.911 63.9954 137.884 66.1671 143.983 69.6951C144.341 69.3562 144.763 69.0919 145.225 68.9176C145.686 68.7433 146.177 68.6625 146.67 68.68C149.999 68.5468 154.517 70.7352 156.764 73.5643C156.905 73.7474 157.021 73.9138 157.146 74.0885H61.9895C61.8014 73.0176 61.8626 71.9178 62.1686 70.8744C62.4745 69.831 63.0169 68.8723 63.7535 68.0726Z" fill="#F5F5F5"/>
<path d="M171.677 30.7869C171.97 30.7535 172.265 30.7368 172.559 30.737C172.285 27.675 173.874 25.7445 177.261 25.7445C179.707 25.7445 182.702 26.768 185.764 28.4987C184.891 22.5577 187.687 18.6885 194.035 18.6885C199.153 18.6885 205.626 21.1847 212.025 25.3451C212.582 23.0153 214.471 21.6174 217.641 21.6174C223.2 21.6174 231.113 25.9276 237.453 32.0184C239.136 30.5059 241.323 29.6752 243.586 29.6886C248.886 29.414 255.459 31.8936 261.292 35.9375C261.571 35.5628 261.935 35.2611 262.356 35.0582C262.776 34.8553 263.239 34.7573 263.705 34.7726C266.601 34.6311 270.595 36.8528 272.908 39.84H167.018C164.53 35.2718 166.51 31.3111 171.677 30.7869Z" fill="#F5F5F5"/>
<path d="M313.695 17.8149C311.366 12.8224 313.221 9.20288 318.904 9.20288C322.474 9.20288 326.901 10.6091 331.211 12.9056C331.693 11.5993 333.066 10.8088 335.271 10.8088C339.157 10.8088 344.507 13.2385 348.701 16.6334C349.997 15.7727 351.522 15.3206 353.078 15.3353C356.789 15.1772 361.29 16.5668 365.201 18.8384C365.43 18.6194 365.7 18.4484 365.996 18.3355C366.292 18.2226 366.607 18.1701 366.924 18.181C368.163 18.2257 369.379 18.5277 370.495 19.0677C371.61 19.6078 372.602 20.3741 373.406 21.318L373.655 21.6508H310.791C308.803 19.8868 310.999 17.8981 313.695 17.8149Z" fill="#F5F5F5"/>
<path d="M102.52 181.826H74.1797V272.423H102.52V181.826Z" fill="#EBEBEB"/>
<path d="M93.2587 272.423H139.73L139.73 150.299H93.2587L93.2587 272.423Z" fill="#F5F5F5"/>
<path d="M163.853 150.299H139.73V272.423H163.853V150.299Z" fill="#EBEBEB"/>
<path d="M99.5077 150.299H139.73V138.159H99.5077V150.299Z" fill="#F5F5F5"/>
<path d="M99.5077 150.299H139.73V147.569H99.5077V150.299Z" fill="#EBEBEB"/>
<path d="M157.595 138.159H139.73V150.299H157.595V138.159Z" fill="#EBEBEB"/>
<path d="M105.757 138.159H139.723V126.019H105.757V138.159Z" fill="#F5F5F5"/>
<path d="M105.757 138.159H139.723V135.429H105.757V138.159Z" fill="#EBEBEB"/>
<path d="M151.346 126.019H139.73V138.159H151.346V126.019Z" fill="#EBEBEB"/>
<path d="M129.681 109.061H127.426V126.027H129.681V109.061Z" fill="#EBEBEB"/>
<path d="M156.149 272.423H190.09V171.534H156.149V272.423Z" fill="#F5F5F5"/>
<path d="M207.705 171.533H190.09V272.423H207.705V171.533Z" fill="#EBEBEB"/>
<path d="M198.895 200.357L224.631 222.424V272.423H198.895V200.357Z" fill="#F5F5F5"/>
<path d="M237.992 222.415H224.637V272.415H237.992V222.415Z" fill="#EBEBEB"/>
<path d="M237.994 222.424H224.631L198.895 200.357H212.258L237.994 222.424Z" fill="#EBEBEB"/>
<path d="M358.625 272.423C358.982 270.424 359.832 268.546 361.097 266.958C362.362 265.37 364.004 264.123 365.872 263.329C364.232 266.064 363.487 269.244 363.742 272.423H358.625Z" fill="#EBEBEB"/>
<path d="M118.599 272.423C118.242 270.424 117.392 268.546 116.127 266.958C114.862 265.37 113.22 264.123 111.352 263.329C112.992 266.064 113.737 269.244 113.482 272.423H118.599Z" fill="#EBEBEB"/>
<path d="M59.1679 272.423C59.1679 272.423 58.7602 261.773 54.3086 258.677C56.1309 263.029 55.7481 272.423 55.7481 272.423H59.1679Z" fill="#EBEBEB"/>
<path d="M57.5 272.423C57.5 272.423 57.9077 266.307 62.3594 264.535C60.5371 267.031 60.9365 272.423 60.9365 272.423H57.5Z" fill="#EBEBEB"/>
<path d="M122.407 272.423C122.407 272.423 121.958 262.338 113.887 258.677C117.498 263.853 117.29 272.423 117.29 272.423H122.407Z" fill="#EBEBEB"/>
<path d="M321.426 258.777H301.031C300.811 258.777 300.599 258.689 300.443 258.533C300.287 258.377 300.199 258.166 300.199 257.945V237.576C300.199 237.355 300.287 237.143 300.443 236.987C300.599 236.831 300.811 236.744 301.031 236.744H321.426C321.646 236.744 321.858 236.831 322.014 236.987C322.17 237.143 322.258 237.355 322.258 237.576V257.945C322.258 258.166 322.17 258.377 322.014 258.533C321.858 258.689 321.646 258.777 321.426 258.777ZM301.863 257.113H320.594V238.408H301.863V257.113Z" fill="#E0E0E0"/>
<path d="M321.426 238.408H301.031C300.811 238.408 300.599 238.32 300.443 238.164C300.287 238.008 300.199 237.796 300.199 237.576V217.173C300.199 216.952 300.287 216.741 300.443 216.585C300.599 216.429 300.811 216.341 301.031 216.341H321.426C321.646 216.341 321.858 216.429 322.014 216.585C322.17 216.741 322.258 216.952 322.258 217.173V237.576C322.258 237.796 322.17 238.008 322.014 238.164C321.858 238.32 321.646 238.408 321.426 238.408ZM301.863 236.744H320.594V218.005H301.863V236.744Z" fill="#E0E0E0"/>
<path d="M321.425 258.777C321.206 258.774 320.996 258.684 320.843 258.528L300.44 238.133C300.283 237.977 300.195 237.764 300.195 237.543C300.195 237.321 300.283 237.108 300.44 236.952C300.597 236.795 300.809 236.707 301.031 236.707C301.252 236.707 301.465 236.795 301.622 236.952L322.016 257.388C322.171 257.544 322.258 257.754 322.258 257.974C322.258 258.194 322.171 258.405 322.016 258.561C321.855 258.708 321.643 258.785 321.425 258.777Z" fill="#E0E0E0"/>
<path d="M321.422 238.408C321.204 238.407 320.995 238.32 320.84 238.166L300.437 217.764C300.282 217.608 300.195 217.397 300.195 217.177C300.195 216.957 300.282 216.746 300.437 216.591C300.515 216.513 300.607 216.451 300.708 216.408C300.809 216.366 300.918 216.344 301.028 216.344C301.138 216.344 301.247 216.366 301.348 216.408C301.449 216.451 301.541 216.513 301.619 216.591L322.013 236.985C322.13 237.101 322.211 237.25 322.243 237.412C322.276 237.574 322.259 237.742 322.196 237.895C322.132 238.047 322.025 238.178 321.887 238.269C321.749 238.36 321.588 238.409 321.422 238.408Z" fill="#E0E0E0"/>
<path d="M321.426 218.005H301.031C300.811 218.005 300.599 217.918 300.443 217.762C300.287 217.605 300.199 217.394 300.199 217.173V196.779C300.199 196.558 300.287 196.347 300.443 196.191C300.599 196.034 300.811 195.947 301.031 195.947H321.426C321.646 195.947 321.858 196.034 322.014 196.191C322.17 196.347 322.258 196.558 322.258 196.779V217.173C322.258 217.394 322.17 217.605 322.014 217.762C321.858 217.918 321.646 218.005 321.426 218.005ZM301.863 216.341H320.594V197.611H301.863V216.341Z" fill="#E0E0E0"/>
<path d="M321.426 197.611H301.031C300.811 197.611 300.599 197.523 300.443 197.367C300.287 197.211 300.199 197 300.199 196.779V176.401C300.199 176.18 300.287 175.969 300.443 175.813C300.599 175.657 300.811 175.569 301.031 175.569H321.426C321.646 175.569 321.858 175.657 322.014 175.813C322.17 175.969 322.258 176.18 322.258 176.401V196.804C322.251 197.02 322.161 197.225 322.005 197.376C321.85 197.527 321.642 197.611 321.426 197.611ZM301.863 195.947H320.594V177.233H301.863V195.947Z" fill="#E0E0E0"/>
<path d="M321.422 218.005C321.204 218.004 320.995 217.918 320.84 217.764L300.437 197.361C300.282 197.205 300.195 196.994 300.195 196.775C300.195 196.555 300.282 196.344 300.437 196.188C300.515 196.11 300.607 196.048 300.708 196.006C300.809 195.964 300.918 195.942 301.028 195.942C301.138 195.942 301.247 195.964 301.348 196.006C301.449 196.048 301.541 196.11 301.619 196.188L322.013 216.591C322.168 216.747 322.255 216.957 322.255 217.177C322.255 217.397 322.168 217.608 322.013 217.764C321.935 217.841 321.843 217.902 321.742 217.943C321.64 217.985 321.532 218.006 321.422 218.005Z" fill="#E0E0E0"/>
<path d="M321.425 197.611C321.206 197.608 320.996 197.518 320.843 197.361L300.44 176.967C300.283 176.81 300.195 176.598 300.195 176.376C300.195 176.155 300.283 175.942 300.44 175.785C300.597 175.629 300.809 175.541 301.031 175.541C301.252 175.541 301.465 175.629 301.622 175.785L322.016 196.188C322.171 196.344 322.258 196.555 322.258 196.775C322.258 196.995 322.171 197.205 322.016 197.361C321.939 197.44 321.847 197.503 321.746 197.545C321.644 197.588 321.535 197.61 321.425 197.611Z" fill="#E0E0E0"/>
<path d="M321.426 177.233H301.031C300.811 177.233 300.599 177.145 300.443 176.989C300.287 176.833 300.199 176.622 300.199 176.401V155.973C300.199 155.753 300.287 155.541 300.443 155.385C300.599 155.229 300.811 155.141 301.031 155.141H321.426C321.646 155.141 321.858 155.229 322.014 155.385C322.17 155.541 322.258 155.753 322.258 155.973V176.401C322.258 176.622 322.17 176.833 322.014 176.989C321.858 177.145 321.646 177.233 321.426 177.233ZM301.863 175.569H320.594V156.806H301.863V175.569Z" fill="#E0E0E0"/>
<path d="M321.426 156.806H301.031C300.811 156.806 300.599 156.718 300.443 156.562C300.287 156.406 300.199 156.194 300.199 155.973V135.579C300.199 135.358 300.287 135.147 300.443 134.991C300.599 134.835 300.811 134.747 301.031 134.747H321.426C321.646 134.747 321.858 134.835 322.014 134.991C322.17 135.147 322.258 135.358 322.258 135.579V155.973C322.258 156.194 322.17 156.406 322.014 156.562C321.858 156.718 321.646 156.806 321.426 156.806ZM301.863 155.141H320.594V136.411H301.863V155.141Z" fill="#E0E0E0"/>
<path d="M321.422 177.233C321.204 177.232 320.995 177.146 320.84 176.992L300.437 156.589C300.282 156.433 300.195 156.222 300.195 156.003C300.195 155.783 300.282 155.572 300.437 155.416C300.515 155.338 300.607 155.276 300.708 155.234C300.809 155.192 300.918 155.17 301.028 155.17C301.138 155.17 301.247 155.192 301.348 155.234C301.449 155.276 301.541 155.338 301.619 155.416L322.013 175.785C322.13 175.902 322.211 176.05 322.243 176.213C322.276 176.375 322.259 176.543 322.196 176.695C322.132 176.848 322.025 176.978 321.887 177.07C321.749 177.161 321.588 177.209 321.422 177.208V177.233Z" fill="#E0E0E0"/>
<path d="M301.032 88.6582H280.629C280.408 88.6582 280.197 88.5705 280.041 88.4144C279.885 88.2584 279.797 88.0468 279.797 87.8261V67.3985C279.797 67.1778 279.885 66.9662 280.041 66.8101C280.197 66.6541 280.408 66.5664 280.629 66.5664H301.032C301.252 66.5664 301.464 66.6541 301.62 66.8101C301.776 66.9662 301.864 67.1778 301.864 67.3985V87.7928C301.868 87.9048 301.85 88.0166 301.81 88.1214C301.77 88.2263 301.71 88.322 301.632 88.4028C301.554 88.4836 301.461 88.5479 301.358 88.5918C301.255 88.6357 301.144 88.6582 301.032 88.6582ZM281.461 86.994H300.199V68.2306H281.461V86.994Z" fill="#E0E0E0"/>
<path d="M321.426 88.6583H301.031C300.811 88.6583 300.599 88.5706 300.443 88.4146C300.287 88.2585 300.199 88.0469 300.199 87.8262C300.199 87.6055 300.287 87.3939 300.443 87.2378C300.599 87.0818 300.811 86.9941 301.031 86.9941H320.594V47.0542C320.594 46.8336 320.681 46.6219 320.837 46.4659C320.993 46.3098 321.205 46.2222 321.426 46.2222C321.646 46.2222 321.858 46.3098 322.014 46.4659C322.17 46.6219 322.258 46.8336 322.258 47.0542V87.8262C322.258 88.0469 322.17 88.2585 322.014 88.4146C321.858 88.5706 321.646 88.6583 321.426 88.6583Z" fill="#E0E0E0"/>
<path d="M301.029 88.6582C300.887 88.6592 300.746 88.6236 300.622 88.5547C300.497 88.4858 300.392 88.3861 300.317 88.265C300.241 88.1438 300.199 88.0054 300.192 87.863C300.186 87.7206 300.216 87.579 300.28 87.4517L320.683 46.6797C320.783 46.4837 320.956 46.3352 321.165 46.2666C321.374 46.198 321.602 46.2149 321.798 46.3136C321.995 46.4119 322.146 46.5845 322.216 46.7936C322.286 47.0027 322.271 47.2311 322.172 47.4286L301.77 88.2006C301.701 88.3378 301.595 88.4532 301.464 88.534C301.334 88.6147 301.183 88.6577 301.029 88.6582Z" fill="#E0E0E0"/>
<path d="M280.629 88.6582H260.234C260.014 88.6582 259.802 88.5705 259.646 88.4144C259.49 88.2584 259.402 88.0468 259.402 87.8261V67.3985C259.402 67.1778 259.49 66.9662 259.646 66.8101C259.802 66.6541 260.014 66.5664 260.234 66.5664H280.629C280.849 66.5664 281.061 66.6541 281.217 66.8101C281.373 66.9662 281.461 67.1778 281.461 67.3985V87.7928C281.465 87.9048 281.447 88.0166 281.407 88.1214C281.367 88.2263 281.307 88.322 281.229 88.4028C281.151 88.4836 281.058 88.5479 280.955 88.5918C280.852 88.6357 280.741 88.6582 280.629 88.6582ZM261.067 86.994H279.797V68.2306H261.067V86.994Z" fill="#E0E0E0"/>
<path d="M280.629 88.658C280.466 88.6557 280.308 88.6057 280.173 88.5141C280.038 88.4225 279.933 88.2934 279.871 88.1428C279.809 87.9922 279.793 87.8267 279.824 87.6669C279.855 87.507 279.932 87.3598 280.047 87.2435L300.441 66.8409C300.518 66.7629 300.61 66.701 300.712 66.6587C300.813 66.6165 300.922 66.5947 301.032 66.5947C301.141 66.5947 301.25 66.6165 301.352 66.6587C301.453 66.701 301.545 66.7629 301.622 66.8409C301.777 66.9968 301.864 67.2077 301.864 67.4275C301.864 67.6473 301.777 67.8582 301.622 68.0141L281.245 88.4167C281.164 88.4969 281.068 88.5597 280.962 88.6012C280.856 88.6427 280.743 88.662 280.629 88.658Z" fill="#E0E0E0"/>
<path d="M341.825 88.6582H321.422C321.201 88.6582 320.99 88.5705 320.834 88.4144C320.677 88.2584 320.59 88.0468 320.59 87.8261V67.3985C320.59 67.1778 320.677 66.9662 320.834 66.8101C320.99 66.6541 321.201 66.5664 321.422 66.5664H341.825C342.045 66.5664 342.257 66.6541 342.413 66.8101C342.569 66.9662 342.657 67.1778 342.657 67.3985V87.7928C342.661 87.9048 342.643 88.0166 342.603 88.1214C342.563 88.2263 342.503 88.322 342.425 88.4028C342.347 88.4836 342.254 88.5479 342.151 88.5918C342.048 88.6357 341.937 88.6582 341.825 88.6582ZM322.254 86.994H340.992V68.2306H322.254V86.994Z" fill="#E0E0E0"/>
<path d="M321.426 88.658C321.263 88.6557 321.104 88.6057 320.97 88.5141C320.835 88.4225 320.73 88.2934 320.668 88.1428C320.606 87.9922 320.59 87.8267 320.621 87.6669C320.652 87.507 320.729 87.3598 320.843 87.2435L341.238 66.8409C341.315 66.7629 341.407 66.701 341.508 66.6587C341.61 66.6165 341.719 66.5947 341.828 66.5947C341.938 66.5947 342.047 66.6165 342.148 66.6587C342.25 66.701 342.342 66.7629 342.419 66.8409C342.574 66.9968 342.661 67.2077 342.661 67.4275C342.661 67.6473 342.574 67.8582 342.419 68.0141L322.017 88.4167C321.939 88.4938 321.847 88.5548 321.745 88.5963C321.644 88.6377 321.535 88.6587 321.426 88.658Z" fill="#E0E0E0"/>
<path d="M199.036 88.6582C198.926 88.6588 198.818 88.6378 198.716 88.5964C198.615 88.555 198.523 88.494 198.445 88.4168C198.29 88.2609 198.203 88.0501 198.203 87.8302C198.203 87.6104 198.29 87.3995 198.445 87.2436L218.839 66.841C218.953 66.7221 219.102 66.6432 219.264 66.6163L321.269 46.2137C321.402 46.1869 321.54 46.1934 321.671 46.2326C321.802 46.2718 321.921 46.3424 322.017 46.4384L362.789 87.2103C362.876 87.2849 362.947 87.3767 362.997 87.48C363.047 87.5832 363.075 87.6956 363.08 87.8102C363.084 87.9248 363.065 88.0391 363.023 88.1459C362.981 88.2526 362.918 88.3496 362.837 88.4307C362.755 88.5118 362.658 88.5753 362.552 88.6171C362.445 88.6589 362.331 88.6782 362.216 88.6738C362.101 88.6694 361.989 88.6413 361.886 88.5914C361.783 88.5414 361.691 88.4707 361.616 88.3836L321.185 47.9361L219.846 68.2306L199.618 88.4501C199.458 88.5917 199.25 88.6662 199.036 88.6582Z" fill="#E0E0E0"/>
<path d="M260.235 88.6584C260.126 88.659 260.017 88.638 259.916 88.5966C259.814 88.5552 259.722 88.4942 259.644 88.417C259.489 88.2611 259.402 88.0503 259.402 87.8304C259.402 87.6106 259.489 87.3997 259.644 87.2438L280.047 66.8412C280.206 66.7049 280.411 66.6336 280.62 66.6417C280.83 66.6498 281.028 66.7366 281.177 66.8848C281.325 67.033 281.412 67.2317 281.42 67.4411C281.428 67.6505 281.356 67.8553 281.22 68.0144L260.818 88.417C260.663 88.5708 260.453 88.6574 260.235 88.6584Z" fill="#E0E0E0"/>
<path d="M260.235 88.6582H239.832C239.611 88.6582 239.4 88.5705 239.244 88.4144C239.088 88.2584 239 88.0468 239 87.8261V67.3985C239 67.1778 239.088 66.9662 239.244 66.8101C239.4 66.6541 239.611 66.5664 239.832 66.5664H260.235C260.455 66.5664 260.667 66.6541 260.823 66.8101C260.979 66.9662 261.067 67.1778 261.067 67.3985V87.7928C261.071 87.9048 261.053 88.0166 261.013 88.1214C260.973 88.2263 260.913 88.322 260.835 88.4028C260.757 88.4836 260.664 88.5479 260.561 88.5918C260.458 88.6357 260.347 88.6582 260.235 88.6582ZM240.664 86.994H259.403V68.2306H240.664V86.994Z" fill="#E0E0E0"/>
<path d="M239.832 88.6582H219.43C219.209 88.6582 218.997 88.5705 218.841 88.4144C218.685 88.2584 218.598 88.0468 218.598 87.8261V67.3985C218.598 67.1778 218.685 66.9662 218.841 66.8101C218.997 66.6541 219.209 66.5664 219.43 66.5664H239.832C240.053 66.5664 240.265 66.6541 240.421 66.8101C240.577 66.9662 240.664 67.1778 240.664 67.3985V87.7928C240.669 87.9048 240.651 88.0166 240.611 88.1214C240.571 88.2263 240.511 88.322 240.433 88.4028C240.355 88.4836 240.262 88.5479 240.159 88.5918C240.055 88.6357 239.945 88.6582 239.832 88.6582ZM220.262 86.994H239V68.2306H220.262V86.994Z" fill="#E0E0E0"/>
<path d="M239.833 88.6584C239.723 88.659 239.615 88.638 239.513 88.5966C239.412 88.5552 239.32 88.4942 239.242 88.417C239.087 88.2611 239 88.0503 239 87.8304C239 87.6106 239.087 87.3997 239.242 87.2438L259.611 66.8412C259.77 66.7049 259.975 66.6336 260.185 66.6417C260.394 66.6498 260.593 66.7366 260.741 66.8848C260.889 67.033 260.976 67.2317 260.984 67.4411C260.992 67.6505 260.921 67.8553 260.785 68.0144L240.39 88.417C240.241 88.5649 240.042 88.6511 239.833 88.6584Z" fill="#E0E0E0"/>
<path d="M219.426 88.658C219.263 88.6557 219.104 88.6057 218.97 88.5141C218.835 88.4225 218.73 88.2934 218.668 88.1428C218.606 87.9922 218.59 87.8267 218.621 87.6669C218.652 87.507 218.729 87.3598 218.843 87.2435L239.238 66.8409C239.315 66.7629 239.407 66.701 239.508 66.6587C239.61 66.6165 239.719 66.5947 239.828 66.5947C239.938 66.5947 240.047 66.6165 240.148 66.6587C240.25 66.701 240.342 66.7629 240.419 66.8409C240.574 66.9968 240.661 67.2077 240.661 67.4275C240.661 67.6473 240.574 67.8582 240.419 68.0141L220.017 88.4167C219.939 88.4938 219.847 88.5548 219.745 88.5963C219.644 88.6377 219.535 88.6587 219.426 88.658Z" fill="#E0E0E0"/>
<path d="M219.43 88.6582H199.035C198.815 88.6582 198.603 88.5705 198.447 88.4144C198.291 88.2584 198.203 88.0468 198.203 87.8261C198.203 87.6054 198.291 87.3938 198.447 87.2377C198.603 87.0817 198.815 86.994 199.035 86.994H218.597V67.3985C218.597 67.1778 218.685 66.9662 218.841 66.8101C218.997 66.6541 219.209 66.5664 219.43 66.5664C219.65 66.5664 219.862 66.6541 220.018 66.8101C220.174 66.9662 220.262 67.1778 220.262 67.3985V87.7928C220.266 87.9048 220.248 88.0166 220.208 88.1214C220.168 88.2263 220.108 88.322 220.03 88.4028C219.952 88.4836 219.859 88.5479 219.756 88.5918C219.653 88.6357 219.542 88.6582 219.43 88.6582Z" fill="#E0E0E0"/>
<path d="M321.425 156.806C321.207 156.805 320.998 156.718 320.843 156.564L300.44 136.17C300.362 136.093 300.301 136 300.259 135.899C300.217 135.798 300.195 135.689 300.195 135.579C300.195 135.47 300.217 135.361 300.259 135.26C300.301 135.158 300.362 135.066 300.44 134.989C300.518 134.911 300.61 134.849 300.711 134.807C300.812 134.766 300.921 134.744 301.031 134.744C301.141 134.744 301.249 134.766 301.351 134.807C301.452 134.849 301.544 134.911 301.622 134.989L322.016 155.391C322.171 155.547 322.258 155.758 322.258 155.978C322.258 156.198 322.171 156.409 322.016 156.564C321.938 156.642 321.846 156.703 321.745 156.744C321.643 156.785 321.535 156.806 321.425 156.806Z" fill="#E0E0E0"/>
<path d="M321.426 136.411H301.031C300.811 136.411 300.599 136.324 300.443 136.168C300.287 136.012 300.199 135.8 300.199 135.579V115.177C300.199 114.956 300.287 114.744 300.443 114.588C300.599 114.432 300.811 114.344 301.031 114.344H321.426C321.646 114.344 321.858 114.432 322.014 114.588C322.17 114.744 322.258 114.956 322.258 115.177V135.579C322.258 135.8 322.17 136.012 322.014 136.168C321.858 136.324 321.646 136.411 321.426 136.411ZM301.863 134.747H320.594V116.009H301.863V134.747Z" fill="#E0E0E0"/>
<path d="M321.426 116.009H301.031C300.811 116.009 300.599 115.921 300.443 115.765C300.287 115.609 300.199 115.397 300.199 115.177V94.7823C300.199 94.5616 300.287 94.35 300.443 94.1939C300.599 94.0379 300.811 93.9502 301.031 93.9502H321.426C321.646 93.9502 321.858 94.0379 322.014 94.1939C322.17 94.35 322.258 94.5616 322.258 94.7823V115.177C322.258 115.397 322.17 115.609 322.014 115.765C321.858 115.921 321.646 116.009 321.426 116.009ZM301.863 114.344H320.594V95.6144H301.863V114.344Z" fill="#E0E0E0"/>
<path d="M321.425 136.411C321.207 136.41 320.998 136.324 320.843 136.17L300.44 115.767C300.362 115.69 300.301 115.598 300.259 115.496C300.217 115.395 300.195 115.286 300.195 115.177C300.195 115.067 300.217 114.958 300.259 114.857C300.301 114.755 300.362 114.663 300.44 114.586C300.518 114.508 300.61 114.447 300.711 114.405C300.812 114.363 300.921 114.341 301.031 114.341C301.141 114.341 301.249 114.363 301.351 114.405C301.452 114.447 301.544 114.508 301.622 114.586L322.016 134.988C322.133 135.105 322.213 135.253 322.246 135.416C322.278 135.578 322.262 135.746 322.198 135.898C322.135 136.051 322.028 136.181 321.89 136.273C321.752 136.364 321.59 136.412 321.425 136.411Z" fill="#E0E0E0"/>
<path d="M321.422 116.009C321.204 116.008 320.995 115.921 320.84 115.768L300.437 95.3649C300.282 95.209 300.195 94.9981 300.195 94.7783C300.195 94.5585 300.282 94.3476 300.437 94.1917C300.515 94.1137 300.607 94.0518 300.708 94.0095C300.809 93.9673 300.918 93.9456 301.028 93.9456C301.138 93.9456 301.247 93.9673 301.348 94.0095C301.449 94.0518 301.541 94.1137 301.619 94.1917L322.013 114.586C322.13 114.702 322.211 114.851 322.243 115.013C322.276 115.175 322.259 115.343 322.196 115.496C322.132 115.648 322.025 115.779 321.887 115.87C321.749 115.962 321.588 116.01 321.422 116.009Z" fill="#E0E0E0"/>
<path d="M362.231 87.8262H199.035L219.429 94.7824H362.231V87.8262Z" fill="#E0E0E0"/>
<path d="M362.231 95.6144H219.429C219.338 95.6139 219.248 95.597 219.163 95.5645L198.76 88.6166C198.571 88.5545 198.41 88.4265 198.307 88.256C198.204 88.0854 198.166 87.8836 198.199 87.6871C198.232 87.4907 198.335 87.3127 198.488 87.1855C198.642 87.0583 198.836 86.9904 199.035 86.994H362.231C362.451 86.994 362.663 87.0817 362.819 87.2377C362.975 87.3938 363.063 87.6054 363.063 87.8261V94.7823C363.063 95.003 362.975 95.2146 362.819 95.3707C362.663 95.5267 362.451 95.6144 362.231 95.6144ZM219.571 93.9502H361.399V88.6582H204.052L219.571 93.9502Z" fill="#E0E0E0"/>
<path d="M285.929 123.398H301.031V91.3043H285.929V123.398Z" fill="#E0E0E0"/>
<path d="M285.921 91.3042H278.898V123.398H285.921V91.3042Z" fill="#F5F5F5"/>
<path d="M303.277 272.415H333.016V257.97H303.277V272.415Z" fill="#E0E0E0"/>
<path d="M303.279 257.979H289.441V272.423H303.279V257.979Z" fill="#F5F5F5"/>
<path d="M341.828 123.681C341.607 123.681 341.396 123.593 341.24 123.437C341.084 123.281 340.996 123.069 340.996 122.848V91.3042C340.996 91.0836 341.084 90.8719 341.24 90.7159C341.396 90.5598 341.607 90.4722 341.828 90.4722C342.049 90.4722 342.261 90.5598 342.417 90.7159C342.573 90.8719 342.66 91.0836 342.66 91.3042V122.848C342.66 123.069 342.573 123.281 342.417 123.437C342.261 123.593 342.049 123.681 341.828 123.681Z" fill="#E0E0E0"/>
<path d="M341.832 127.508C341.289 127.508 340.758 127.347 340.306 127.045C339.855 126.743 339.503 126.315 339.295 125.813C339.087 125.311 339.033 124.759 339.139 124.226C339.245 123.694 339.506 123.204 339.89 122.82C340.274 122.436 340.763 122.175 341.296 122.069C341.829 121.963 342.381 122.017 342.883 122.225C343.384 122.433 343.813 122.785 344.115 123.236C344.417 123.688 344.578 124.219 344.578 124.762C344.578 125.123 344.507 125.48 344.369 125.813C344.231 126.146 344.028 126.449 343.773 126.704C343.518 126.959 343.216 127.161 342.883 127.299C342.549 127.437 342.192 127.508 341.832 127.508ZM341.832 123.68C341.618 123.68 341.409 123.744 341.231 123.863C341.053 123.981 340.914 124.15 340.832 124.348C340.751 124.546 340.729 124.763 340.771 124.973C340.813 125.183 340.916 125.376 341.067 125.527C341.218 125.678 341.411 125.781 341.621 125.823C341.831 125.865 342.048 125.843 342.246 125.761C342.443 125.679 342.612 125.541 342.731 125.363C342.85 125.185 342.914 124.976 342.914 124.762C342.914 124.62 342.886 124.479 342.831 124.348C342.777 124.217 342.697 124.098 342.597 123.997C342.496 123.897 342.377 123.817 342.246 123.763C342.115 123.708 341.974 123.68 341.832 123.68Z" fill="#E0E0E0"/>
<path d="M221.988 140.239C221.768 140.239 221.556 140.151 221.4 139.995C221.244 139.839 221.156 139.628 221.156 139.407V91.3042C221.156 91.0836 221.244 90.8719 221.4 90.7159C221.556 90.5598 221.768 90.4722 221.988 90.4722C222.209 90.4722 222.421 90.5598 222.577 90.7159C222.733 90.8719 222.82 91.0836 222.82 91.3042V139.407C222.82 139.628 222.733 139.839 222.577 139.995C222.421 140.151 222.209 140.239 221.988 140.239Z" fill="#E0E0E0"/>
<path d="M229.807 145.223C229.609 145.226 229.416 145.158 229.263 145.031C229.111 144.905 229.008 144.728 228.975 144.532C228.359 143.567 222.942 140.372 221.952 140.239C221.02 140.364 215.603 143.567 214.987 144.532C214.969 144.753 214.863 144.957 214.694 145.1C214.524 145.243 214.305 145.313 214.085 145.294C213.864 145.275 213.66 145.169 213.517 145C213.374 144.831 213.305 144.612 213.323 144.391C213.323 142.519 220.87 138.566 221.96 138.566C223.05 138.566 230.606 142.51 230.606 144.391C230.606 144.606 230.523 144.813 230.374 144.968C230.225 145.123 230.022 145.214 229.807 145.223Z" fill="#E0E0E0"/>
<path d="M238.807 205.366L251.013 193.159L248.409 188.167C248.634 187.668 248.842 187.168 249.033 186.652L254.383 184.988V167.748L249.033 166.083C248.833 165.576 248.634 165.068 248.409 164.569L251.005 159.577L238.807 147.395L233.814 149.991C233.315 149.766 232.816 149.558 232.308 149.367L230.644 144.017H213.362L211.698 149.367C211.19 149.558 210.691 149.766 210.191 149.991L205.199 147.395L193.042 159.593L195.647 164.586C195.414 165.085 195.214 165.592 195.014 166.1L189.664 167.764V185.022L195.014 186.686C195.214 187.202 195.414 187.701 195.638 188.2L193.042 193.193L205.249 205.399L210.241 202.795C210.741 203.019 211.248 203.227 211.756 203.419L213.42 208.769H230.686L232.35 203.419C232.857 203.227 233.357 203.019 233.856 202.795L238.807 205.366ZM231.11 185.454C229.314 187.252 227.024 188.476 224.532 188.972C222.04 189.468 219.456 189.214 217.108 188.242C214.76 187.27 212.754 185.623 211.342 183.51C209.93 181.397 209.176 178.913 209.176 176.372C209.176 173.831 209.93 171.347 211.342 169.234C212.754 167.121 214.76 165.474 217.108 164.502C219.456 163.53 222.04 163.276 224.532 163.772C227.024 164.268 229.314 165.493 231.11 167.29C232.302 168.484 233.247 169.901 233.891 171.461C234.534 173.021 234.864 174.692 234.861 176.379C234.858 178.066 234.522 179.736 233.873 181.293C233.223 182.851 232.273 184.265 231.077 185.454H231.11Z" fill="#E0E0E0"/>
<path d="M208.02 310C297.121 310 369.352 305.783 369.352 300.581C369.352 295.379 297.121 291.162 208.02 291.162C118.918 291.162 46.6875 295.379 46.6875 300.581C46.6875 305.783 118.918 310 208.02 310Z" fill="#F5F5F5"/>
<path d="M146.352 89.9897H135.967C135.492 89.9902 135.026 90.1149 134.614 90.3513C134.203 90.5878 133.86 90.9279 133.621 91.3377L128.429 100.333C128.191 100.745 128.066 101.213 128.066 101.689C128.066 102.165 128.191 102.632 128.429 103.045L133.621 112.032C133.858 112.444 134.2 112.787 134.612 113.025C135.024 113.263 135.491 113.388 135.967 113.388H146.352C146.827 113.388 147.295 113.263 147.707 113.025C148.119 112.787 148.461 112.444 148.698 112.032L153.89 103.045C154.127 102.632 154.252 102.165 154.252 101.689C154.252 101.213 154.127 100.745 153.89 100.333L148.698 91.3377C148.459 90.9279 148.116 90.5878 147.704 90.3513C147.293 90.1149 146.826 89.9902 146.352 89.9897Z" fill="#6776FF"/>
<path opacity="0.5" d="M146.352 89.9897H135.967C135.492 89.9902 135.026 90.1149 134.614 90.3513C134.203 90.5878 133.86 90.9279 133.621 91.3377L128.429 100.333C128.191 100.745 128.066 101.213 128.066 101.689C128.066 102.165 128.191 102.632 128.429 103.045L133.621 112.032C133.858 112.444 134.2 112.787 134.612 113.025C135.024 113.263 135.491 113.388 135.967 113.388H146.352C146.827 113.388 147.295 113.263 147.707 113.025C148.119 112.787 148.461 112.444 148.698 112.032L153.89 103.045C154.127 102.632 154.252 102.165 154.252 101.689C154.252 101.213 154.127 100.745 153.89 100.333L148.698 91.3377C148.459 90.9279 148.116 90.5878 147.704 90.3513C147.293 90.1149 146.826 89.9902 146.352 89.9897Z" fill="white"/>
<path d="M79.8759 60.1844L79.2852 59.5937L84.2776 54.6012L84.8684 55.1919L79.8759 60.1844ZM88.4713 51.589L87.8806 50.9983L98.3148 40.564L98.9056 41.1464L88.4713 51.589Z" fill="#6776FF"/>
<path opacity="0.5" d="M79.8759 60.1844L79.2852 59.5937L84.2776 54.6012L84.8684 55.1919L79.8759 60.1844ZM88.4713 51.589L87.8806 50.9983L98.3148 40.564L98.9056 41.1464L88.4713 51.589Z" fill="white"/>
<path d="M211.763 120.519V82.8587L200.114 79.2059C199.698 78.0909 199.24 76.9926 198.757 75.8776L204.424 65.0605L177.797 38.4339L166.98 44.1087C165.89 43.6178 164.8 43.1602 163.652 42.7358L159.999 31.0867H122.314L118.67 42.7358C117.546 43.1602 116.456 43.6178 115.341 44.1087L104.524 38.4339L77.8975 65.0605L83.5723 75.8776C83.0814 76.9676 82.6238 78.0576 82.2077 79.2059L70.5586 82.8587V120.519L82.2077 124.163C82.6321 125.278 83.0897 126.377 83.5723 127.492L77.8975 138.309L104.524 164.935L115.341 159.26C116.423 159.751 117.513 160.209 118.67 160.633L122.314 172.282H159.974L163.627 160.633C164.742 160.209 165.832 159.751 166.955 159.26L177.772 164.935L204.399 138.309L198.724 127.492C199.207 126.41 199.673 125.312 200.089 124.163L211.763 120.519ZM169.185 101.68C169.185 107.223 167.542 112.641 164.462 117.25C161.383 121.859 157.006 125.451 151.885 127.572C146.764 129.693 141.13 130.248 135.693 129.166C130.257 128.085 125.264 125.416 121.344 121.497C117.425 117.577 114.756 112.584 113.675 107.148C112.593 101.712 113.148 96.0767 115.269 90.9559C117.391 85.8351 120.982 81.4583 125.591 78.3789C130.2 75.2995 135.618 73.6559 141.161 73.6559C148.593 73.6581 155.719 76.6114 160.975 81.8665C166.23 87.1217 169.183 94.2485 169.185 101.68Z" fill="#6776FF"/>
<path opacity="0.5" d="M211.763 120.519V82.8587L200.114 79.2059C199.698 78.0909 199.24 76.9926 198.757 75.8776L204.424 65.0605L177.797 38.4339L166.98 44.1087C165.89 43.6178 164.8 43.1602 163.652 42.7358L159.999 31.0867H122.314L118.67 42.7358C117.546 43.1602 116.456 43.6178 115.341 44.1087L104.524 38.4339L77.8975 65.0605L83.5723 75.8776C83.0814 76.9676 82.6238 78.0576 82.2077 79.2059L70.5586 82.8587V120.519L82.2077 124.163C82.6321 125.278 83.0897 126.377 83.5723 127.492L77.8975 138.309L104.524 164.935L115.341 159.26C116.423 159.751 117.513 160.209 118.67 160.633L122.314 172.282H159.974L163.627 160.633C164.742 160.209 165.832 159.751 166.955 159.26L177.772 164.935L204.399 138.309L198.724 127.492C199.207 126.41 199.673 125.312 200.089 124.163L211.763 120.519ZM169.185 101.68C169.185 107.223 167.542 112.641 164.462 117.25C161.383 121.859 157.006 125.451 151.885 127.572C146.764 129.693 141.13 130.248 135.693 129.166C130.257 128.085 125.264 125.416 121.344 121.497C117.425 117.577 114.756 112.584 113.675 107.148C112.593 101.712 113.148 96.0767 115.269 90.9559C117.391 85.8351 120.982 81.4583 125.591 78.3789C130.2 75.2995 135.618 73.6559 141.161 73.6559C148.593 73.6581 155.719 76.6114 160.975 81.8665C166.23 87.1217 169.183 94.2485 169.185 101.68Z" fill="white"/>
<path d="M158.159 170.003H124.169C124.124 170.003 124.08 169.988 124.044 169.961C124.008 169.934 123.982 169.896 123.969 169.853L120.641 159.352C120.624 159.299 120.629 159.242 120.655 159.193C120.681 159.143 120.725 159.107 120.778 159.09C120.831 159.073 120.889 159.079 120.938 159.104C120.987 159.13 121.024 159.174 121.04 159.227L124.277 169.587H157.96L161.421 158.653C161.431 158.623 161.447 158.596 161.469 158.573C161.49 158.55 161.517 158.532 161.546 158.52L162.686 158.096C163.651 157.73 164.675 157.305 165.831 156.789L166.938 156.29C166.989 156.268 167.046 156.267 167.098 156.287C167.149 156.308 167.19 156.347 167.212 156.398C167.235 156.449 167.236 156.506 167.215 156.558C167.195 156.609 167.155 156.651 167.104 156.673L165.998 157.164C164.841 157.688 163.801 158.112 162.836 158.478L161.787 158.878L158.359 169.853C158.345 169.895 158.319 169.933 158.283 169.96C158.247 169.986 158.204 170.001 158.159 170.003ZM177.297 162.073C177.242 162.071 177.189 162.051 177.147 162.015C177.127 161.995 177.111 161.972 177.1 161.946C177.089 161.921 177.084 161.893 177.084 161.865C177.084 161.837 177.089 161.809 177.1 161.784C177.111 161.758 177.127 161.735 177.147 161.715L201.078 137.793L195.761 127.641C195.747 127.613 195.739 127.582 195.739 127.55C195.739 127.518 195.747 127.487 195.761 127.458L196.26 126.352C196.76 125.228 197.184 124.197 197.558 123.215L197.983 122.075C197.995 122.046 198.013 122.019 198.036 121.998C198.059 121.976 198.086 121.96 198.116 121.95L209.058 118.53V84.8725L198.241 81.4943C198.211 81.4899 198.182 81.479 198.157 81.4625C198.132 81.446 198.11 81.4242 198.094 81.3986C198.079 81.373 198.068 81.3442 198.065 81.3143C198.061 81.2843 198.064 81.2539 198.073 81.2252C198.082 81.1964 198.097 81.17 198.118 81.1478C198.138 81.1256 198.163 81.108 198.191 81.0964C198.219 81.0848 198.249 81.0794 198.279 81.0806C198.309 81.0817 198.339 81.0895 198.366 81.1032L209.299 84.5147C209.34 84.5298 209.376 84.557 209.401 84.5926C209.426 84.6283 209.44 84.6707 209.441 84.7144V118.705C209.441 118.749 209.428 118.792 209.402 118.828C209.377 118.864 209.341 118.891 209.299 118.905L198.341 122.316L197.95 123.365C197.575 124.355 197.117 125.387 196.635 126.526L196.186 127.542L201.519 137.735C201.545 137.769 201.56 137.812 201.56 137.855C201.56 137.899 201.545 137.941 201.519 137.976L177.489 162.015C177.437 162.057 177.372 162.078 177.306 162.073H177.297ZM105.014 162.073C104.959 162.071 104.906 162.051 104.865 162.015L80.8341 137.976C80.8102 137.94 80.7974 137.898 80.7974 137.855C80.7974 137.812 80.8102 137.77 80.8341 137.735L86.2177 127.45C86.2442 127.402 86.2883 127.365 86.3409 127.348C86.3935 127.331 86.4507 127.335 86.5006 127.359C86.5247 127.372 86.546 127.389 86.5632 127.411C86.5804 127.432 86.5933 127.456 86.601 127.483C86.6087 127.509 86.6112 127.537 86.6082 127.564C86.6053 127.591 86.597 127.617 86.5838 127.641L81.2751 137.793L105.197 161.715C105.218 161.735 105.234 161.758 105.245 161.784C105.255 161.809 105.261 161.837 105.261 161.865C105.261 161.893 105.255 161.921 105.245 161.946C105.234 161.972 105.218 161.995 105.197 162.015C105.174 162.036 105.146 162.052 105.116 162.062C105.086 162.072 105.054 162.076 105.023 162.073H105.014ZM119.16 158.337H119.085C118.253 158.012 117.346 157.63 116.339 157.18C116.31 157.173 116.282 157.159 116.258 157.14C116.235 157.121 116.216 157.097 116.202 157.07C116.189 157.042 116.182 157.013 116.181 156.982C116.181 156.952 116.187 156.922 116.199 156.894C116.212 156.866 116.23 156.842 116.253 156.822C116.276 156.802 116.303 156.787 116.332 156.779C116.361 156.77 116.392 156.768 116.422 156.773C116.452 156.778 116.48 156.789 116.505 156.806C117.504 157.247 118.394 157.638 119.235 157.946C119.261 157.956 119.284 157.971 119.304 157.99C119.324 158.01 119.34 158.033 119.351 158.059C119.362 158.084 119.367 158.112 119.367 158.139C119.367 158.167 119.362 158.195 119.351 158.22C119.334 158.26 119.304 158.292 119.266 158.313C119.229 158.334 119.186 158.342 119.143 158.337H119.16ZM141.177 132.426C133.022 132.41 125.206 129.16 119.445 123.388C113.683 117.616 110.448 109.794 110.448 101.639C110.448 101.584 110.47 101.531 110.509 101.492C110.548 101.453 110.601 101.431 110.656 101.431C110.711 101.431 110.764 101.453 110.803 101.492C110.842 101.531 110.864 101.584 110.864 101.639C110.864 107.634 112.642 113.495 115.973 118.48C119.303 123.465 124.038 127.35 129.576 129.644C135.115 131.939 141.21 132.539 147.09 131.369C152.97 130.2 158.372 127.313 162.611 123.073C166.85 118.834 169.737 113.433 170.907 107.553C172.077 101.673 171.476 95.5777 169.182 90.0388C166.888 84.4998 163.002 79.7656 158.017 76.4348C153.033 73.104 147.172 71.3262 141.177 71.3262C141.121 71.3262 141.069 71.3043 141.03 71.2653C140.991 71.2263 140.969 71.1734 140.969 71.1182C140.969 71.063 140.991 71.0101 141.03 70.9711C141.069 70.9321 141.121 70.9102 141.177 70.9102C149.329 70.9102 157.147 74.1485 162.911 79.9129C168.675 85.6772 171.914 93.4953 171.914 101.647C171.914 109.799 168.675 117.617 162.911 123.382C157.147 129.146 149.329 132.384 141.177 132.384V132.426ZM84.5951 123.498C84.5517 123.496 84.5098 123.482 84.4743 123.457C84.4389 123.431 84.4115 123.397 84.3954 123.356L84.0044 122.316L73.0126 118.88C72.9709 118.866 72.9348 118.839 72.9094 118.803C72.884 118.767 72.8706 118.724 72.8711 118.68V84.6894C72.8718 84.6458 72.8856 84.6033 72.9109 84.5677C72.9361 84.532 72.9716 84.5049 73.0126 84.4897L83.5217 81.2114C83.5747 81.1952 83.6319 81.2001 83.6814 81.2248C83.731 81.2496 83.7691 81.2924 83.788 81.3445C83.8016 81.3985 83.7947 81.4557 83.7686 81.5049C83.7424 81.5541 83.699 81.5918 83.6466 81.6107L73.2622 84.8725V118.555L84.204 121.975C84.2333 121.984 84.26 122 84.2817 122.022C84.3034 122.044 84.3196 122.071 84.3289 122.1L84.7615 123.24C84.7807 123.291 84.7793 123.347 84.7575 123.397C84.7357 123.446 84.6954 123.486 84.6451 123.506L84.5951 123.498ZM84.5951 80.2295H84.5202C84.4693 80.2074 84.4288 80.1666 84.4071 80.1155C84.3854 80.0644 84.3842 80.0069 84.4038 79.9549C84.8032 78.8898 85.2358 77.8747 85.6935 76.8429C85.7169 76.7935 85.7589 76.7554 85.8103 76.7367C85.8617 76.718 85.9184 76.7203 85.9681 76.7431C85.9933 76.7539 86.016 76.7697 86.0351 76.7894C86.0542 76.8091 86.0692 76.8323 86.0793 76.8579C86.0893 76.8834 86.0942 76.9106 86.0937 76.9381C86.0932 76.9655 86.0872 76.9925 86.0762 77.0177C85.6103 78.0328 85.1942 79.0479 84.7948 80.1047C84.7803 80.15 84.7512 80.1892 84.712 80.2162C84.6729 80.2433 84.626 80.2567 84.5785 80.2545L84.5951 80.2295ZM196.252 75.4783H196.152C196.128 75.4653 196.107 75.4476 196.09 75.4263C196.072 75.4049 196.06 75.3804 196.052 75.3541C196.044 75.3279 196.042 75.3003 196.045 75.2731C196.048 75.2458 196.056 75.2194 196.069 75.1954L201.061 65.5849L197.068 61.5742C197.044 61.5564 197.024 61.5336 197.01 61.5074C196.995 61.4812 196.987 61.4523 196.985 61.4226C196.983 61.3928 196.987 61.363 196.997 61.3351C197.008 61.3072 197.024 61.2818 197.045 61.2607C197.066 61.2397 197.092 61.2234 197.12 61.2129C197.148 61.2025 197.177 61.1982 197.207 61.2003C197.237 61.2024 197.266 61.2109 197.292 61.2252C197.318 61.2395 197.341 61.2592 197.359 61.283L201.519 65.4434C201.545 65.4781 201.56 65.5205 201.56 65.5641C201.56 65.6076 201.545 65.65 201.519 65.6847L196.418 75.4284C196.397 75.4551 196.368 75.4759 196.336 75.489C196.304 75.5021 196.27 75.507 196.235 75.5033L196.252 75.4783ZM80.9839 65.7346C80.9283 65.7352 80.8747 65.7143 80.8341 65.6764C80.7979 65.6366 80.7778 65.5846 80.7778 65.5308C80.7778 65.4769 80.7979 65.425 80.8341 65.3852L104.84 41.363C104.874 41.3353 104.916 41.3202 104.96 41.3202C105.004 41.3202 105.047 41.3353 105.081 41.363L115.274 46.6966L116.289 46.2473C117.271 45.8063 118.17 45.4152 119.035 45.0907C119.061 45.0799 119.088 45.0744 119.116 45.0744C119.144 45.0745 119.171 45.0801 119.197 45.091C119.222 45.1018 119.246 45.1177 119.265 45.1377C119.284 45.1576 119.299 45.1813 119.31 45.2072C119.328 45.2591 119.326 45.3162 119.302 45.3662C119.279 45.4161 119.237 45.4547 119.185 45.4735C118.353 45.8146 117.437 46.1891 116.464 46.6217L115.357 47.121C115.328 47.1334 115.297 47.1397 115.266 47.1397C115.234 47.1397 115.203 47.1334 115.174 47.121L105.023 41.804L81.1337 65.7346C81.0856 65.7541 81.0319 65.7541 80.9839 65.7346ZM193.748 58.1461C193.692 58.1466 193.638 58.1257 193.598 58.0878L177.231 41.7624L167.079 47.0794C167.053 47.094 167.022 47.1016 166.992 47.1016C166.961 47.1016 166.931 47.094 166.905 47.0794L165.798 46.5801C164.658 46.0726 163.626 45.6482 162.653 45.2738L161.513 44.8494C161.483 44.8377 161.457 44.8196 161.436 44.7967C161.414 44.7737 161.398 44.7462 161.388 44.7163L157.968 33.7827H124.319L121.373 43.1936C121.366 43.2197 121.353 43.244 121.336 43.265C121.318 43.286 121.297 43.3032 121.273 43.3157C121.249 43.3282 121.222 43.3356 121.195 43.3375C121.168 43.3394 121.141 43.3357 121.115 43.3267C121.064 43.3095 121.021 43.273 120.996 43.2248C120.971 43.1766 120.966 43.1206 120.982 43.0688L123.978 33.5165C123.992 33.4748 124.018 33.4387 124.054 33.4133C124.09 33.3879 124.133 33.3745 124.177 33.375H158.168C158.211 33.3757 158.254 33.3895 158.289 33.4148C158.325 33.44 158.352 33.4755 158.367 33.5165L161.796 44.4999L162.844 44.8993C163.826 45.2655 164.858 45.7314 166.006 46.214L167.021 46.6634L177.231 41.3297C177.265 41.3034 177.308 41.2891 177.351 41.2891C177.395 41.2891 177.437 41.3034 177.472 41.3297L193.872 57.8049C193.892 57.8243 193.908 57.8476 193.919 57.8733C193.93 57.899 193.936 57.9267 193.936 57.9547C193.936 57.9827 193.93 58.0103 193.919 58.0361C193.908 58.0618 193.892 58.0851 193.872 58.1045C193.838 58.137 193.794 58.1574 193.748 58.1627V58.1461Z" fill="#FAFAFA"/>
<path d="M260.726 108.495C263.331 111.823 265.769 115.152 268.148 118.588C270.528 122.025 272.791 125.536 274.93 129.197C275.471 130.104 275.987 131.053 276.511 131.985C277.267 133.397 277.713 134.954 277.817 136.553C277.953 138.979 277.717 141.412 277.118 143.767C276.083 148.002 274.511 152.087 272.442 155.924L268.157 154.26C269.007 150.418 269.622 146.527 269.996 142.61C270.161 140.919 270.105 139.212 269.829 137.535C269.761 137.069 269.588 136.625 269.322 136.237C268.772 135.405 268.24 134.573 267.657 133.74C265.402 130.412 263.014 127.159 260.61 123.889L253.379 114.087L260.726 108.495Z" fill="#FF8B7B"/>
<path d="M267.858 153.777L265.645 157.738L273.366 158.878C273.366 158.878 274.198 155.549 272.26 153.253L267.858 153.777Z" fill="#FF8B7B"/>
<path d="M264.477 163.005L270.909 163.654L273.363 158.878L265.641 157.738L264.477 163.005Z" fill="#FF8B7B"/>
<path d="M285.404 186.636L287.701 174.413C287.967 172.995 288.785 171.74 289.976 170.924C291.166 170.109 292.631 169.798 294.05 170.061L313.329 173.672C312.178 169.82 310.133 166.295 307.36 163.385C304.586 160.475 301.164 158.263 297.371 156.929C293.579 155.595 289.525 155.177 285.541 155.709C281.556 156.242 277.754 157.71 274.446 159.993L186.977 108.221C187.432 102.747 186.105 97.2729 183.195 92.6145C180.285 87.9562 175.948 84.3629 170.83 82.3702C165.712 80.3775 160.086 80.0922 154.793 81.5567C149.499 83.0212 144.82 86.1572 141.454 90.4972L160.734 94.1085C162.15 94.381 163.401 95.202 164.214 96.3927C165.028 97.5834 165.338 99.0473 165.077 100.466L162.78 112.697C162.512 114.114 161.693 115.367 160.504 116.183C159.314 116.998 157.85 117.309 156.432 117.049L137.152 113.429C138.308 117.305 140.369 120.849 143.165 123.77C145.961 126.691 149.413 128.905 153.234 130.228C157.056 131.55 161.137 131.945 165.141 131.378C169.145 130.811 172.956 129.299 176.26 126.967L263.554 178.64C263.05 184.125 264.338 189.626 267.224 194.317C270.11 199.009 274.439 202.639 279.562 204.664C284.685 206.688 290.326 206.998 295.639 205.546C300.953 204.095 305.653 200.96 309.035 196.613L289.756 192.993C288.338 192.722 287.085 191.902 286.27 190.711C285.455 189.52 285.144 188.055 285.404 186.636Z" fill="#6776FF"/>
<path d="M263.62 159.678L192.702 117.704C191.412 116.941 189.749 117.367 188.986 118.656L186.095 123.54C185.332 124.829 185.759 126.493 187.048 127.256L257.966 169.23C259.256 169.993 260.919 169.567 261.682 168.278L264.573 163.394C265.336 162.105 264.909 160.441 263.62 159.678Z" fill="#6776FF"/>
<path opacity="0.2" d="M263.62 159.678L192.702 117.704C191.412 116.941 189.749 117.367 188.986 118.656L186.095 123.54C185.332 124.829 185.759 126.493 187.048 127.256L257.966 169.23C259.256 169.993 260.919 169.567 261.682 168.278L264.573 163.394C265.336 162.105 264.909 160.441 263.62 159.678Z" fill="white"/>
<path d="M231.102 82.6343C231.019 83.1252 230.703 83.4663 230.386 83.4663C230.07 83.4663 229.871 82.9754 229.945 82.4928C230.02 82.0102 230.345 81.6607 230.661 81.7023C230.977 81.7439 231.177 82.1517 231.102 82.6343Z" fill="#263238"/>
<path d="M230.744 83.4829C229.93 84.8809 228.928 86.1604 227.766 87.2855C228.06 87.5805 228.414 87.8078 228.805 87.9515C229.196 88.0952 229.614 88.1519 230.029 88.1176L230.744 83.4829Z" fill="#FF5652"/>
<path d="M233.29 80.2128C233.253 80.2132 233.216 80.206 233.182 80.1917C233.147 80.1774 233.116 80.1563 233.09 80.1296C232.84 79.8662 232.531 79.6661 232.188 79.546C231.845 79.426 231.478 79.3892 231.118 79.439C231.081 79.4475 231.042 79.4485 231.003 79.4418C230.965 79.4351 230.929 79.4208 230.896 79.3999C230.864 79.379 230.836 79.3518 230.814 79.3199C230.792 79.2881 230.777 79.2522 230.769 79.2143C230.76 79.1771 230.759 79.1386 230.766 79.101C230.773 79.0635 230.787 79.0277 230.808 78.9958C230.829 78.9639 230.857 78.9366 230.888 78.9156C230.92 78.8945 230.956 78.88 230.993 78.8731C231.446 78.8014 231.909 78.8395 232.343 78.9844C232.778 79.1292 233.171 79.3764 233.49 79.7052C233.542 79.762 233.571 79.8362 233.571 79.9132C233.571 79.9903 233.542 80.0645 233.49 80.1213C233.436 80.1741 233.365 80.2064 233.29 80.2128Z" fill="#263238"/>
<path d="M247.355 88.0012C246.523 92.4778 245.607 100.674 248.736 103.653C248.736 103.653 247.513 108.188 239.2 108.188C230.047 108.188 234.832 103.653 234.832 103.653C239.824 102.463 239.691 98.76 238.826 95.3319L247.355 88.0012Z" fill="#FF8B7B"/>
<path d="M252.954 107.014C252.853 106.867 252.777 106.704 252.73 106.531C252.031 103.877 249.093 101.805 245.282 101.697C241.263 101.597 236.729 102.08 234.049 104.293C232.868 105.267 234.174 106.689 234.174 106.689L252.954 107.014Z" fill="#6776FF"/>
<path opacity="0.5" d="M252.954 107.014C252.853 106.867 252.777 106.704 252.73 106.531C252.031 103.877 249.093 101.805 245.282 101.697C241.263 101.597 236.729 102.08 234.049 104.293C232.868 105.267 234.174 106.689 234.174 106.689L252.954 107.014Z" fill="white"/>
<path d="M282.334 274.445H282.276C282.153 274.428 282.039 274.374 281.95 274.288C281.86 274.203 281.8 274.092 281.777 273.971C281.747 273.877 281.739 273.778 281.752 273.68C281.765 273.582 281.799 273.489 281.851 273.405C282.317 272.615 284.348 272.199 284.406 272.182C284.434 272.177 284.463 272.179 284.489 272.189C284.516 272.2 284.539 272.217 284.556 272.24C284.57 272.264 284.577 272.292 284.577 272.319C284.577 272.347 284.57 272.374 284.556 272.398C284.248 272.923 283.108 274.445 282.334 274.445ZM284.123 272.54C283.457 272.715 282.376 273.072 282.101 273.547C282.075 273.597 282.061 273.652 282.061 273.709C282.061 273.765 282.075 273.821 282.101 273.871C282.176 274.129 282.309 274.146 282.342 274.154C282.717 274.204 283.599 273.305 284.123 272.54Z" fill="#6776FF"/>
<path d="M283.441 272.573C282.684 272.573 281.835 272.432 281.577 272.065C281.517 271.975 281.489 271.866 281.498 271.757C281.507 271.648 281.553 271.546 281.627 271.466C281.695 271.379 281.779 271.307 281.874 271.252C281.97 271.198 282.076 271.163 282.185 271.15C283.1 271.05 284.473 272.157 284.531 272.207C284.553 272.223 284.569 272.245 284.578 272.269C284.588 272.294 284.59 272.321 284.585 272.347C284.579 272.373 284.567 272.397 284.549 272.417C284.53 272.436 284.507 272.45 284.481 272.457C284.142 272.543 283.792 272.582 283.441 272.573ZM282.326 271.433H282.218C282.147 271.437 282.079 271.458 282.017 271.492C281.955 271.527 281.901 271.575 281.86 271.633C281.744 271.783 281.794 271.857 281.819 271.882C282.052 272.224 283.325 272.357 284.099 272.232C283.586 271.818 282.976 271.543 282.326 271.433Z" fill="#6776FF"/>
<path d="M221.901 294.648C221.119 294.648 220.362 294.54 220.104 294.191C220.039 294.098 220.004 293.988 220.004 293.874C220.004 293.761 220.039 293.651 220.104 293.558C220.155 293.473 220.222 293.399 220.302 293.34C220.382 293.282 220.473 293.24 220.57 293.217C221.585 292.943 223.724 294.157 223.815 294.216C223.84 294.231 223.86 294.253 223.872 294.28C223.884 294.307 223.888 294.337 223.882 294.365C223.876 294.394 223.862 294.42 223.841 294.441C223.82 294.462 223.794 294.476 223.765 294.482C223.15 294.59 222.526 294.646 221.901 294.648ZM220.928 293.467C220.837 293.454 220.744 293.454 220.653 293.467C220.595 293.478 220.539 293.502 220.49 293.536C220.442 293.571 220.401 293.615 220.37 293.666C220.262 293.849 220.304 293.941 220.37 293.991C220.653 294.382 222.201 294.39 223.341 294.232C222.594 293.823 221.774 293.563 220.928 293.467Z" fill="#6776FF"/>
<path d="M223.743 294.482H223.685C222.944 294.149 221.48 292.818 221.596 292.135C221.596 291.969 221.738 291.769 222.137 291.728C222.286 291.71 222.436 291.722 222.579 291.765C222.723 291.808 222.855 291.88 222.969 291.977C223.751 292.618 223.91 294.266 223.918 294.332C223.921 294.358 223.917 294.383 223.907 294.407C223.897 294.43 223.881 294.45 223.86 294.465C223.824 294.486 223.783 294.492 223.743 294.482ZM222.254 291.986H222.162C221.904 291.986 221.888 292.11 221.879 292.144C221.813 292.56 222.811 293.6 223.543 294.049C223.467 293.351 223.176 292.694 222.711 292.169C222.581 292.065 222.42 292.006 222.254 292.002V291.986Z" fill="#6776FF"/>
<path d="M230.473 294.34H224.357L223.75 280.187H229.866L230.473 294.34Z" fill="#FF8B7B"/>
<path d="M289.904 267.972L284.945 271.55L273.246 262.53L278.205 258.96L289.904 267.972Z" fill="#FF8B7B"/>
<path d="M284.236 271.5L288.995 266.508C289.079 266.42 289.19 266.364 289.309 266.349C289.429 266.334 289.55 266.36 289.653 266.424L294.412 269.312C294.526 269.384 294.623 269.48 294.695 269.594C294.767 269.708 294.812 269.837 294.828 269.971C294.844 270.105 294.83 270.241 294.787 270.368C294.744 270.496 294.673 270.613 294.579 270.71C292.915 272.415 291.974 273.156 289.886 275.336C288.596 276.676 285.101 281.385 283.321 283.241C281.54 285.096 279.485 283.573 280.042 282.658C282.539 278.548 283.753 274.471 283.82 272.44C283.844 272.088 283.991 271.755 284.236 271.5Z" fill="#263238"/>
<path d="M224.394 293.633H231.05C231.172 293.632 231.291 293.673 231.386 293.748C231.481 293.824 231.548 293.93 231.575 294.049L232.781 299.483C232.81 299.614 232.809 299.75 232.778 299.88C232.747 300.011 232.686 300.133 232.602 300.237C232.517 300.341 232.41 300.424 232.288 300.481C232.166 300.538 232.033 300.566 231.899 300.564C229.494 300.564 226.016 300.39 222.988 300.39C219.443 300.39 216.389 300.581 212.237 300.581C209.741 300.581 209.034 298.043 210.082 297.81C214.866 296.77 218.769 296.654 222.904 294.107C223.347 293.813 223.863 293.649 224.394 293.633Z" fill="#263238"/>
<path d="M252.172 116.558C253.004 118.097 253.944 119.587 254.851 120.976C256.416 123.381 257.93 125.461 259.012 126.893C259.985 128.182 260.609 128.939 260.609 128.939L272.924 120.544C272.924 120.544 265.435 105.966 259.669 105.034C253.736 104.094 248.303 109.652 252.172 116.558Z" fill="#6776FF"/>
<path opacity="0.5" d="M252.172 116.558C253.004 118.097 253.944 119.587 254.851 120.976C256.416 123.381 257.93 125.461 259.012 126.893C259.985 128.182 260.609 128.939 260.609 128.939L272.924 120.544C272.924 120.544 265.435 105.966 259.669 105.034C253.736 104.094 248.303 109.652 252.172 116.558Z" fill="black"/>
<path d="M254.852 120.976C256.416 123.381 257.93 125.461 259.012 126.892C258.887 124.03 258.296 119.404 256.075 115.876C255.268 116.675 254.943 118.738 254.852 120.976Z" fill="#6776FF"/>
<path opacity="0.6" d="M254.852 120.976C256.416 123.381 257.93 125.461 259.012 126.892C258.887 124.03 258.296 119.404 256.075 115.876C255.268 116.675 254.943 118.738 254.852 120.976Z" fill="black"/>
<path d="M222.422 125.278C222.422 127.358 222.472 129.647 222.588 132.168C222.888 139.024 223.637 147.57 225.085 158.187H257.777C258.002 153.195 254.848 128.681 259.691 105.034C256.074 104.338 252.417 103.877 248.741 103.652C244.113 103.386 239.473 103.386 234.845 103.652C231.673 103.966 228.529 104.522 225.442 105.317C225.442 105.317 222.414 108.753 222.422 125.278Z" fill="#6776FF"/>
<path opacity="0.5" d="M222.422 125.278C222.422 127.358 222.472 129.647 222.588 132.168C222.888 139.024 223.637 147.57 225.085 158.187H257.777C258.002 153.195 254.848 128.681 259.691 105.034C256.074 104.338 252.417 103.877 248.741 103.652C244.113 103.386 239.473 103.386 234.845 103.652C231.673 103.966 228.529 104.522 225.442 105.317C225.442 105.317 222.414 108.753 222.422 125.278Z" fill="black"/>
<path d="M222.422 125.278C222.422 127.358 222.472 129.647 222.588 132.168C226.424 128.423 226.682 120.777 226.682 120.777L222.422 125.278Z" fill="#6776FF"/>
<path opacity="0.6" d="M222.422 125.278C222.422 127.358 222.472 129.647 222.588 132.168C226.424 128.423 226.682 120.777 226.682 120.777L222.422 125.278Z" fill="black"/>
<path d="M229.241 115.784C228.612 116.836 227.917 117.848 227.161 118.813C226.47 119.712 225.779 120.56 225.072 121.401C223.666 123.065 222.16 124.671 220.629 126.227C217.492 129.411 214.018 132.246 210.269 134.681C209.26 135.312 208.219 135.89 207.149 136.411L206.725 136.611L206.517 136.711L206.259 136.819C205.848 136.993 205.425 137.137 204.994 137.252L204.387 137.41L203.804 137.51C203.433 137.574 203.057 137.616 202.681 137.635C200.176 137.717 197.676 137.365 195.292 136.594C191.077 135.283 187.06 133.405 183.352 131.011L185.324 126.851C189.108 127.984 192.963 128.862 196.865 129.48C198.516 129.757 200.199 129.78 201.857 129.547C201.999 129.524 202.138 129.487 202.273 129.439L202.456 129.389L202.589 129.33C202.697 129.33 202.722 129.247 202.789 129.222L203.288 128.931C204.054 128.486 204.796 128 205.51 127.475C208.581 125.164 211.435 122.58 214.039 119.753C215.395 118.33 216.701 116.841 217.974 115.36C218.607 114.611 219.223 113.862 219.797 113.105C220.371 112.348 220.962 111.574 221.303 111.041L229.241 115.784Z" fill="#FF8B7B"/>
<path d="M186.221 127.974L182.161 123.148L179.398 130.204C179.398 130.204 182.901 131.868 185.631 130.903L186.221 127.974Z" fill="#FF8B7B"/>
<path d="M176.202 122.091L175.07 127.725L179.397 130.196L182.16 123.14L176.202 122.091Z" fill="#FF8B7B"/>
<path d="M234.141 112.473C233.417 118.297 220.203 130.57 220.203 130.57L208.305 121.134C211.296 116.713 214.792 112.656 218.722 109.044C227.343 101.572 235.015 105.516 234.141 112.473Z" fill="#6776FF"/>
<path opacity="0.5" d="M234.141 112.473C233.417 118.297 220.203 130.57 220.203 130.57L208.305 121.134C211.296 116.713 214.792 112.656 218.722 109.044C227.343 101.572 235.015 105.516 234.141 112.473Z" fill="black"/>
<path d="M223.832 151.788C235.706 151.788 238.418 138.358 239.042 132.592C237.543 122.84 234.069 113.496 228.833 105.133C228.768 105.031 228.73 104.915 228.721 104.794C228.712 104.674 228.732 104.553 228.781 104.442C228.829 104.331 228.904 104.234 228.998 104.158C229.093 104.083 229.205 104.032 229.324 104.01L231.928 103.528C232.076 103.503 232.228 103.523 232.366 103.583C232.503 103.644 232.62 103.743 232.702 103.869C239.85 115.31 242.188 125.012 242.945 130.004H245.075C247.255 125.262 252.056 114.453 251.665 104.326C251.658 104.218 251.675 104.109 251.715 104.008C251.755 103.907 251.817 103.816 251.897 103.742C251.977 103.667 252.072 103.612 252.176 103.579C252.28 103.547 252.389 103.537 252.497 103.553L255.293 103.827C255.473 103.839 255.642 103.917 255.768 104.046C255.894 104.175 255.968 104.346 255.975 104.526C256.383 114.286 250.866 127.824 248.745 132.126C249.468 148.052 258.33 150.806 258.33 150.806C258.548 154.766 258.373 158.738 257.806 162.664C239.042 165.709 229.69 163.853 224.34 161.64C224.756 157.638 224.007 154.834 223.832 151.788Z" fill="#6776FF"/>
<path opacity="0.3" d="M223.832 151.788C235.706 151.788 238.418 138.358 239.042 132.592C237.543 122.84 234.069 113.496 228.833 105.133C228.768 105.031 228.73 104.915 228.721 104.794C228.712 104.674 228.732 104.553 228.781 104.442C228.829 104.331 228.904 104.234 228.998 104.158C229.093 104.083 229.205 104.032 229.324 104.01L231.928 103.528C232.076 103.503 232.228 103.523 232.366 103.583C232.503 103.644 232.62 103.743 232.702 103.869C239.85 115.31 242.188 125.012 242.945 130.004H245.075C247.255 125.262 252.056 114.453 251.665 104.326C251.658 104.218 251.675 104.109 251.715 104.008C251.755 103.907 251.817 103.816 251.897 103.742C251.977 103.667 252.072 103.612 252.176 103.579C252.28 103.547 252.389 103.537 252.497 103.553L255.293 103.827C255.473 103.839 255.642 103.917 255.768 104.046C255.894 104.175 255.968 104.346 255.975 104.526C256.383 114.286 250.866 127.824 248.745 132.126C249.468 148.052 258.33 150.806 258.33 150.806C258.548 154.766 258.373 158.738 257.806 162.664C239.042 165.709 229.69 163.853 224.34 161.64C224.756 157.638 224.007 154.834 223.832 151.788Z" fill="black"/>
<path d="M223.75 280.187L224.066 287.484H230.182L229.866 280.187H223.75Z" fill="#FF5652"/>
<path d="M278.213 258.96L273.254 262.538L279.286 267.181L284.246 263.603L278.213 258.96Z" fill="#FF5652"/>
<path d="M247.513 84.1485C246.206 90.0729 245.74 93.6093 242.237 96.2054C236.97 100.116 230.014 96.2054 229.523 90.023C229.082 84.4481 231.287 75.6946 237.519 74.2135C238.891 73.8961 240.321 73.9319 241.675 74.3177C243.029 74.7035 244.263 75.4265 245.262 76.4192C246.26 77.4119 246.991 78.6417 247.384 79.9935C247.778 81.3453 247.822 82.775 247.513 84.1485Z" fill="#FF8B7B"/>
<path d="M252.792 74.954C257.993 75.0954 255.854 77.833 253.25 79.3391C253.25 79.3391 256.254 80.7786 254.706 84.2151C252.36 89.4322 247.866 95.1652 243.282 94.8491C237.574 94.458 235.951 88.2506 236.159 82.1265C233.147 79.2891 232.639 77.7248 232.173 74.3133C231.233 67.5485 235.477 63.8291 252.792 74.954Z" fill="#263238"/>
<path d="M246.098 63.5545C249.658 64.4677 252.71 66.7575 254.582 69.9203C256.455 73.0831 256.994 76.8601 256.083 80.4208L229.215 73.5644C229.665 71.7981 230.459 70.1378 231.552 68.6786C232.644 67.2194 234.014 65.9898 235.582 65.0601C237.15 64.1304 238.885 63.519 240.69 63.2606C242.494 63.0023 244.332 63.1021 246.098 63.5545Z" fill="#6776FF"/>
<path opacity="0.5" d="M246.098 63.5545C249.658 64.4677 252.71 66.7575 254.582 69.9203C256.455 73.0831 256.994 76.8601 256.083 80.4208L229.215 73.5644C229.665 71.7981 230.459 70.1378 231.552 68.6786C232.644 67.2194 234.014 65.9898 235.582 65.0601C237.15 64.1304 238.885 63.519 240.69 63.2606C242.494 63.0023 244.332 63.1021 246.098 63.5545Z" fill="white"/>
<path d="M251.406 80.4375C251.22 80.4402 251.036 80.3997 250.869 80.3191C250.701 80.2385 250.555 80.1201 250.441 79.9732C250.327 79.8263 250.249 79.655 250.213 79.4727C250.177 79.2905 250.183 79.1023 250.232 78.9231C250.606 77.4119 250.658 75.839 250.384 74.3066C250.11 72.7741 249.517 71.3164 248.643 70.0281C246.774 67.2149 243.912 65.2094 240.63 64.4116C240.318 64.3321 240.05 64.1319 239.885 63.8549C239.721 63.5779 239.673 63.2469 239.752 62.9346C239.832 62.6224 240.032 62.3545 240.309 62.1898C240.586 62.0252 240.917 61.9774 241.229 62.0568C245.103 63.0084 248.475 65.3854 250.673 68.7134C251.732 70.282 252.449 72.0553 252.779 73.9187C253.109 75.7821 253.043 77.694 252.587 79.5305C252.519 79.7914 252.366 80.0221 252.152 80.1863C251.938 80.3505 251.675 80.4389 251.406 80.4375Z" fill="#6776FF"/>
<path opacity="0.3" d="M251.406 80.4375C251.22 80.4402 251.036 80.3997 250.869 80.3191C250.701 80.2385 250.555 80.1201 250.441 79.9732C250.327 79.8263 250.249 79.655 250.213 79.4727C250.177 79.2905 250.183 79.1023 250.232 78.9231C250.606 77.4119 250.658 75.839 250.384 74.3066C250.11 72.7741 249.517 71.3164 248.643 70.0281C246.774 67.2149 243.912 65.2094 240.63 64.4116C240.318 64.3321 240.05 64.1319 239.885 63.8549C239.721 63.5779 239.673 63.2469 239.752 62.9346C239.832 62.6224 240.032 62.3545 240.309 62.1898C240.586 62.0252 240.917 61.9774 241.229 62.0568C245.103 63.0084 248.475 65.3854 250.673 68.7134C251.732 70.282 252.449 72.0553 252.779 73.9187C253.109 75.7821 253.043 77.694 252.587 79.5305C252.519 79.7914 252.366 80.0221 252.152 80.1863C251.938 80.3505 251.675 80.4389 251.406 80.4375Z" fill="white"/>
<path d="M225.494 73.9224L257.113 81.9936C257.442 82.0769 257.79 82.0265 258.082 81.8534C258.374 81.6802 258.585 81.3985 258.669 81.07C258.753 80.7401 258.703 80.3906 258.53 80.0976C258.357 79.8046 258.075 79.5918 257.746 79.5057L226.127 71.4345C225.796 71.3512 225.445 71.4025 225.152 71.5772C224.859 71.7519 224.647 72.0357 224.562 72.3664C224.521 72.5298 224.513 72.6996 224.537 72.8663C224.562 73.0329 224.619 73.1931 224.706 73.3376C224.792 73.4822 224.906 73.6082 225.042 73.7085C225.177 73.8089 225.331 73.8815 225.494 73.9224Z" fill="#6776FF"/>
<path opacity="0.3" d="M225.494 73.9224L257.113 81.9936C257.442 82.0769 257.79 82.0265 258.082 81.8534C258.374 81.6802 258.585 81.3985 258.669 81.07C258.753 80.7401 258.703 80.3906 258.53 80.0976C258.357 79.8046 258.075 79.5918 257.746 79.5057L226.127 71.4345C225.796 71.3512 225.445 71.4025 225.152 71.5772C224.859 71.7519 224.647 72.0357 224.562 72.3664C224.521 72.5298 224.513 72.6996 224.537 72.8663C224.562 73.0329 224.619 73.1931 224.706 73.3376C224.792 73.4822 224.906 73.6082 225.042 73.7085C225.177 73.8089 225.331 73.8815 225.494 73.9224Z" fill="white"/>
<path d="M239.283 83.591C239.127 85.0905 238.477 86.4956 237.435 87.585C236.054 89.0079 234.69 88.051 234.515 86.2537C234.357 84.6394 234.889 81.9518 236.545 81.2029C238.201 80.4541 239.457 81.7854 239.283 83.591Z" fill="#FF8B7B"/>
<path d="M236.667 158.187C236.667 158.187 235.959 201.688 241.426 218.746C250.088 245.764 276.249 267.648 276.249 267.648L285.601 260.899C285.601 260.899 263.817 242.41 259.823 219.67C256.237 199.225 257.76 174.904 257.76 158.204L236.667 158.187Z" fill="#6776FF"/>
<path opacity="0.3" d="M236.667 158.187C236.667 158.187 235.959 201.688 241.426 218.746C250.088 245.764 276.249 267.648 276.249 267.648L285.601 260.899C285.601 260.899 263.817 242.41 259.823 219.67C256.237 199.225 257.76 174.904 257.76 158.204L236.667 158.187Z" fill="black"/>
<path d="M242.769 165.659C243.925 173.497 239.84 195.323 238.425 202.47C236.944 189.107 236.669 173.256 236.645 164.602C239.64 162.572 242.236 162.048 242.769 165.659Z" fill="#6776FF"/>
<path opacity="0.4" d="M242.769 165.659C243.925 173.497 239.84 195.323 238.425 202.47C236.944 189.107 236.669 173.256 236.645 164.602C239.64 162.572 242.236 162.048 242.769 165.659Z" fill="black"/>
<path d="M272.246 265.675C272.205 265.675 276.091 267.963 276.091 267.963L286.3 260.591L282.905 257.987L272.246 265.675Z" fill="#6776FF"/>
<path opacity="0.4" d="M272.246 265.675C272.205 265.675 276.091 267.963 276.091 267.963L286.3 260.591L282.905 257.987L272.246 265.675Z" fill="white"/>
<path d="M225.071 158.187C225.071 158.187 215.86 197.212 215.211 215.85C214.487 236.761 221.784 286.07 221.784 286.07H232.152C232.152 286.07 233.433 236.378 233.891 217.332C234.39 196.571 246.58 158.187 246.58 158.187H225.071Z" fill="#6776FF"/>
<path opacity="0.3" d="M225.071 158.187C225.071 158.187 215.86 197.212 215.211 215.85C214.487 236.761 221.784 286.07 221.784 286.07H232.152C232.152 286.07 233.433 236.378 233.891 217.332C234.39 196.571 246.58 158.187 246.58 158.187H225.071Z" fill="black"/>
<path d="M219.787 281.943C219.746 281.943 220.378 286.244 220.378 286.244H232.984L233.325 282.409L219.787 281.943Z" fill="#6776FF"/>
<path opacity="0.4" d="M219.787 281.943C219.746 281.943 220.378 286.244 220.378 286.244H232.984L233.325 282.409L219.787 281.943Z" fill="white"/>
</svg>
